M48
; DRILL file KiCad 10.0.3 date 2026-06-28T13:11:51
; FORMAT={-:-/ absolute / metric / decimal}
; #@! TF.CreationDate,2026-06-28T13:11:51-05:00
; #@! TF.GenerationSoftware,Kicad,Pcbnew,10.0.3
; #@! TF.FileFunction,NonPlated,1,2,NPTH
FMAT,2
METRIC
; #@! TA.AperFunction,NonPlated,NPTH,ComponentDrill
T1C1.900
; #@! TA.AperFunction,NonPlated,NPTH,ComponentDrill
T2C3.000
; #@! TA.AperFunction,NonPlated,NPTH,ComponentDrill
T3C4.100
%
G90
G05
T1
X44.92Y-65.71
X44.92Y-84.76
X44.92Y-103.81
X55.08Y-65.71
X55.08Y-84.76
X55.08Y-103.81
X63.92Y-50.47
X63.92Y-69.52
X63.92Y-88.57
X74.08Y-50.47
X74.08Y-69.52
X74.08Y-88.57
X82.92Y-45.707
X82.92Y-64.757
X82.92Y-83.807
X93.08Y-45.707
X93.08Y-64.757
X93.08Y-83.807
X101.92Y-51.422
X101.92Y-70.472
X101.92Y-89.522
X112.08Y-51.422
X112.08Y-70.472
X112.08Y-89.522
X120.92Y-54.28
X120.92Y-73.33
X120.92Y-92.38
X131.08Y-54.28
X131.08Y-73.33
X131.08Y-92.38
X136.516Y-122.075
X143.015Y-104.221
X146.064Y-125.55
X152.562Y-107.696
X156.087Y-130.768
X164.41Y-136.595
X166.985Y-115.204
X172.741Y-144.23
X175.308Y-121.032
X179.272Y-152.013
T2
X46.19Y-63.17
X46.19Y-82.22
X46.19Y-101.27
X52.54Y-60.63
X52.54Y-79.68
X52.54Y-98.73
X65.19Y-47.93
X65.19Y-66.98
X65.19Y-86.03
X71.54Y-45.39
X71.54Y-64.44
X71.54Y-83.49
X84.19Y-43.167
X84.19Y-62.217
X84.19Y-81.267
X90.54Y-40.627
X90.54Y-59.677
X90.54Y-78.727
X103.19Y-48.883
X103.19Y-67.932
X103.19Y-86.983
X109.54Y-46.343
X109.54Y-65.392
X109.54Y-84.442
X122.19Y-51.74
X122.19Y-70.79
X122.19Y-89.84
X128.54Y-49.2
X128.54Y-68.25
X128.54Y-87.3
X138.579Y-120.123
X145.077Y-102.268
X145.414Y-119.908
X151.913Y-102.053
X158.585Y-129.416
X165.243Y-130.977
X169.482Y-113.852
X175.504Y-143.57
X176.141Y-115.413
X181.531Y-146.802
T3
X50.0Y-65.71
X50.0Y-84.76
X50.0Y-103.81
X69.0Y-50.47
X69.0Y-69.52
X69.0Y-88.57
X88.0Y-45.707
X88.0Y-64.757
X88.0Y-83.807
X107.0Y-51.422
X107.0Y-70.472
X107.0Y-89.522
X126.0Y-54.28
X126.0Y-73.33
X126.0Y-92.38
X141.29Y-123.812
X147.788Y-105.958
X160.249Y-133.682
X171.147Y-118.118
X176.007Y-148.121
M30
