M48
; DRILL file KiCad 10.0.3 date 2026-06-28T13:11:51
; FORMAT={-:-/ absolute / metric / decimal}
; #@! TF.CreationDate,2026-06-28T13:11:51-05:00
; #@! TF.GenerationSoftware,Kicad,Pcbnew,10.0.3
; #@! TF.FileFunction,Plated,1,2,PTH
FMAT,2
METRIC
; #@! TA.AperFunction,Plated,PTH,ViaDrill
T1C0.300
; #@! TA.AperFunction,Plated,PTH,ComponentDrill
T2C0.889
; #@! TA.AperFunction,Plated,PTH,ComponentDrill
T3C0.899
; #@! TA.AperFunction,Plated,PTH,ComponentDrill
T4C0.991
; #@! TA.AperFunction,Plated,PTH,ComponentDrill
T5C1.000
; #@! TA.AperFunction,Plated,PTH,ComponentDrill
T6C1.397
%
G90
G05
T1
X126.175Y-123.76
X127.582Y-76.417
X138.66Y-115.994
T2
X109.649Y-113.454
X109.649Y-115.994
X109.649Y-118.534
X117.269Y-126.154
X119.809Y-126.154
X122.349Y-126.154
T3
X116.634Y-103.294
X116.634Y-108.374
X122.984Y-103.294
X122.984Y-108.374
T4
X46.19Y-70.21
X46.19Y-89.26
X46.19Y-108.31
X53.81Y-70.21
X53.81Y-89.26
X53.81Y-108.31
X65.19Y-54.97
X65.19Y-74.02
X65.19Y-93.07
X72.81Y-54.97
X72.81Y-74.02
X72.81Y-93.07
X84.19Y-50.207
X84.19Y-69.257
X84.19Y-88.307
X91.81Y-50.207
X91.81Y-69.257
X91.81Y-88.307
X103.19Y-55.922
X103.19Y-74.972
X103.19Y-94.022
X110.81Y-55.922
X110.81Y-74.972
X110.81Y-94.022
X122.19Y-58.78
X122.19Y-77.83
X122.19Y-96.88
X129.81Y-58.78
X129.81Y-77.83
X129.81Y-96.88
X136.171Y-126.738
X142.669Y-108.884
X143.331Y-129.344
X149.83Y-111.49
X154.547Y-135.183
X160.788Y-139.553
X165.444Y-119.619
X170.111Y-148.095
X171.686Y-123.989
X175.009Y-153.933
T5
X137.43Y-49.2
X137.43Y-51.74
X137.43Y-54.28
X137.43Y-56.82
X137.43Y-59.36
X137.43Y-61.9
X137.43Y-64.44
X137.43Y-66.98
X137.43Y-69.52
X137.43Y-72.06
X137.43Y-74.6
X137.43Y-77.14
X152.67Y-49.2
X152.67Y-51.74
X152.67Y-54.28
X152.67Y-56.82
X152.67Y-59.36
X152.67Y-61.9
X152.67Y-64.44
X152.67Y-66.98
X152.67Y-69.52
X152.67Y-72.06
X152.67Y-74.6
X152.67Y-77.14
T6
X112.189Y-109.326
X112.189Y-122.661
X127.429Y-109.326
X127.429Y-122.661
M30
