M48
; DRILL file KiCad 10.0.3 date 2026-06-28T13:10:51
; FORMAT={-:-/ absolute / metric / decimal}
; #@! TF.CreationDate,2026-06-28T13:10:51-05:00
; #@! TF.GenerationSoftware,Kicad,Pcbnew,10.0.3
; #@! TF.FileFunction,NonPlated,1,2,NPTH
FMAT,2
METRIC
; #@! TA.AperFunction,NonPlated,NPTH,ComponentDrill
T1C1.500
; #@! TA.AperFunction,NonPlated,NPTH,ComponentDrill
T2C1.900
; #@! TA.AperFunction,NonPlated,NPTH,ComponentDrill
T3C3.000
; #@! TA.AperFunction,NonPlated,NPTH,ComponentDrill
T4C4.100
%
G90
G05
T1
X274.316Y-121.994
T2
X220.728Y-152.013
X224.692Y-121.032
X227.259Y-144.23
X233.015Y-115.204
X235.59Y-136.595
X243.913Y-130.768
X247.438Y-107.696
X253.936Y-125.55
X256.985Y-104.221
X263.484Y-122.075
X268.92Y-54.28
X268.92Y-73.33
X268.92Y-92.38
X279.08Y-54.28
X279.08Y-73.33
X279.08Y-92.38
X287.92Y-51.422
X287.92Y-70.472
X287.92Y-89.522
X298.08Y-51.422
X298.08Y-70.472
X298.08Y-89.522
X306.92Y-45.707
X306.92Y-64.757
X306.92Y-83.807
X317.08Y-45.707
X317.08Y-64.757
X317.08Y-83.807
X325.92Y-50.47
X325.92Y-69.52
X325.92Y-88.57
X336.08Y-50.47
X336.08Y-69.52
X336.08Y-88.57
X344.92Y-65.71
X344.92Y-84.76
X344.92Y-103.81
X355.08Y-65.71
X355.08Y-84.76
X355.08Y-103.81
T3
X219.598Y-149.407
X221.734Y-142.91
X224.276Y-118.222
X228.02Y-112.5
X235.174Y-133.786
X238.918Y-128.064
X247.763Y-104.875
X252.861Y-100.316
X254.261Y-122.729
X259.359Y-118.17
X270.19Y-51.74
X270.19Y-70.79
X270.19Y-89.84
X276.54Y-49.2
X276.54Y-68.25
X276.54Y-87.3
X289.19Y-48.883
X289.19Y-67.932
X289.19Y-86.983
X295.54Y-46.343
X295.54Y-65.392
X295.54Y-84.442
X308.19Y-43.167
X308.19Y-62.217
X308.19Y-81.267
X314.54Y-40.627
X314.54Y-59.677
X314.54Y-78.727
X327.19Y-47.93
X327.19Y-66.98
X327.19Y-86.03
X333.54Y-45.39
X333.54Y-64.44
X333.54Y-83.49
X346.19Y-63.17
X346.19Y-82.22
X346.19Y-101.27
X352.54Y-60.63
X352.54Y-79.68
X352.54Y-98.73
T4
X223.993Y-148.121
X228.853Y-118.118
X239.751Y-133.682
X252.212Y-105.958
X258.71Y-123.812
X274.0Y-54.28
X274.0Y-73.33
X274.0Y-92.38
X293.0Y-51.422
X293.0Y-70.472
X293.0Y-89.522
X312.0Y-45.707
X312.0Y-64.757
X312.0Y-83.807
X331.0Y-50.47
X331.0Y-69.52
X331.0Y-88.57
X350.0Y-65.71
X350.0Y-84.76
X350.0Y-103.81
M30
