M48
; DRILL file KiCad 10.0.3 date 2026-06-28T13:10:51
; FORMAT={-:-/ absolute / metric / decimal}
; #@! TF.CreationDate,2026-06-28T13:10:51-05:00
; #@! TF.GenerationSoftware,Kicad,Pcbnew,10.0.3
; #@! TF.FileFunction,Plated,1,2,PTH
FMAT,2
METRIC
; #@! TA.AperFunction,Plated,PTH,ComponentDrill
T1C0.900
; #@! TA.AperFunction,Plated,PTH,ComponentDrill
T2C0.991
%
G90
G05
T1
X272.816Y-109.144
X274.316Y-111.834
X274.316Y-114.374
X274.316Y-116.914
X274.316Y-119.454
X274.816Y-109.144
T2
X224.991Y-153.933
X228.314Y-123.989
X229.889Y-148.095
X234.556Y-119.619
X239.212Y-139.553
X245.453Y-135.183
X250.17Y-111.49
X256.669Y-129.344
X257.331Y-108.884
X263.829Y-126.738
X270.19Y-58.78
X270.19Y-77.83
X270.19Y-96.88
X276.381Y-120.494
X276.381Y-121.994
X277.81Y-58.78
X277.81Y-77.83
X277.81Y-96.88
X284.001Y-120.494
X284.001Y-121.994
X289.19Y-55.922
X289.19Y-74.972
X289.19Y-94.022
X296.81Y-55.922
X296.81Y-74.972
X296.81Y-94.022
X308.19Y-50.207
X308.19Y-69.257
X308.19Y-88.307
X315.81Y-50.207
X315.81Y-69.257
X315.81Y-88.307
X327.19Y-54.97
X327.19Y-74.02
X327.19Y-93.07
X334.81Y-54.97
X334.81Y-74.02
X334.81Y-93.07
X346.19Y-70.21
X346.19Y-89.26
X346.19Y-108.31
X353.81Y-70.21
X353.81Y-89.26
X353.81Y-108.31
M30
