%TF.GenerationSoftware,KiCad,Pcbnew,10.0.3*%
%TF.CreationDate,2026-06-28T14:11:26-05:00*%
%TF.ProjectId,gnocchi,676e6f63-6368-4692-9e6b-696361645f70,rev?*%
%TF.SameCoordinates,Original*%
%TF.FileFunction,Copper,L1,Top*%
%TF.FilePolarity,Positive*%
%FSLAX46Y46*%
G04 Gerber Fmt 4.6, Leading zero omitted, Abs format (unit mm)*
G04 Created by KiCad (PCBNEW 10.0.3) date 2026-06-28 14:11:26*
%MOMM*%
%LPD*%
G01*
G04 APERTURE LIST*
G04 Aperture macros list*
%AMRotRect*
0 Rectangle, with rotation*
0 The origin of the aperture is its center*
0 $1 length*
0 $2 width*
0 $3 Rotation angle, in degrees counterclockwise*
0 Add horizontal line*
21,1,$1,$2,0,0,$3*%
G04 Aperture macros list end*
%TA.AperFunction,ComponentPad*%
%ADD10R,1.778000X1.778000*%
%TD*%
%TA.AperFunction,SMDPad,CuDef*%
%ADD11R,0.900000X1.200000*%
%TD*%
%TA.AperFunction,ComponentPad*%
%ADD12C,1.905000*%
%TD*%
%TA.AperFunction,ComponentPad*%
%ADD13RotRect,1.778000X1.778000X35.000000*%
%TD*%
%TA.AperFunction,SMDPad,CuDef*%
%ADD14RotRect,0.900000X1.200000X35.000000*%
%TD*%
%TA.AperFunction,ComponentPad*%
%ADD15RotRect,1.778000X1.778000X20.000000*%
%TD*%
%TA.AperFunction,SMDPad,CuDef*%
%ADD16RotRect,0.900000X1.200000X20.000000*%
%TD*%
%TA.AperFunction,ComponentPad*%
%ADD17C,1.600000*%
%TD*%
%TA.AperFunction,ComponentPad*%
%ADD18RotRect,1.778000X1.778000X50.000000*%
%TD*%
%TA.AperFunction,SMDPad,CuDef*%
%ADD19RotRect,0.900000X1.200000X50.000000*%
%TD*%
%TA.AperFunction,ComponentPad*%
%ADD20C,1.700000*%
%TD*%
%TA.AperFunction,ComponentPad*%
%ADD21RotRect,1.778000X1.778000X310.000000*%
%TD*%
%TA.AperFunction,SMDPad,CuDef*%
%ADD22RotRect,0.900000X1.200000X310.000000*%
%TD*%
%TA.AperFunction,ComponentPad*%
%ADD23C,1.778000*%
%TD*%
%TA.AperFunction,ComponentPad*%
%ADD24C,2.286000*%
%TD*%
%TA.AperFunction,ComponentPad*%
%ADD25RotRect,1.778000X1.778000X325.000000*%
%TD*%
%TA.AperFunction,SMDPad,CuDef*%
%ADD26RotRect,0.900000X1.200000X325.000000*%
%TD*%
%TA.AperFunction,ComponentPad*%
%ADD27RotRect,1.778000X1.778000X340.000000*%
%TD*%
%TA.AperFunction,SMDPad,CuDef*%
%ADD28RotRect,0.900000X1.200000X340.000000*%
%TD*%
%TA.AperFunction,ViaPad*%
%ADD29C,0.600000*%
%TD*%
%TA.AperFunction,Conductor*%
%ADD30C,0.200000*%
%TD*%
G04 APERTURE END LIST*
D10*
%TO.P,D6,1*%
%TO.N,home*%
X287344884Y-54954070D03*
D11*
X289504884Y-54954070D03*
%TO.P,D6,2*%
%TO.N,mirror_ring_home*%
X292804884Y-54954070D03*
D12*
X294964884Y-54954070D03*
%TD*%
D10*
%TO.P,D2,1*%
%TO.N,bottom*%
X306344884Y-89244070D03*
D11*
X308504884Y-89244070D03*
%TO.P,D2,2*%
%TO.N,mirror_pinky_bottom*%
X311804884Y-89244070D03*
D12*
X313964884Y-89244070D03*
%TD*%
D10*
%TO.P,D11,1*%
%TO.N,bottom*%
X249344884Y-74956570D03*
D11*
X251504884Y-74956570D03*
%TO.P,D11,2*%
%TO.N,mirror_index_bottom*%
X254804884Y-74956570D03*
D12*
X256964884Y-74956570D03*
%TD*%
D10*
%TO.P,D13,1*%
%TO.N,top*%
X249344884Y-36856570D03*
D11*
X251504884Y-36856570D03*
%TO.P,D13,2*%
%TO.N,mirror_index_top*%
X254804884Y-36856570D03*
D12*
X256964884Y-36856570D03*
%TD*%
D10*
%TO.P,D8,1*%
%TO.N,bottom*%
X268344884Y-69241570D03*
D11*
X270504884Y-69241570D03*
%TO.P,D8,2*%
%TO.N,mirror_middle_bottom*%
X273804884Y-69241570D03*
D12*
X275964884Y-69241570D03*
%TD*%
D10*
%TO.P,D15,1*%
%TO.N,home*%
X230344884Y-58764070D03*
D11*
X232504884Y-58764070D03*
%TO.P,D15,2*%
%TO.N,mirror_inner_home*%
X235804884Y-58764070D03*
D12*
X237964884Y-58764070D03*
%TD*%
D13*
%TO.P,D20,1*%
%TO.N,bottom*%
X188468515Y-104923396D03*
D14*
X190237883Y-103684471D03*
%TO.P,D20,2*%
%TO.N,mirror_mid_bottom*%
X192941085Y-101791669D03*
D12*
X194710453Y-100552744D03*
%TD*%
D10*
%TO.P,D9,1*%
%TO.N,home*%
X268344884Y-50191570D03*
D11*
X270504884Y-50191570D03*
%TO.P,D9,2*%
%TO.N,mirror_middle_home*%
X273804884Y-50191570D03*
D12*
X275964884Y-50191570D03*
%TD*%
D15*
%TO.P,D18,1*%
%TO.N,bottom*%
X210325355Y-92424167D03*
D16*
X212355091Y-91685403D03*
%TO.P,D18,2*%
%TO.N,mirror_tucky_bottom*%
X215456077Y-90556737D03*
D12*
X217485813Y-89817973D03*
%TD*%
D17*
%TO.P,REF\u002A\u002A,A*%
%TO.N,P19*%
X234471284Y-92767970D03*
%TO.P,REF\u002A\u002A,B*%
%TO.N,GND*%
X234471284Y-95307970D03*
%TO.P,REF\u002A\u002A,C*%
%TO.N,P18*%
X234471284Y-97847970D03*
%TO.P,REF\u002A\u002A,D*%
%TO.N,undef*%
X234471284Y-100387970D03*
%TO.P,REF\u002A\u002A,S1*%
%TO.N,default*%
X232971284Y-90077970D03*
%TO.P,REF\u002A\u002A,S2*%
%TO.N,mirror_main_default*%
X234971284Y-90077970D03*
%TD*%
D10*
%TO.P,D14,1*%
%TO.N,bottom*%
X230344884Y-77814070D03*
D11*
X232504884Y-77814070D03*
%TO.P,D14,2*%
%TO.N,mirror_inner_bottom*%
X235804884Y-77814070D03*
D12*
X237964884Y-77814070D03*
%TD*%
D18*
%TO.P,D21,1*%
%TO.N,top*%
X185146263Y-134866699D03*
D19*
X186534684Y-133212043D03*
%TO.P,D21,2*%
%TO.N,mirror_reachy_top*%
X188655884Y-130684097D03*
D12*
X190044305Y-129029441D03*
%TD*%
D13*
%TO.P,D19,1*%
%TO.N,top*%
X199366415Y-120487296D03*
D14*
X201135783Y-119248371D03*
%TO.P,D19,2*%
%TO.N,mirror_mid_top*%
X203838985Y-117355569D03*
D12*
X205608353Y-116116644D03*
%TD*%
D10*
%TO.P,D7,1*%
%TO.N,top*%
X287344884Y-35904070D03*
D11*
X289504884Y-35904070D03*
%TO.P,D7,2*%
%TO.N,mirror_ring_top*%
X292804884Y-35904070D03*
D12*
X294964884Y-35904070D03*
%TD*%
D10*
%TO.P,D4,1*%
%TO.N,top*%
X306344884Y-51144070D03*
D11*
X308504884Y-51144070D03*
%TO.P,D4,2*%
%TO.N,mirror_pinky_top*%
X311804884Y-51144070D03*
D12*
X313964884Y-51144070D03*
%TD*%
D10*
%TO.P,D5,1*%
%TO.N,bottom*%
X287344884Y-74004070D03*
D11*
X289504884Y-74004070D03*
%TO.P,D5,2*%
%TO.N,mirror_ring_bottom*%
X292804884Y-74004070D03*
D12*
X294964884Y-74004070D03*
%TD*%
D10*
%TO.P,D10,1*%
%TO.N,top*%
X268344884Y-31141570D03*
D11*
X270504884Y-31141570D03*
%TO.P,D10,2*%
%TO.N,mirror_middle_top*%
X273804884Y-31141570D03*
D12*
X275964884Y-31141570D03*
%TD*%
D10*
%TO.P,D1,1*%
%TO.N,default*%
X236536284Y-102927970D03*
D11*
X238696284Y-102927970D03*
%TO.P,D1,2*%
%TO.N,mirror_main_default*%
X241996284Y-102927970D03*
D12*
X244156284Y-102927970D03*
%TD*%
D10*
%TO.P,D12,1*%
%TO.N,home*%
X249344884Y-55906570D03*
D11*
X251504884Y-55906570D03*
%TO.P,D12,2*%
%TO.N,mirror_index_home*%
X254804884Y-55906570D03*
D12*
X256964884Y-55906570D03*
%TD*%
D10*
%TO.P,D22,1*%
%TO.N,default*%
X236536284Y-101427970D03*
D11*
X238696284Y-101427970D03*
%TO.P,D22,2*%
%TO.N,mirror_main_default*%
X241996284Y-101427970D03*
D12*
X244156284Y-101427970D03*
%TD*%
D10*
%TO.P,D16,1*%
%TO.N,top*%
X230344884Y-39714070D03*
D11*
X232504884Y-39714070D03*
%TO.P,D16,2*%
%TO.N,mirror_inner_top*%
X235804884Y-39714070D03*
D12*
X237964884Y-39714070D03*
%TD*%
D10*
%TO.P,D3,1*%
%TO.N,home*%
X306344884Y-70194070D03*
D11*
X308504884Y-70194070D03*
%TO.P,D3,2*%
%TO.N,mirror_pinky_home*%
X311804884Y-70194070D03*
D12*
X313964884Y-70194070D03*
%TD*%
D15*
%TO.P,D17,1*%
%TO.N,top*%
X216823755Y-110278267D03*
D16*
X218853491Y-109539503D03*
%TO.P,D17,2*%
%TO.N,mirror_tucky_top*%
X221954477Y-108410837D03*
D12*
X223984213Y-107672073D03*
%TD*%
D20*
%TO.P,MCU1,1*%
%TO.N,RAW*%
X103515142Y-33134022D03*
%TO.P,MCU1,2*%
%TO.N,GND*%
X103515142Y-35674022D03*
%TO.P,MCU1,3*%
%TO.N,RST*%
X103515142Y-38214022D03*
%TO.P,MCU1,4*%
%TO.N,VCC*%
X103515142Y-40754022D03*
%TO.P,MCU1,5*%
%TO.N,P21*%
X103515142Y-43294022D03*
%TO.P,MCU1,6*%
%TO.N,P20*%
X103515142Y-45834022D03*
%TO.P,MCU1,7*%
%TO.N,P19*%
X103515142Y-48374022D03*
%TO.P,MCU1,8*%
%TO.N,P18*%
X103515142Y-50914022D03*
%TO.P,MCU1,9*%
%TO.N,P15*%
X103515142Y-53454022D03*
%TO.P,MCU1,10*%
%TO.N,P14*%
X103515142Y-55994022D03*
%TO.P,MCU1,11*%
%TO.N,P16*%
X103515142Y-58534022D03*
%TO.P,MCU1,12*%
%TO.N,P10*%
X103515142Y-61074022D03*
%TO.P,MCU1,13*%
%TO.N,P9*%
X88275142Y-61074022D03*
%TO.P,MCU1,14*%
%TO.N,P8*%
X88275142Y-58534022D03*
%TO.P,MCU1,15*%
%TO.N,P7*%
X88275142Y-55994022D03*
%TO.P,MCU1,16*%
%TO.N,P6*%
X88275142Y-53454022D03*
%TO.P,MCU1,17*%
%TO.N,P5*%
X88275142Y-50914022D03*
%TO.P,MCU1,18*%
%TO.N,P4*%
X88275142Y-48374022D03*
%TO.P,MCU1,19*%
%TO.N,P3*%
X88275142Y-45834022D03*
%TO.P,MCU1,20*%
%TO.N,P2*%
X88275142Y-43294022D03*
%TO.P,MCU1,21*%
%TO.N,GND*%
X88275142Y-40754022D03*
%TO.P,MCU1,22*%
X88275142Y-38214022D03*
%TO.P,MCU1,23*%
%TO.N,P0*%
X88275142Y-35674022D03*
%TO.P,MCU1,24*%
%TO.N,P1*%
X88275142Y-33134022D03*
%TD*%
D10*
%TO.P,D4,1*%
%TO.N,bottom*%
X16035142Y-77004022D03*
D11*
X18195142Y-77004022D03*
%TO.P,D4,2*%
%TO.N,ring_bottom*%
X21495142Y-77004022D03*
D12*
X23655142Y-77004022D03*
%TD*%
D21*
%TO.P,D20,1*%
%TO.N,top*%
X120955721Y-132029393D03*
D22*
X122344142Y-133684049D03*
%TO.P,D20,2*%
%TO.N,reachy_top*%
X124465342Y-136211995D03*
D12*
X125853763Y-137866651D03*
%TD*%
D10*
%TO.P,D8,1*%
%TO.N,home*%
X35035142Y-53191522D03*
D11*
X37195142Y-53191522D03*
%TO.P,D8,2*%
%TO.N,middle_home*%
X40495142Y-53191522D03*
D12*
X42655142Y-53191522D03*
%TD*%
D10*
%TO.P,D13,1*%
%TO.N,bottom*%
X73035142Y-80814022D03*
D11*
X75195142Y-80814022D03*
%TO.P,D13,2*%
%TO.N,inner_bottom*%
X78495142Y-80814022D03*
D12*
X80655142Y-80814022D03*
%TD*%
D10*
%TO.P,D12,1*%
%TO.N,top*%
X54035142Y-39856522D03*
D11*
X56195142Y-39856522D03*
%TO.P,D12,2*%
%TO.N,index_top*%
X59495142Y-39856522D03*
D12*
X61655142Y-39856522D03*
%TD*%
D10*
%TO.P,D14,1*%
%TO.N,home*%
X73035142Y-61764022D03*
D11*
X75195142Y-61764022D03*
%TO.P,D14,2*%
%TO.N,inner_home*%
X78495142Y-61764022D03*
D12*
X80655142Y-61764022D03*
%TD*%
D10*
%TO.P,D6,1*%
%TO.N,top*%
X16035142Y-38904022D03*
D11*
X18195142Y-38904022D03*
%TO.P,D6,2*%
%TO.N,ring_top*%
X21495142Y-38904022D03*
D12*
X23655142Y-38904022D03*
%TD*%
D23*
%TO.P,>NAME,B1A*%
%TO.N,P20*%
X67478742Y-87227922D03*
%TO.P,>NAME,B1B*%
%TO.N,GND*%
X73828742Y-87227922D03*
%TO.P,>NAME,B2A*%
X67478742Y-92307922D03*
%TO.P,>NAME,B2B*%
X73828742Y-92307922D03*
%TO.P,>NAME,H1*%
X68113742Y-110087922D03*
%TO.P,>NAME,H2*%
%TO.N,P14*%
X70653742Y-110087922D03*
%TO.P,>NAME,H3*%
%TO.N,VCC*%
X73193742Y-110087922D03*
D24*
%TO.P,>NAME,MOUN*%
%TO.N,GND*%
X63033742Y-93260422D03*
X63033742Y-106595422D03*
X78273742Y-93260422D03*
X78273742Y-106595422D03*
D23*
%TO.P,>NAME,V1*%
X60493742Y-97387922D03*
%TO.P,>NAME,V2*%
%TO.N,P15*%
X60493742Y-99927922D03*
%TO.P,>NAME,V3*%
%TO.N,VCC*%
X60493742Y-102467922D03*
%TD*%
D25*
%TO.P,D19,1*%
%TO.N,bottom*%
X116289573Y-103552696D03*
D26*
X118058941Y-104791621D03*
%TO.P,D19,2*%
%TO.N,mid_bottom*%
X120762143Y-106684423D03*
D12*
X122531511Y-107923348D03*
%TD*%
D25*
%TO.P,D18,1*%
%TO.N,top*%
X105391673Y-119116596D03*
D26*
X107161041Y-120355521D03*
%TO.P,D18,2*%
%TO.N,mid_top*%
X109864243Y-122248323D03*
D12*
X111633611Y-123487248D03*
%TD*%
D10*
%TO.P,D1,1*%
%TO.N,bottom*%
X-2964858Y-92244022D03*
D11*
X-804858Y-92244022D03*
%TO.P,D1,2*%
%TO.N,pinky_bottom*%
X2495142Y-92244022D03*
D12*
X4655142Y-92244022D03*
%TD*%
D10*
%TO.P,D15,1*%
%TO.N,top*%
X73035142Y-42714022D03*
D11*
X75195142Y-42714022D03*
%TO.P,D15,2*%
%TO.N,inner_top*%
X78495142Y-42714022D03*
D12*
X80655142Y-42714022D03*
%TD*%
D10*
%TO.P,D11,1*%
%TO.N,home*%
X54035142Y-58906522D03*
D11*
X56195142Y-58906522D03*
%TO.P,D11,2*%
%TO.N,index_home*%
X59495142Y-58906522D03*
D12*
X61655142Y-58906522D03*
%TD*%
D10*
%TO.P,D7,1*%
%TO.N,bottom*%
X35035142Y-72241522D03*
D11*
X37195142Y-72241522D03*
%TO.P,D7,2*%
%TO.N,middle_bottom*%
X40495142Y-72241522D03*
D12*
X42655142Y-72241522D03*
%TD*%
D10*
%TO.P,D3,1*%
%TO.N,top*%
X-2964858Y-54144022D03*
D11*
X-804858Y-54144022D03*
%TO.P,D3,2*%
%TO.N,pinky_top*%
X2495142Y-54144022D03*
D12*
X4655142Y-54144022D03*
%TD*%
D10*
%TO.P,D10,1*%
%TO.N,bottom*%
X54035142Y-77956522D03*
D11*
X56195142Y-77956522D03*
%TO.P,D10,2*%
%TO.N,index_bottom*%
X59495142Y-77956522D03*
D12*
X61655142Y-77956522D03*
%TD*%
D27*
%TO.P,D17,1*%
%TO.N,bottom*%
X93514213Y-92817925D03*
D28*
X95543949Y-93556689D03*
%TO.P,D17,2*%
%TO.N,tucky_bottom*%
X98644935Y-94685355D03*
D12*
X100674671Y-95424119D03*
%TD*%
D10*
%TO.P,D5,1*%
%TO.N,home*%
X16035142Y-57954022D03*
D11*
X18195142Y-57954022D03*
%TO.P,D5,2*%
%TO.N,ring_home*%
X21495142Y-57954022D03*
D12*
X23655142Y-57954022D03*
%TD*%
D27*
%TO.P,D16,1*%
%TO.N,top*%
X87015813Y-110672025D03*
D28*
X89045549Y-111410789D03*
%TO.P,D16,2*%
%TO.N,tucky_top*%
X92146535Y-112539455D03*
D12*
X94176271Y-113278219D03*
%TD*%
D10*
%TO.P,D2,1*%
%TO.N,home*%
X-2964858Y-73194022D03*
D11*
X-804858Y-73194022D03*
%TO.P,D2,2*%
%TO.N,pinky_home*%
X2495142Y-73194022D03*
D12*
X4655142Y-73194022D03*
%TD*%
D10*
%TO.P,D9,1*%
%TO.N,top*%
X35035142Y-34141522D03*
D11*
X37195142Y-34141522D03*
%TO.P,D9,2*%
%TO.N,middle_top*%
X40495142Y-34141522D03*
D12*
X42655142Y-34141522D03*
%TD*%
D29*
%TO.N,P20*%
X78427642Y-60350722D03*
%TO.N,P15*%
X89505442Y-99927922D03*
%TO.N,top*%
X77020042Y-107694322D03*
%TD*%
%TO.N,home*%
D30*
X255097984Y-53545470D02*
X263800284Y-53545470D01*
X276019084Y-54954070D02*
X271256584Y-50191570D01*
X270504884Y-50191570D02*
X268344884Y-50191570D01*
X308504884Y-70194070D02*
X306344884Y-70194070D01*
X251504884Y-55906570D02*
X252736884Y-55906570D01*
X234923384Y-57097270D02*
X233256584Y-58764070D01*
X268344884Y-50191570D02*
X267154184Y-50191570D01*
X249344884Y-55906570D02*
X248154184Y-55906570D01*
X251504884Y-55906570D02*
X249344884Y-55906570D01*
X287344884Y-54954070D02*
X276019084Y-54954070D01*
X232504884Y-58764070D02*
X233256584Y-58764070D01*
X248154184Y-55906570D02*
X246963484Y-57097270D01*
X246963484Y-57097270D02*
X234923384Y-57097270D01*
X232504884Y-58764070D02*
X230344884Y-58764070D01*
X252736884Y-55906570D02*
X255097984Y-53545470D01*
X263800284Y-53545470D02*
X267154184Y-50191570D01*
X270504884Y-50191570D02*
X271256584Y-50191570D01*
X289504884Y-54954070D02*
X287344884Y-54954070D01*
%TO.N,mirror_ring_home*%
X294964884Y-54954070D02*
X292804884Y-54954070D01*
%TO.N,bottom*%
X226736284Y-77814070D02*
X215057784Y-89492570D01*
X287344884Y-74004070D02*
X276019084Y-74004070D01*
X276019084Y-74004070D02*
X271256584Y-69241570D01*
X190237884Y-103684470D02*
X189491884Y-104206870D01*
X232504884Y-77814070D02*
X230344884Y-77814070D01*
X210325384Y-92424170D02*
X208799084Y-92979670D01*
X211340184Y-92054770D02*
X211340184Y-92054670D01*
X308504884Y-89244070D02*
X306344884Y-89244070D01*
X270504884Y-69241570D02*
X271256584Y-69241570D01*
X208799084Y-92979570D02*
X208799084Y-92979670D01*
X189491784Y-103870270D02*
X191608584Y-101753470D01*
X263800284Y-72595470D02*
X267154184Y-69241570D01*
X251504884Y-74956570D02*
X249344884Y-74956570D01*
X189491784Y-104206770D02*
X189185084Y-104206770D01*
X189491884Y-104206870D02*
X189491784Y-104206770D01*
X270504884Y-69241570D02*
X268344884Y-69241570D01*
X251504884Y-74956570D02*
X252736884Y-74956570D01*
X212355084Y-91685370D02*
X211340184Y-92054770D01*
X232504884Y-77814070D02*
X233736884Y-77814070D01*
X230344884Y-77814070D02*
X226736284Y-77814070D01*
X213369984Y-91052870D02*
X213369984Y-91315970D01*
X252736884Y-74956570D02*
X255097984Y-72595470D01*
X215057784Y-89492570D02*
X214930284Y-89492570D01*
X255097984Y-72595470D02*
X263800284Y-72595470D01*
X233736884Y-77814070D02*
X236594384Y-74956570D01*
X210694884Y-92054670D02*
X210325384Y-92424170D01*
X236594384Y-74956570D02*
X249344884Y-74956570D01*
X268344884Y-69241570D02*
X267154184Y-69241570D01*
X212355084Y-91685370D02*
X213369984Y-91315970D01*
X191608584Y-101753470D02*
X191608584Y-101626970D01*
X189491784Y-104206770D02*
X189491784Y-103870270D01*
X211340184Y-92054670D02*
X210694884Y-92054670D01*
X214930284Y-89492570D02*
X213369984Y-91052870D01*
X189185084Y-104206770D02*
X188468484Y-104923370D01*
X289504884Y-74004070D02*
X287344884Y-74004070D01*
X200255984Y-92979570D02*
X208799084Y-92979570D01*
X191608584Y-101626970D02*
X200255984Y-92979570D01*
%TO.N,mirror_pinky_bottom*%
X313964884Y-89244070D02*
X311804884Y-89244070D01*
%TO.N,mirror_index_bottom*%
X256964884Y-74956570D02*
X254804884Y-74956570D01*
%TO.N,top*%
X186534684Y-133212070D02*
X186000784Y-133848270D01*
X186000784Y-133848270D02*
X185978484Y-133870570D01*
X185978484Y-133874770D02*
X185978584Y-133874870D01*
X218853484Y-109539470D02*
X217838584Y-109908870D01*
X289504884Y-35904070D02*
X287344884Y-35904070D01*
X251504884Y-36856570D02*
X249344884Y-36856570D01*
X268344884Y-31141570D02*
X267154184Y-31141570D01*
X270504884Y-31141570D02*
X271256584Y-31141570D01*
X276019084Y-35904070D02*
X271256584Y-31141570D01*
X201135784Y-119248370D02*
X200389784Y-119770770D01*
X262852484Y-35443270D02*
X253669884Y-35443270D01*
X267154184Y-31141570D02*
X262852484Y-35443270D01*
X232504884Y-39714070D02*
X230344884Y-39714070D01*
X217838584Y-109908870D02*
X217838584Y-109908770D01*
X233736884Y-39714070D02*
X236594384Y-36856570D01*
X308504884Y-51144070D02*
X306344884Y-51144070D01*
X217838584Y-109908770D02*
X217193284Y-109908770D01*
X185146284Y-134866670D02*
X185978584Y-133874870D01*
X287344884Y-35904070D02*
X276019084Y-35904070D01*
X200389784Y-119770770D02*
X200389684Y-119770670D01*
X185978484Y-133870570D02*
X185978484Y-133874770D01*
X217193284Y-109908770D02*
X216823784Y-110278270D01*
X253669884Y-35443270D02*
X252256584Y-36856570D01*
X270504884Y-31141570D02*
X268344884Y-31141570D01*
X236594384Y-36856570D02*
X249344884Y-36856570D01*
X200389684Y-119770670D02*
X200082984Y-119770670D01*
X200082984Y-119770670D02*
X199366384Y-120487270D01*
X251504884Y-36856570D02*
X252256584Y-36856570D01*
X232504884Y-39714070D02*
X233736884Y-39714070D01*
%TO.N,mirror_index_top*%
X256964884Y-36856570D02*
X254804884Y-36856570D01*
%TO.N,mirror_middle_bottom*%
X275964884Y-69241570D02*
X273804884Y-69241570D01*
%TO.N,mirror_inner_home*%
X237964884Y-58764070D02*
X235804884Y-58764070D01*
%TO.N,mirror_mid_bottom*%
X192941084Y-101791670D02*
X193687084Y-101269270D01*
X194403584Y-100552770D02*
X193687084Y-101269270D01*
X194710484Y-100552770D02*
X194403584Y-100552770D01*
%TO.N,mirror_middle_home*%
X275964884Y-50191570D02*
X273804884Y-50191570D01*
%TO.N,mirror_tucky_bottom*%
X216470984Y-90187470D02*
X216470984Y-90187370D01*
X217116284Y-90187470D02*
X216470984Y-90187470D01*
X215456084Y-90556770D02*
X216470984Y-90187370D01*
X217485784Y-89817970D02*
X217116284Y-90187470D01*
%TO.N,default*%
X238696284Y-102927970D02*
X236536284Y-102927970D01*
X238696284Y-101427970D02*
X236536284Y-101427970D01*
%TO.N,mirror_main_default*%
X244156284Y-102927970D02*
X241996284Y-102927970D01*
X241996284Y-101427970D02*
X244156284Y-101427970D01*
%TO.N,mirror_inner_bottom*%
X237964884Y-77814070D02*
X235804884Y-77814070D01*
%TO.N,mirror_reachy_top*%
X188655884Y-130684070D02*
X189189784Y-130047870D01*
X190044284Y-129029470D02*
X189189684Y-129884070D01*
X189189684Y-130047770D02*
X189189784Y-130047870D01*
X189189684Y-129884070D02*
X189189684Y-130047770D01*
%TO.N,mirror_mid_top*%
X205608384Y-116116670D02*
X205301484Y-116116670D01*
X203838984Y-117355570D02*
X204584984Y-116833170D01*
X205301484Y-116116670D02*
X204584984Y-116833170D01*
%TO.N,mirror_ring_top*%
X294964884Y-35904070D02*
X292804884Y-35904070D01*
%TO.N,mirror_pinky_top*%
X313964884Y-51144070D02*
X311804884Y-51144070D01*
%TO.N,mirror_ring_bottom*%
X294964884Y-74004070D02*
X292804884Y-74004070D01*
%TO.N,mirror_middle_top*%
X275964884Y-31141570D02*
X273804884Y-31141570D01*
%TO.N,mirror_index_home*%
X256964884Y-55906570D02*
X254804884Y-55906570D01*
%TO.N,mirror_inner_top*%
X237964884Y-39714070D02*
X235804884Y-39714070D01*
%TO.N,mirror_pinky_home*%
X313964884Y-70194070D02*
X311804884Y-70194070D01*
%TO.N,mirror_tucky_top*%
X221954484Y-108410870D02*
X222969384Y-108041470D01*
X223338784Y-107672070D02*
X222969384Y-108041470D01*
X223984184Y-107672070D02*
X223338784Y-107672070D01*
%TO.N,GND*%
X67478742Y-92307922D02*
X73828742Y-92307922D01*
X64621242Y-106595422D02*
X68113742Y-110087922D01*
X78273742Y-93260422D02*
X74781242Y-93260422D01*
X66526242Y-93260422D02*
X67478742Y-92307922D01*
X63033742Y-106595422D02*
X64621242Y-106595422D01*
X88275142Y-38214022D02*
X90815142Y-35674022D01*
X74781242Y-93260422D02*
X73828742Y-92307922D01*
X63033742Y-93260422D02*
X66526242Y-93260422D01*
X90815142Y-35674022D02*
X103515142Y-35674022D01*
%TO.N,VCC*%
X60493742Y-102467922D02*
X65573742Y-102467922D01*
X65573742Y-102467922D02*
X73193742Y-110087922D01*
%TO.N,P20*%
X94625142Y-54724022D02*
X87908742Y-54724022D01*
X87908742Y-54724022D02*
X82282042Y-60350722D01*
X82282042Y-60350722D02*
X78427642Y-60350722D01*
X103515142Y-45834022D02*
X94625142Y-54724022D01*
%TO.N,P15*%
X60493742Y-99927922D02*
X89505442Y-99927922D01*
%TO.N,bottom*%
X18195142Y-77004022D02*
X16035142Y-77004022D01*
X33844442Y-72241522D02*
X30495242Y-75590722D01*
X43661842Y-77956522D02*
X54035142Y-77956522D01*
X117312842Y-104269322D02*
X117006142Y-104269322D01*
X30495242Y-75590722D02*
X20360142Y-75590722D01*
X83214442Y-83488922D02*
X78621742Y-83488922D01*
X59804342Y-80814022D02*
X56946842Y-77956522D01*
X4162942Y-88191322D02*
X110242Y-92244022D01*
X16035142Y-77004022D02*
X14534742Y-77004022D01*
X14534742Y-77004022D02*
X4162942Y-87375822D01*
X75195142Y-80814022D02*
X73035142Y-80814022D01*
X105220642Y-102749322D02*
X115142142Y-102749322D01*
X95543942Y-93556722D02*
X96558842Y-93926122D01*
X94529042Y-93187422D02*
X93883742Y-93187422D01*
X56195142Y-77956522D02*
X56946842Y-77956522D01*
X4162942Y-87375822D02*
X4162942Y-88191322D01*
X37946842Y-72241522D02*
X43661842Y-77956522D01*
X117312942Y-104269222D02*
X117312842Y-104269322D01*
X110242Y-92244022D02*
X-804858Y-92244022D01*
X96558842Y-94087522D02*
X105220642Y-102749322D01*
X78621742Y-83488922D02*
X75946842Y-80814022D01*
X91987942Y-92262422D02*
X83214442Y-83488922D01*
X37195142Y-72241522D02*
X37946842Y-72241522D01*
X20360142Y-75590722D02*
X18946842Y-77004022D01*
X96558842Y-93926122D02*
X96558842Y-94087522D01*
X93883742Y-93187422D02*
X93514242Y-92817922D01*
X-804858Y-92244022D02*
X-2964858Y-92244022D01*
X118058942Y-104791622D02*
X117312942Y-104269222D01*
X93514242Y-92817922D02*
X91987942Y-92262422D01*
X35035142Y-72241522D02*
X33844442Y-72241522D01*
X73035142Y-80814022D02*
X59804342Y-80814022D01*
X18195142Y-77004022D02*
X18946842Y-77004022D01*
X37195142Y-72241522D02*
X35035142Y-72241522D01*
X117006142Y-104269322D02*
X116289542Y-103552722D01*
X75195142Y-80814022D02*
X75946842Y-80814022D01*
X95543942Y-93556722D02*
X94529042Y-93187322D01*
X56195142Y-77956522D02*
X54035142Y-77956522D01*
X94529042Y-93187322D02*
X94529042Y-93187422D01*
X116289542Y-103552722D02*
X115142142Y-102749322D01*
%TO.N,ring_bottom*%
X23655142Y-77004022D02*
X21495142Y-77004022D01*
%TO.N,top*%
X122344142Y-133684022D02*
X121810242Y-133047822D01*
X107161042Y-120355522D02*
X106415042Y-119833122D01*
X85489542Y-110116522D02*
X85489542Y-110116622D01*
X75195142Y-42714022D02*
X73035142Y-42714022D01*
X89045542Y-111410822D02*
X88030642Y-111041422D01*
X87385342Y-111041522D02*
X87015842Y-110672022D01*
X90060442Y-111941622D02*
X96432042Y-118313222D01*
X89045542Y-111410822D02*
X90060442Y-111780222D01*
X56195142Y-39856522D02*
X56946842Y-39856522D01*
X96432042Y-118313222D02*
X104244242Y-118313222D01*
X20360142Y-37490722D02*
X18946842Y-38904022D01*
X121787942Y-133025522D02*
X121787942Y-133021322D01*
X90060442Y-111780222D02*
X90060442Y-111941622D01*
X120955742Y-132029422D02*
X121788042Y-133021222D01*
X-804858Y-54144022D02*
X-2964858Y-54144022D01*
X67664842Y-38534422D02*
X71844442Y-42714022D01*
X85489542Y-110116622D02*
X79442342Y-110116622D01*
X106414942Y-119833222D02*
X106108242Y-119833222D01*
X79442342Y-110116622D02*
X77020042Y-107694322D01*
X18195142Y-38904022D02*
X18946842Y-38904022D01*
X73035142Y-42714022D02*
X71844442Y-42714022D01*
X121810242Y-133047822D02*
X121787942Y-133025522D01*
X121787942Y-133021322D02*
X121788042Y-133021222D01*
X35035142Y-34141522D02*
X33844442Y-34141522D01*
X37195142Y-34141522D02*
X37946842Y-34141522D01*
X56195142Y-39856522D02*
X54035142Y-39856522D01*
X88030642Y-111041522D02*
X87385342Y-111041522D01*
X56946842Y-39856522D02*
X58268942Y-38534422D01*
X43661842Y-39856522D02*
X37946842Y-34141522D01*
X106108242Y-119833222D02*
X105391642Y-119116622D01*
X105391642Y-119116622D02*
X104244242Y-118313222D01*
X37195142Y-34141522D02*
X35035142Y-34141522D01*
X88030642Y-111041422D02*
X88030642Y-111041522D01*
X54035142Y-39856522D02*
X43661842Y-39856522D01*
X18195142Y-38904022D02*
X16035142Y-38904022D01*
X33844442Y-34141522D02*
X30495242Y-37490722D01*
X106415042Y-119833122D02*
X106414942Y-119833222D01*
X58268942Y-38534422D02*
X67664842Y-38534422D01*
X87015842Y-110672022D02*
X85489542Y-110116522D01*
X30495242Y-37490722D02*
X20360142Y-37490722D01*
%TO.N,reachy_top*%
X124999142Y-136848322D02*
X124999242Y-136848222D01*
X125853742Y-137866622D02*
X124999142Y-137012022D01*
X124465342Y-136212022D02*
X124999242Y-136848222D01*
X124999142Y-137012022D02*
X124999142Y-136848322D01*
%TO.N,home*%
X4076742Y-69189722D02*
X72442Y-73194022D01*
X18195142Y-57954022D02*
X19427142Y-57954022D01*
X31443042Y-55592922D02*
X33844442Y-53191522D01*
X67664842Y-57584422D02*
X71844442Y-61764022D01*
X72442Y-73194022D02*
X-804858Y-73194022D01*
X37195142Y-53191522D02*
X35035142Y-53191522D01*
X19427142Y-57954022D02*
X21788242Y-55592922D01*
X75195142Y-61764022D02*
X73035142Y-61764022D01*
X14534742Y-57954022D02*
X4076742Y-68412022D01*
X35035142Y-53191522D02*
X33844442Y-53191522D01*
X54035142Y-58906522D02*
X43661842Y-58906522D01*
X4076742Y-68412022D02*
X4076742Y-69189722D01*
X16035142Y-57954022D02*
X14534742Y-57954022D01*
X-804858Y-73194022D02*
X-2964858Y-73194022D01*
X18195142Y-57954022D02*
X16035142Y-57954022D01*
X56195142Y-58906522D02*
X54035142Y-58906522D01*
X56195142Y-58906522D02*
X56946842Y-58906522D01*
X56946842Y-58906522D02*
X58268942Y-57584422D01*
X73035142Y-61764022D02*
X71844442Y-61764022D01*
X21788242Y-55592922D02*
X31443042Y-55592922D01*
X37195142Y-53191522D02*
X37946842Y-53191522D01*
X43661842Y-58906522D02*
X37946842Y-53191522D01*
X58268942Y-57584422D02*
X67664842Y-57584422D01*
%TO.N,middle_home*%
X42655142Y-53191522D02*
X40495142Y-53191522D01*
%TO.N,inner_bottom*%
X80655142Y-80814022D02*
X78495142Y-80814022D01*
%TO.N,index_top*%
X61655142Y-39856522D02*
X59495142Y-39856522D01*
%TO.N,inner_home*%
X80655142Y-61764022D02*
X78495142Y-61764022D01*
%TO.N,ring_top*%
X23655142Y-38904022D02*
X21495142Y-38904022D01*
%TO.N,mid_bottom*%
X120762142Y-106684422D02*
X121508142Y-107206822D01*
X122531542Y-107923322D02*
X122224642Y-107923322D01*
X122224642Y-107923322D02*
X121508142Y-107206822D01*
%TO.N,mid_top*%
X111326742Y-123487222D02*
X110610242Y-122770722D01*
X109864242Y-122248322D02*
X110610242Y-122770722D01*
X111633642Y-123487222D02*
X111326742Y-123487222D01*
%TO.N,pinky_bottom*%
X4655142Y-92244022D02*
X2495142Y-92244022D01*
%TO.N,inner_top*%
X80655142Y-42714022D02*
X78495142Y-42714022D01*
%TO.N,index_home*%
X61655142Y-58906522D02*
X59495142Y-58906522D01*
%TO.N,middle_bottom*%
X42655142Y-72241522D02*
X40495142Y-72241522D01*
%TO.N,pinky_top*%
X4655142Y-54144022D02*
X2495142Y-54144022D01*
%TO.N,index_bottom*%
X61655142Y-77956522D02*
X59495142Y-77956522D01*
%TO.N,tucky_bottom*%
X100029242Y-95424122D02*
X99659842Y-95054722D01*
X98644942Y-94685322D02*
X99659842Y-95054722D01*
X100674642Y-95424122D02*
X100029242Y-95424122D01*
%TO.N,ring_home*%
X23655142Y-57954022D02*
X21495142Y-57954022D01*
%TO.N,tucky_top*%
X93530842Y-113278222D02*
X93161442Y-112908822D01*
X92146542Y-112539422D02*
X93161442Y-112908822D01*
X94176242Y-113278222D02*
X93530842Y-113278222D01*
%TO.N,pinky_home*%
X4655142Y-73194022D02*
X2495142Y-73194022D01*
%TO.N,middle_top*%
X42655142Y-34141522D02*
X40495142Y-34141522D01*
%TD*%
M02*
