%TF.GenerationSoftware,KiCad,Pcbnew,10.0.3*%
%TF.CreationDate,2026-06-28T14:11:26-05:00*%
%TF.ProjectId,gnocchi,676e6f63-6368-4692-9e6b-696361645f70,rev?*%
%TF.SameCoordinates,Original*%
%TF.FileFunction,Profile,NP*%
%FSLAX46Y46*%
G04 Gerber Fmt 4.6, Leading zero omitted, Abs format (unit mm)*
G04 Created by KiCad (PCBNEW 10.0.3) date 2026-06-28 14:11:26*
%MOMM*%
%LPD*%
G01*
G04 APERTURE LIST*
%TA.AperFunction,Profile*%
%ADD10C,0.150000*%
%TD*%
G04 APERTURE END LIST*
D10*
X167391762Y-132650948D02*
G75*
G02*
X167022038Y-128424491I1928222J2298078D01*
G01*
X167391762Y-132650948D02*
X183516997Y-146181627D01*
X171892439Y-98187934D02*
G75*
G02*
X172629154Y-94009731I2457345J1720764D01*
G01*
X171892439Y-98187934D02*
X181317847Y-111648811D01*
X180552670Y-112299216D02*
X167021991Y-128424452D01*
X180552670Y-112299216D02*
G75*
G02*
X181317846Y-111648810I2298214J-1928454D01*
G01*
X187743493Y-145811857D02*
G75*
G02*
X183517029Y-146181589I-2298109J1928487D01*
G01*
X187743493Y-145811857D02*
X200123637Y-131057776D01*
X189872317Y-81935964D02*
X172629166Y-94009748D01*
X189872317Y-81935964D02*
G75*
G02*
X194050535Y-82672668I1720767J-2457406D01*
G01*
X194050502Y-82672691D02*
X199021680Y-89772268D01*
X196057397Y-81627968D02*
G75*
G02*
X197850416Y-77782836I2818987J1026098D01*
G01*
X196057397Y-81627968D02*
X199021680Y-89772268D01*
X200123637Y-131057776D02*
G75*
G02*
X200508575Y-130705050I1532547J-1286094D01*
G01*
X200508573Y-130705047D02*
X214819299Y-120684569D01*
X214819299Y-120684569D02*
G75*
G02*
X215282409Y-120443478I1146985J-1637901D01*
G01*
X215282412Y-120443488D02*
X233380971Y-113856151D01*
X217630944Y-70583306D02*
X197850414Y-77782830D01*
X217630944Y-70583306D02*
G75*
G02*
X218640732Y-70402412I1026140J-2819264D01*
G01*
X220629884Y-24689070D02*
G75*
G02*
X223629884Y-21689070I3000000J0D01*
G01*
X220629884Y-68402457D02*
G75*
G02*
X218640732Y-70402441I-2000000J-13D01*
G01*
X220629884Y-68402457D02*
X220629884Y-24689070D01*
X226740091Y-86839070D02*
X226821257Y-86839070D01*
X226740091Y-86839070D02*
X226821257Y-87062071D01*
X226821257Y-86839070D02*
X226821257Y-87062071D01*
X235232108Y-111886623D02*
G75*
G02*
X233380955Y-113856106I-2877124J849553D01*
G01*
X235232108Y-111886623D02*
G75*
G02*
X237150240Y-110452957I1918076J-566247D01*
G01*
X237150240Y-110452989D02*
X250871257Y-110452990D01*
X238112175Y-21689070D02*
X223629884Y-21689070D01*
X239919259Y-20546070D02*
G75*
G02*
X238112175Y-21689062I-1807075J857000D01*
G01*
X239919259Y-20546070D02*
G75*
G02*
X242629884Y-18831570I2710625J-1285500D01*
G01*
X253860583Y-86150138D02*
G75*
G02*
X253871258Y-86402990I-2990999J-252932D01*
G01*
X253860583Y-86150138D02*
G75*
G02*
X255853466Y-83981553I1992901J168568D01*
G01*
X253871257Y-107452990D02*
G75*
G02*
X250871257Y-110453043I-3000073J20D01*
G01*
X253871257Y-107452990D02*
X253871257Y-86402990D01*
X255853466Y-83981570D02*
X263679884Y-83981570D01*
X256629884Y-18831570D02*
X242629884Y-18831570D01*
X258629884Y-16116570D02*
X258629884Y-16831570D01*
X258629884Y-16116570D02*
G75*
G02*
X261629884Y-13116570I3000000J0D01*
G01*
X258629884Y-16831570D02*
G75*
G02*
X256629884Y-18831570I-2000000J0D01*
G01*
X266679884Y-80266570D02*
G75*
G02*
X268679884Y-78266570I2000000J0D01*
G01*
X266679884Y-80981570D02*
G75*
G02*
X263679884Y-83981570I-3000000J0D01*
G01*
X266679884Y-80981570D02*
X266679884Y-80266570D01*
X268679884Y-78266570D02*
X277629884Y-78266570D01*
X277629884Y-78266570D02*
X277629884Y-80029070D01*
X280629884Y-83029070D02*
G75*
G02*
X277629884Y-80029070I0J3000000D01*
G01*
X280629884Y-83029070D02*
X294629884Y-83029070D01*
X282679884Y-13116570D02*
X261629884Y-13116570D01*
X282679884Y-13116570D02*
G75*
G02*
X285679884Y-16116570I0J-3000000D01*
G01*
X285679884Y-17879070D02*
X285679884Y-16116570D01*
X294629884Y-83029070D02*
G75*
G02*
X296629884Y-85029070I0J-2000000D01*
G01*
X296629884Y-85029070D02*
X296629884Y-95269070D01*
X299629884Y-98269070D02*
G75*
G02*
X296629884Y-95269070I0J3000000D01*
G01*
X299629884Y-98269070D02*
X320679884Y-98269070D01*
X301679884Y-17879070D02*
X285679884Y-17879070D01*
X301679884Y-17879070D02*
G75*
G02*
X304679884Y-20879070I0J-3000000D01*
G01*
X304679884Y-31119070D02*
X304679884Y-20879070D01*
X306679884Y-33119070D02*
G75*
G02*
X304679884Y-31119070I0J2000000D01*
G01*
X320679884Y-33119070D02*
X306679884Y-33119070D01*
X320679884Y-33119070D02*
G75*
G02*
X323679884Y-36119070I0J-3000000D01*
G01*
X323679884Y-95269070D02*
G75*
G02*
X320679884Y-98269070I-3000000J0D01*
G01*
X323679884Y-95269070D02*
X323679884Y-36119070D01*
X-12679858Y-39119022D02*
G75*
G02*
X-9679858Y-36119022I3000000J0D01*
G01*
X-12679858Y-98269022D02*
X-12679858Y-39119022D01*
X-9679858Y-101269022D02*
G75*
G02*
X-12679858Y-98269022I0J3000000D01*
G01*
X-9679858Y-101269022D02*
X11370142Y-101269022D01*
X4320142Y-36119022D02*
X-9679858Y-36119022D01*
X6320142Y-23879022D02*
X6320142Y-34119022D01*
X6320142Y-23879022D02*
G75*
G02*
X9320142Y-20879022I3000000J0D01*
G01*
X6320142Y-34119022D02*
G75*
G02*
X4320142Y-36119022I-2000000J0D01*
G01*
X14370142Y-88029022D02*
G75*
G02*
X16370142Y-86029022I2000000J0D01*
G01*
X14370142Y-98269022D02*
G75*
G02*
X11370142Y-101269022I-3000000J0D01*
G01*
X14370142Y-98269022D02*
X14370142Y-88029022D01*
X16370142Y-86029022D02*
X30370142Y-86029022D01*
X25320142Y-19116522D02*
X25320142Y-20879022D01*
X25320142Y-19116522D02*
G75*
G02*
X28320142Y-16116522I3000000J0D01*
G01*
X25320142Y-20879022D02*
X9320142Y-20879022D01*
X33370142Y-81266522D02*
X42320142Y-81266522D01*
X33370142Y-83029022D02*
G75*
G02*
X30370142Y-86029022I-3000000J0D01*
G01*
X33370142Y-83029022D02*
X33370142Y-81266522D01*
X42320142Y-81266522D02*
G75*
G02*
X44320142Y-83266522I0J-2000000D01*
G01*
X44320142Y-83266522D02*
X44320142Y-83981522D01*
X47320142Y-86981522D02*
G75*
G02*
X44320142Y-83981522I0J3000000D01*
G01*
X47320142Y-86981522D02*
X55146560Y-86981522D01*
X49370142Y-16116522D02*
X28320142Y-16116522D01*
X49370142Y-16116522D02*
G75*
G02*
X52370142Y-19116522I0J-3000000D01*
G01*
X52370142Y-19831522D02*
X52370142Y-19116522D01*
X54370142Y-21831522D02*
G75*
G02*
X52370142Y-19831522I0J2000000D01*
G01*
X55146560Y-86981522D02*
G75*
G02*
X57139426Y-89150089I-18J-2000000D01*
G01*
X57128769Y-89402942D02*
X57128769Y-110452942D01*
X57128769Y-89402942D02*
G75*
G02*
X57139444Y-89150090I2999373J20D01*
G01*
X60128769Y-113452942D02*
G75*
G02*
X57128822Y-110452942I-27J2999920D01*
G01*
X60128769Y-113452942D02*
X73849786Y-113452942D01*
X68370142Y-21831522D02*
X54370142Y-21831522D01*
X68370142Y-21831522D02*
G75*
G02*
X71080767Y-23546022I0J-3000000D01*
G01*
X72887851Y-24689022D02*
G75*
G02*
X71080760Y-23546025I-9J2000000D01*
G01*
X73849786Y-113452942D02*
G75*
G02*
X75767932Y-114886571I-44J-2000080D01*
G01*
X77619055Y-116856103D02*
G75*
G02*
X75767869Y-114886590I1026087J2819181D01*
G01*
X77619055Y-116856103D02*
X95717614Y-123443440D01*
X84178769Y-89839022D02*
X84259935Y-89839022D01*
X84178769Y-90062023D02*
X84178769Y-89839022D01*
X84178769Y-90062023D02*
X84259935Y-89839022D01*
X87370142Y-24689022D02*
X72887851Y-24689022D01*
X87370142Y-24689022D02*
G75*
G02*
X89594514Y-25676022I0J-3000000D01*
G01*
X90370142Y-67334022D02*
G75*
G02*
X92370142Y-65334022I2000000J0D01*
G01*
X90370142Y-71402409D02*
X90370142Y-67334022D01*
X91077429Y-26334022D02*
G75*
G02*
X89594497Y-25676037I13J2000100D01*
G01*
X92359294Y-73402380D02*
G75*
G02*
X90370155Y-71402409I10848J1999958D01*
G01*
X92359294Y-73402379D02*
G75*
G02*
X93369078Y-73583268I-16252J-2999643D01*
G01*
X92370142Y-65334022D02*
X104895142Y-65334022D01*
X95717614Y-123443439D02*
G75*
G02*
X96180724Y-123684525I-684272J-1879783D01*
G01*
X96180727Y-123684521D02*
X110491453Y-133704999D01*
X104895142Y-26334022D02*
X91077429Y-26334022D01*
X104895142Y-26334022D02*
G75*
G02*
X107895142Y-29334022I0J-3000000D01*
G01*
X107895142Y-62334022D02*
G75*
G02*
X104895142Y-65334022I-3000000J0D01*
G01*
X107895142Y-62334022D02*
X107895142Y-29334022D01*
X110491453Y-133704999D02*
G75*
G02*
X110876390Y-134057727I-1146611J-1637723D01*
G01*
X110876389Y-134057728D02*
X123256533Y-148811809D01*
X111978346Y-92772220D02*
X114942629Y-84627920D01*
X111978346Y-92772220D02*
X116949524Y-85672643D01*
X113149612Y-80782782D02*
X93369082Y-73583258D01*
X113149612Y-80782781D02*
G75*
G02*
X114942644Y-84627925I-1026170J-2819141D01*
G01*
X116949524Y-85672643D02*
G75*
G02*
X121127737Y-84935875I2457518J-1720879D01*
G01*
X127483029Y-149181579D02*
G75*
G02*
X123256514Y-148811825I-1928387J2298057D01*
G01*
X127483622Y-149181081D02*
X143608264Y-135650900D01*
X129682179Y-114648763D02*
G75*
G02*
X130447342Y-115299180I-1532937J-2578659D01*
G01*
X129682179Y-114648763D02*
X139107587Y-101187886D01*
X138370860Y-97009700D02*
X121128344Y-84936360D01*
X138370860Y-97009700D02*
G75*
G02*
X139107530Y-101187846I-1720818J-2457422D01*
G01*
X143978035Y-131424404D02*
X130447356Y-115299168D01*
X143978035Y-131424404D02*
G75*
G02*
X143608228Y-135650858I-2298193J-1928318D01*
G01*
M02*
