%TF.GenerationSoftware,KiCad,Pcbnew,10.0.3*%
%TF.CreationDate,2026-06-28T14:11:26-05:00*%
%TF.ProjectId,gnocchi,676e6f63-6368-4692-9e6b-696361645f70,rev?*%
%TF.SameCoordinates,Original*%
%TF.FileFunction,Soldermask,Top*%
%TF.FilePolarity,Negative*%
%FSLAX46Y46*%
G04 Gerber Fmt 4.6, Leading zero omitted, Abs format (unit mm)*
G04 Created by KiCad (PCBNEW 10.0.3) date 2026-06-28 14:11:26*
%MOMM*%
%LPD*%
G01*
G04 APERTURE LIST*
G04 Aperture macros list*
%AMRotRect*
0 Rectangle, with rotation*
0 The origin of the aperture is its center*
0 $1 length*
0 $2 width*
0 $3 Rotation angle, in degrees counterclockwise*
0 Add horizontal line*
21,1,$1,$2,0,0,$3*%
G04 Aperture macros list end*
%ADD10R,1.778000X1.778000*%
%ADD11R,0.900000X1.200000*%
%ADD12C,1.905000*%
%ADD13RotRect,1.778000X1.778000X35.000000*%
%ADD14RotRect,0.900000X1.200000X35.000000*%
%ADD15RotRect,1.778000X1.778000X20.000000*%
%ADD16RotRect,0.900000X1.200000X20.000000*%
%ADD17C,1.500000*%
%ADD18C,1.600000*%
%ADD19RotRect,1.778000X1.778000X50.000000*%
%ADD20RotRect,0.900000X1.200000X50.000000*%
%ADD21C,1.900000*%
%ADD22C,3.000000*%
%ADD23C,4.100000*%
%ADD24C,1.700000*%
%ADD25RotRect,1.778000X1.778000X310.000000*%
%ADD26RotRect,0.900000X1.200000X310.000000*%
%ADD27C,1.778000*%
%ADD28C,2.286000*%
%ADD29RotRect,1.778000X1.778000X325.000000*%
%ADD30RotRect,0.900000X1.200000X325.000000*%
%ADD31RotRect,1.778000X1.778000X340.000000*%
%ADD32RotRect,0.900000X1.200000X340.000000*%
G04 APERTURE END LIST*
D10*
%TO.C,D6*%
X287344884Y-54954070D03*
D11*
X289504884Y-54954070D03*
X292804884Y-54954070D03*
D12*
X294964884Y-54954070D03*
%TD*%
D10*
%TO.C,D2*%
X306344884Y-89244070D03*
D11*
X308504884Y-89244070D03*
X311804884Y-89244070D03*
D12*
X313964884Y-89244070D03*
%TD*%
D10*
%TO.C,D11*%
X249344884Y-74956570D03*
D11*
X251504884Y-74956570D03*
X254804884Y-74956570D03*
D12*
X256964884Y-74956570D03*
%TD*%
D10*
%TO.C,D13*%
X249344884Y-36856570D03*
D11*
X251504884Y-36856570D03*
X254804884Y-36856570D03*
D12*
X256964884Y-36856570D03*
%TD*%
D10*
%TO.C,D8*%
X268344884Y-69241570D03*
D11*
X270504884Y-69241570D03*
X273804884Y-69241570D03*
D12*
X275964884Y-69241570D03*
%TD*%
D10*
%TO.C,D15*%
X230344884Y-58764070D03*
D11*
X232504884Y-58764070D03*
X235804884Y-58764070D03*
D12*
X237964884Y-58764070D03*
%TD*%
D13*
%TO.C,D20*%
X188468515Y-104923396D03*
D14*
X190237883Y-103684471D03*
X192941085Y-101791669D03*
D12*
X194710453Y-100552744D03*
%TD*%
D10*
%TO.C,D9*%
X268344884Y-50191570D03*
D11*
X270504884Y-50191570D03*
X273804884Y-50191570D03*
D12*
X275964884Y-50191570D03*
%TD*%
D15*
%TO.C,D18*%
X210325355Y-92424167D03*
D16*
X212355091Y-91685403D03*
X215456077Y-90556737D03*
D12*
X217485813Y-89817973D03*
%TD*%
D17*
%TO.C,REF\u002A\u002A*%
X234471284Y-102927970D03*
D18*
X234471284Y-92767970D03*
X234471284Y-95307970D03*
X234471284Y-97847970D03*
X234471284Y-100387970D03*
X232971284Y-90077970D03*
X234971284Y-90077970D03*
%TD*%
D10*
%TO.C,D14*%
X230344884Y-77814070D03*
D11*
X232504884Y-77814070D03*
X235804884Y-77814070D03*
D12*
X237964884Y-77814070D03*
%TD*%
D19*
%TO.C,D21*%
X185146263Y-134866699D03*
D20*
X186534684Y-133212043D03*
X188655884Y-130684097D03*
D12*
X190044305Y-129029441D03*
%TD*%
D13*
%TO.C,D19*%
X199366415Y-120487296D03*
D14*
X201135783Y-119248371D03*
X203838985Y-117355569D03*
D12*
X205608353Y-116116644D03*
%TD*%
D10*
%TO.C,D7*%
X287344884Y-35904070D03*
D11*
X289504884Y-35904070D03*
X292804884Y-35904070D03*
D12*
X294964884Y-35904070D03*
%TD*%
D10*
%TO.C,D4*%
X306344884Y-51144070D03*
D11*
X308504884Y-51144070D03*
X311804884Y-51144070D03*
D12*
X313964884Y-51144070D03*
%TD*%
D10*
%TO.C,D5*%
X287344884Y-74004070D03*
D11*
X289504884Y-74004070D03*
X292804884Y-74004070D03*
D12*
X294964884Y-74004070D03*
%TD*%
D10*
%TO.C,D10*%
X268344884Y-31141570D03*
D11*
X270504884Y-31141570D03*
X273804884Y-31141570D03*
D12*
X275964884Y-31141570D03*
%TD*%
D10*
%TO.C,D1*%
X236536284Y-102927970D03*
D11*
X238696284Y-102927970D03*
X241996284Y-102927970D03*
D12*
X244156284Y-102927970D03*
%TD*%
D10*
%TO.C,D12*%
X249344884Y-55906570D03*
D11*
X251504884Y-55906570D03*
X254804884Y-55906570D03*
D12*
X256964884Y-55906570D03*
%TD*%
D10*
%TO.C,D22*%
X236536284Y-101427970D03*
D11*
X238696284Y-101427970D03*
X241996284Y-101427970D03*
D12*
X244156284Y-101427970D03*
%TD*%
D10*
%TO.C,D16*%
X230344884Y-39714070D03*
D11*
X232504884Y-39714070D03*
X235804884Y-39714070D03*
D12*
X237964884Y-39714070D03*
%TD*%
D10*
%TO.C,D3*%
X306344884Y-70194070D03*
D11*
X308504884Y-70194070D03*
X311804884Y-70194070D03*
D12*
X313964884Y-70194070D03*
%TD*%
D15*
%TO.C,D17*%
X216823755Y-110278267D03*
D16*
X218853491Y-109539503D03*
X221954477Y-108410837D03*
D12*
X223984213Y-107672073D03*
%TD*%
D21*
%TO.C,S9*%
X267074884Y-26641570D03*
D22*
X268344884Y-24101570D03*
D23*
X272154884Y-26641570D03*
D22*
X274694884Y-21561570D03*
D21*
X277234884Y-26641570D03*
%TD*%
%TO.C,S1*%
X305074884Y-84744070D03*
D22*
X306344884Y-82204070D03*
D23*
X310154884Y-84744070D03*
D22*
X312694884Y-79664070D03*
D21*
X315234884Y-84744070D03*
%TD*%
%TO.C,S3*%
X305074884Y-46644070D03*
D22*
X306344884Y-44104070D03*
D23*
X310154884Y-46644070D03*
D22*
X312694884Y-41564070D03*
D21*
X315234884Y-46644070D03*
%TD*%
%TO.C,S14*%
X229074884Y-54264070D03*
D22*
X230344884Y-51724070D03*
D23*
X234154884Y-54264070D03*
D22*
X236694884Y-49184070D03*
D21*
X239234884Y-54264070D03*
%TD*%
%TO.C,S13*%
X229074884Y-73314070D03*
D22*
X230344884Y-70774070D03*
D23*
X234154884Y-73314070D03*
D22*
X236694884Y-68234070D03*
D21*
X239234884Y-73314070D03*
%TD*%
%TO.C,S11*%
X248074884Y-51406570D03*
D22*
X249344884Y-48866570D03*
D23*
X253154884Y-51406570D03*
D22*
X255694884Y-46326570D03*
D21*
X258234884Y-51406570D03*
%TD*%
%TO.C,S15*%
X229074884Y-35214070D03*
D22*
X230344884Y-32674070D03*
D23*
X234154884Y-35214070D03*
D22*
X236694884Y-30134070D03*
D21*
X239234884Y-35214070D03*
%TD*%
%TO.C,S6*%
X286074884Y-31404070D03*
D22*
X287344884Y-28864070D03*
D23*
X291154884Y-31404070D03*
D22*
X293694884Y-26324070D03*
D21*
X296234884Y-31404070D03*
%TD*%
%TO.C,S20*%
X180882723Y-132947076D03*
D22*
X179753310Y-130341519D03*
D23*
X184148084Y-129055570D03*
D22*
X181889259Y-123844456D03*
D21*
X187413445Y-125164064D03*
%TD*%
%TO.C,S10*%
X248074884Y-70456570D03*
D22*
X249344884Y-67916570D03*
D23*
X253154884Y-70456570D03*
D22*
X255694884Y-65376570D03*
D21*
X258234884Y-70456570D03*
%TD*%
%TO.C,S17*%
X207592845Y-88629832D03*
D22*
X207917524Y-85808647D03*
D23*
X212366484Y-86892370D03*
D22*
X213015841Y-81250000D03*
D21*
X217140123Y-85154908D03*
%TD*%
%TO.C,S7*%
X267074884Y-64741570D03*
D22*
X268344884Y-62201570D03*
D23*
X272154884Y-64741570D03*
D22*
X274694884Y-59661570D03*
D21*
X277234884Y-64741570D03*
%TD*%
%TO.C,S16*%
X214091245Y-106484032D03*
D22*
X214415924Y-103662847D03*
D23*
X218864884Y-104746570D03*
D22*
X219514241Y-99104200D03*
D21*
X223638523Y-103009108D03*
%TD*%
%TO.C,S18*%
X195744992Y-117529538D03*
D22*
X195328431Y-114720450D03*
D23*
X199906284Y-114615770D03*
D22*
X199073162Y-108997593D03*
D21*
X204067576Y-111702002D03*
%TD*%
%TO.C,S5*%
X286074884Y-50454070D03*
D22*
X287344884Y-47914070D03*
D23*
X291154884Y-50454070D03*
D22*
X293694884Y-45374070D03*
D21*
X296234884Y-50454070D03*
%TD*%
%TO.C,S4*%
X286074884Y-69504070D03*
D22*
X287344884Y-66964070D03*
D23*
X291154884Y-69504070D03*
D22*
X293694884Y-64424070D03*
D21*
X296234884Y-69504070D03*
%TD*%
%TO.C,S12*%
X248074884Y-32356570D03*
D22*
X249344884Y-29816570D03*
D23*
X253154884Y-32356570D03*
D22*
X255694884Y-27276570D03*
D21*
X258234884Y-32356570D03*
%TD*%
%TO.C,S2*%
X305074884Y-65694070D03*
D22*
X306344884Y-63154070D03*
D23*
X310154884Y-65694070D03*
D22*
X312694884Y-60614070D03*
D21*
X315234884Y-65694070D03*
%TD*%
%TO.C,S8*%
X267074884Y-45691570D03*
D22*
X268344884Y-43151570D03*
D23*
X272154884Y-45691570D03*
D22*
X274694884Y-40611570D03*
D21*
X277234884Y-45691570D03*
%TD*%
%TO.C,S19*%
X184847092Y-101965638D03*
D22*
X184430531Y-99156550D03*
D23*
X189008384Y-99051870D03*
D22*
X188175262Y-93433693D03*
D21*
X193169676Y-96138102D03*
%TD*%
D24*
%TO.C,MCU1*%
X103515142Y-33134022D03*
X103515142Y-35674022D03*
X103515142Y-38214022D03*
X103515142Y-40754022D03*
X103515142Y-43294022D03*
X103515142Y-45834022D03*
X103515142Y-48374022D03*
X103515142Y-50914022D03*
X103515142Y-53454022D03*
X103515142Y-55994022D03*
X103515142Y-58534022D03*
X103515142Y-61074022D03*
X88275142Y-61074022D03*
X88275142Y-58534022D03*
X88275142Y-55994022D03*
X88275142Y-53454022D03*
X88275142Y-50914022D03*
X88275142Y-48374022D03*
X88275142Y-45834022D03*
X88275142Y-43294022D03*
X88275142Y-40754022D03*
X88275142Y-38214022D03*
X88275142Y-35674022D03*
X88275142Y-33134022D03*
%TD*%
D10*
%TO.C,D4*%
X16035142Y-77004022D03*
D11*
X18195142Y-77004022D03*
X21495142Y-77004022D03*
D12*
X23655142Y-77004022D03*
%TD*%
D25*
%TO.C,D20*%
X120955721Y-132029393D03*
D26*
X122344142Y-133684049D03*
X124465342Y-136211995D03*
D12*
X125853763Y-137866651D03*
%TD*%
D10*
%TO.C,D8*%
X35035142Y-53191522D03*
D11*
X37195142Y-53191522D03*
X40495142Y-53191522D03*
D12*
X42655142Y-53191522D03*
%TD*%
D10*
%TO.C,D13*%
X73035142Y-80814022D03*
D11*
X75195142Y-80814022D03*
X78495142Y-80814022D03*
D12*
X80655142Y-80814022D03*
%TD*%
D10*
%TO.C,D12*%
X54035142Y-39856522D03*
D11*
X56195142Y-39856522D03*
X59495142Y-39856522D03*
D12*
X61655142Y-39856522D03*
%TD*%
D10*
%TO.C,D14*%
X73035142Y-61764022D03*
D11*
X75195142Y-61764022D03*
X78495142Y-61764022D03*
D12*
X80655142Y-61764022D03*
%TD*%
D10*
%TO.C,D6*%
X16035142Y-38904022D03*
D11*
X18195142Y-38904022D03*
X21495142Y-38904022D03*
D12*
X23655142Y-38904022D03*
%TD*%
D27*
%TO.C,>NAME*%
X67478742Y-87227922D03*
X73828742Y-87227922D03*
X67478742Y-92307922D03*
X73828742Y-92307922D03*
X68113742Y-110087922D03*
X70653742Y-110087922D03*
X73193742Y-110087922D03*
D28*
X63033742Y-93260422D03*
X63033742Y-106595422D03*
X78273742Y-93260422D03*
X78273742Y-106595422D03*
D27*
X60493742Y-97387922D03*
X60493742Y-99927922D03*
X60493742Y-102467922D03*
%TD*%
D29*
%TO.C,D19*%
X116289573Y-103552696D03*
D30*
X118058941Y-104791621D03*
X120762143Y-106684423D03*
D12*
X122531511Y-107923348D03*
%TD*%
D29*
%TO.C,D18*%
X105391673Y-119116596D03*
D30*
X107161041Y-120355521D03*
X109864243Y-122248323D03*
D12*
X111633611Y-123487248D03*
%TD*%
D10*
%TO.C,D1*%
X-2964858Y-92244022D03*
D11*
X-804858Y-92244022D03*
X2495142Y-92244022D03*
D12*
X4655142Y-92244022D03*
%TD*%
D10*
%TO.C,D15*%
X73035142Y-42714022D03*
D11*
X75195142Y-42714022D03*
X78495142Y-42714022D03*
D12*
X80655142Y-42714022D03*
%TD*%
D10*
%TO.C,D11*%
X54035142Y-58906522D03*
D11*
X56195142Y-58906522D03*
X59495142Y-58906522D03*
D12*
X61655142Y-58906522D03*
%TD*%
D10*
%TO.C,D7*%
X35035142Y-72241522D03*
D11*
X37195142Y-72241522D03*
X40495142Y-72241522D03*
D12*
X42655142Y-72241522D03*
%TD*%
D10*
%TO.C,D3*%
X-2964858Y-54144022D03*
D11*
X-804858Y-54144022D03*
X2495142Y-54144022D03*
D12*
X4655142Y-54144022D03*
%TD*%
D10*
%TO.C,D10*%
X54035142Y-77956522D03*
D11*
X56195142Y-77956522D03*
X59495142Y-77956522D03*
D12*
X61655142Y-77956522D03*
%TD*%
D31*
%TO.C,D17*%
X93514213Y-92817925D03*
D32*
X95543949Y-93556689D03*
X98644935Y-94685355D03*
D12*
X100674671Y-95424119D03*
%TD*%
D10*
%TO.C,D5*%
X16035142Y-57954022D03*
D11*
X18195142Y-57954022D03*
X21495142Y-57954022D03*
D12*
X23655142Y-57954022D03*
%TD*%
D31*
%TO.C,D16*%
X87015813Y-110672025D03*
D32*
X89045549Y-111410789D03*
X92146535Y-112539455D03*
D12*
X94176271Y-113278219D03*
%TD*%
D10*
%TO.C,D2*%
X-2964858Y-73194022D03*
D11*
X-804858Y-73194022D03*
X2495142Y-73194022D03*
D12*
X4655142Y-73194022D03*
%TD*%
D10*
%TO.C,D9*%
X35035142Y-34141522D03*
D11*
X37195142Y-34141522D03*
X40495142Y-34141522D03*
D12*
X42655142Y-34141522D03*
%TD*%
D21*
%TO.C,S20*%
X123586581Y-128164016D03*
D22*
X126348674Y-127504212D03*
D23*
X126851942Y-132055522D03*
D22*
X132376128Y-130735914D03*
D21*
X130117303Y-135947028D03*
%TD*%
%TO.C,S12*%
X52765142Y-35356522D03*
D22*
X54035142Y-32816522D03*
D23*
X57845142Y-35356522D03*
D22*
X60385142Y-30276522D03*
D21*
X62925142Y-35356522D03*
%TD*%
%TO.C,S14*%
X71765142Y-57264022D03*
D22*
X73035142Y-54724022D03*
D23*
X76845142Y-57264022D03*
D22*
X79385142Y-52184022D03*
D21*
X81925142Y-57264022D03*
%TD*%
%TO.C,S9*%
X33765142Y-29641522D03*
D22*
X35035142Y-27101522D03*
D23*
X38845142Y-29641522D03*
D22*
X41385142Y-24561522D03*
D21*
X43925142Y-29641522D03*
%TD*%
%TO.C,S2*%
X-4234858Y-68694022D03*
D22*
X-2964858Y-66154022D03*
D23*
X845142Y-68694022D03*
D22*
X3385142Y-63614022D03*
D21*
X5925142Y-68694022D03*
%TD*%
%TO.C,S19*%
X117830350Y-99138054D03*
D22*
X120327557Y-97785850D03*
D23*
X121991642Y-102051822D03*
D22*
X126986056Y-99347414D03*
D21*
X126152934Y-104965590D03*
%TD*%
%TO.C,S7*%
X33765142Y-67741522D03*
D22*
X35035142Y-65201522D03*
D23*
X38845142Y-67741522D03*
D22*
X41385142Y-62661522D03*
D21*
X43925142Y-67741522D03*
%TD*%
%TO.C,S5*%
X14765142Y-53454022D03*
D22*
X16035142Y-50914022D03*
D23*
X19845142Y-53454022D03*
D22*
X22385142Y-48374022D03*
D21*
X24925142Y-53454022D03*
%TD*%
%TO.C,S11*%
X52765142Y-54406522D03*
D22*
X54035142Y-51866522D03*
D23*
X57845142Y-54406522D03*
D22*
X60385142Y-49326522D03*
D21*
X62925142Y-54406522D03*
%TD*%
%TO.C,S6*%
X14765142Y-34404022D03*
D22*
X16035142Y-31864022D03*
D23*
X19845142Y-34404022D03*
D22*
X22385142Y-29324022D03*
D21*
X24925142Y-34404022D03*
%TD*%
%TO.C,S10*%
X52765142Y-73456522D03*
D22*
X54035142Y-70916522D03*
D23*
X57845142Y-73456522D03*
D22*
X60385142Y-68376522D03*
D21*
X62925142Y-73456522D03*
%TD*%
%TO.C,S17*%
X93859903Y-88154860D03*
D22*
X95922044Y-86202406D03*
D23*
X98633542Y-89892322D03*
D22*
X102757825Y-85987415D03*
D21*
X103407181Y-91629784D03*
%TD*%
%TO.C,S4*%
X14765142Y-72504022D03*
D22*
X16035142Y-69964022D03*
D23*
X19845142Y-72504022D03*
D22*
X22385142Y-67424022D03*
D21*
X24925142Y-72504022D03*
%TD*%
%TO.C,S15*%
X71765142Y-38214022D03*
D22*
X73035142Y-35674022D03*
D23*
X76845142Y-38214022D03*
D22*
X79385142Y-33134022D03*
D21*
X81925142Y-38214022D03*
%TD*%
%TO.C,S8*%
X33765142Y-48691522D03*
D22*
X35035142Y-46151522D03*
D23*
X38845142Y-48691522D03*
D22*
X41385142Y-43611522D03*
D21*
X43925142Y-48691522D03*
%TD*%
%TO.C,S1*%
X-4234858Y-87744022D03*
D22*
X-2964858Y-85204022D03*
D23*
X845142Y-87744022D03*
D22*
X3385142Y-82664022D03*
D21*
X5925142Y-87744022D03*
%TD*%
%TO.C,S16*%
X87361503Y-106009060D03*
D22*
X89423644Y-104056606D03*
D23*
X92135142Y-107746522D03*
D22*
X96259425Y-103841615D03*
D21*
X96908781Y-109483984D03*
%TD*%
%TO.C,S13*%
X71765142Y-76314022D03*
D22*
X73035142Y-73774022D03*
D23*
X76845142Y-76314022D03*
D22*
X79385142Y-71234022D03*
D21*
X81925142Y-76314022D03*
%TD*%
%TO.C,S18*%
X106932450Y-114701954D03*
D22*
X109429657Y-113349750D03*
D23*
X111093742Y-117615722D03*
D22*
X116088156Y-114911314D03*
D21*
X115255034Y-120529490D03*
%TD*%
%TO.C,S3*%
X-4234858Y-49644022D03*
D22*
X-2964858Y-47104022D03*
D23*
X845142Y-49644022D03*
D22*
X3385142Y-44564022D03*
D21*
X5925142Y-49644022D03*
%TD*%
M02*
