%TF.GenerationSoftware,KiCad,Pcbnew,10.0.3*%
%TF.CreationDate,2026-06-28T14:11:26-05:00*%
%TF.ProjectId,gnocchi,676e6f63-6368-4692-9e6b-696361645f70,rev?*%
%TF.SameCoordinates,Original*%
%TF.FileFunction,Legend,Bot*%
%TF.FilePolarity,Positive*%
%FSLAX46Y46*%
G04 Gerber Fmt 4.6, Leading zero omitted, Abs format (unit mm)*
G04 Created by KiCad (PCBNEW 10.0.3) date 2026-06-28 14:11:26*
%MOMM*%
%LPD*%
G01*
G04 APERTURE LIST*
%ADD10C,0.101600*%
%ADD11C,0.100000*%
%ADD12C,0.400000*%
%ADD13C,0.203200*%
G04 APERTURE END LIST*
D10*
X65755170Y-104108497D02*
X66722790Y-104471354D01*
X66722790Y-104471354D02*
X65755170Y-104834211D01*
X67327551Y-104955164D02*
X67327551Y-103685164D01*
X67327551Y-103685164D02*
X68053266Y-104955164D01*
X68053266Y-104955164D02*
X68053266Y-103685164D01*
X68597551Y-104592307D02*
X69202313Y-104592307D01*
X68476599Y-104955164D02*
X68899932Y-103685164D01*
X68899932Y-103685164D02*
X69323266Y-104955164D01*
X69746598Y-104955164D02*
X69746598Y-103685164D01*
X69746598Y-103685164D02*
X70169932Y-104592307D01*
X70169932Y-104592307D02*
X70593265Y-103685164D01*
X70593265Y-103685164D02*
X70593265Y-104955164D01*
X71198027Y-104289926D02*
X71621361Y-104289926D01*
X71802789Y-104955164D02*
X71198027Y-104955164D01*
X71198027Y-104955164D02*
X71198027Y-103685164D01*
X71198027Y-103685164D02*
X71802789Y-103685164D01*
X66057551Y-105378497D02*
X67025171Y-105741354D01*
X67025171Y-105741354D02*
X66057551Y-106104211D01*
X67448504Y-104955164D02*
X67871837Y-106225164D01*
X67871837Y-106225164D02*
X68295171Y-104955164D01*
X68658027Y-105862307D02*
X69262789Y-105862307D01*
X68537075Y-106225164D02*
X68960408Y-104955164D01*
X68960408Y-104955164D02*
X69383742Y-106225164D01*
X70411836Y-106225164D02*
X69807074Y-106225164D01*
X69807074Y-106225164D02*
X69807074Y-104955164D01*
X70835169Y-104955164D02*
X70835169Y-105983259D01*
X70835169Y-105983259D02*
X70895646Y-106104211D01*
X70895646Y-106104211D02*
X70956122Y-106164688D01*
X70956122Y-106164688D02*
X71077074Y-106225164D01*
X71077074Y-106225164D02*
X71318979Y-106225164D01*
X71318979Y-106225164D02*
X71439931Y-106164688D01*
X71439931Y-106164688D02*
X71500408Y-106104211D01*
X71500408Y-106104211D02*
X71560884Y-105983259D01*
X71560884Y-105983259D02*
X71560884Y-104955164D01*
X72165645Y-105559926D02*
X72588979Y-105559926D01*
X72770407Y-106225164D02*
X72165645Y-106225164D01*
X72165645Y-106225164D02*
X72165645Y-104955164D01*
X72165645Y-104955164D02*
X72770407Y-104955164D01*
%TO.C,D6*%
D11*
X290404884Y-54954070D02*
X290804884Y-54954070D01*
X290804884Y-54954070D02*
X290804884Y-54404070D01*
X290804884Y-54954070D02*
X290804884Y-55504070D01*
X290804884Y-54954070D02*
X291404884Y-54554070D01*
X291404884Y-54554070D02*
X291404884Y-55354070D01*
X291404884Y-54954070D02*
X291904884Y-54954070D01*
X291404884Y-55354070D02*
X290804884Y-54954070D01*
%TO.C,D2*%
X309404884Y-89244070D02*
X309804884Y-89244070D01*
X309804884Y-89244070D02*
X309804884Y-88694070D01*
X309804884Y-89244070D02*
X309804884Y-89794070D01*
X309804884Y-89244070D02*
X310404884Y-88844070D01*
X310404884Y-88844070D02*
X310404884Y-89644070D01*
X310404884Y-89244070D02*
X310904884Y-89244070D01*
X310404884Y-89644070D02*
X309804884Y-89244070D01*
%TO.C,D11*%
X252404884Y-74956570D02*
X252804884Y-74956570D01*
X252804884Y-74956570D02*
X252804884Y-74406570D01*
X252804884Y-74956570D02*
X252804884Y-75506570D01*
X252804884Y-74956570D02*
X253404884Y-74556570D01*
X253404884Y-74556570D02*
X253404884Y-75356570D01*
X253404884Y-74956570D02*
X253904884Y-74956570D01*
X253404884Y-75356570D02*
X252804884Y-74956570D01*
%TO.C,D13*%
X252404884Y-36856570D02*
X252804884Y-36856570D01*
X252804884Y-36856570D02*
X252804884Y-36306570D01*
X252804884Y-36856570D02*
X252804884Y-37406570D01*
X252804884Y-36856570D02*
X253404884Y-36456570D01*
X253404884Y-36456570D02*
X253404884Y-37256570D01*
X253404884Y-36856570D02*
X253904884Y-36856570D01*
X253404884Y-37256570D02*
X252804884Y-36856570D01*
%TO.C,D8*%
X271404884Y-69241570D02*
X271804884Y-69241570D01*
X271804884Y-69241570D02*
X271804884Y-68691570D01*
X271804884Y-69241570D02*
X271804884Y-69791570D01*
X271804884Y-69241570D02*
X272404884Y-68841570D01*
X272404884Y-68841570D02*
X272404884Y-69641570D01*
X272404884Y-69241570D02*
X272904884Y-69241570D01*
X272404884Y-69641570D02*
X271804884Y-69241570D01*
%TO.C,D15*%
X233404884Y-58764070D02*
X233804884Y-58764070D01*
X233804884Y-58764070D02*
X233804884Y-58214070D01*
X233804884Y-58764070D02*
X233804884Y-59314070D01*
X233804884Y-58764070D02*
X234404884Y-58364070D01*
X234404884Y-58364070D02*
X234404884Y-59164070D01*
X234404884Y-58764070D02*
X234904884Y-58764070D01*
X234404884Y-59164070D02*
X233804884Y-58764070D01*
%TO.C,D20*%
X190975120Y-103168252D02*
X191302781Y-102938822D01*
X191302781Y-102938822D02*
X190987314Y-102488288D01*
X191302781Y-102938822D02*
X191564841Y-102267015D01*
X191302781Y-102938822D02*
X191618248Y-103389355D01*
X191564841Y-102267015D02*
X192023703Y-102922337D01*
X191794272Y-102594676D02*
X192203848Y-102307888D01*
X192023703Y-102922337D02*
X191302781Y-102938822D01*
%TO.C,D9*%
X271404884Y-50191570D02*
X271804884Y-50191570D01*
X271804884Y-50191570D02*
X271804884Y-49641570D01*
X271804884Y-50191570D02*
X271804884Y-50741570D01*
X271804884Y-50191570D02*
X272404884Y-49791570D01*
X272404884Y-49791570D02*
X272404884Y-50591570D01*
X272404884Y-50191570D02*
X272904884Y-50191570D01*
X272404884Y-50591570D02*
X271804884Y-50191570D01*
%TO.C,D18*%
X213200815Y-91377585D02*
X213576692Y-91240777D01*
X213576692Y-91240777D02*
X213388581Y-90723946D01*
X213576692Y-91240777D02*
X213764803Y-91757608D01*
X213576692Y-91240777D02*
X214003699Y-90659688D01*
X214003699Y-90659688D02*
X214277315Y-91411442D01*
X214140507Y-91035565D02*
X214610353Y-90864555D01*
X214277315Y-91411442D02*
X213576692Y-91240777D01*
%TO.C,D14*%
X233404884Y-77814070D02*
X233804884Y-77814070D01*
X233804884Y-77814070D02*
X233804884Y-77264070D01*
X233804884Y-77814070D02*
X233804884Y-78364070D01*
X233804884Y-77814070D02*
X234404884Y-77414070D01*
X234404884Y-77414070D02*
X234404884Y-78214070D01*
X234404884Y-77814070D02*
X234904884Y-77814070D01*
X234404884Y-78214070D02*
X233804884Y-77814070D01*
%TO.C,D21*%
X187113193Y-132522603D02*
X187370308Y-132216186D01*
X187370308Y-132216186D02*
X186948984Y-131862652D01*
X187370308Y-132216186D02*
X187449563Y-131499444D01*
X187370308Y-132216186D02*
X187791633Y-132569719D01*
X187449563Y-131499444D02*
X188062399Y-132013674D01*
X187755981Y-131756559D02*
X188077375Y-131373537D01*
X188062399Y-132013674D02*
X187370308Y-132216186D01*
%TO.C,D19*%
X201873020Y-118732152D02*
X202200681Y-118502722D01*
X202200681Y-118502722D02*
X201885214Y-118052188D01*
X202200681Y-118502722D02*
X202462741Y-117830915D01*
X202200681Y-118502722D02*
X202516148Y-118953255D01*
X202462741Y-117830915D02*
X202921603Y-118486237D01*
X202692172Y-118158576D02*
X203101748Y-117871788D01*
X202921603Y-118486237D02*
X202200681Y-118502722D01*
%TO.C,D7*%
X290404884Y-35904070D02*
X290804884Y-35904070D01*
X290804884Y-35904070D02*
X290804884Y-35354070D01*
X290804884Y-35904070D02*
X290804884Y-36454070D01*
X290804884Y-35904070D02*
X291404884Y-35504070D01*
X291404884Y-35504070D02*
X291404884Y-36304070D01*
X291404884Y-35904070D02*
X291904884Y-35904070D01*
X291404884Y-36304070D02*
X290804884Y-35904070D01*
%TO.C,D4*%
X309404884Y-51144070D02*
X309804884Y-51144070D01*
X309804884Y-51144070D02*
X309804884Y-50594070D01*
X309804884Y-51144070D02*
X309804884Y-51694070D01*
X309804884Y-51144070D02*
X310404884Y-50744070D01*
X310404884Y-50744070D02*
X310404884Y-51544070D01*
X310404884Y-51144070D02*
X310904884Y-51144070D01*
X310404884Y-51544070D02*
X309804884Y-51144070D01*
%TO.C,D5*%
X290404884Y-74004070D02*
X290804884Y-74004070D01*
X290804884Y-74004070D02*
X290804884Y-73454070D01*
X290804884Y-74004070D02*
X290804884Y-74554070D01*
X290804884Y-74004070D02*
X291404884Y-73604070D01*
X291404884Y-73604070D02*
X291404884Y-74404070D01*
X291404884Y-74004070D02*
X291904884Y-74004070D01*
X291404884Y-74404070D02*
X290804884Y-74004070D01*
%TO.C,D10*%
X271404884Y-31141570D02*
X271804884Y-31141570D01*
X271804884Y-31141570D02*
X271804884Y-30591570D01*
X271804884Y-31141570D02*
X271804884Y-31691570D01*
X271804884Y-31141570D02*
X272404884Y-30741570D01*
X272404884Y-30741570D02*
X272404884Y-31541570D01*
X272404884Y-31141570D02*
X272904884Y-31141570D01*
X272404884Y-31541570D02*
X271804884Y-31141570D01*
%TO.C,D1*%
X239596284Y-102927970D02*
X239996284Y-102927970D01*
X239996284Y-102927970D02*
X239996284Y-102377970D01*
X239996284Y-102927970D02*
X239996284Y-103477970D01*
X239996284Y-102927970D02*
X240596284Y-102527970D01*
X240596284Y-102527970D02*
X240596284Y-103327970D01*
X240596284Y-102927970D02*
X241096284Y-102927970D01*
X240596284Y-103327970D02*
X239996284Y-102927970D01*
%TO.C,D12*%
X252404884Y-55906570D02*
X252804884Y-55906570D01*
X252804884Y-55906570D02*
X252804884Y-55356570D01*
X252804884Y-55906570D02*
X252804884Y-56456570D01*
X252804884Y-55906570D02*
X253404884Y-55506570D01*
X253404884Y-55506570D02*
X253404884Y-56306570D01*
X253404884Y-55906570D02*
X253904884Y-55906570D01*
X253404884Y-56306570D02*
X252804884Y-55906570D01*
%TO.C,D22*%
X239596284Y-101427970D02*
X239996284Y-101427970D01*
X239996284Y-101427970D02*
X239996284Y-100877970D01*
X239996284Y-101427970D02*
X239996284Y-101977970D01*
X239996284Y-101427970D02*
X240596284Y-101027970D01*
X240596284Y-101027970D02*
X240596284Y-101827970D01*
X240596284Y-101427970D02*
X241096284Y-101427970D01*
X240596284Y-101827970D02*
X239996284Y-101427970D01*
%TO.C,D16*%
X233404884Y-39714070D02*
X233804884Y-39714070D01*
X233804884Y-39714070D02*
X233804884Y-39164070D01*
X233804884Y-39714070D02*
X233804884Y-40264070D01*
X233804884Y-39714070D02*
X234404884Y-39314070D01*
X234404884Y-39314070D02*
X234404884Y-40114070D01*
X234404884Y-39714070D02*
X234904884Y-39714070D01*
X234404884Y-40114070D02*
X233804884Y-39714070D01*
%TO.C,D3*%
X309404884Y-70194070D02*
X309804884Y-70194070D01*
X309804884Y-70194070D02*
X309804884Y-69644070D01*
X309804884Y-70194070D02*
X309804884Y-70744070D01*
X309804884Y-70194070D02*
X310404884Y-69794070D01*
X310404884Y-69794070D02*
X310404884Y-70594070D01*
X310404884Y-70194070D02*
X310904884Y-70194070D01*
X310404884Y-70594070D02*
X309804884Y-70194070D01*
%TO.C,D17*%
X219699215Y-109231685D02*
X220075092Y-109094877D01*
X220075092Y-109094877D02*
X219886981Y-108578046D01*
X220075092Y-109094877D02*
X220263203Y-109611708D01*
X220075092Y-109094877D02*
X220502099Y-108513788D01*
X220502099Y-108513788D02*
X220775715Y-109265542D01*
X220638907Y-108889665D02*
X221108753Y-108718655D01*
X220775715Y-109265542D02*
X220075092Y-109094877D01*
D12*
%TO.C,S9*%
X268554884Y-20141570D02*
X268354884Y-20141570D01*
X268054884Y-20191570D01*
X267754884Y-20291570D01*
X267554884Y-20391570D01*
X267404884Y-20491570D01*
X267204884Y-20641570D01*
X267054884Y-20791570D01*
X266904884Y-20991570D01*
X266754884Y-21241570D01*
X266654884Y-21641570D01*
X266654884Y-22041570D01*
X266804884Y-22141570D01*
X266954884Y-22241570D01*
X267404884Y-21991570D01*
X267654884Y-21891570D01*
X268104884Y-21791570D01*
X268604884Y-21791570D01*
X269204884Y-21941570D01*
X269704884Y-22241570D01*
X270004884Y-22491570D01*
X270404884Y-23041570D01*
X270604884Y-23591570D01*
X270654884Y-24041570D01*
X270904884Y-23841570D01*
X271254884Y-23741570D01*
X271754884Y-23691570D01*
X273804884Y-23691570D01*
X273354884Y-23441570D01*
X273104884Y-23241570D01*
X272804884Y-22891570D01*
X272654884Y-22641570D01*
X272504884Y-22291570D01*
X272404884Y-21891570D01*
X272404884Y-21591570D01*
X272404884Y-21241570D01*
X272454884Y-20991570D01*
X272604884Y-20591570D01*
X272904884Y-20141570D01*
X268554884Y-20141570D01*
G36*
X272604884Y-20591570D02*
G01*
X272454884Y-20991570D01*
X272404884Y-21241570D01*
X272404884Y-21591570D01*
X272404884Y-21891570D01*
X272504884Y-22291570D01*
X272654884Y-22641570D01*
X272804884Y-22891570D01*
X273104884Y-23241570D01*
X273354884Y-23441570D01*
X273804884Y-23691570D01*
X271754884Y-23691570D01*
X271254884Y-23741570D01*
X270904884Y-23841570D01*
X270654884Y-24041570D01*
X270604884Y-23591570D01*
X270404884Y-23041570D01*
X270004884Y-22491570D01*
X269704884Y-22241570D01*
X269204884Y-21941570D01*
X268604884Y-21791570D01*
X268104884Y-21791570D01*
X267654884Y-21891570D01*
X267404884Y-21991570D01*
X266954884Y-22241570D01*
X266804884Y-22141570D01*
X266654884Y-22041570D01*
X266654884Y-21641570D01*
X266754884Y-21241570D01*
X266904884Y-20991570D01*
X267054884Y-20791570D01*
X267204884Y-20641570D01*
X267404884Y-20491570D01*
X267554884Y-20391570D01*
X267754884Y-20291570D01*
X268054884Y-20191570D01*
X268354884Y-20141570D01*
X268554884Y-20141570D01*
X272904884Y-20141570D01*
X272604884Y-20591570D01*
G37*
%TO.C,S1*%
X306554884Y-78244070D02*
X306354884Y-78244070D01*
X306054884Y-78294070D01*
X305754884Y-78394070D01*
X305554884Y-78494070D01*
X305404884Y-78594070D01*
X305204884Y-78744070D01*
X305054884Y-78894070D01*
X304904884Y-79094070D01*
X304754884Y-79344070D01*
X304654884Y-79744070D01*
X304654884Y-80144070D01*
X304804884Y-80244070D01*
X304954884Y-80344070D01*
X305404884Y-80094070D01*
X305654884Y-79994070D01*
X306104884Y-79894070D01*
X306604884Y-79894070D01*
X307204884Y-80044070D01*
X307704884Y-80344070D01*
X308004884Y-80594070D01*
X308404884Y-81144070D01*
X308604884Y-81694070D01*
X308654884Y-82144070D01*
X308904884Y-81944070D01*
X309254884Y-81844070D01*
X309754884Y-81794070D01*
X311804884Y-81794070D01*
X311354884Y-81544070D01*
X311104884Y-81344070D01*
X310804884Y-80994070D01*
X310654884Y-80744070D01*
X310504884Y-80394070D01*
X310404884Y-79994070D01*
X310404884Y-79694070D01*
X310404884Y-79344070D01*
X310454884Y-79094070D01*
X310604884Y-78694070D01*
X310904884Y-78244070D01*
X306554884Y-78244070D01*
G36*
X310604884Y-78694070D02*
G01*
X310454884Y-79094070D01*
X310404884Y-79344070D01*
X310404884Y-79694070D01*
X310404884Y-79994070D01*
X310504884Y-80394070D01*
X310654884Y-80744070D01*
X310804884Y-80994070D01*
X311104884Y-81344070D01*
X311354884Y-81544070D01*
X311804884Y-81794070D01*
X309754884Y-81794070D01*
X309254884Y-81844070D01*
X308904884Y-81944070D01*
X308654884Y-82144070D01*
X308604884Y-81694070D01*
X308404884Y-81144070D01*
X308004884Y-80594070D01*
X307704884Y-80344070D01*
X307204884Y-80044070D01*
X306604884Y-79894070D01*
X306104884Y-79894070D01*
X305654884Y-79994070D01*
X305404884Y-80094070D01*
X304954884Y-80344070D01*
X304804884Y-80244070D01*
X304654884Y-80144070D01*
X304654884Y-79744070D01*
X304754884Y-79344070D01*
X304904884Y-79094070D01*
X305054884Y-78894070D01*
X305204884Y-78744070D01*
X305404884Y-78594070D01*
X305554884Y-78494070D01*
X305754884Y-78394070D01*
X306054884Y-78294070D01*
X306354884Y-78244070D01*
X306554884Y-78244070D01*
X310904884Y-78244070D01*
X310604884Y-78694070D01*
G37*
%TO.C,S3*%
X306554884Y-40144070D02*
X306354884Y-40144070D01*
X306054884Y-40194070D01*
X305754884Y-40294070D01*
X305554884Y-40394070D01*
X305404884Y-40494070D01*
X305204884Y-40644070D01*
X305054884Y-40794070D01*
X304904884Y-40994070D01*
X304754884Y-41244070D01*
X304654884Y-41644070D01*
X304654884Y-42044070D01*
X304804884Y-42144070D01*
X304954884Y-42244070D01*
X305404884Y-41994070D01*
X305654884Y-41894070D01*
X306104884Y-41794070D01*
X306604884Y-41794070D01*
X307204884Y-41944070D01*
X307704884Y-42244070D01*
X308004884Y-42494070D01*
X308404884Y-43044070D01*
X308604884Y-43594070D01*
X308654884Y-44044070D01*
X308904884Y-43844070D01*
X309254884Y-43744070D01*
X309754884Y-43694070D01*
X311804884Y-43694070D01*
X311354884Y-43444070D01*
X311104884Y-43244070D01*
X310804884Y-42894070D01*
X310654884Y-42644070D01*
X310504884Y-42294070D01*
X310404884Y-41894070D01*
X310404884Y-41594070D01*
X310404884Y-41244070D01*
X310454884Y-40994070D01*
X310604884Y-40594070D01*
X310904884Y-40144070D01*
X306554884Y-40144070D01*
G36*
X310604884Y-40594070D02*
G01*
X310454884Y-40994070D01*
X310404884Y-41244070D01*
X310404884Y-41594070D01*
X310404884Y-41894070D01*
X310504884Y-42294070D01*
X310654884Y-42644070D01*
X310804884Y-42894070D01*
X311104884Y-43244070D01*
X311354884Y-43444070D01*
X311804884Y-43694070D01*
X309754884Y-43694070D01*
X309254884Y-43744070D01*
X308904884Y-43844070D01*
X308654884Y-44044070D01*
X308604884Y-43594070D01*
X308404884Y-43044070D01*
X308004884Y-42494070D01*
X307704884Y-42244070D01*
X307204884Y-41944070D01*
X306604884Y-41794070D01*
X306104884Y-41794070D01*
X305654884Y-41894070D01*
X305404884Y-41994070D01*
X304954884Y-42244070D01*
X304804884Y-42144070D01*
X304654884Y-42044070D01*
X304654884Y-41644070D01*
X304754884Y-41244070D01*
X304904884Y-40994070D01*
X305054884Y-40794070D01*
X305204884Y-40644070D01*
X305404884Y-40494070D01*
X305554884Y-40394070D01*
X305754884Y-40294070D01*
X306054884Y-40194070D01*
X306354884Y-40144070D01*
X306554884Y-40144070D01*
X310904884Y-40144070D01*
X310604884Y-40594070D01*
G37*
%TO.C,S14*%
X230554884Y-47764070D02*
X230354884Y-47764070D01*
X230054884Y-47814070D01*
X229754884Y-47914070D01*
X229554884Y-48014070D01*
X229404884Y-48114070D01*
X229204884Y-48264070D01*
X229054884Y-48414070D01*
X228904884Y-48614070D01*
X228754884Y-48864070D01*
X228654884Y-49264070D01*
X228654884Y-49664070D01*
X228804884Y-49764070D01*
X228954884Y-49864070D01*
X229404884Y-49614070D01*
X229654884Y-49514070D01*
X230104884Y-49414070D01*
X230604884Y-49414070D01*
X231204884Y-49564070D01*
X231704884Y-49864070D01*
X232004884Y-50114070D01*
X232404884Y-50664070D01*
X232604884Y-51214070D01*
X232654884Y-51664070D01*
X232904884Y-51464070D01*
X233254884Y-51364070D01*
X233754884Y-51314070D01*
X235804884Y-51314070D01*
X235354884Y-51064070D01*
X235104884Y-50864070D01*
X234804884Y-50514070D01*
X234654884Y-50264070D01*
X234504884Y-49914070D01*
X234404884Y-49514070D01*
X234404884Y-49214070D01*
X234404884Y-48864070D01*
X234454884Y-48614070D01*
X234604884Y-48214070D01*
X234904884Y-47764070D01*
X230554884Y-47764070D01*
G36*
X234604884Y-48214070D02*
G01*
X234454884Y-48614070D01*
X234404884Y-48864070D01*
X234404884Y-49214070D01*
X234404884Y-49514070D01*
X234504884Y-49914070D01*
X234654884Y-50264070D01*
X234804884Y-50514070D01*
X235104884Y-50864070D01*
X235354884Y-51064070D01*
X235804884Y-51314070D01*
X233754884Y-51314070D01*
X233254884Y-51364070D01*
X232904884Y-51464070D01*
X232654884Y-51664070D01*
X232604884Y-51214070D01*
X232404884Y-50664070D01*
X232004884Y-50114070D01*
X231704884Y-49864070D01*
X231204884Y-49564070D01*
X230604884Y-49414070D01*
X230104884Y-49414070D01*
X229654884Y-49514070D01*
X229404884Y-49614070D01*
X228954884Y-49864070D01*
X228804884Y-49764070D01*
X228654884Y-49664070D01*
X228654884Y-49264070D01*
X228754884Y-48864070D01*
X228904884Y-48614070D01*
X229054884Y-48414070D01*
X229204884Y-48264070D01*
X229404884Y-48114070D01*
X229554884Y-48014070D01*
X229754884Y-47914070D01*
X230054884Y-47814070D01*
X230354884Y-47764070D01*
X230554884Y-47764070D01*
X234904884Y-47764070D01*
X234604884Y-48214070D01*
G37*
%TO.C,S13*%
X230554884Y-66814070D02*
X230354884Y-66814070D01*
X230054884Y-66864070D01*
X229754884Y-66964070D01*
X229554884Y-67064070D01*
X229404884Y-67164070D01*
X229204884Y-67314070D01*
X229054884Y-67464070D01*
X228904884Y-67664070D01*
X228754884Y-67914070D01*
X228654884Y-68314070D01*
X228654884Y-68714070D01*
X228804884Y-68814070D01*
X228954884Y-68914070D01*
X229404884Y-68664070D01*
X229654884Y-68564070D01*
X230104884Y-68464070D01*
X230604884Y-68464070D01*
X231204884Y-68614070D01*
X231704884Y-68914070D01*
X232004884Y-69164070D01*
X232404884Y-69714070D01*
X232604884Y-70264070D01*
X232654884Y-70714070D01*
X232904884Y-70514070D01*
X233254884Y-70414070D01*
X233754884Y-70364070D01*
X235804884Y-70364070D01*
X235354884Y-70114070D01*
X235104884Y-69914070D01*
X234804884Y-69564070D01*
X234654884Y-69314070D01*
X234504884Y-68964070D01*
X234404884Y-68564070D01*
X234404884Y-68264070D01*
X234404884Y-67914070D01*
X234454884Y-67664070D01*
X234604884Y-67264070D01*
X234904884Y-66814070D01*
X230554884Y-66814070D01*
G36*
X234604884Y-67264070D02*
G01*
X234454884Y-67664070D01*
X234404884Y-67914070D01*
X234404884Y-68264070D01*
X234404884Y-68564070D01*
X234504884Y-68964070D01*
X234654884Y-69314070D01*
X234804884Y-69564070D01*
X235104884Y-69914070D01*
X235354884Y-70114070D01*
X235804884Y-70364070D01*
X233754884Y-70364070D01*
X233254884Y-70414070D01*
X232904884Y-70514070D01*
X232654884Y-70714070D01*
X232604884Y-70264070D01*
X232404884Y-69714070D01*
X232004884Y-69164070D01*
X231704884Y-68914070D01*
X231204884Y-68614070D01*
X230604884Y-68464070D01*
X230104884Y-68464070D01*
X229654884Y-68564070D01*
X229404884Y-68664070D01*
X228954884Y-68914070D01*
X228804884Y-68814070D01*
X228654884Y-68714070D01*
X228654884Y-68314070D01*
X228754884Y-67914070D01*
X228904884Y-67664070D01*
X229054884Y-67464070D01*
X229204884Y-67314070D01*
X229404884Y-67164070D01*
X229554884Y-67064070D01*
X229754884Y-66964070D01*
X230054884Y-66864070D01*
X230354884Y-66814070D01*
X230554884Y-66814070D01*
X234904884Y-66814070D01*
X234604884Y-67264070D01*
G37*
%TO.C,S11*%
X249554884Y-44906570D02*
X249354884Y-44906570D01*
X249054884Y-44956570D01*
X248754884Y-45056570D01*
X248554884Y-45156570D01*
X248404884Y-45256570D01*
X248204884Y-45406570D01*
X248054884Y-45556570D01*
X247904884Y-45756570D01*
X247754884Y-46006570D01*
X247654884Y-46406570D01*
X247654884Y-46806570D01*
X247804884Y-46906570D01*
X247954884Y-47006570D01*
X248404884Y-46756570D01*
X248654884Y-46656570D01*
X249104884Y-46556570D01*
X249604884Y-46556570D01*
X250204884Y-46706570D01*
X250704884Y-47006570D01*
X251004884Y-47256570D01*
X251404884Y-47806570D01*
X251604884Y-48356570D01*
X251654884Y-48806570D01*
X251904884Y-48606570D01*
X252254884Y-48506570D01*
X252754884Y-48456570D01*
X254804884Y-48456570D01*
X254354884Y-48206570D01*
X254104884Y-48006570D01*
X253804884Y-47656570D01*
X253654884Y-47406570D01*
X253504884Y-47056570D01*
X253404884Y-46656570D01*
X253404884Y-46356570D01*
X253404884Y-46006570D01*
X253454884Y-45756570D01*
X253604884Y-45356570D01*
X253904884Y-44906570D01*
X249554884Y-44906570D01*
G36*
X253604884Y-45356570D02*
G01*
X253454884Y-45756570D01*
X253404884Y-46006570D01*
X253404884Y-46356570D01*
X253404884Y-46656570D01*
X253504884Y-47056570D01*
X253654884Y-47406570D01*
X253804884Y-47656570D01*
X254104884Y-48006570D01*
X254354884Y-48206570D01*
X254804884Y-48456570D01*
X252754884Y-48456570D01*
X252254884Y-48506570D01*
X251904884Y-48606570D01*
X251654884Y-48806570D01*
X251604884Y-48356570D01*
X251404884Y-47806570D01*
X251004884Y-47256570D01*
X250704884Y-47006570D01*
X250204884Y-46706570D01*
X249604884Y-46556570D01*
X249104884Y-46556570D01*
X248654884Y-46656570D01*
X248404884Y-46756570D01*
X247954884Y-47006570D01*
X247804884Y-46906570D01*
X247654884Y-46806570D01*
X247654884Y-46406570D01*
X247754884Y-46006570D01*
X247904884Y-45756570D01*
X248054884Y-45556570D01*
X248204884Y-45406570D01*
X248404884Y-45256570D01*
X248554884Y-45156570D01*
X248754884Y-45056570D01*
X249054884Y-44956570D01*
X249354884Y-44906570D01*
X249554884Y-44906570D01*
X253904884Y-44906570D01*
X253604884Y-45356570D01*
G37*
%TO.C,S15*%
X230554884Y-28714070D02*
X230354884Y-28714070D01*
X230054884Y-28764070D01*
X229754884Y-28864070D01*
X229554884Y-28964070D01*
X229404884Y-29064070D01*
X229204884Y-29214070D01*
X229054884Y-29364070D01*
X228904884Y-29564070D01*
X228754884Y-29814070D01*
X228654884Y-30214070D01*
X228654884Y-30614070D01*
X228804884Y-30714070D01*
X228954884Y-30814070D01*
X229404884Y-30564070D01*
X229654884Y-30464070D01*
X230104884Y-30364070D01*
X230604884Y-30364070D01*
X231204884Y-30514070D01*
X231704884Y-30814070D01*
X232004884Y-31064070D01*
X232404884Y-31614070D01*
X232604884Y-32164070D01*
X232654884Y-32614070D01*
X232904884Y-32414070D01*
X233254884Y-32314070D01*
X233754884Y-32264070D01*
X235804884Y-32264070D01*
X235354884Y-32014070D01*
X235104884Y-31814070D01*
X234804884Y-31464070D01*
X234654884Y-31214070D01*
X234504884Y-30864070D01*
X234404884Y-30464070D01*
X234404884Y-30164070D01*
X234404884Y-29814070D01*
X234454884Y-29564070D01*
X234604884Y-29164070D01*
X234904884Y-28714070D01*
X230554884Y-28714070D01*
G36*
X234604884Y-29164070D02*
G01*
X234454884Y-29564070D01*
X234404884Y-29814070D01*
X234404884Y-30164070D01*
X234404884Y-30464070D01*
X234504884Y-30864070D01*
X234654884Y-31214070D01*
X234804884Y-31464070D01*
X235104884Y-31814070D01*
X235354884Y-32014070D01*
X235804884Y-32264070D01*
X233754884Y-32264070D01*
X233254884Y-32314070D01*
X232904884Y-32414070D01*
X232654884Y-32614070D01*
X232604884Y-32164070D01*
X232404884Y-31614070D01*
X232004884Y-31064070D01*
X231704884Y-30814070D01*
X231204884Y-30514070D01*
X230604884Y-30364070D01*
X230104884Y-30364070D01*
X229654884Y-30464070D01*
X229404884Y-30564070D01*
X228954884Y-30814070D01*
X228804884Y-30714070D01*
X228654884Y-30614070D01*
X228654884Y-30214070D01*
X228754884Y-29814070D01*
X228904884Y-29564070D01*
X229054884Y-29364070D01*
X229204884Y-29214070D01*
X229404884Y-29064070D01*
X229554884Y-28964070D01*
X229754884Y-28864070D01*
X230054884Y-28764070D01*
X230354884Y-28714070D01*
X230554884Y-28714070D01*
X234904884Y-28714070D01*
X234604884Y-29164070D01*
G37*
%TO.C,S6*%
X287554884Y-24904070D02*
X287354884Y-24904070D01*
X287054884Y-24954070D01*
X286754884Y-25054070D01*
X286554884Y-25154070D01*
X286404884Y-25254070D01*
X286204884Y-25404070D01*
X286054884Y-25554070D01*
X285904884Y-25754070D01*
X285754884Y-26004070D01*
X285654884Y-26404070D01*
X285654884Y-26804070D01*
X285804884Y-26904070D01*
X285954884Y-27004070D01*
X286404884Y-26754070D01*
X286654884Y-26654070D01*
X287104884Y-26554070D01*
X287604884Y-26554070D01*
X288204884Y-26704070D01*
X288704884Y-27004070D01*
X289004884Y-27254070D01*
X289404884Y-27804070D01*
X289604884Y-28354070D01*
X289654884Y-28804070D01*
X289904884Y-28604070D01*
X290254884Y-28504070D01*
X290754884Y-28454070D01*
X292804884Y-28454070D01*
X292354884Y-28204070D01*
X292104884Y-28004070D01*
X291804884Y-27654070D01*
X291654884Y-27404070D01*
X291504884Y-27054070D01*
X291404884Y-26654070D01*
X291404884Y-26354070D01*
X291404884Y-26004070D01*
X291454884Y-25754070D01*
X291604884Y-25354070D01*
X291904884Y-24904070D01*
X287554884Y-24904070D01*
G36*
X291604884Y-25354070D02*
G01*
X291454884Y-25754070D01*
X291404884Y-26004070D01*
X291404884Y-26354070D01*
X291404884Y-26654070D01*
X291504884Y-27054070D01*
X291654884Y-27404070D01*
X291804884Y-27654070D01*
X292104884Y-28004070D01*
X292354884Y-28204070D01*
X292804884Y-28454070D01*
X290754884Y-28454070D01*
X290254884Y-28504070D01*
X289904884Y-28604070D01*
X289654884Y-28804070D01*
X289604884Y-28354070D01*
X289404884Y-27804070D01*
X289004884Y-27254070D01*
X288704884Y-27004070D01*
X288204884Y-26704070D01*
X287604884Y-26554070D01*
X287104884Y-26554070D01*
X286654884Y-26654070D01*
X286404884Y-26754070D01*
X285954884Y-27004070D01*
X285804884Y-26904070D01*
X285654884Y-26804070D01*
X285654884Y-26404070D01*
X285754884Y-26004070D01*
X285904884Y-25754070D01*
X286054884Y-25554070D01*
X286204884Y-25404070D01*
X286404884Y-25254070D01*
X286554884Y-25154070D01*
X286754884Y-25054070D01*
X287054884Y-24954070D01*
X287354884Y-24904070D01*
X287554884Y-24904070D01*
X291904884Y-24904070D01*
X291604884Y-25354070D01*
G37*
%TO.C,S20*%
X176854760Y-127635211D02*
X176726202Y-127788419D01*
X176571668Y-128050372D01*
X176455436Y-128344464D01*
X176403483Y-128561952D01*
X176383670Y-128741137D01*
X176370019Y-128990764D01*
X176388507Y-129202089D01*
X176445298Y-129445553D01*
X176540391Y-129721157D01*
X176782530Y-130054876D01*
X177088948Y-130311991D01*
X177261970Y-130261364D01*
X177434993Y-130210736D01*
X177532736Y-129705319D01*
X177616829Y-129449529D01*
X177829479Y-129040530D01*
X178150872Y-128657508D01*
X178651452Y-128294299D01*
X179202659Y-128104113D01*
X179587006Y-128034997D01*
X180265446Y-128082112D01*
X180815328Y-128282437D01*
X181192187Y-128533389D01*
X181199675Y-128213320D01*
X181348046Y-127880926D01*
X181631138Y-127465764D01*
X182948852Y-125895373D01*
X182468087Y-126079396D01*
X182154181Y-126142350D01*
X181693229Y-126147188D01*
X181405300Y-126101397D01*
X181040766Y-125991328D01*
X180670070Y-125810818D01*
X180440256Y-125617981D01*
X180172141Y-125393006D01*
X180012769Y-125194007D01*
X179802770Y-124821985D01*
X179650886Y-124302917D01*
X176854760Y-127635211D01*
G36*
X179802770Y-124821985D02*
G01*
X180012769Y-125194007D01*
X180172141Y-125393006D01*
X180440256Y-125617981D01*
X180670070Y-125810818D01*
X181040766Y-125991328D01*
X181405300Y-126101397D01*
X181693229Y-126147188D01*
X182154181Y-126142350D01*
X182468087Y-126079396D01*
X182948852Y-125895373D01*
X181631138Y-127465764D01*
X181348046Y-127880926D01*
X181199675Y-128213320D01*
X181192187Y-128533389D01*
X180815328Y-128282437D01*
X180265446Y-128082112D01*
X179587006Y-128034997D01*
X179202659Y-128104113D01*
X178651452Y-128294299D01*
X178150872Y-128657508D01*
X177829479Y-129040530D01*
X177616829Y-129449529D01*
X177532736Y-129705319D01*
X177434993Y-130210736D01*
X177261970Y-130261364D01*
X177088948Y-130311991D01*
X176782530Y-130054876D01*
X176540391Y-129721157D01*
X176445298Y-129445553D01*
X176388507Y-129202089D01*
X176370019Y-128990764D01*
X176383670Y-128741137D01*
X176403483Y-128561952D01*
X176455436Y-128344464D01*
X176571668Y-128050372D01*
X176726202Y-127788419D01*
X176854760Y-127635211D01*
X179650886Y-124302917D01*
X179802770Y-124821985D01*
G37*
%TO.C,S10*%
X249554884Y-63956570D02*
X249354884Y-63956570D01*
X249054884Y-64006570D01*
X248754884Y-64106570D01*
X248554884Y-64206570D01*
X248404884Y-64306570D01*
X248204884Y-64456570D01*
X248054884Y-64606570D01*
X247904884Y-64806570D01*
X247754884Y-65056570D01*
X247654884Y-65456570D01*
X247654884Y-65856570D01*
X247804884Y-65956570D01*
X247954884Y-66056570D01*
X248404884Y-65806570D01*
X248654884Y-65706570D01*
X249104884Y-65606570D01*
X249604884Y-65606570D01*
X250204884Y-65756570D01*
X250704884Y-66056570D01*
X251004884Y-66306570D01*
X251404884Y-66856570D01*
X251604884Y-67406570D01*
X251654884Y-67856570D01*
X251904884Y-67656570D01*
X252254884Y-67556570D01*
X252754884Y-67506570D01*
X254804884Y-67506570D01*
X254354884Y-67256570D01*
X254104884Y-67056570D01*
X253804884Y-66706570D01*
X253654884Y-66456570D01*
X253504884Y-66106570D01*
X253404884Y-65706570D01*
X253404884Y-65406570D01*
X253404884Y-65056570D01*
X253454884Y-64806570D01*
X253604884Y-64406570D01*
X253904884Y-63956570D01*
X249554884Y-63956570D01*
G36*
X253604884Y-64406570D02*
G01*
X253454884Y-64806570D01*
X253404884Y-65056570D01*
X253404884Y-65406570D01*
X253404884Y-65706570D01*
X253504884Y-66106570D01*
X253654884Y-66456570D01*
X253804884Y-66706570D01*
X254104884Y-67056570D01*
X254354884Y-67256570D01*
X254804884Y-67506570D01*
X252754884Y-67506570D01*
X252254884Y-67556570D01*
X251904884Y-67656570D01*
X251654884Y-67856570D01*
X251604884Y-67406570D01*
X251404884Y-66856570D01*
X251004884Y-66306570D01*
X250704884Y-66056570D01*
X250204884Y-65756570D01*
X249604884Y-65606570D01*
X249104884Y-65606570D01*
X248654884Y-65706570D01*
X248404884Y-65806570D01*
X247954884Y-66056570D01*
X247804884Y-65956570D01*
X247654884Y-65856570D01*
X247654884Y-65456570D01*
X247754884Y-65056570D01*
X247904884Y-64806570D01*
X248054884Y-64606570D01*
X248204884Y-64456570D01*
X248404884Y-64306570D01*
X248554884Y-64206570D01*
X248754884Y-64106570D01*
X249054884Y-64006570D01*
X249354884Y-63956570D01*
X249554884Y-63956570D01*
X253904884Y-63956570D01*
X253604884Y-64406570D01*
G37*
%TO.C,S17*%
X206760461Y-82015640D02*
X206572521Y-82084045D01*
X206307714Y-82233635D01*
X206060009Y-82430210D01*
X205906272Y-82592584D01*
X205799520Y-82737856D01*
X205662885Y-82947214D01*
X205573234Y-83139471D01*
X205500684Y-83378712D01*
X205445235Y-83664939D01*
X205488074Y-84075018D01*
X205624882Y-84450895D01*
X205800038Y-84493561D01*
X205975194Y-84536227D01*
X206312550Y-84147395D01*
X206513272Y-83967921D01*
X206901931Y-83720042D01*
X207371778Y-83549032D01*
X207986896Y-83484774D01*
X208559348Y-83595672D01*
X208926761Y-83727989D01*
X209490749Y-84108012D01*
X209866799Y-84556439D01*
X210067693Y-84962199D01*
X210234212Y-84688756D01*
X210528902Y-84475080D01*
X210981648Y-84257085D01*
X212908016Y-83555944D01*
X212399651Y-83474929D01*
X212096324Y-83372496D01*
X211694709Y-83146211D01*
X211468250Y-82962589D01*
X211207589Y-82685000D01*
X210976811Y-82343325D01*
X210874205Y-82061417D01*
X210754498Y-81732525D01*
X210715978Y-81480501D01*
X210720124Y-81053321D01*
X210848123Y-80527853D01*
X206760461Y-82015640D01*
G36*
X210720124Y-81053321D02*
G01*
X210715978Y-81480501D01*
X210754498Y-81732525D01*
X210874205Y-82061417D01*
X210976811Y-82343325D01*
X211207589Y-82685000D01*
X211468250Y-82962589D01*
X211694709Y-83146211D01*
X212096324Y-83372496D01*
X212399651Y-83474929D01*
X212908016Y-83555944D01*
X210981648Y-84257085D01*
X210528902Y-84475080D01*
X210234212Y-84688756D01*
X210067693Y-84962199D01*
X209866799Y-84556439D01*
X209490749Y-84108012D01*
X208926761Y-83727989D01*
X208559348Y-83595672D01*
X207986896Y-83484774D01*
X207371778Y-83549032D01*
X206901931Y-83720042D01*
X206513272Y-83967921D01*
X206312550Y-84147395D01*
X205975194Y-84536227D01*
X205800038Y-84493561D01*
X205624882Y-84450895D01*
X205488074Y-84075018D01*
X205445235Y-83664939D01*
X205500684Y-83378712D01*
X205573234Y-83139471D01*
X205662885Y-82947214D01*
X205799520Y-82737856D01*
X205906272Y-82592584D01*
X206060009Y-82430210D01*
X206307714Y-82233635D01*
X206572521Y-82084045D01*
X206760461Y-82015640D01*
X210848123Y-80527853D01*
X210720124Y-81053321D01*
G37*
%TO.C,S7*%
X268554884Y-58241570D02*
X268354884Y-58241570D01*
X268054884Y-58291570D01*
X267754884Y-58391570D01*
X267554884Y-58491570D01*
X267404884Y-58591570D01*
X267204884Y-58741570D01*
X267054884Y-58891570D01*
X266904884Y-59091570D01*
X266754884Y-59341570D01*
X266654884Y-59741570D01*
X266654884Y-60141570D01*
X266804884Y-60241570D01*
X266954884Y-60341570D01*
X267404884Y-60091570D01*
X267654884Y-59991570D01*
X268104884Y-59891570D01*
X268604884Y-59891570D01*
X269204884Y-60041570D01*
X269704884Y-60341570D01*
X270004884Y-60591570D01*
X270404884Y-61141570D01*
X270604884Y-61691570D01*
X270654884Y-62141570D01*
X270904884Y-61941570D01*
X271254884Y-61841570D01*
X271754884Y-61791570D01*
X273804884Y-61791570D01*
X273354884Y-61541570D01*
X273104884Y-61341570D01*
X272804884Y-60991570D01*
X272654884Y-60741570D01*
X272504884Y-60391570D01*
X272404884Y-59991570D01*
X272404884Y-59691570D01*
X272404884Y-59341570D01*
X272454884Y-59091570D01*
X272604884Y-58691570D01*
X272904884Y-58241570D01*
X268554884Y-58241570D01*
G36*
X272604884Y-58691570D02*
G01*
X272454884Y-59091570D01*
X272404884Y-59341570D01*
X272404884Y-59691570D01*
X272404884Y-59991570D01*
X272504884Y-60391570D01*
X272654884Y-60741570D01*
X272804884Y-60991570D01*
X273104884Y-61341570D01*
X273354884Y-61541570D01*
X273804884Y-61791570D01*
X271754884Y-61791570D01*
X271254884Y-61841570D01*
X270904884Y-61941570D01*
X270654884Y-62141570D01*
X270604884Y-61691570D01*
X270404884Y-61141570D01*
X270004884Y-60591570D01*
X269704884Y-60341570D01*
X269204884Y-60041570D01*
X268604884Y-59891570D01*
X268104884Y-59891570D01*
X267654884Y-59991570D01*
X267404884Y-60091570D01*
X266954884Y-60341570D01*
X266804884Y-60241570D01*
X266654884Y-60141570D01*
X266654884Y-59741570D01*
X266754884Y-59341570D01*
X266904884Y-59091570D01*
X267054884Y-58891570D01*
X267204884Y-58741570D01*
X267404884Y-58591570D01*
X267554884Y-58491570D01*
X267754884Y-58391570D01*
X268054884Y-58291570D01*
X268354884Y-58241570D01*
X268554884Y-58241570D01*
X272904884Y-58241570D01*
X272604884Y-58691570D01*
G37*
%TO.C,S16*%
X213258861Y-99869840D02*
X213070921Y-99938245D01*
X212806114Y-100087835D01*
X212558409Y-100284410D01*
X212404672Y-100446784D01*
X212297920Y-100592056D01*
X212161285Y-100801414D01*
X212071634Y-100993671D01*
X211999084Y-101232912D01*
X211943635Y-101519139D01*
X211986474Y-101929218D01*
X212123282Y-102305095D01*
X212298438Y-102347761D01*
X212473594Y-102390427D01*
X212810950Y-102001595D01*
X213011672Y-101822121D01*
X213400331Y-101574242D01*
X213870178Y-101403232D01*
X214485296Y-101338974D01*
X215057748Y-101449872D01*
X215425161Y-101582189D01*
X215989149Y-101962212D01*
X216365199Y-102410639D01*
X216566093Y-102816399D01*
X216732612Y-102542956D01*
X217027302Y-102329280D01*
X217480048Y-102111285D01*
X219406416Y-101410144D01*
X218898051Y-101329129D01*
X218594724Y-101226696D01*
X218193109Y-101000411D01*
X217966650Y-100816789D01*
X217705989Y-100539200D01*
X217475211Y-100197525D01*
X217372605Y-99915617D01*
X217252898Y-99586725D01*
X217214378Y-99334701D01*
X217218524Y-98907521D01*
X217346523Y-98382053D01*
X213258861Y-99869840D01*
G36*
X217218524Y-98907521D02*
G01*
X217214378Y-99334701D01*
X217252898Y-99586725D01*
X217372605Y-99915617D01*
X217475211Y-100197525D01*
X217705989Y-100539200D01*
X217966650Y-100816789D01*
X218193109Y-101000411D01*
X218594724Y-101226696D01*
X218898051Y-101329129D01*
X219406416Y-101410144D01*
X217480048Y-102111285D01*
X217027302Y-102329280D01*
X216732612Y-102542956D01*
X216566093Y-102816399D01*
X216365199Y-102410639D01*
X215989149Y-101962212D01*
X215425161Y-101582189D01*
X215057748Y-101449872D01*
X214485296Y-101338974D01*
X213870178Y-101403232D01*
X213400331Y-101574242D01*
X213011672Y-101822121D01*
X212810950Y-102001595D01*
X212473594Y-102390427D01*
X212298438Y-102347761D01*
X212123282Y-102305095D01*
X211986474Y-101929218D01*
X211943635Y-101519139D01*
X211999084Y-101232912D01*
X212071634Y-100993671D01*
X212161285Y-100801414D01*
X212297920Y-100592056D01*
X212404672Y-100446784D01*
X212558409Y-100284410D01*
X212806114Y-100087835D01*
X213070921Y-99938245D01*
X213258861Y-99869840D01*
X217346523Y-98382053D01*
X217218524Y-98907521D01*
G37*
%TO.C,S18*%
X193229090Y-111356157D02*
X193065259Y-111470872D01*
X192848193Y-111683903D01*
X192659805Y-111937891D01*
X192553332Y-112134521D01*
X192487817Y-112302473D01*
X192410023Y-112540061D01*
X192373186Y-112748970D01*
X192365029Y-112998837D01*
X192385550Y-113289662D01*
X192533066Y-113674680D01*
X192762496Y-114002341D01*
X192942727Y-113998220D01*
X193122957Y-113994098D01*
X193348181Y-113531201D01*
X193495612Y-113305892D01*
X193806873Y-112965867D01*
X194216449Y-112679079D01*
X194793976Y-112457806D01*
X195375625Y-112416763D01*
X195764765Y-112449478D01*
X196407893Y-112670581D01*
X196887190Y-113006400D01*
X197186257Y-113346339D01*
X197276330Y-113039115D01*
X197505675Y-112756448D01*
X197886573Y-112428702D01*
X199565834Y-111252870D01*
X199053822Y-111306192D01*
X198734319Y-111285755D01*
X198287821Y-111171125D01*
X198021554Y-111052374D01*
X197697930Y-110851707D01*
X197386584Y-110581404D01*
X197214511Y-110335658D01*
X197013759Y-110048955D01*
X196911323Y-109815488D01*
X196804765Y-109401791D01*
X196792401Y-108861099D01*
X193229090Y-111356157D01*
G36*
X196804765Y-109401791D02*
G01*
X196911323Y-109815488D01*
X197013759Y-110048955D01*
X197214511Y-110335658D01*
X197386584Y-110581404D01*
X197697930Y-110851707D01*
X198021554Y-111052374D01*
X198287821Y-111171125D01*
X198734319Y-111285755D01*
X199053822Y-111306192D01*
X199565834Y-111252870D01*
X197886573Y-112428702D01*
X197505675Y-112756448D01*
X197276330Y-113039115D01*
X197186257Y-113346339D01*
X196887190Y-113006400D01*
X196407893Y-112670581D01*
X195764765Y-112449478D01*
X195375625Y-112416763D01*
X194793976Y-112457806D01*
X194216449Y-112679079D01*
X193806873Y-112965867D01*
X193495612Y-113305892D01*
X193348181Y-113531201D01*
X193122957Y-113994098D01*
X192942727Y-113998220D01*
X192762496Y-114002341D01*
X192533066Y-113674680D01*
X192385550Y-113289662D01*
X192365029Y-112998837D01*
X192373186Y-112748970D01*
X192410023Y-112540061D01*
X192487817Y-112302473D01*
X192553332Y-112134521D01*
X192659805Y-111937891D01*
X192848193Y-111683903D01*
X193065259Y-111470872D01*
X193229090Y-111356157D01*
X196792401Y-108861099D01*
X196804765Y-109401791D01*
G37*
%TO.C,S5*%
X287554884Y-43954070D02*
X287354884Y-43954070D01*
X287054884Y-44004070D01*
X286754884Y-44104070D01*
X286554884Y-44204070D01*
X286404884Y-44304070D01*
X286204884Y-44454070D01*
X286054884Y-44604070D01*
X285904884Y-44804070D01*
X285754884Y-45054070D01*
X285654884Y-45454070D01*
X285654884Y-45854070D01*
X285804884Y-45954070D01*
X285954884Y-46054070D01*
X286404884Y-45804070D01*
X286654884Y-45704070D01*
X287104884Y-45604070D01*
X287604884Y-45604070D01*
X288204884Y-45754070D01*
X288704884Y-46054070D01*
X289004884Y-46304070D01*
X289404884Y-46854070D01*
X289604884Y-47404070D01*
X289654884Y-47854070D01*
X289904884Y-47654070D01*
X290254884Y-47554070D01*
X290754884Y-47504070D01*
X292804884Y-47504070D01*
X292354884Y-47254070D01*
X292104884Y-47054070D01*
X291804884Y-46704070D01*
X291654884Y-46454070D01*
X291504884Y-46104070D01*
X291404884Y-45704070D01*
X291404884Y-45404070D01*
X291404884Y-45054070D01*
X291454884Y-44804070D01*
X291604884Y-44404070D01*
X291904884Y-43954070D01*
X287554884Y-43954070D01*
G36*
X291604884Y-44404070D02*
G01*
X291454884Y-44804070D01*
X291404884Y-45054070D01*
X291404884Y-45404070D01*
X291404884Y-45704070D01*
X291504884Y-46104070D01*
X291654884Y-46454070D01*
X291804884Y-46704070D01*
X292104884Y-47054070D01*
X292354884Y-47254070D01*
X292804884Y-47504070D01*
X290754884Y-47504070D01*
X290254884Y-47554070D01*
X289904884Y-47654070D01*
X289654884Y-47854070D01*
X289604884Y-47404070D01*
X289404884Y-46854070D01*
X289004884Y-46304070D01*
X288704884Y-46054070D01*
X288204884Y-45754070D01*
X287604884Y-45604070D01*
X287104884Y-45604070D01*
X286654884Y-45704070D01*
X286404884Y-45804070D01*
X285954884Y-46054070D01*
X285804884Y-45954070D01*
X285654884Y-45854070D01*
X285654884Y-45454070D01*
X285754884Y-45054070D01*
X285904884Y-44804070D01*
X286054884Y-44604070D01*
X286204884Y-44454070D01*
X286404884Y-44304070D01*
X286554884Y-44204070D01*
X286754884Y-44104070D01*
X287054884Y-44004070D01*
X287354884Y-43954070D01*
X287554884Y-43954070D01*
X291904884Y-43954070D01*
X291604884Y-44404070D01*
G37*
%TO.C,S4*%
X287554884Y-63004070D02*
X287354884Y-63004070D01*
X287054884Y-63054070D01*
X286754884Y-63154070D01*
X286554884Y-63254070D01*
X286404884Y-63354070D01*
X286204884Y-63504070D01*
X286054884Y-63654070D01*
X285904884Y-63854070D01*
X285754884Y-64104070D01*
X285654884Y-64504070D01*
X285654884Y-64904070D01*
X285804884Y-65004070D01*
X285954884Y-65104070D01*
X286404884Y-64854070D01*
X286654884Y-64754070D01*
X287104884Y-64654070D01*
X287604884Y-64654070D01*
X288204884Y-64804070D01*
X288704884Y-65104070D01*
X289004884Y-65354070D01*
X289404884Y-65904070D01*
X289604884Y-66454070D01*
X289654884Y-66904070D01*
X289904884Y-66704070D01*
X290254884Y-66604070D01*
X290754884Y-66554070D01*
X292804884Y-66554070D01*
X292354884Y-66304070D01*
X292104884Y-66104070D01*
X291804884Y-65754070D01*
X291654884Y-65504070D01*
X291504884Y-65154070D01*
X291404884Y-64754070D01*
X291404884Y-64454070D01*
X291404884Y-64104070D01*
X291454884Y-63854070D01*
X291604884Y-63454070D01*
X291904884Y-63004070D01*
X287554884Y-63004070D01*
G36*
X291604884Y-63454070D02*
G01*
X291454884Y-63854070D01*
X291404884Y-64104070D01*
X291404884Y-64454070D01*
X291404884Y-64754070D01*
X291504884Y-65154070D01*
X291654884Y-65504070D01*
X291804884Y-65754070D01*
X292104884Y-66104070D01*
X292354884Y-66304070D01*
X292804884Y-66554070D01*
X290754884Y-66554070D01*
X290254884Y-66604070D01*
X289904884Y-66704070D01*
X289654884Y-66904070D01*
X289604884Y-66454070D01*
X289404884Y-65904070D01*
X289004884Y-65354070D01*
X288704884Y-65104070D01*
X288204884Y-64804070D01*
X287604884Y-64654070D01*
X287104884Y-64654070D01*
X286654884Y-64754070D01*
X286404884Y-64854070D01*
X285954884Y-65104070D01*
X285804884Y-65004070D01*
X285654884Y-64904070D01*
X285654884Y-64504070D01*
X285754884Y-64104070D01*
X285904884Y-63854070D01*
X286054884Y-63654070D01*
X286204884Y-63504070D01*
X286404884Y-63354070D01*
X286554884Y-63254070D01*
X286754884Y-63154070D01*
X287054884Y-63054070D01*
X287354884Y-63004070D01*
X287554884Y-63004070D01*
X291904884Y-63004070D01*
X291604884Y-63454070D01*
G37*
%TO.C,S12*%
X249554884Y-25856570D02*
X249354884Y-25856570D01*
X249054884Y-25906570D01*
X248754884Y-26006570D01*
X248554884Y-26106570D01*
X248404884Y-26206570D01*
X248204884Y-26356570D01*
X248054884Y-26506570D01*
X247904884Y-26706570D01*
X247754884Y-26956570D01*
X247654884Y-27356570D01*
X247654884Y-27756570D01*
X247804884Y-27856570D01*
X247954884Y-27956570D01*
X248404884Y-27706570D01*
X248654884Y-27606570D01*
X249104884Y-27506570D01*
X249604884Y-27506570D01*
X250204884Y-27656570D01*
X250704884Y-27956570D01*
X251004884Y-28206570D01*
X251404884Y-28756570D01*
X251604884Y-29306570D01*
X251654884Y-29756570D01*
X251904884Y-29556570D01*
X252254884Y-29456570D01*
X252754884Y-29406570D01*
X254804884Y-29406570D01*
X254354884Y-29156570D01*
X254104884Y-28956570D01*
X253804884Y-28606570D01*
X253654884Y-28356570D01*
X253504884Y-28006570D01*
X253404884Y-27606570D01*
X253404884Y-27306570D01*
X253404884Y-26956570D01*
X253454884Y-26706570D01*
X253604884Y-26306570D01*
X253904884Y-25856570D01*
X249554884Y-25856570D01*
G36*
X253604884Y-26306570D02*
G01*
X253454884Y-26706570D01*
X253404884Y-26956570D01*
X253404884Y-27306570D01*
X253404884Y-27606570D01*
X253504884Y-28006570D01*
X253654884Y-28356570D01*
X253804884Y-28606570D01*
X254104884Y-28956570D01*
X254354884Y-29156570D01*
X254804884Y-29406570D01*
X252754884Y-29406570D01*
X252254884Y-29456570D01*
X251904884Y-29556570D01*
X251654884Y-29756570D01*
X251604884Y-29306570D01*
X251404884Y-28756570D01*
X251004884Y-28206570D01*
X250704884Y-27956570D01*
X250204884Y-27656570D01*
X249604884Y-27506570D01*
X249104884Y-27506570D01*
X248654884Y-27606570D01*
X248404884Y-27706570D01*
X247954884Y-27956570D01*
X247804884Y-27856570D01*
X247654884Y-27756570D01*
X247654884Y-27356570D01*
X247754884Y-26956570D01*
X247904884Y-26706570D01*
X248054884Y-26506570D01*
X248204884Y-26356570D01*
X248404884Y-26206570D01*
X248554884Y-26106570D01*
X248754884Y-26006570D01*
X249054884Y-25906570D01*
X249354884Y-25856570D01*
X249554884Y-25856570D01*
X253904884Y-25856570D01*
X253604884Y-26306570D01*
G37*
%TO.C,S2*%
X306554884Y-59194070D02*
X306354884Y-59194070D01*
X306054884Y-59244070D01*
X305754884Y-59344070D01*
X305554884Y-59444070D01*
X305404884Y-59544070D01*
X305204884Y-59694070D01*
X305054884Y-59844070D01*
X304904884Y-60044070D01*
X304754884Y-60294070D01*
X304654884Y-60694070D01*
X304654884Y-61094070D01*
X304804884Y-61194070D01*
X304954884Y-61294070D01*
X305404884Y-61044070D01*
X305654884Y-60944070D01*
X306104884Y-60844070D01*
X306604884Y-60844070D01*
X307204884Y-60994070D01*
X307704884Y-61294070D01*
X308004884Y-61544070D01*
X308404884Y-62094070D01*
X308604884Y-62644070D01*
X308654884Y-63094070D01*
X308904884Y-62894070D01*
X309254884Y-62794070D01*
X309754884Y-62744070D01*
X311804884Y-62744070D01*
X311354884Y-62494070D01*
X311104884Y-62294070D01*
X310804884Y-61944070D01*
X310654884Y-61694070D01*
X310504884Y-61344070D01*
X310404884Y-60944070D01*
X310404884Y-60644070D01*
X310404884Y-60294070D01*
X310454884Y-60044070D01*
X310604884Y-59644070D01*
X310904884Y-59194070D01*
X306554884Y-59194070D01*
G36*
X310604884Y-59644070D02*
G01*
X310454884Y-60044070D01*
X310404884Y-60294070D01*
X310404884Y-60644070D01*
X310404884Y-60944070D01*
X310504884Y-61344070D01*
X310654884Y-61694070D01*
X310804884Y-61944070D01*
X311104884Y-62294070D01*
X311354884Y-62494070D01*
X311804884Y-62744070D01*
X309754884Y-62744070D01*
X309254884Y-62794070D01*
X308904884Y-62894070D01*
X308654884Y-63094070D01*
X308604884Y-62644070D01*
X308404884Y-62094070D01*
X308004884Y-61544070D01*
X307704884Y-61294070D01*
X307204884Y-60994070D01*
X306604884Y-60844070D01*
X306104884Y-60844070D01*
X305654884Y-60944070D01*
X305404884Y-61044070D01*
X304954884Y-61294070D01*
X304804884Y-61194070D01*
X304654884Y-61094070D01*
X304654884Y-60694070D01*
X304754884Y-60294070D01*
X304904884Y-60044070D01*
X305054884Y-59844070D01*
X305204884Y-59694070D01*
X305404884Y-59544070D01*
X305554884Y-59444070D01*
X305754884Y-59344070D01*
X306054884Y-59244070D01*
X306354884Y-59194070D01*
X306554884Y-59194070D01*
X310904884Y-59194070D01*
X310604884Y-59644070D01*
G37*
%TO.C,S8*%
X268554884Y-39191570D02*
X268354884Y-39191570D01*
X268054884Y-39241570D01*
X267754884Y-39341570D01*
X267554884Y-39441570D01*
X267404884Y-39541570D01*
X267204884Y-39691570D01*
X267054884Y-39841570D01*
X266904884Y-40041570D01*
X266754884Y-40291570D01*
X266654884Y-40691570D01*
X266654884Y-41091570D01*
X266804884Y-41191570D01*
X266954884Y-41291570D01*
X267404884Y-41041570D01*
X267654884Y-40941570D01*
X268104884Y-40841570D01*
X268604884Y-40841570D01*
X269204884Y-40991570D01*
X269704884Y-41291570D01*
X270004884Y-41541570D01*
X270404884Y-42091570D01*
X270604884Y-42641570D01*
X270654884Y-43091570D01*
X270904884Y-42891570D01*
X271254884Y-42791570D01*
X271754884Y-42741570D01*
X273804884Y-42741570D01*
X273354884Y-42491570D01*
X273104884Y-42291570D01*
X272804884Y-41941570D01*
X272654884Y-41691570D01*
X272504884Y-41341570D01*
X272404884Y-40941570D01*
X272404884Y-40641570D01*
X272404884Y-40291570D01*
X272454884Y-40041570D01*
X272604884Y-39641570D01*
X272904884Y-39191570D01*
X268554884Y-39191570D01*
G36*
X272604884Y-39641570D02*
G01*
X272454884Y-40041570D01*
X272404884Y-40291570D01*
X272404884Y-40641570D01*
X272404884Y-40941570D01*
X272504884Y-41341570D01*
X272654884Y-41691570D01*
X272804884Y-41941570D01*
X273104884Y-42291570D01*
X273354884Y-42491570D01*
X273804884Y-42741570D01*
X271754884Y-42741570D01*
X271254884Y-42791570D01*
X270904884Y-42891570D01*
X270654884Y-43091570D01*
X270604884Y-42641570D01*
X270404884Y-42091570D01*
X270004884Y-41541570D01*
X269704884Y-41291570D01*
X269204884Y-40991570D01*
X268604884Y-40841570D01*
X268104884Y-40841570D01*
X267654884Y-40941570D01*
X267404884Y-41041570D01*
X266954884Y-41291570D01*
X266804884Y-41191570D01*
X266654884Y-41091570D01*
X266654884Y-40691570D01*
X266754884Y-40291570D01*
X266904884Y-40041570D01*
X267054884Y-39841570D01*
X267204884Y-39691570D01*
X267404884Y-39541570D01*
X267554884Y-39441570D01*
X267754884Y-39341570D01*
X268054884Y-39241570D01*
X268354884Y-39191570D01*
X268554884Y-39191570D01*
X272904884Y-39191570D01*
X272604884Y-39641570D01*
G37*
%TO.C,S19*%
X182331190Y-95792257D02*
X182167359Y-95906972D01*
X181950293Y-96120003D01*
X181761905Y-96373991D01*
X181655432Y-96570621D01*
X181589917Y-96738573D01*
X181512123Y-96976161D01*
X181475286Y-97185070D01*
X181467129Y-97434937D01*
X181487650Y-97725762D01*
X181635166Y-98110780D01*
X181864596Y-98438441D01*
X182044827Y-98434320D01*
X182225057Y-98430198D01*
X182450281Y-97967301D01*
X182597712Y-97741992D01*
X182908973Y-97401967D01*
X183318549Y-97115179D01*
X183896076Y-96893906D01*
X184477725Y-96852863D01*
X184866865Y-96885578D01*
X185509993Y-97106681D01*
X185989290Y-97442500D01*
X186288357Y-97782439D01*
X186378430Y-97475215D01*
X186607775Y-97192548D01*
X186988673Y-96864802D01*
X188667934Y-95688970D01*
X188155922Y-95742292D01*
X187836419Y-95721855D01*
X187389921Y-95607225D01*
X187123654Y-95488474D01*
X186800030Y-95287807D01*
X186488684Y-95017504D01*
X186316611Y-94771758D01*
X186115859Y-94485055D01*
X186013423Y-94251588D01*
X185906865Y-93837891D01*
X185894501Y-93297199D01*
X182331190Y-95792257D01*
G36*
X185906865Y-93837891D02*
G01*
X186013423Y-94251588D01*
X186115859Y-94485055D01*
X186316611Y-94771758D01*
X186488684Y-95017504D01*
X186800030Y-95287807D01*
X187123654Y-95488474D01*
X187389921Y-95607225D01*
X187836419Y-95721855D01*
X188155922Y-95742292D01*
X188667934Y-95688970D01*
X186988673Y-96864802D01*
X186607775Y-97192548D01*
X186378430Y-97475215D01*
X186288357Y-97782439D01*
X185989290Y-97442500D01*
X185509993Y-97106681D01*
X184866865Y-96885578D01*
X184477725Y-96852863D01*
X183896076Y-96893906D01*
X183318549Y-97115179D01*
X182908973Y-97401967D01*
X182597712Y-97741992D01*
X182450281Y-97967301D01*
X182225057Y-98430198D01*
X182044827Y-98434320D01*
X181864596Y-98438441D01*
X181635166Y-98110780D01*
X181487650Y-97725762D01*
X181467129Y-97434937D01*
X181475286Y-97185070D01*
X181512123Y-96976161D01*
X181589917Y-96738573D01*
X181655432Y-96570621D01*
X181761905Y-96373991D01*
X181950293Y-96120003D01*
X182167359Y-95906972D01*
X182331190Y-95792257D01*
X185894501Y-93297199D01*
X185906865Y-93837891D01*
G37*
%TO.C,D4*%
D11*
X19095142Y-77004022D02*
X19495142Y-77004022D01*
X19495142Y-77004022D02*
X19495142Y-76454022D01*
X19495142Y-77004022D02*
X19495142Y-77554022D01*
X19495142Y-77004022D02*
X20095142Y-76604022D01*
X20095142Y-76604022D02*
X20095142Y-77404022D01*
X20095142Y-77004022D02*
X20595142Y-77004022D01*
X20095142Y-77404022D02*
X19495142Y-77004022D01*
%TO.C,D20*%
X122922651Y-134373489D02*
X123179766Y-134679906D01*
X123179766Y-134679906D02*
X122758442Y-135033440D01*
X123179766Y-134679906D02*
X123601091Y-134326373D01*
X123179766Y-134679906D02*
X123871857Y-134882418D01*
X123259021Y-135396648D02*
X123179766Y-134679906D01*
X123565439Y-135139533D02*
X123886833Y-135522555D01*
X123871857Y-134882418D02*
X123259021Y-135396648D01*
%TO.C,D8*%
X38095142Y-53191522D02*
X38495142Y-53191522D01*
X38495142Y-53191522D02*
X38495142Y-52641522D01*
X38495142Y-53191522D02*
X38495142Y-53741522D01*
X38495142Y-53191522D02*
X39095142Y-52791522D01*
X39095142Y-52791522D02*
X39095142Y-53591522D01*
X39095142Y-53191522D02*
X39595142Y-53191522D01*
X39095142Y-53591522D02*
X38495142Y-53191522D01*
%TO.C,D13*%
X76095142Y-80814022D02*
X76495142Y-80814022D01*
X76495142Y-80814022D02*
X76495142Y-80264022D01*
X76495142Y-80814022D02*
X76495142Y-81364022D01*
X76495142Y-80814022D02*
X77095142Y-80414022D01*
X77095142Y-80414022D02*
X77095142Y-81214022D01*
X77095142Y-80814022D02*
X77595142Y-80814022D01*
X77095142Y-81214022D02*
X76495142Y-80814022D01*
%TO.C,D12*%
X57095142Y-39856522D02*
X57495142Y-39856522D01*
X57495142Y-39856522D02*
X57495142Y-39306522D01*
X57495142Y-39856522D02*
X57495142Y-40406522D01*
X57495142Y-39856522D02*
X58095142Y-39456522D01*
X58095142Y-39456522D02*
X58095142Y-40256522D01*
X58095142Y-39856522D02*
X58595142Y-39856522D01*
X58095142Y-40256522D02*
X57495142Y-39856522D01*
%TO.C,D14*%
X76095142Y-61764022D02*
X76495142Y-61764022D01*
X76495142Y-61764022D02*
X76495142Y-61214022D01*
X76495142Y-61764022D02*
X76495142Y-62314022D01*
X76495142Y-61764022D02*
X77095142Y-61364022D01*
X77095142Y-61364022D02*
X77095142Y-62164022D01*
X77095142Y-61764022D02*
X77595142Y-61764022D01*
X77095142Y-62164022D02*
X76495142Y-61764022D01*
%TO.C,D6*%
X19095142Y-38904022D02*
X19495142Y-38904022D01*
X19495142Y-38904022D02*
X19495142Y-38354022D01*
X19495142Y-38904022D02*
X19495142Y-39454022D01*
X19495142Y-38904022D02*
X20095142Y-38504022D01*
X20095142Y-38504022D02*
X20095142Y-39304022D01*
X20095142Y-38904022D02*
X20595142Y-38904022D01*
X20095142Y-39304022D02*
X19495142Y-38904022D01*
%TO.C,>NAME*%
D13*
X59477742Y-95101922D02*
X59477742Y-104753922D01*
X63033742Y-95101922D02*
X59477742Y-95101922D01*
X63033742Y-95101922D02*
X63033742Y-92942922D01*
X63033742Y-104753922D02*
X59477742Y-104753922D01*
X63033742Y-104753922D02*
X63033742Y-108817922D01*
X65065742Y-85957922D02*
X65065742Y-92942922D01*
X65065742Y-92942922D02*
X63033742Y-92942922D01*
X65827742Y-108817922D02*
X63033742Y-108817922D01*
X65827742Y-111357922D02*
X65827742Y-108817922D01*
X75479742Y-108817922D02*
X78273742Y-108817922D01*
X75479742Y-111357922D02*
X65827742Y-111357922D01*
X75479742Y-111357922D02*
X75479742Y-108817922D01*
X76241742Y-85957922D02*
X65065742Y-85957922D01*
X76241742Y-85957922D02*
X76241742Y-92942922D01*
X78273742Y-92942922D02*
X76241742Y-92942922D01*
X78273742Y-95863922D02*
X78273742Y-92942922D01*
X78273742Y-95863922D02*
X80178742Y-95863922D01*
X78273742Y-103991922D02*
X78273742Y-108817922D01*
X78273742Y-103991922D02*
X80178742Y-103991922D01*
X80178742Y-95863922D02*
X80178742Y-103991922D01*
D10*
X71102755Y-99927922D02*
G75*
G02*
X70204729Y-99927922I-449013J0D01*
G01*
X70204729Y-99927922D02*
G75*
G02*
X71102755Y-99927922I449013J0D01*
G01*
%TO.C,D19*%
D11*
X118796178Y-105307840D02*
X119123839Y-105537270D01*
X119123839Y-105537270D02*
X118808372Y-105987804D01*
X119123839Y-105537270D02*
X119439306Y-105086737D01*
X119123839Y-105537270D02*
X119844761Y-105553755D01*
X119385899Y-106209077D02*
X119123839Y-105537270D01*
X119615330Y-105881416D02*
X120024906Y-106168204D01*
X119844761Y-105553755D02*
X119385899Y-106209077D01*
%TO.C,D18*%
X107898278Y-120871740D02*
X108225939Y-121101170D01*
X108225939Y-121101170D02*
X107910472Y-121551704D01*
X108225939Y-121101170D02*
X108541406Y-120650637D01*
X108225939Y-121101170D02*
X108946861Y-121117655D01*
X108487999Y-121772977D02*
X108225939Y-121101170D01*
X108717430Y-121445316D02*
X109127006Y-121732104D01*
X108946861Y-121117655D02*
X108487999Y-121772977D01*
%TO.C,D1*%
X95142Y-92244022D02*
X495142Y-92244022D01*
X495142Y-92244022D02*
X495142Y-91694022D01*
X495142Y-92244022D02*
X495142Y-92794022D01*
X495142Y-92244022D02*
X1095142Y-91844022D01*
X1095142Y-91844022D02*
X1095142Y-92644022D01*
X1095142Y-92244022D02*
X1595142Y-92244022D01*
X1095142Y-92644022D02*
X495142Y-92244022D01*
%TO.C,D15*%
X76095142Y-42714022D02*
X76495142Y-42714022D01*
X76495142Y-42714022D02*
X76495142Y-42164022D01*
X76495142Y-42714022D02*
X76495142Y-43264022D01*
X76495142Y-42714022D02*
X77095142Y-42314022D01*
X77095142Y-42314022D02*
X77095142Y-43114022D01*
X77095142Y-42714022D02*
X77595142Y-42714022D01*
X77095142Y-43114022D02*
X76495142Y-42714022D01*
%TO.C,D11*%
X57095142Y-58906522D02*
X57495142Y-58906522D01*
X57495142Y-58906522D02*
X57495142Y-58356522D01*
X57495142Y-58906522D02*
X57495142Y-59456522D01*
X57495142Y-58906522D02*
X58095142Y-58506522D01*
X58095142Y-58506522D02*
X58095142Y-59306522D01*
X58095142Y-58906522D02*
X58595142Y-58906522D01*
X58095142Y-59306522D02*
X57495142Y-58906522D01*
%TO.C,D7*%
X38095142Y-72241522D02*
X38495142Y-72241522D01*
X38495142Y-72241522D02*
X38495142Y-71691522D01*
X38495142Y-72241522D02*
X38495142Y-72791522D01*
X38495142Y-72241522D02*
X39095142Y-71841522D01*
X39095142Y-71841522D02*
X39095142Y-72641522D01*
X39095142Y-72241522D02*
X39595142Y-72241522D01*
X39095142Y-72641522D02*
X38495142Y-72241522D01*
%TO.C,D3*%
X95142Y-54144022D02*
X495142Y-54144022D01*
X495142Y-54144022D02*
X495142Y-53594022D01*
X495142Y-54144022D02*
X495142Y-54694022D01*
X495142Y-54144022D02*
X1095142Y-53744022D01*
X1095142Y-53744022D02*
X1095142Y-54544022D01*
X1095142Y-54144022D02*
X1595142Y-54144022D01*
X1095142Y-54544022D02*
X495142Y-54144022D01*
%TO.C,D10*%
X57095142Y-77956522D02*
X57495142Y-77956522D01*
X57495142Y-77956522D02*
X57495142Y-77406522D01*
X57495142Y-77956522D02*
X57495142Y-78506522D01*
X57495142Y-77956522D02*
X58095142Y-77556522D01*
X58095142Y-77556522D02*
X58095142Y-78356522D01*
X58095142Y-77956522D02*
X58595142Y-77956522D01*
X58095142Y-78356522D02*
X57495142Y-77956522D01*
%TO.C,D17*%
X96389673Y-93864507D02*
X96765550Y-94001315D01*
X96765550Y-94001315D02*
X96577439Y-94518146D01*
X96765550Y-94001315D02*
X96953661Y-93484484D01*
X96765550Y-94001315D02*
X97466173Y-93830650D01*
X97192557Y-94582404D02*
X96765550Y-94001315D01*
X97329365Y-94206527D02*
X97799211Y-94377537D01*
X97466173Y-93830650D02*
X97192557Y-94582404D01*
%TO.C,D5*%
X19095142Y-57954022D02*
X19495142Y-57954022D01*
X19495142Y-57954022D02*
X19495142Y-57404022D01*
X19495142Y-57954022D02*
X19495142Y-58504022D01*
X19495142Y-57954022D02*
X20095142Y-57554022D01*
X20095142Y-57554022D02*
X20095142Y-58354022D01*
X20095142Y-57954022D02*
X20595142Y-57954022D01*
X20095142Y-58354022D02*
X19495142Y-57954022D01*
%TO.C,D16*%
X89891273Y-111718607D02*
X90267150Y-111855415D01*
X90267150Y-111855415D02*
X90079039Y-112372246D01*
X90267150Y-111855415D02*
X90455261Y-111338584D01*
X90267150Y-111855415D02*
X90967773Y-111684750D01*
X90694157Y-112436504D02*
X90267150Y-111855415D01*
X90830965Y-112060627D02*
X91300811Y-112231637D01*
X90967773Y-111684750D02*
X90694157Y-112436504D01*
%TO.C,D2*%
X95142Y-73194022D02*
X495142Y-73194022D01*
X495142Y-73194022D02*
X495142Y-72644022D01*
X495142Y-73194022D02*
X495142Y-73744022D01*
X495142Y-73194022D02*
X1095142Y-72794022D01*
X1095142Y-72794022D02*
X1095142Y-73594022D01*
X1095142Y-73194022D02*
X1595142Y-73194022D01*
X1095142Y-73594022D02*
X495142Y-73194022D01*
%TO.C,D9*%
X38095142Y-34141522D02*
X38495142Y-34141522D01*
X38495142Y-34141522D02*
X38495142Y-33591522D01*
X38495142Y-34141522D02*
X38495142Y-34691522D01*
X38495142Y-34141522D02*
X39095142Y-33741522D01*
X39095142Y-33741522D02*
X39095142Y-34541522D01*
X39095142Y-34141522D02*
X39595142Y-34141522D01*
X39095142Y-34541522D02*
X38495142Y-34141522D01*
D12*
%TO.C,S20*%
X129517195Y-125119643D02*
X129388638Y-124966434D01*
X129157499Y-124768760D01*
X128888059Y-124603225D01*
X128682897Y-124514295D01*
X128509874Y-124463667D01*
X128266410Y-124406876D01*
X128055085Y-124388388D01*
X127805458Y-124402039D01*
X127517529Y-124447829D01*
X127146832Y-124628340D01*
X126840415Y-124885455D01*
X126860228Y-125064640D01*
X126880042Y-125243825D01*
X127360808Y-125427849D01*
X127598109Y-125555081D01*
X127963968Y-125835522D01*
X128285362Y-126218544D01*
X128556127Y-126774589D01*
X128647708Y-127350448D01*
X128649033Y-127740958D01*
X128484824Y-128400909D01*
X128192057Y-128907651D01*
X127879476Y-129235208D01*
X128193382Y-129298161D01*
X128494962Y-129501998D01*
X128854658Y-129852881D01*
X130172373Y-131423272D01*
X130074629Y-130917855D01*
X130067141Y-130597786D01*
X130142421Y-130142997D01*
X130237514Y-129867394D01*
X130409211Y-129527511D01*
X130651350Y-129193792D01*
X130881163Y-129000956D01*
X131149279Y-128775980D01*
X131372929Y-128653585D01*
X131775765Y-128511377D01*
X132313322Y-128451936D01*
X129517195Y-125119643D01*
G36*
X128266410Y-124406876D02*
G01*
X128509874Y-124463667D01*
X128682897Y-124514295D01*
X128888059Y-124603225D01*
X129157499Y-124768760D01*
X129388638Y-124966434D01*
X129517195Y-125119643D01*
X132313322Y-128451936D01*
X131775765Y-128511377D01*
X131372929Y-128653585D01*
X131149279Y-128775980D01*
X130881163Y-129000956D01*
X130651350Y-129193792D01*
X130409211Y-129527511D01*
X130237514Y-129867394D01*
X130142421Y-130142997D01*
X130067141Y-130597786D01*
X130074629Y-130917855D01*
X130172373Y-131423272D01*
X128854658Y-129852881D01*
X128494962Y-129501998D01*
X128193382Y-129298161D01*
X127879476Y-129235208D01*
X128192057Y-128907651D01*
X128484824Y-128400909D01*
X128649033Y-127740958D01*
X128647708Y-127350448D01*
X128556127Y-126774589D01*
X128285362Y-126218544D01*
X127963968Y-125835522D01*
X127598109Y-125555081D01*
X127360808Y-125427849D01*
X126880042Y-125243825D01*
X126860228Y-125064640D01*
X126840415Y-124885455D01*
X127146832Y-124628340D01*
X127517529Y-124447829D01*
X127805458Y-124402039D01*
X128055085Y-124388388D01*
X128266410Y-124406876D01*
G37*
%TO.C,S12*%
X54245142Y-28856522D02*
X54045142Y-28856522D01*
X53745142Y-28906522D01*
X53445142Y-29006522D01*
X53245142Y-29106522D01*
X53095142Y-29206522D01*
X52895142Y-29356522D01*
X52745142Y-29506522D01*
X52595142Y-29706522D01*
X52445142Y-29956522D01*
X52345142Y-30356522D01*
X52345142Y-30756522D01*
X52495142Y-30856522D01*
X52645142Y-30956522D01*
X53095142Y-30706522D01*
X53345142Y-30606522D01*
X53795142Y-30506522D01*
X54295142Y-30506522D01*
X54895142Y-30656522D01*
X55395142Y-30956522D01*
X55695142Y-31206522D01*
X56095142Y-31756522D01*
X56295142Y-32306522D01*
X56345142Y-32756522D01*
X56595142Y-32556522D01*
X56945142Y-32456522D01*
X57445142Y-32406522D01*
X59495142Y-32406522D01*
X59045142Y-32156522D01*
X58795142Y-31956522D01*
X58495142Y-31606522D01*
X58345142Y-31356522D01*
X58195142Y-31006522D01*
X58095142Y-30606522D01*
X58095142Y-30306522D01*
X58095142Y-29956522D01*
X58145142Y-29706522D01*
X58295142Y-29306522D01*
X58595142Y-28856522D01*
X54245142Y-28856522D01*
G36*
X58295142Y-29306522D02*
G01*
X58145142Y-29706522D01*
X58095142Y-29956522D01*
X58095142Y-30306522D01*
X58095142Y-30606522D01*
X58195142Y-31006522D01*
X58345142Y-31356522D01*
X58495142Y-31606522D01*
X58795142Y-31956522D01*
X59045142Y-32156522D01*
X59495142Y-32406522D01*
X57445142Y-32406522D01*
X56945142Y-32456522D01*
X56595142Y-32556522D01*
X56345142Y-32756522D01*
X56295142Y-32306522D01*
X56095142Y-31756522D01*
X55695142Y-31206522D01*
X55395142Y-30956522D01*
X54895142Y-30656522D01*
X54295142Y-30506522D01*
X53795142Y-30506522D01*
X53345142Y-30606522D01*
X53095142Y-30706522D01*
X52645142Y-30956522D01*
X52495142Y-30856522D01*
X52345142Y-30756522D01*
X52345142Y-30356522D01*
X52445142Y-29956522D01*
X52595142Y-29706522D01*
X52745142Y-29506522D01*
X52895142Y-29356522D01*
X53095142Y-29206522D01*
X53245142Y-29106522D01*
X53445142Y-29006522D01*
X53745142Y-28906522D01*
X54045142Y-28856522D01*
X54245142Y-28856522D01*
X58595142Y-28856522D01*
X58295142Y-29306522D01*
G37*
%TO.C,S14*%
X73245142Y-50764022D02*
X73045142Y-50764022D01*
X72745142Y-50814022D01*
X72445142Y-50914022D01*
X72245142Y-51014022D01*
X72095142Y-51114022D01*
X71895142Y-51264022D01*
X71745142Y-51414022D01*
X71595142Y-51614022D01*
X71445142Y-51864022D01*
X71345142Y-52264022D01*
X71345142Y-52664022D01*
X71495142Y-52764022D01*
X71645142Y-52864022D01*
X72095142Y-52614022D01*
X72345142Y-52514022D01*
X72795142Y-52414022D01*
X73295142Y-52414022D01*
X73895142Y-52564022D01*
X74395142Y-52864022D01*
X74695142Y-53114022D01*
X75095142Y-53664022D01*
X75295142Y-54214022D01*
X75345142Y-54664022D01*
X75595142Y-54464022D01*
X75945142Y-54364022D01*
X76445142Y-54314022D01*
X78495142Y-54314022D01*
X78045142Y-54064022D01*
X77795142Y-53864022D01*
X77495142Y-53514022D01*
X77345142Y-53264022D01*
X77195142Y-52914022D01*
X77095142Y-52514022D01*
X77095142Y-52214022D01*
X77095142Y-51864022D01*
X77145142Y-51614022D01*
X77295142Y-51214022D01*
X77595142Y-50764022D01*
X73245142Y-50764022D01*
G36*
X77295142Y-51214022D02*
G01*
X77145142Y-51614022D01*
X77095142Y-51864022D01*
X77095142Y-52214022D01*
X77095142Y-52514022D01*
X77195142Y-52914022D01*
X77345142Y-53264022D01*
X77495142Y-53514022D01*
X77795142Y-53864022D01*
X78045142Y-54064022D01*
X78495142Y-54314022D01*
X76445142Y-54314022D01*
X75945142Y-54364022D01*
X75595142Y-54464022D01*
X75345142Y-54664022D01*
X75295142Y-54214022D01*
X75095142Y-53664022D01*
X74695142Y-53114022D01*
X74395142Y-52864022D01*
X73895142Y-52564022D01*
X73295142Y-52414022D01*
X72795142Y-52414022D01*
X72345142Y-52514022D01*
X72095142Y-52614022D01*
X71645142Y-52864022D01*
X71495142Y-52764022D01*
X71345142Y-52664022D01*
X71345142Y-52264022D01*
X71445142Y-51864022D01*
X71595142Y-51614022D01*
X71745142Y-51414022D01*
X71895142Y-51264022D01*
X72095142Y-51114022D01*
X72245142Y-51014022D01*
X72445142Y-50914022D01*
X72745142Y-50814022D01*
X73045142Y-50764022D01*
X73245142Y-50764022D01*
X77595142Y-50764022D01*
X77295142Y-51214022D01*
G37*
%TO.C,S9*%
X35245142Y-23141522D02*
X35045142Y-23141522D01*
X34745142Y-23191522D01*
X34445142Y-23291522D01*
X34245142Y-23391522D01*
X34095142Y-23491522D01*
X33895142Y-23641522D01*
X33745142Y-23791522D01*
X33595142Y-23991522D01*
X33445142Y-24241522D01*
X33345142Y-24641522D01*
X33345142Y-25041522D01*
X33495142Y-25141522D01*
X33645142Y-25241522D01*
X34095142Y-24991522D01*
X34345142Y-24891522D01*
X34795142Y-24791522D01*
X35295142Y-24791522D01*
X35895142Y-24941522D01*
X36395142Y-25241522D01*
X36695142Y-25491522D01*
X37095142Y-26041522D01*
X37295142Y-26591522D01*
X37345142Y-27041522D01*
X37595142Y-26841522D01*
X37945142Y-26741522D01*
X38445142Y-26691522D01*
X40495142Y-26691522D01*
X40045142Y-26441522D01*
X39795142Y-26241522D01*
X39495142Y-25891522D01*
X39345142Y-25641522D01*
X39195142Y-25291522D01*
X39095142Y-24891522D01*
X39095142Y-24591522D01*
X39095142Y-24241522D01*
X39145142Y-23991522D01*
X39295142Y-23591522D01*
X39595142Y-23141522D01*
X35245142Y-23141522D01*
G36*
X39295142Y-23591522D02*
G01*
X39145142Y-23991522D01*
X39095142Y-24241522D01*
X39095142Y-24591522D01*
X39095142Y-24891522D01*
X39195142Y-25291522D01*
X39345142Y-25641522D01*
X39495142Y-25891522D01*
X39795142Y-26241522D01*
X40045142Y-26441522D01*
X40495142Y-26691522D01*
X38445142Y-26691522D01*
X37945142Y-26741522D01*
X37595142Y-26841522D01*
X37345142Y-27041522D01*
X37295142Y-26591522D01*
X37095142Y-26041522D01*
X36695142Y-25491522D01*
X36395142Y-25241522D01*
X35895142Y-24941522D01*
X35295142Y-24791522D01*
X34795142Y-24791522D01*
X34345142Y-24891522D01*
X34095142Y-24991522D01*
X33645142Y-25241522D01*
X33495142Y-25141522D01*
X33345142Y-25041522D01*
X33345142Y-24641522D01*
X33445142Y-24241522D01*
X33595142Y-23991522D01*
X33745142Y-23791522D01*
X33895142Y-23641522D01*
X34095142Y-23491522D01*
X34245142Y-23391522D01*
X34445142Y-23291522D01*
X34745142Y-23191522D01*
X35045142Y-23141522D01*
X35245142Y-23141522D01*
X39595142Y-23141522D01*
X39295142Y-23591522D01*
G37*
%TO.C,S2*%
X-2754858Y-62194022D02*
X-2954858Y-62194022D01*
X-3254858Y-62244022D01*
X-3554858Y-62344022D01*
X-3754858Y-62444022D01*
X-3904858Y-62544022D01*
X-4104858Y-62694022D01*
X-4254858Y-62844022D01*
X-4404858Y-63044022D01*
X-4554858Y-63294022D01*
X-4654858Y-63694022D01*
X-4654858Y-64094022D01*
X-4504858Y-64194022D01*
X-4354858Y-64294022D01*
X-3904858Y-64044022D01*
X-3654858Y-63944022D01*
X-3204858Y-63844022D01*
X-2704858Y-63844022D01*
X-2104858Y-63994022D01*
X-1604858Y-64294022D01*
X-1304858Y-64544022D01*
X-904858Y-65094022D01*
X-704858Y-65644022D01*
X-654858Y-66094022D01*
X-404858Y-65894022D01*
X-54858Y-65794022D01*
X445142Y-65744022D01*
X2495142Y-65744022D01*
X2045142Y-65494022D01*
X1795142Y-65294022D01*
X1495142Y-64944022D01*
X1345142Y-64694022D01*
X1195142Y-64344022D01*
X1095142Y-63944022D01*
X1095142Y-63644022D01*
X1095142Y-63294022D01*
X1145142Y-63044022D01*
X1295142Y-62644022D01*
X1595142Y-62194022D01*
X-2754858Y-62194022D01*
G36*
X1295142Y-62644022D02*
G01*
X1145142Y-63044022D01*
X1095142Y-63294022D01*
X1095142Y-63644022D01*
X1095142Y-63944022D01*
X1195142Y-64344022D01*
X1345142Y-64694022D01*
X1495142Y-64944022D01*
X1795142Y-65294022D01*
X2045142Y-65494022D01*
X2495142Y-65744022D01*
X445142Y-65744022D01*
X-54858Y-65794022D01*
X-404858Y-65894022D01*
X-654858Y-66094022D01*
X-704858Y-65644022D01*
X-904858Y-65094022D01*
X-1304858Y-64544022D01*
X-1604858Y-64294022D01*
X-2104858Y-63994022D01*
X-2704858Y-63844022D01*
X-3204858Y-63844022D01*
X-3654858Y-63944022D01*
X-3904858Y-64044022D01*
X-4354858Y-64294022D01*
X-4504858Y-64194022D01*
X-4654858Y-64094022D01*
X-4654858Y-63694022D01*
X-4554858Y-63294022D01*
X-4404858Y-63044022D01*
X-4254858Y-62844022D01*
X-4104858Y-62694022D01*
X-3904858Y-62544022D01*
X-3754858Y-62444022D01*
X-3554858Y-62344022D01*
X-3254858Y-62244022D01*
X-2954858Y-62194022D01*
X-2754858Y-62194022D01*
X1595142Y-62194022D01*
X1295142Y-62644022D01*
G37*
%TO.C,S19*%
X122770941Y-94662459D02*
X122607111Y-94547743D01*
X122332687Y-94416628D01*
X122029583Y-94326470D01*
X121808395Y-94293670D01*
X121628165Y-94289549D01*
X121378298Y-94297706D01*
X121169389Y-94334543D01*
X120931801Y-94412337D01*
X120665534Y-94531088D01*
X120354188Y-94801391D01*
X120124757Y-95129052D01*
X120190273Y-95297004D01*
X120255789Y-95464956D01*
X120767800Y-95518277D01*
X121029946Y-95579756D01*
X121455922Y-95755950D01*
X121865498Y-96042738D01*
X122270953Y-96509757D01*
X122508456Y-97042291D01*
X122610807Y-97419152D01*
X122623001Y-98099116D01*
X122471364Y-98664365D01*
X122254213Y-99061662D01*
X122573716Y-99041226D01*
X122917777Y-99160062D01*
X123356032Y-99405893D01*
X125035293Y-100581725D01*
X124810069Y-100118827D01*
X124719996Y-99811603D01*
X124675002Y-99352827D01*
X124695524Y-99062002D01*
X124773403Y-98689262D01*
X124920918Y-98304244D01*
X125092991Y-98058498D01*
X125293743Y-97771795D01*
X125478094Y-97595686D01*
X125830398Y-97354062D01*
X126334253Y-97157516D01*
X122770941Y-94662459D01*
G36*
X121808395Y-94293670D02*
G01*
X122029583Y-94326470D01*
X122332687Y-94416628D01*
X122607111Y-94547743D01*
X122770941Y-94662459D01*
X126334253Y-97157516D01*
X125830398Y-97354062D01*
X125478094Y-97595686D01*
X125293743Y-97771795D01*
X125092991Y-98058498D01*
X124920918Y-98304244D01*
X124773403Y-98689262D01*
X124695524Y-99062002D01*
X124675002Y-99352827D01*
X124719996Y-99811603D01*
X124810069Y-100118827D01*
X125035293Y-100581725D01*
X123356032Y-99405893D01*
X122917777Y-99160062D01*
X122573716Y-99041226D01*
X122254213Y-99061662D01*
X122471364Y-98664365D01*
X122623001Y-98099116D01*
X122610807Y-97419152D01*
X122508456Y-97042291D01*
X122270953Y-96509757D01*
X121865498Y-96042738D01*
X121455922Y-95755950D01*
X121029946Y-95579756D01*
X120767800Y-95518277D01*
X120255789Y-95464956D01*
X120190273Y-95297004D01*
X120124757Y-95129052D01*
X120354188Y-94801391D01*
X120665534Y-94531088D01*
X120931801Y-94412337D01*
X121169389Y-94334543D01*
X121378298Y-94297706D01*
X121628165Y-94289549D01*
X121808395Y-94293670D01*
G37*
%TO.C,S7*%
X35245142Y-61241522D02*
X35045142Y-61241522D01*
X34745142Y-61291522D01*
X34445142Y-61391522D01*
X34245142Y-61491522D01*
X34095142Y-61591522D01*
X33895142Y-61741522D01*
X33745142Y-61891522D01*
X33595142Y-62091522D01*
X33445142Y-62341522D01*
X33345142Y-62741522D01*
X33345142Y-63141522D01*
X33495142Y-63241522D01*
X33645142Y-63341522D01*
X34095142Y-63091522D01*
X34345142Y-62991522D01*
X34795142Y-62891522D01*
X35295142Y-62891522D01*
X35895142Y-63041522D01*
X36395142Y-63341522D01*
X36695142Y-63591522D01*
X37095142Y-64141522D01*
X37295142Y-64691522D01*
X37345142Y-65141522D01*
X37595142Y-64941522D01*
X37945142Y-64841522D01*
X38445142Y-64791522D01*
X40495142Y-64791522D01*
X40045142Y-64541522D01*
X39795142Y-64341522D01*
X39495142Y-63991522D01*
X39345142Y-63741522D01*
X39195142Y-63391522D01*
X39095142Y-62991522D01*
X39095142Y-62691522D01*
X39095142Y-62341522D01*
X39145142Y-62091522D01*
X39295142Y-61691522D01*
X39595142Y-61241522D01*
X35245142Y-61241522D01*
G36*
X39295142Y-61691522D02*
G01*
X39145142Y-62091522D01*
X39095142Y-62341522D01*
X39095142Y-62691522D01*
X39095142Y-62991522D01*
X39195142Y-63391522D01*
X39345142Y-63741522D01*
X39495142Y-63991522D01*
X39795142Y-64341522D01*
X40045142Y-64541522D01*
X40495142Y-64791522D01*
X38445142Y-64791522D01*
X37945142Y-64841522D01*
X37595142Y-64941522D01*
X37345142Y-65141522D01*
X37295142Y-64691522D01*
X37095142Y-64141522D01*
X36695142Y-63591522D01*
X36395142Y-63341522D01*
X35895142Y-63041522D01*
X35295142Y-62891522D01*
X34795142Y-62891522D01*
X34345142Y-62991522D01*
X34095142Y-63091522D01*
X33645142Y-63341522D01*
X33495142Y-63241522D01*
X33345142Y-63141522D01*
X33345142Y-62741522D01*
X33445142Y-62341522D01*
X33595142Y-62091522D01*
X33745142Y-61891522D01*
X33895142Y-61741522D01*
X34095142Y-61591522D01*
X34245142Y-61491522D01*
X34445142Y-61391522D01*
X34745142Y-61291522D01*
X35045142Y-61241522D01*
X35245142Y-61241522D01*
X39595142Y-61241522D01*
X39295142Y-61691522D01*
G37*
%TO.C,S5*%
X16245142Y-46954022D02*
X16045142Y-46954022D01*
X15745142Y-47004022D01*
X15445142Y-47104022D01*
X15245142Y-47204022D01*
X15095142Y-47304022D01*
X14895142Y-47454022D01*
X14745142Y-47604022D01*
X14595142Y-47804022D01*
X14445142Y-48054022D01*
X14345142Y-48454022D01*
X14345142Y-48854022D01*
X14495142Y-48954022D01*
X14645142Y-49054022D01*
X15095142Y-48804022D01*
X15345142Y-48704022D01*
X15795142Y-48604022D01*
X16295142Y-48604022D01*
X16895142Y-48754022D01*
X17395142Y-49054022D01*
X17695142Y-49304022D01*
X18095142Y-49854022D01*
X18295142Y-50404022D01*
X18345142Y-50854022D01*
X18595142Y-50654022D01*
X18945142Y-50554022D01*
X19445142Y-50504022D01*
X21495142Y-50504022D01*
X21045142Y-50254022D01*
X20795142Y-50054022D01*
X20495142Y-49704022D01*
X20345142Y-49454022D01*
X20195142Y-49104022D01*
X20095142Y-48704022D01*
X20095142Y-48404022D01*
X20095142Y-48054022D01*
X20145142Y-47804022D01*
X20295142Y-47404022D01*
X20595142Y-46954022D01*
X16245142Y-46954022D01*
G36*
X20295142Y-47404022D02*
G01*
X20145142Y-47804022D01*
X20095142Y-48054022D01*
X20095142Y-48404022D01*
X20095142Y-48704022D01*
X20195142Y-49104022D01*
X20345142Y-49454022D01*
X20495142Y-49704022D01*
X20795142Y-50054022D01*
X21045142Y-50254022D01*
X21495142Y-50504022D01*
X19445142Y-50504022D01*
X18945142Y-50554022D01*
X18595142Y-50654022D01*
X18345142Y-50854022D01*
X18295142Y-50404022D01*
X18095142Y-49854022D01*
X17695142Y-49304022D01*
X17395142Y-49054022D01*
X16895142Y-48754022D01*
X16295142Y-48604022D01*
X15795142Y-48604022D01*
X15345142Y-48704022D01*
X15095142Y-48804022D01*
X14645142Y-49054022D01*
X14495142Y-48954022D01*
X14345142Y-48854022D01*
X14345142Y-48454022D01*
X14445142Y-48054022D01*
X14595142Y-47804022D01*
X14745142Y-47604022D01*
X14895142Y-47454022D01*
X15095142Y-47304022D01*
X15245142Y-47204022D01*
X15445142Y-47104022D01*
X15745142Y-47004022D01*
X16045142Y-46954022D01*
X16245142Y-46954022D01*
X20595142Y-46954022D01*
X20295142Y-47404022D01*
G37*
%TO.C,S11*%
X54245142Y-47906522D02*
X54045142Y-47906522D01*
X53745142Y-47956522D01*
X53445142Y-48056522D01*
X53245142Y-48156522D01*
X53095142Y-48256522D01*
X52895142Y-48406522D01*
X52745142Y-48556522D01*
X52595142Y-48756522D01*
X52445142Y-49006522D01*
X52345142Y-49406522D01*
X52345142Y-49806522D01*
X52495142Y-49906522D01*
X52645142Y-50006522D01*
X53095142Y-49756522D01*
X53345142Y-49656522D01*
X53795142Y-49556522D01*
X54295142Y-49556522D01*
X54895142Y-49706522D01*
X55395142Y-50006522D01*
X55695142Y-50256522D01*
X56095142Y-50806522D01*
X56295142Y-51356522D01*
X56345142Y-51806522D01*
X56595142Y-51606522D01*
X56945142Y-51506522D01*
X57445142Y-51456522D01*
X59495142Y-51456522D01*
X59045142Y-51206522D01*
X58795142Y-51006522D01*
X58495142Y-50656522D01*
X58345142Y-50406522D01*
X58195142Y-50056522D01*
X58095142Y-49656522D01*
X58095142Y-49356522D01*
X58095142Y-49006522D01*
X58145142Y-48756522D01*
X58295142Y-48356522D01*
X58595142Y-47906522D01*
X54245142Y-47906522D01*
G36*
X58295142Y-48356522D02*
G01*
X58145142Y-48756522D01*
X58095142Y-49006522D01*
X58095142Y-49356522D01*
X58095142Y-49656522D01*
X58195142Y-50056522D01*
X58345142Y-50406522D01*
X58495142Y-50656522D01*
X58795142Y-51006522D01*
X59045142Y-51206522D01*
X59495142Y-51456522D01*
X57445142Y-51456522D01*
X56945142Y-51506522D01*
X56595142Y-51606522D01*
X56345142Y-51806522D01*
X56295142Y-51356522D01*
X56095142Y-50806522D01*
X55695142Y-50256522D01*
X55395142Y-50006522D01*
X54895142Y-49706522D01*
X54295142Y-49556522D01*
X53795142Y-49556522D01*
X53345142Y-49656522D01*
X53095142Y-49756522D01*
X52645142Y-50006522D01*
X52495142Y-49906522D01*
X52345142Y-49806522D01*
X52345142Y-49406522D01*
X52445142Y-49006522D01*
X52595142Y-48756522D01*
X52745142Y-48556522D01*
X52895142Y-48406522D01*
X53095142Y-48256522D01*
X53245142Y-48156522D01*
X53445142Y-48056522D01*
X53745142Y-47956522D01*
X54045142Y-47906522D01*
X54245142Y-47906522D01*
X58595142Y-47906522D01*
X58295142Y-48356522D01*
G37*
%TO.C,S6*%
X16245142Y-27904022D02*
X16045142Y-27904022D01*
X15745142Y-27954022D01*
X15445142Y-28054022D01*
X15245142Y-28154022D01*
X15095142Y-28254022D01*
X14895142Y-28404022D01*
X14745142Y-28554022D01*
X14595142Y-28754022D01*
X14445142Y-29004022D01*
X14345142Y-29404022D01*
X14345142Y-29804022D01*
X14495142Y-29904022D01*
X14645142Y-30004022D01*
X15095142Y-29754022D01*
X15345142Y-29654022D01*
X15795142Y-29554022D01*
X16295142Y-29554022D01*
X16895142Y-29704022D01*
X17395142Y-30004022D01*
X17695142Y-30254022D01*
X18095142Y-30804022D01*
X18295142Y-31354022D01*
X18345142Y-31804022D01*
X18595142Y-31604022D01*
X18945142Y-31504022D01*
X19445142Y-31454022D01*
X21495142Y-31454022D01*
X21045142Y-31204022D01*
X20795142Y-31004022D01*
X20495142Y-30654022D01*
X20345142Y-30404022D01*
X20195142Y-30054022D01*
X20095142Y-29654022D01*
X20095142Y-29354022D01*
X20095142Y-29004022D01*
X20145142Y-28754022D01*
X20295142Y-28354022D01*
X20595142Y-27904022D01*
X16245142Y-27904022D01*
G36*
X20295142Y-28354022D02*
G01*
X20145142Y-28754022D01*
X20095142Y-29004022D01*
X20095142Y-29354022D01*
X20095142Y-29654022D01*
X20195142Y-30054022D01*
X20345142Y-30404022D01*
X20495142Y-30654022D01*
X20795142Y-31004022D01*
X21045142Y-31204022D01*
X21495142Y-31454022D01*
X19445142Y-31454022D01*
X18945142Y-31504022D01*
X18595142Y-31604022D01*
X18345142Y-31804022D01*
X18295142Y-31354022D01*
X18095142Y-30804022D01*
X17695142Y-30254022D01*
X17395142Y-30004022D01*
X16895142Y-29704022D01*
X16295142Y-29554022D01*
X15795142Y-29554022D01*
X15345142Y-29654022D01*
X15095142Y-29754022D01*
X14645142Y-30004022D01*
X14495142Y-29904022D01*
X14345142Y-29804022D01*
X14345142Y-29404022D01*
X14445142Y-29004022D01*
X14595142Y-28754022D01*
X14745142Y-28554022D01*
X14895142Y-28404022D01*
X15095142Y-28254022D01*
X15245142Y-28154022D01*
X15445142Y-28054022D01*
X15745142Y-27954022D01*
X16045142Y-27904022D01*
X16245142Y-27904022D01*
X20595142Y-27904022D01*
X20295142Y-28354022D01*
G37*
%TO.C,S10*%
X54245142Y-66956522D02*
X54045142Y-66956522D01*
X53745142Y-67006522D01*
X53445142Y-67106522D01*
X53245142Y-67206522D01*
X53095142Y-67306522D01*
X52895142Y-67456522D01*
X52745142Y-67606522D01*
X52595142Y-67806522D01*
X52445142Y-68056522D01*
X52345142Y-68456522D01*
X52345142Y-68856522D01*
X52495142Y-68956522D01*
X52645142Y-69056522D01*
X53095142Y-68806522D01*
X53345142Y-68706522D01*
X53795142Y-68606522D01*
X54295142Y-68606522D01*
X54895142Y-68756522D01*
X55395142Y-69056522D01*
X55695142Y-69306522D01*
X56095142Y-69856522D01*
X56295142Y-70406522D01*
X56345142Y-70856522D01*
X56595142Y-70656522D01*
X56945142Y-70556522D01*
X57445142Y-70506522D01*
X59495142Y-70506522D01*
X59045142Y-70256522D01*
X58795142Y-70056522D01*
X58495142Y-69706522D01*
X58345142Y-69456522D01*
X58195142Y-69106522D01*
X58095142Y-68706522D01*
X58095142Y-68406522D01*
X58095142Y-68056522D01*
X58145142Y-67806522D01*
X58295142Y-67406522D01*
X58595142Y-66956522D01*
X54245142Y-66956522D01*
G36*
X58295142Y-67406522D02*
G01*
X58145142Y-67806522D01*
X58095142Y-68056522D01*
X58095142Y-68406522D01*
X58095142Y-68706522D01*
X58195142Y-69106522D01*
X58345142Y-69456522D01*
X58495142Y-69706522D01*
X58795142Y-70056522D01*
X59045142Y-70256522D01*
X59495142Y-70506522D01*
X57445142Y-70506522D01*
X56945142Y-70556522D01*
X56595142Y-70656522D01*
X56345142Y-70856522D01*
X56295142Y-70406522D01*
X56095142Y-69856522D01*
X55695142Y-69306522D01*
X55395142Y-69056522D01*
X54895142Y-68756522D01*
X54295142Y-68606522D01*
X53795142Y-68606522D01*
X53345142Y-68706522D01*
X53095142Y-68806522D01*
X52645142Y-69056522D01*
X52495142Y-68956522D01*
X52345142Y-68856522D01*
X52345142Y-68456522D01*
X52445142Y-68056522D01*
X52595142Y-67806522D01*
X52745142Y-67606522D01*
X52895142Y-67456522D01*
X53095142Y-67306522D01*
X53245142Y-67206522D01*
X53445142Y-67106522D01*
X53745142Y-67006522D01*
X54045142Y-66956522D01*
X54245142Y-66956522D01*
X58595142Y-66956522D01*
X58295142Y-67406522D01*
G37*
%TO.C,S17*%
X97473779Y-82553047D02*
X97285841Y-82484643D01*
X96986832Y-82429022D01*
X96670722Y-82420385D01*
X96448582Y-82445950D01*
X96273426Y-82488617D01*
X96034184Y-82561168D01*
X95841927Y-82650817D01*
X95632570Y-82787453D01*
X95406111Y-82971073D01*
X95175333Y-83312748D01*
X95038525Y-83688625D01*
X95145277Y-83833897D01*
X95252029Y-83979170D01*
X95760396Y-83898156D01*
X96029521Y-83889691D01*
X96486585Y-83949631D01*
X96956431Y-84120641D01*
X97468943Y-84466807D01*
X97836184Y-84919725D01*
X98032586Y-85257254D01*
X98220351Y-85910893D01*
X98220180Y-86496128D01*
X98113255Y-86936091D01*
X98416583Y-86833657D01*
X98779677Y-86859395D01*
X99266624Y-86983421D01*
X101192994Y-87684562D01*
X100855638Y-87295730D01*
X100689118Y-87022286D01*
X100526918Y-86590788D01*
X100471469Y-86304562D01*
X100450222Y-85924366D01*
X100493061Y-85514287D01*
X100595667Y-85232379D01*
X100715374Y-84903487D01*
X100847864Y-84685665D01*
X101125626Y-84361091D01*
X101561442Y-84040835D01*
X97473779Y-82553047D01*
G36*
X96986832Y-82429022D02*
G01*
X97285841Y-82484643D01*
X97473779Y-82553047D01*
X101561442Y-84040835D01*
X101125626Y-84361091D01*
X100847864Y-84685665D01*
X100715374Y-84903487D01*
X100595667Y-85232379D01*
X100493061Y-85514287D01*
X100450222Y-85924366D01*
X100471469Y-86304562D01*
X100526918Y-86590788D01*
X100689118Y-87022286D01*
X100855638Y-87295730D01*
X101192994Y-87684562D01*
X99266624Y-86983421D01*
X98779677Y-86859395D01*
X98416583Y-86833657D01*
X98113255Y-86936091D01*
X98220180Y-86496128D01*
X98220351Y-85910893D01*
X98032586Y-85257254D01*
X97836184Y-84919725D01*
X97468943Y-84466807D01*
X96956431Y-84120641D01*
X96486585Y-83949631D01*
X96029521Y-83889691D01*
X95760396Y-83898156D01*
X95252029Y-83979170D01*
X95145277Y-83833897D01*
X95038525Y-83688625D01*
X95175333Y-83312748D01*
X95406111Y-82971073D01*
X95632570Y-82787453D01*
X95841927Y-82650817D01*
X96034184Y-82561168D01*
X96273426Y-82488617D01*
X96448582Y-82445950D01*
X96670722Y-82420385D01*
X96986832Y-82429022D01*
G37*
%TO.C,S4*%
X16245142Y-66004022D02*
X16045142Y-66004022D01*
X15745142Y-66054022D01*
X15445142Y-66154022D01*
X15245142Y-66254022D01*
X15095142Y-66354022D01*
X14895142Y-66504022D01*
X14745142Y-66654022D01*
X14595142Y-66854022D01*
X14445142Y-67104022D01*
X14345142Y-67504022D01*
X14345142Y-67904022D01*
X14495142Y-68004022D01*
X14645142Y-68104022D01*
X15095142Y-67854022D01*
X15345142Y-67754022D01*
X15795142Y-67654022D01*
X16295142Y-67654022D01*
X16895142Y-67804022D01*
X17395142Y-68104022D01*
X17695142Y-68354022D01*
X18095142Y-68904022D01*
X18295142Y-69454022D01*
X18345142Y-69904022D01*
X18595142Y-69704022D01*
X18945142Y-69604022D01*
X19445142Y-69554022D01*
X21495142Y-69554022D01*
X21045142Y-69304022D01*
X20795142Y-69104022D01*
X20495142Y-68754022D01*
X20345142Y-68504022D01*
X20195142Y-68154022D01*
X20095142Y-67754022D01*
X20095142Y-67454022D01*
X20095142Y-67104022D01*
X20145142Y-66854022D01*
X20295142Y-66454022D01*
X20595142Y-66004022D01*
X16245142Y-66004022D01*
G36*
X20295142Y-66454022D02*
G01*
X20145142Y-66854022D01*
X20095142Y-67104022D01*
X20095142Y-67454022D01*
X20095142Y-67754022D01*
X20195142Y-68154022D01*
X20345142Y-68504022D01*
X20495142Y-68754022D01*
X20795142Y-69104022D01*
X21045142Y-69304022D01*
X21495142Y-69554022D01*
X19445142Y-69554022D01*
X18945142Y-69604022D01*
X18595142Y-69704022D01*
X18345142Y-69904022D01*
X18295142Y-69454022D01*
X18095142Y-68904022D01*
X17695142Y-68354022D01*
X17395142Y-68104022D01*
X16895142Y-67804022D01*
X16295142Y-67654022D01*
X15795142Y-67654022D01*
X15345142Y-67754022D01*
X15095142Y-67854022D01*
X14645142Y-68104022D01*
X14495142Y-68004022D01*
X14345142Y-67904022D01*
X14345142Y-67504022D01*
X14445142Y-67104022D01*
X14595142Y-66854022D01*
X14745142Y-66654022D01*
X14895142Y-66504022D01*
X15095142Y-66354022D01*
X15245142Y-66254022D01*
X15445142Y-66154022D01*
X15745142Y-66054022D01*
X16045142Y-66004022D01*
X16245142Y-66004022D01*
X20595142Y-66004022D01*
X20295142Y-66454022D01*
G37*
%TO.C,S15*%
X73245142Y-31714022D02*
X73045142Y-31714022D01*
X72745142Y-31764022D01*
X72445142Y-31864022D01*
X72245142Y-31964022D01*
X72095142Y-32064022D01*
X71895142Y-32214022D01*
X71745142Y-32364022D01*
X71595142Y-32564022D01*
X71445142Y-32814022D01*
X71345142Y-33214022D01*
X71345142Y-33614022D01*
X71495142Y-33714022D01*
X71645142Y-33814022D01*
X72095142Y-33564022D01*
X72345142Y-33464022D01*
X72795142Y-33364022D01*
X73295142Y-33364022D01*
X73895142Y-33514022D01*
X74395142Y-33814022D01*
X74695142Y-34064022D01*
X75095142Y-34614022D01*
X75295142Y-35164022D01*
X75345142Y-35614022D01*
X75595142Y-35414022D01*
X75945142Y-35314022D01*
X76445142Y-35264022D01*
X78495142Y-35264022D01*
X78045142Y-35014022D01*
X77795142Y-34814022D01*
X77495142Y-34464022D01*
X77345142Y-34214022D01*
X77195142Y-33864022D01*
X77095142Y-33464022D01*
X77095142Y-33164022D01*
X77095142Y-32814022D01*
X77145142Y-32564022D01*
X77295142Y-32164022D01*
X77595142Y-31714022D01*
X73245142Y-31714022D01*
G36*
X77295142Y-32164022D02*
G01*
X77145142Y-32564022D01*
X77095142Y-32814022D01*
X77095142Y-33164022D01*
X77095142Y-33464022D01*
X77195142Y-33864022D01*
X77345142Y-34214022D01*
X77495142Y-34464022D01*
X77795142Y-34814022D01*
X78045142Y-35014022D01*
X78495142Y-35264022D01*
X76445142Y-35264022D01*
X75945142Y-35314022D01*
X75595142Y-35414022D01*
X75345142Y-35614022D01*
X75295142Y-35164022D01*
X75095142Y-34614022D01*
X74695142Y-34064022D01*
X74395142Y-33814022D01*
X73895142Y-33514022D01*
X73295142Y-33364022D01*
X72795142Y-33364022D01*
X72345142Y-33464022D01*
X72095142Y-33564022D01*
X71645142Y-33814022D01*
X71495142Y-33714022D01*
X71345142Y-33614022D01*
X71345142Y-33214022D01*
X71445142Y-32814022D01*
X71595142Y-32564022D01*
X71745142Y-32364022D01*
X71895142Y-32214022D01*
X72095142Y-32064022D01*
X72245142Y-31964022D01*
X72445142Y-31864022D01*
X72745142Y-31764022D01*
X73045142Y-31714022D01*
X73245142Y-31714022D01*
X77595142Y-31714022D01*
X77295142Y-32164022D01*
G37*
%TO.C,S8*%
X35245142Y-42191522D02*
X35045142Y-42191522D01*
X34745142Y-42241522D01*
X34445142Y-42341522D01*
X34245142Y-42441522D01*
X34095142Y-42541522D01*
X33895142Y-42691522D01*
X33745142Y-42841522D01*
X33595142Y-43041522D01*
X33445142Y-43291522D01*
X33345142Y-43691522D01*
X33345142Y-44091522D01*
X33495142Y-44191522D01*
X33645142Y-44291522D01*
X34095142Y-44041522D01*
X34345142Y-43941522D01*
X34795142Y-43841522D01*
X35295142Y-43841522D01*
X35895142Y-43991522D01*
X36395142Y-44291522D01*
X36695142Y-44541522D01*
X37095142Y-45091522D01*
X37295142Y-45641522D01*
X37345142Y-46091522D01*
X37595142Y-45891522D01*
X37945142Y-45791522D01*
X38445142Y-45741522D01*
X40495142Y-45741522D01*
X40045142Y-45491522D01*
X39795142Y-45291522D01*
X39495142Y-44941522D01*
X39345142Y-44691522D01*
X39195142Y-44341522D01*
X39095142Y-43941522D01*
X39095142Y-43641522D01*
X39095142Y-43291522D01*
X39145142Y-43041522D01*
X39295142Y-42641522D01*
X39595142Y-42191522D01*
X35245142Y-42191522D01*
G36*
X39295142Y-42641522D02*
G01*
X39145142Y-43041522D01*
X39095142Y-43291522D01*
X39095142Y-43641522D01*
X39095142Y-43941522D01*
X39195142Y-44341522D01*
X39345142Y-44691522D01*
X39495142Y-44941522D01*
X39795142Y-45291522D01*
X40045142Y-45491522D01*
X40495142Y-45741522D01*
X38445142Y-45741522D01*
X37945142Y-45791522D01*
X37595142Y-45891522D01*
X37345142Y-46091522D01*
X37295142Y-45641522D01*
X37095142Y-45091522D01*
X36695142Y-44541522D01*
X36395142Y-44291522D01*
X35895142Y-43991522D01*
X35295142Y-43841522D01*
X34795142Y-43841522D01*
X34345142Y-43941522D01*
X34095142Y-44041522D01*
X33645142Y-44291522D01*
X33495142Y-44191522D01*
X33345142Y-44091522D01*
X33345142Y-43691522D01*
X33445142Y-43291522D01*
X33595142Y-43041522D01*
X33745142Y-42841522D01*
X33895142Y-42691522D01*
X34095142Y-42541522D01*
X34245142Y-42441522D01*
X34445142Y-42341522D01*
X34745142Y-42241522D01*
X35045142Y-42191522D01*
X35245142Y-42191522D01*
X39595142Y-42191522D01*
X39295142Y-42641522D01*
G37*
%TO.C,S1*%
X-2754858Y-81244022D02*
X-2954858Y-81244022D01*
X-3254858Y-81294022D01*
X-3554858Y-81394022D01*
X-3754858Y-81494022D01*
X-3904858Y-81594022D01*
X-4104858Y-81744022D01*
X-4254858Y-81894022D01*
X-4404858Y-82094022D01*
X-4554858Y-82344022D01*
X-4654858Y-82744022D01*
X-4654858Y-83144022D01*
X-4504858Y-83244022D01*
X-4354858Y-83344022D01*
X-3904858Y-83094022D01*
X-3654858Y-82994022D01*
X-3204858Y-82894022D01*
X-2704858Y-82894022D01*
X-2104858Y-83044022D01*
X-1604858Y-83344022D01*
X-1304858Y-83594022D01*
X-904858Y-84144022D01*
X-704858Y-84694022D01*
X-654858Y-85144022D01*
X-404858Y-84944022D01*
X-54858Y-84844022D01*
X445142Y-84794022D01*
X2495142Y-84794022D01*
X2045142Y-84544022D01*
X1795142Y-84344022D01*
X1495142Y-83994022D01*
X1345142Y-83744022D01*
X1195142Y-83394022D01*
X1095142Y-82994022D01*
X1095142Y-82694022D01*
X1095142Y-82344022D01*
X1145142Y-82094022D01*
X1295142Y-81694022D01*
X1595142Y-81244022D01*
X-2754858Y-81244022D01*
G36*
X1295142Y-81694022D02*
G01*
X1145142Y-82094022D01*
X1095142Y-82344022D01*
X1095142Y-82694022D01*
X1095142Y-82994022D01*
X1195142Y-83394022D01*
X1345142Y-83744022D01*
X1495142Y-83994022D01*
X1795142Y-84344022D01*
X2045142Y-84544022D01*
X2495142Y-84794022D01*
X445142Y-84794022D01*
X-54858Y-84844022D01*
X-404858Y-84944022D01*
X-654858Y-85144022D01*
X-704858Y-84694022D01*
X-904858Y-84144022D01*
X-1304858Y-83594022D01*
X-1604858Y-83344022D01*
X-2104858Y-83044022D01*
X-2704858Y-82894022D01*
X-3204858Y-82894022D01*
X-3654858Y-82994022D01*
X-3904858Y-83094022D01*
X-4354858Y-83344022D01*
X-4504858Y-83244022D01*
X-4654858Y-83144022D01*
X-4654858Y-82744022D01*
X-4554858Y-82344022D01*
X-4404858Y-82094022D01*
X-4254858Y-81894022D01*
X-4104858Y-81744022D01*
X-3904858Y-81594022D01*
X-3754858Y-81494022D01*
X-3554858Y-81394022D01*
X-3254858Y-81294022D01*
X-2954858Y-81244022D01*
X-2754858Y-81244022D01*
X1595142Y-81244022D01*
X1295142Y-81694022D01*
G37*
%TO.C,S16*%
X90975379Y-100407247D02*
X90787441Y-100338843D01*
X90488432Y-100283222D01*
X90172322Y-100274585D01*
X89950182Y-100300150D01*
X89775026Y-100342817D01*
X89535784Y-100415368D01*
X89343527Y-100505017D01*
X89134170Y-100641653D01*
X88907711Y-100825273D01*
X88676933Y-101166948D01*
X88540125Y-101542825D01*
X88646877Y-101688097D01*
X88753629Y-101833370D01*
X89261996Y-101752356D01*
X89531121Y-101743891D01*
X89988185Y-101803831D01*
X90458031Y-101974841D01*
X90970543Y-102321007D01*
X91337784Y-102773925D01*
X91534186Y-103111454D01*
X91721951Y-103765093D01*
X91721780Y-104350328D01*
X91614855Y-104790291D01*
X91918183Y-104687857D01*
X92281277Y-104713595D01*
X92768224Y-104837621D01*
X94694594Y-105538762D01*
X94357238Y-105149930D01*
X94190718Y-104876486D01*
X94028518Y-104444988D01*
X93973069Y-104158762D01*
X93951822Y-103778566D01*
X93994661Y-103368487D01*
X94097267Y-103086579D01*
X94216974Y-102757687D01*
X94349464Y-102539865D01*
X94627226Y-102215291D01*
X95063042Y-101895035D01*
X90975379Y-100407247D01*
G36*
X90488432Y-100283222D02*
G01*
X90787441Y-100338843D01*
X90975379Y-100407247D01*
X95063042Y-101895035D01*
X94627226Y-102215291D01*
X94349464Y-102539865D01*
X94216974Y-102757687D01*
X94097267Y-103086579D01*
X93994661Y-103368487D01*
X93951822Y-103778566D01*
X93973069Y-104158762D01*
X94028518Y-104444988D01*
X94190718Y-104876486D01*
X94357238Y-105149930D01*
X94694594Y-105538762D01*
X92768224Y-104837621D01*
X92281277Y-104713595D01*
X91918183Y-104687857D01*
X91614855Y-104790291D01*
X91721780Y-104350328D01*
X91721951Y-103765093D01*
X91534186Y-103111454D01*
X91337784Y-102773925D01*
X90970543Y-102321007D01*
X90458031Y-101974841D01*
X89988185Y-101803831D01*
X89531121Y-101743891D01*
X89261996Y-101752356D01*
X88753629Y-101833370D01*
X88646877Y-101688097D01*
X88540125Y-101542825D01*
X88676933Y-101166948D01*
X88907711Y-100825273D01*
X89134170Y-100641653D01*
X89343527Y-100505017D01*
X89535784Y-100415368D01*
X89775026Y-100342817D01*
X89950182Y-100300150D01*
X90172322Y-100274585D01*
X90488432Y-100283222D01*
G37*
%TO.C,S13*%
X73245142Y-69814022D02*
X73045142Y-69814022D01*
X72745142Y-69864022D01*
X72445142Y-69964022D01*
X72245142Y-70064022D01*
X72095142Y-70164022D01*
X71895142Y-70314022D01*
X71745142Y-70464022D01*
X71595142Y-70664022D01*
X71445142Y-70914022D01*
X71345142Y-71314022D01*
X71345142Y-71714022D01*
X71495142Y-71814022D01*
X71645142Y-71914022D01*
X72095142Y-71664022D01*
X72345142Y-71564022D01*
X72795142Y-71464022D01*
X73295142Y-71464022D01*
X73895142Y-71614022D01*
X74395142Y-71914022D01*
X74695142Y-72164022D01*
X75095142Y-72714022D01*
X75295142Y-73264022D01*
X75345142Y-73714022D01*
X75595142Y-73514022D01*
X75945142Y-73414022D01*
X76445142Y-73364022D01*
X78495142Y-73364022D01*
X78045142Y-73114022D01*
X77795142Y-72914022D01*
X77495142Y-72564022D01*
X77345142Y-72314022D01*
X77195142Y-71964022D01*
X77095142Y-71564022D01*
X77095142Y-71264022D01*
X77095142Y-70914022D01*
X77145142Y-70664022D01*
X77295142Y-70264022D01*
X77595142Y-69814022D01*
X73245142Y-69814022D01*
G36*
X77295142Y-70264022D02*
G01*
X77145142Y-70664022D01*
X77095142Y-70914022D01*
X77095142Y-71264022D01*
X77095142Y-71564022D01*
X77195142Y-71964022D01*
X77345142Y-72314022D01*
X77495142Y-72564022D01*
X77795142Y-72914022D01*
X78045142Y-73114022D01*
X78495142Y-73364022D01*
X76445142Y-73364022D01*
X75945142Y-73414022D01*
X75595142Y-73514022D01*
X75345142Y-73714022D01*
X75295142Y-73264022D01*
X75095142Y-72714022D01*
X74695142Y-72164022D01*
X74395142Y-71914022D01*
X73895142Y-71614022D01*
X73295142Y-71464022D01*
X72795142Y-71464022D01*
X72345142Y-71564022D01*
X72095142Y-71664022D01*
X71645142Y-71914022D01*
X71495142Y-71814022D01*
X71345142Y-71714022D01*
X71345142Y-71314022D01*
X71445142Y-70914022D01*
X71595142Y-70664022D01*
X71745142Y-70464022D01*
X71895142Y-70314022D01*
X72095142Y-70164022D01*
X72245142Y-70064022D01*
X72445142Y-69964022D01*
X72745142Y-69864022D01*
X73045142Y-69814022D01*
X73245142Y-69814022D01*
X77595142Y-69814022D01*
X77295142Y-70264022D01*
G37*
%TO.C,S18*%
X111873041Y-110226359D02*
X111709211Y-110111643D01*
X111434787Y-109980528D01*
X111131683Y-109890370D01*
X110910495Y-109857570D01*
X110730265Y-109853449D01*
X110480398Y-109861606D01*
X110271489Y-109898443D01*
X110033901Y-109976237D01*
X109767634Y-110094988D01*
X109456288Y-110365291D01*
X109226857Y-110692952D01*
X109292373Y-110860904D01*
X109357889Y-111028856D01*
X109869900Y-111082177D01*
X110132046Y-111143656D01*
X110558022Y-111319850D01*
X110967598Y-111606638D01*
X111373053Y-112073657D01*
X111610556Y-112606191D01*
X111712907Y-112983052D01*
X111725101Y-113663016D01*
X111573464Y-114228265D01*
X111356313Y-114625562D01*
X111675816Y-114605126D01*
X112019877Y-114723962D01*
X112458132Y-114969793D01*
X114137393Y-116145625D01*
X113912169Y-115682727D01*
X113822096Y-115375503D01*
X113777102Y-114916727D01*
X113797624Y-114625902D01*
X113875503Y-114253162D01*
X114023018Y-113868144D01*
X114195091Y-113622398D01*
X114395843Y-113335695D01*
X114580194Y-113159586D01*
X114932498Y-112917962D01*
X115436353Y-112721416D01*
X111873041Y-110226359D01*
G36*
X110910495Y-109857570D02*
G01*
X111131683Y-109890370D01*
X111434787Y-109980528D01*
X111709211Y-110111643D01*
X111873041Y-110226359D01*
X115436353Y-112721416D01*
X114932498Y-112917962D01*
X114580194Y-113159586D01*
X114395843Y-113335695D01*
X114195091Y-113622398D01*
X114023018Y-113868144D01*
X113875503Y-114253162D01*
X113797624Y-114625902D01*
X113777102Y-114916727D01*
X113822096Y-115375503D01*
X113912169Y-115682727D01*
X114137393Y-116145625D01*
X112458132Y-114969793D01*
X112019877Y-114723962D01*
X111675816Y-114605126D01*
X111356313Y-114625562D01*
X111573464Y-114228265D01*
X111725101Y-113663016D01*
X111712907Y-112983052D01*
X111610556Y-112606191D01*
X111373053Y-112073657D01*
X110967598Y-111606638D01*
X110558022Y-111319850D01*
X110132046Y-111143656D01*
X109869900Y-111082177D01*
X109357889Y-111028856D01*
X109292373Y-110860904D01*
X109226857Y-110692952D01*
X109456288Y-110365291D01*
X109767634Y-110094988D01*
X110033901Y-109976237D01*
X110271489Y-109898443D01*
X110480398Y-109861606D01*
X110730265Y-109853449D01*
X110910495Y-109857570D01*
G37*
%TO.C,S3*%
X-2754858Y-43144022D02*
X-2954858Y-43144022D01*
X-3254858Y-43194022D01*
X-3554858Y-43294022D01*
X-3754858Y-43394022D01*
X-3904858Y-43494022D01*
X-4104858Y-43644022D01*
X-4254858Y-43794022D01*
X-4404858Y-43994022D01*
X-4554858Y-44244022D01*
X-4654858Y-44644022D01*
X-4654858Y-45044022D01*
X-4504858Y-45144022D01*
X-4354858Y-45244022D01*
X-3904858Y-44994022D01*
X-3654858Y-44894022D01*
X-3204858Y-44794022D01*
X-2704858Y-44794022D01*
X-2104858Y-44944022D01*
X-1604858Y-45244022D01*
X-1304858Y-45494022D01*
X-904858Y-46044022D01*
X-704858Y-46594022D01*
X-654858Y-47044022D01*
X-404858Y-46844022D01*
X-54858Y-46744022D01*
X445142Y-46694022D01*
X2495142Y-46694022D01*
X2045142Y-46444022D01*
X1795142Y-46244022D01*
X1495142Y-45894022D01*
X1345142Y-45644022D01*
X1195142Y-45294022D01*
X1095142Y-44894022D01*
X1095142Y-44594022D01*
X1095142Y-44244022D01*
X1145142Y-43994022D01*
X1295142Y-43594022D01*
X1595142Y-43144022D01*
X-2754858Y-43144022D01*
G36*
X1295142Y-43594022D02*
G01*
X1145142Y-43994022D01*
X1095142Y-44244022D01*
X1095142Y-44594022D01*
X1095142Y-44894022D01*
X1195142Y-45294022D01*
X1345142Y-45644022D01*
X1495142Y-45894022D01*
X1795142Y-46244022D01*
X2045142Y-46444022D01*
X2495142Y-46694022D01*
X445142Y-46694022D01*
X-54858Y-46744022D01*
X-404858Y-46844022D01*
X-654858Y-47044022D01*
X-704858Y-46594022D01*
X-904858Y-46044022D01*
X-1304858Y-45494022D01*
X-1604858Y-45244022D01*
X-2104858Y-44944022D01*
X-2704858Y-44794022D01*
X-3204858Y-44794022D01*
X-3654858Y-44894022D01*
X-3904858Y-44994022D01*
X-4354858Y-45244022D01*
X-4504858Y-45144022D01*
X-4654858Y-45044022D01*
X-4654858Y-44644022D01*
X-4554858Y-44244022D01*
X-4404858Y-43994022D01*
X-4254858Y-43794022D01*
X-4104858Y-43644022D01*
X-3904858Y-43494022D01*
X-3754858Y-43394022D01*
X-3554858Y-43294022D01*
X-3254858Y-43194022D01*
X-2954858Y-43144022D01*
X-2754858Y-43144022D01*
X1595142Y-43144022D01*
X1295142Y-43594022D01*
G37*
%TD*%
M02*
