M48
; DRILL file KiCad 10.0.3 date 2026-06-28T14:11:29
; FORMAT={-:-/ absolute / metric / decimal}
; #@! TF.CreationDate,2026-06-28T14:11:29-05:00
; #@! TF.GenerationSoftware,Kicad,Pcbnew,10.0.3
; #@! TF.FileFunction,NonPlated,1,2,NPTH
FMAT,2
METRIC
; #@! TA.AperFunction,NonPlated,NPTH,ComponentDrill
T1C1.500
; #@! TA.AperFunction,NonPlated,NPTH,ComponentDrill
T2C1.900
; #@! TA.AperFunction,NonPlated,NPTH,ComponentDrill
T3C3.000
; #@! TA.AperFunction,NonPlated,NPTH,ComponentDrill
T4C4.100
%
G90
G05
T1
X234.471Y-102.928
T2
X-4.235Y-49.644
X-4.235Y-68.694
X-4.235Y-87.744
X5.925Y-49.644
X5.925Y-68.694
X5.925Y-87.744
X14.765Y-34.404
X14.765Y-53.454
X14.765Y-72.504
X24.925Y-34.404
X24.925Y-53.454
X24.925Y-72.504
X33.765Y-29.642
X33.765Y-48.692
X33.765Y-67.742
X43.925Y-29.642
X43.925Y-48.692
X43.925Y-67.742
X52.765Y-35.357
X52.765Y-54.407
X52.765Y-73.457
X62.925Y-35.357
X62.925Y-54.407
X62.925Y-73.457
X71.765Y-38.214
X71.765Y-57.264
X71.765Y-76.314
X81.925Y-38.214
X81.925Y-57.264
X81.925Y-76.314
X87.362Y-106.009
X93.86Y-88.155
X96.909Y-109.484
X103.407Y-91.63
X106.932Y-114.702
X115.255Y-120.529
X117.83Y-99.138
X123.587Y-128.164
X126.153Y-104.966
X130.117Y-135.947
X180.883Y-132.947
X184.847Y-101.966
X187.413Y-125.164
X193.17Y-96.138
X195.745Y-117.53
X204.068Y-111.702
X207.593Y-88.63
X214.091Y-106.484
X217.14Y-85.155
X223.639Y-103.009
X229.075Y-35.214
X229.075Y-54.264
X229.075Y-73.314
X239.235Y-35.214
X239.235Y-54.264
X239.235Y-73.314
X248.075Y-32.357
X248.075Y-51.407
X248.075Y-70.457
X258.235Y-32.357
X258.235Y-51.407
X258.235Y-70.457
X267.075Y-26.642
X267.075Y-45.692
X267.075Y-64.742
X277.235Y-26.642
X277.235Y-45.692
X277.235Y-64.742
X286.075Y-31.404
X286.075Y-50.454
X286.075Y-69.504
X296.235Y-31.404
X296.235Y-50.454
X296.235Y-69.504
X305.075Y-46.644
X305.075Y-65.694
X305.075Y-84.744
X315.235Y-46.644
X315.235Y-65.694
X315.235Y-84.744
T3
X-2.965Y-47.104
X-2.965Y-66.154
X-2.965Y-85.204
X3.385Y-44.564
X3.385Y-63.614
X3.385Y-82.664
X16.035Y-31.864
X16.035Y-50.914
X16.035Y-69.964
X22.385Y-29.324
X22.385Y-48.374
X22.385Y-67.424
X35.035Y-27.102
X35.035Y-46.152
X35.035Y-65.202
X41.385Y-24.562
X41.385Y-43.612
X41.385Y-62.662
X54.035Y-32.817
X54.035Y-51.867
X54.035Y-70.917
X60.385Y-30.277
X60.385Y-49.327
X60.385Y-68.377
X73.035Y-35.674
X73.035Y-54.724
X73.035Y-73.774
X79.385Y-33.134
X79.385Y-52.184
X79.385Y-71.234
X89.424Y-104.057
X95.922Y-86.202
X96.259Y-103.842
X102.758Y-85.987
X109.43Y-113.35
X116.088Y-114.911
X120.328Y-97.786
X126.349Y-127.504
X126.986Y-99.347
X132.376Y-130.736
X179.753Y-130.342
X181.889Y-123.844
X184.431Y-99.157
X188.175Y-93.434
X195.328Y-114.72
X199.073Y-108.998
X207.918Y-85.809
X213.016Y-81.25
X214.416Y-103.663
X219.514Y-99.104
X230.345Y-32.674
X230.345Y-51.724
X230.345Y-70.774
X236.695Y-30.134
X236.695Y-49.184
X236.695Y-68.234
X249.345Y-29.817
X249.345Y-48.867
X249.345Y-67.917
X255.695Y-27.277
X255.695Y-46.327
X255.695Y-65.377
X268.345Y-24.102
X268.345Y-43.152
X268.345Y-62.202
X274.695Y-21.562
X274.695Y-40.612
X274.695Y-59.662
X287.345Y-28.864
X287.345Y-47.914
X287.345Y-66.964
X293.695Y-26.324
X293.695Y-45.374
X293.695Y-64.424
X306.345Y-44.104
X306.345Y-63.154
X306.345Y-82.204
X312.695Y-41.564
X312.695Y-60.614
X312.695Y-79.664
T4
X0.845Y-49.644
X0.845Y-68.694
X0.845Y-87.744
X19.845Y-34.404
X19.845Y-53.454
X19.845Y-72.504
X38.845Y-29.642
X38.845Y-48.692
X38.845Y-67.742
X57.845Y-35.357
X57.845Y-54.407
X57.845Y-73.457
X76.845Y-38.214
X76.845Y-57.264
X76.845Y-76.314
X92.135Y-107.747
X98.634Y-89.892
X111.094Y-117.616
X121.992Y-102.052
X126.852Y-132.056
X184.148Y-129.056
X189.008Y-99.052
X199.906Y-114.616
X212.366Y-86.892
X218.865Y-104.747
X234.155Y-35.214
X234.155Y-54.264
X234.155Y-73.314
X253.155Y-32.357
X253.155Y-51.407
X253.155Y-70.457
X272.155Y-26.642
X272.155Y-45.692
X272.155Y-64.742
X291.155Y-31.404
X291.155Y-50.454
X291.155Y-69.504
X310.155Y-46.644
X310.155Y-65.694
X310.155Y-84.744
M30
