%TF.GenerationSoftware,KiCad,Pcbnew,10.0.3*%
%TF.CreationDate,2026-06-28T14:11:26-05:00*%
%TF.ProjectId,gnocchi,676e6f63-6368-4692-9e6b-696361645f70,rev?*%
%TF.SameCoordinates,Original*%
%TF.FileFunction,Legend,Top*%
%TF.FilePolarity,Positive*%
%FSLAX46Y46*%
G04 Gerber Fmt 4.6, Leading zero omitted, Abs format (unit mm)*
G04 Created by KiCad (PCBNEW 10.0.3) date 2026-06-28 14:11:26*
%MOMM*%
%LPD*%
G01*
G04 APERTURE LIST*
%ADD10C,0.150000*%
%ADD11C,0.100000*%
%ADD12C,0.120000*%
%ADD13C,0.203200*%
%ADD14C,0.101600*%
%ADD15C,1.778000*%
%ADD16C,2.286000*%
G04 APERTURE END LIST*
D10*
X90687047Y-33588841D02*
X90687047Y-32588841D01*
X90687047Y-32588841D02*
X91067999Y-32588841D01*
X91067999Y-32588841D02*
X91163237Y-32636460D01*
X91163237Y-32636460D02*
X91210856Y-32684079D01*
X91210856Y-32684079D02*
X91258475Y-32779317D01*
X91258475Y-32779317D02*
X91258475Y-32922174D01*
X91258475Y-32922174D02*
X91210856Y-33017412D01*
X91210856Y-33017412D02*
X91163237Y-33065031D01*
X91163237Y-33065031D02*
X91067999Y-33112650D01*
X91067999Y-33112650D02*
X90687047Y-33112650D01*
X92210856Y-33588841D02*
X91639428Y-33588841D01*
X91925142Y-33588841D02*
X91925142Y-32588841D01*
X91925142Y-32588841D02*
X91829904Y-32731698D01*
X91829904Y-32731698D02*
X91734666Y-32826936D01*
X91734666Y-32826936D02*
X91639428Y-32874555D01*
X90687047Y-36128841D02*
X90687047Y-35128841D01*
X90687047Y-35128841D02*
X91067999Y-35128841D01*
X91067999Y-35128841D02*
X91163237Y-35176460D01*
X91163237Y-35176460D02*
X91210856Y-35224079D01*
X91210856Y-35224079D02*
X91258475Y-35319317D01*
X91258475Y-35319317D02*
X91258475Y-35462174D01*
X91258475Y-35462174D02*
X91210856Y-35557412D01*
X91210856Y-35557412D02*
X91163237Y-35605031D01*
X91163237Y-35605031D02*
X91067999Y-35652650D01*
X91067999Y-35652650D02*
X90687047Y-35652650D01*
X91877523Y-35128841D02*
X91972761Y-35128841D01*
X91972761Y-35128841D02*
X92067999Y-35176460D01*
X92067999Y-35176460D02*
X92115618Y-35224079D01*
X92115618Y-35224079D02*
X92163237Y-35319317D01*
X92163237Y-35319317D02*
X92210856Y-35509793D01*
X92210856Y-35509793D02*
X92210856Y-35747888D01*
X92210856Y-35747888D02*
X92163237Y-35938364D01*
X92163237Y-35938364D02*
X92115618Y-36033602D01*
X92115618Y-36033602D02*
X92067999Y-36081222D01*
X92067999Y-36081222D02*
X91972761Y-36128841D01*
X91972761Y-36128841D02*
X91877523Y-36128841D01*
X91877523Y-36128841D02*
X91782285Y-36081222D01*
X91782285Y-36081222D02*
X91734666Y-36033602D01*
X91734666Y-36033602D02*
X91687047Y-35938364D01*
X91687047Y-35938364D02*
X91639428Y-35747888D01*
X91639428Y-35747888D02*
X91639428Y-35509793D01*
X91639428Y-35509793D02*
X91687047Y-35319317D01*
X91687047Y-35319317D02*
X91734666Y-35224079D01*
X91734666Y-35224079D02*
X91782285Y-35176460D01*
X91782285Y-35176460D02*
X91877523Y-35128841D01*
X90663237Y-37716460D02*
X90567999Y-37668841D01*
X90567999Y-37668841D02*
X90425142Y-37668841D01*
X90425142Y-37668841D02*
X90282285Y-37716460D01*
X90282285Y-37716460D02*
X90187047Y-37811698D01*
X90187047Y-37811698D02*
X90139428Y-37906936D01*
X90139428Y-37906936D02*
X90091809Y-38097412D01*
X90091809Y-38097412D02*
X90091809Y-38240269D01*
X90091809Y-38240269D02*
X90139428Y-38430745D01*
X90139428Y-38430745D02*
X90187047Y-38525983D01*
X90187047Y-38525983D02*
X90282285Y-38621222D01*
X90282285Y-38621222D02*
X90425142Y-38668841D01*
X90425142Y-38668841D02*
X90520380Y-38668841D01*
X90520380Y-38668841D02*
X90663237Y-38621222D01*
X90663237Y-38621222D02*
X90710856Y-38573602D01*
X90710856Y-38573602D02*
X90710856Y-38240269D01*
X90710856Y-38240269D02*
X90520380Y-38240269D01*
X91139428Y-38668841D02*
X91139428Y-37668841D01*
X91139428Y-37668841D02*
X91710856Y-38668841D01*
X91710856Y-38668841D02*
X91710856Y-37668841D01*
X92187047Y-38668841D02*
X92187047Y-37668841D01*
X92187047Y-37668841D02*
X92425142Y-37668841D01*
X92425142Y-37668841D02*
X92567999Y-37716460D01*
X92567999Y-37716460D02*
X92663237Y-37811698D01*
X92663237Y-37811698D02*
X92710856Y-37906936D01*
X92710856Y-37906936D02*
X92758475Y-38097412D01*
X92758475Y-38097412D02*
X92758475Y-38240269D01*
X92758475Y-38240269D02*
X92710856Y-38430745D01*
X92710856Y-38430745D02*
X92663237Y-38525983D01*
X92663237Y-38525983D02*
X92567999Y-38621222D01*
X92567999Y-38621222D02*
X92425142Y-38668841D01*
X92425142Y-38668841D02*
X92187047Y-38668841D01*
X90663237Y-40256460D02*
X90567999Y-40208841D01*
X90567999Y-40208841D02*
X90425142Y-40208841D01*
X90425142Y-40208841D02*
X90282285Y-40256460D01*
X90282285Y-40256460D02*
X90187047Y-40351698D01*
X90187047Y-40351698D02*
X90139428Y-40446936D01*
X90139428Y-40446936D02*
X90091809Y-40637412D01*
X90091809Y-40637412D02*
X90091809Y-40780269D01*
X90091809Y-40780269D02*
X90139428Y-40970745D01*
X90139428Y-40970745D02*
X90187047Y-41065983D01*
X90187047Y-41065983D02*
X90282285Y-41161222D01*
X90282285Y-41161222D02*
X90425142Y-41208841D01*
X90425142Y-41208841D02*
X90520380Y-41208841D01*
X90520380Y-41208841D02*
X90663237Y-41161222D01*
X90663237Y-41161222D02*
X90710856Y-41113602D01*
X90710856Y-41113602D02*
X90710856Y-40780269D01*
X90710856Y-40780269D02*
X90520380Y-40780269D01*
X91139428Y-41208841D02*
X91139428Y-40208841D01*
X91139428Y-40208841D02*
X91710856Y-41208841D01*
X91710856Y-41208841D02*
X91710856Y-40208841D01*
X92187047Y-41208841D02*
X92187047Y-40208841D01*
X92187047Y-40208841D02*
X92425142Y-40208841D01*
X92425142Y-40208841D02*
X92567999Y-40256460D01*
X92567999Y-40256460D02*
X92663237Y-40351698D01*
X92663237Y-40351698D02*
X92710856Y-40446936D01*
X92710856Y-40446936D02*
X92758475Y-40637412D01*
X92758475Y-40637412D02*
X92758475Y-40780269D01*
X92758475Y-40780269D02*
X92710856Y-40970745D01*
X92710856Y-40970745D02*
X92663237Y-41065983D01*
X92663237Y-41065983D02*
X92567999Y-41161222D01*
X92567999Y-41161222D02*
X92425142Y-41208841D01*
X92425142Y-41208841D02*
X92187047Y-41208841D01*
X90687047Y-43748841D02*
X90687047Y-42748841D01*
X90687047Y-42748841D02*
X91067999Y-42748841D01*
X91067999Y-42748841D02*
X91163237Y-42796460D01*
X91163237Y-42796460D02*
X91210856Y-42844079D01*
X91210856Y-42844079D02*
X91258475Y-42939317D01*
X91258475Y-42939317D02*
X91258475Y-43082174D01*
X91258475Y-43082174D02*
X91210856Y-43177412D01*
X91210856Y-43177412D02*
X91163237Y-43225031D01*
X91163237Y-43225031D02*
X91067999Y-43272650D01*
X91067999Y-43272650D02*
X90687047Y-43272650D01*
X91639428Y-42844079D02*
X91687047Y-42796460D01*
X91687047Y-42796460D02*
X91782285Y-42748841D01*
X91782285Y-42748841D02*
X92020380Y-42748841D01*
X92020380Y-42748841D02*
X92115618Y-42796460D01*
X92115618Y-42796460D02*
X92163237Y-42844079D01*
X92163237Y-42844079D02*
X92210856Y-42939317D01*
X92210856Y-42939317D02*
X92210856Y-43034555D01*
X92210856Y-43034555D02*
X92163237Y-43177412D01*
X92163237Y-43177412D02*
X91591809Y-43748841D01*
X91591809Y-43748841D02*
X92210856Y-43748841D01*
X90687047Y-46288841D02*
X90687047Y-45288841D01*
X90687047Y-45288841D02*
X91067999Y-45288841D01*
X91067999Y-45288841D02*
X91163237Y-45336460D01*
X91163237Y-45336460D02*
X91210856Y-45384079D01*
X91210856Y-45384079D02*
X91258475Y-45479317D01*
X91258475Y-45479317D02*
X91258475Y-45622174D01*
X91258475Y-45622174D02*
X91210856Y-45717412D01*
X91210856Y-45717412D02*
X91163237Y-45765031D01*
X91163237Y-45765031D02*
X91067999Y-45812650D01*
X91067999Y-45812650D02*
X90687047Y-45812650D01*
X91591809Y-45288841D02*
X92210856Y-45288841D01*
X92210856Y-45288841D02*
X91877523Y-45669793D01*
X91877523Y-45669793D02*
X92020380Y-45669793D01*
X92020380Y-45669793D02*
X92115618Y-45717412D01*
X92115618Y-45717412D02*
X92163237Y-45765031D01*
X92163237Y-45765031D02*
X92210856Y-45860269D01*
X92210856Y-45860269D02*
X92210856Y-46098364D01*
X92210856Y-46098364D02*
X92163237Y-46193602D01*
X92163237Y-46193602D02*
X92115618Y-46241222D01*
X92115618Y-46241222D02*
X92020380Y-46288841D01*
X92020380Y-46288841D02*
X91734666Y-46288841D01*
X91734666Y-46288841D02*
X91639428Y-46241222D01*
X91639428Y-46241222D02*
X91591809Y-46193602D01*
X90687047Y-48828841D02*
X90687047Y-47828841D01*
X90687047Y-47828841D02*
X91067999Y-47828841D01*
X91067999Y-47828841D02*
X91163237Y-47876460D01*
X91163237Y-47876460D02*
X91210856Y-47924079D01*
X91210856Y-47924079D02*
X91258475Y-48019317D01*
X91258475Y-48019317D02*
X91258475Y-48162174D01*
X91258475Y-48162174D02*
X91210856Y-48257412D01*
X91210856Y-48257412D02*
X91163237Y-48305031D01*
X91163237Y-48305031D02*
X91067999Y-48352650D01*
X91067999Y-48352650D02*
X90687047Y-48352650D01*
X92115618Y-48162174D02*
X92115618Y-48828841D01*
X91877523Y-47781222D02*
X91639428Y-48495507D01*
X91639428Y-48495507D02*
X92258475Y-48495507D01*
X90687047Y-51368841D02*
X90687047Y-50368841D01*
X90687047Y-50368841D02*
X91067999Y-50368841D01*
X91067999Y-50368841D02*
X91163237Y-50416460D01*
X91163237Y-50416460D02*
X91210856Y-50464079D01*
X91210856Y-50464079D02*
X91258475Y-50559317D01*
X91258475Y-50559317D02*
X91258475Y-50702174D01*
X91258475Y-50702174D02*
X91210856Y-50797412D01*
X91210856Y-50797412D02*
X91163237Y-50845031D01*
X91163237Y-50845031D02*
X91067999Y-50892650D01*
X91067999Y-50892650D02*
X90687047Y-50892650D01*
X92163237Y-50368841D02*
X91687047Y-50368841D01*
X91687047Y-50368841D02*
X91639428Y-50845031D01*
X91639428Y-50845031D02*
X91687047Y-50797412D01*
X91687047Y-50797412D02*
X91782285Y-50749793D01*
X91782285Y-50749793D02*
X92020380Y-50749793D01*
X92020380Y-50749793D02*
X92115618Y-50797412D01*
X92115618Y-50797412D02*
X92163237Y-50845031D01*
X92163237Y-50845031D02*
X92210856Y-50940269D01*
X92210856Y-50940269D02*
X92210856Y-51178364D01*
X92210856Y-51178364D02*
X92163237Y-51273602D01*
X92163237Y-51273602D02*
X92115618Y-51321222D01*
X92115618Y-51321222D02*
X92020380Y-51368841D01*
X92020380Y-51368841D02*
X91782285Y-51368841D01*
X91782285Y-51368841D02*
X91687047Y-51321222D01*
X91687047Y-51321222D02*
X91639428Y-51273602D01*
X90687047Y-53908841D02*
X90687047Y-52908841D01*
X90687047Y-52908841D02*
X91067999Y-52908841D01*
X91067999Y-52908841D02*
X91163237Y-52956460D01*
X91163237Y-52956460D02*
X91210856Y-53004079D01*
X91210856Y-53004079D02*
X91258475Y-53099317D01*
X91258475Y-53099317D02*
X91258475Y-53242174D01*
X91258475Y-53242174D02*
X91210856Y-53337412D01*
X91210856Y-53337412D02*
X91163237Y-53385031D01*
X91163237Y-53385031D02*
X91067999Y-53432650D01*
X91067999Y-53432650D02*
X90687047Y-53432650D01*
X92115618Y-52908841D02*
X91925142Y-52908841D01*
X91925142Y-52908841D02*
X91829904Y-52956460D01*
X91829904Y-52956460D02*
X91782285Y-53004079D01*
X91782285Y-53004079D02*
X91687047Y-53146936D01*
X91687047Y-53146936D02*
X91639428Y-53337412D01*
X91639428Y-53337412D02*
X91639428Y-53718364D01*
X91639428Y-53718364D02*
X91687047Y-53813602D01*
X91687047Y-53813602D02*
X91734666Y-53861222D01*
X91734666Y-53861222D02*
X91829904Y-53908841D01*
X91829904Y-53908841D02*
X92020380Y-53908841D01*
X92020380Y-53908841D02*
X92115618Y-53861222D01*
X92115618Y-53861222D02*
X92163237Y-53813602D01*
X92163237Y-53813602D02*
X92210856Y-53718364D01*
X92210856Y-53718364D02*
X92210856Y-53480269D01*
X92210856Y-53480269D02*
X92163237Y-53385031D01*
X92163237Y-53385031D02*
X92115618Y-53337412D01*
X92115618Y-53337412D02*
X92020380Y-53289793D01*
X92020380Y-53289793D02*
X91829904Y-53289793D01*
X91829904Y-53289793D02*
X91734666Y-53337412D01*
X91734666Y-53337412D02*
X91687047Y-53385031D01*
X91687047Y-53385031D02*
X91639428Y-53480269D01*
X90687047Y-56448841D02*
X90687047Y-55448841D01*
X90687047Y-55448841D02*
X91067999Y-55448841D01*
X91067999Y-55448841D02*
X91163237Y-55496460D01*
X91163237Y-55496460D02*
X91210856Y-55544079D01*
X91210856Y-55544079D02*
X91258475Y-55639317D01*
X91258475Y-55639317D02*
X91258475Y-55782174D01*
X91258475Y-55782174D02*
X91210856Y-55877412D01*
X91210856Y-55877412D02*
X91163237Y-55925031D01*
X91163237Y-55925031D02*
X91067999Y-55972650D01*
X91067999Y-55972650D02*
X90687047Y-55972650D01*
X91591809Y-55448841D02*
X92258475Y-55448841D01*
X92258475Y-55448841D02*
X91829904Y-56448841D01*
X90687047Y-58988841D02*
X90687047Y-57988841D01*
X90687047Y-57988841D02*
X91067999Y-57988841D01*
X91067999Y-57988841D02*
X91163237Y-58036460D01*
X91163237Y-58036460D02*
X91210856Y-58084079D01*
X91210856Y-58084079D02*
X91258475Y-58179317D01*
X91258475Y-58179317D02*
X91258475Y-58322174D01*
X91258475Y-58322174D02*
X91210856Y-58417412D01*
X91210856Y-58417412D02*
X91163237Y-58465031D01*
X91163237Y-58465031D02*
X91067999Y-58512650D01*
X91067999Y-58512650D02*
X90687047Y-58512650D01*
X91829904Y-58417412D02*
X91734666Y-58369793D01*
X91734666Y-58369793D02*
X91687047Y-58322174D01*
X91687047Y-58322174D02*
X91639428Y-58226936D01*
X91639428Y-58226936D02*
X91639428Y-58179317D01*
X91639428Y-58179317D02*
X91687047Y-58084079D01*
X91687047Y-58084079D02*
X91734666Y-58036460D01*
X91734666Y-58036460D02*
X91829904Y-57988841D01*
X91829904Y-57988841D02*
X92020380Y-57988841D01*
X92020380Y-57988841D02*
X92115618Y-58036460D01*
X92115618Y-58036460D02*
X92163237Y-58084079D01*
X92163237Y-58084079D02*
X92210856Y-58179317D01*
X92210856Y-58179317D02*
X92210856Y-58226936D01*
X92210856Y-58226936D02*
X92163237Y-58322174D01*
X92163237Y-58322174D02*
X92115618Y-58369793D01*
X92115618Y-58369793D02*
X92020380Y-58417412D01*
X92020380Y-58417412D02*
X91829904Y-58417412D01*
X91829904Y-58417412D02*
X91734666Y-58465031D01*
X91734666Y-58465031D02*
X91687047Y-58512650D01*
X91687047Y-58512650D02*
X91639428Y-58607888D01*
X91639428Y-58607888D02*
X91639428Y-58798364D01*
X91639428Y-58798364D02*
X91687047Y-58893602D01*
X91687047Y-58893602D02*
X91734666Y-58941222D01*
X91734666Y-58941222D02*
X91829904Y-58988841D01*
X91829904Y-58988841D02*
X92020380Y-58988841D01*
X92020380Y-58988841D02*
X92115618Y-58941222D01*
X92115618Y-58941222D02*
X92163237Y-58893602D01*
X92163237Y-58893602D02*
X92210856Y-58798364D01*
X92210856Y-58798364D02*
X92210856Y-58607888D01*
X92210856Y-58607888D02*
X92163237Y-58512650D01*
X92163237Y-58512650D02*
X92115618Y-58465031D01*
X92115618Y-58465031D02*
X92020380Y-58417412D01*
X90687047Y-61528841D02*
X90687047Y-60528841D01*
X90687047Y-60528841D02*
X91067999Y-60528841D01*
X91067999Y-60528841D02*
X91163237Y-60576460D01*
X91163237Y-60576460D02*
X91210856Y-60624079D01*
X91210856Y-60624079D02*
X91258475Y-60719317D01*
X91258475Y-60719317D02*
X91258475Y-60862174D01*
X91258475Y-60862174D02*
X91210856Y-60957412D01*
X91210856Y-60957412D02*
X91163237Y-61005031D01*
X91163237Y-61005031D02*
X91067999Y-61052650D01*
X91067999Y-61052650D02*
X90687047Y-61052650D01*
X91734666Y-61528841D02*
X91925142Y-61528841D01*
X91925142Y-61528841D02*
X92020380Y-61481222D01*
X92020380Y-61481222D02*
X92067999Y-61433602D01*
X92067999Y-61433602D02*
X92163237Y-61290745D01*
X92163237Y-61290745D02*
X92210856Y-61100269D01*
X92210856Y-61100269D02*
X92210856Y-60719317D01*
X92210856Y-60719317D02*
X92163237Y-60624079D01*
X92163237Y-60624079D02*
X92115618Y-60576460D01*
X92115618Y-60576460D02*
X92020380Y-60528841D01*
X92020380Y-60528841D02*
X91829904Y-60528841D01*
X91829904Y-60528841D02*
X91734666Y-60576460D01*
X91734666Y-60576460D02*
X91687047Y-60624079D01*
X91687047Y-60624079D02*
X91639428Y-60719317D01*
X91639428Y-60719317D02*
X91639428Y-60957412D01*
X91639428Y-60957412D02*
X91687047Y-61052650D01*
X91687047Y-61052650D02*
X91734666Y-61100269D01*
X91734666Y-61100269D02*
X91829904Y-61147888D01*
X91829904Y-61147888D02*
X92020380Y-61147888D01*
X92020380Y-61147888D02*
X92115618Y-61100269D01*
X92115618Y-61100269D02*
X92163237Y-61052650D01*
X92163237Y-61052650D02*
X92210856Y-60957412D01*
X99674665Y-33588841D02*
X99341332Y-33112650D01*
X99103237Y-33588841D02*
X99103237Y-32588841D01*
X99103237Y-32588841D02*
X99484189Y-32588841D01*
X99484189Y-32588841D02*
X99579427Y-32636460D01*
X99579427Y-32636460D02*
X99627046Y-32684079D01*
X99627046Y-32684079D02*
X99674665Y-32779317D01*
X99674665Y-32779317D02*
X99674665Y-32922174D01*
X99674665Y-32922174D02*
X99627046Y-33017412D01*
X99627046Y-33017412D02*
X99579427Y-33065031D01*
X99579427Y-33065031D02*
X99484189Y-33112650D01*
X99484189Y-33112650D02*
X99103237Y-33112650D01*
X100055618Y-33303126D02*
X100531808Y-33303126D01*
X99960380Y-33588841D02*
X100293713Y-32588841D01*
X100293713Y-32588841D02*
X100627046Y-33588841D01*
X100865142Y-32588841D02*
X101103237Y-33588841D01*
X101103237Y-33588841D02*
X101293713Y-32874555D01*
X101293713Y-32874555D02*
X101484189Y-33588841D01*
X101484189Y-33588841D02*
X101722285Y-32588841D01*
X99603237Y-35176460D02*
X99507999Y-35128841D01*
X99507999Y-35128841D02*
X99365142Y-35128841D01*
X99365142Y-35128841D02*
X99222285Y-35176460D01*
X99222285Y-35176460D02*
X99127047Y-35271698D01*
X99127047Y-35271698D02*
X99079428Y-35366936D01*
X99079428Y-35366936D02*
X99031809Y-35557412D01*
X99031809Y-35557412D02*
X99031809Y-35700269D01*
X99031809Y-35700269D02*
X99079428Y-35890745D01*
X99079428Y-35890745D02*
X99127047Y-35985983D01*
X99127047Y-35985983D02*
X99222285Y-36081222D01*
X99222285Y-36081222D02*
X99365142Y-36128841D01*
X99365142Y-36128841D02*
X99460380Y-36128841D01*
X99460380Y-36128841D02*
X99603237Y-36081222D01*
X99603237Y-36081222D02*
X99650856Y-36033602D01*
X99650856Y-36033602D02*
X99650856Y-35700269D01*
X99650856Y-35700269D02*
X99460380Y-35700269D01*
X100079428Y-36128841D02*
X100079428Y-35128841D01*
X100079428Y-35128841D02*
X100650856Y-36128841D01*
X100650856Y-36128841D02*
X100650856Y-35128841D01*
X101127047Y-36128841D02*
X101127047Y-35128841D01*
X101127047Y-35128841D02*
X101365142Y-35128841D01*
X101365142Y-35128841D02*
X101507999Y-35176460D01*
X101507999Y-35176460D02*
X101603237Y-35271698D01*
X101603237Y-35271698D02*
X101650856Y-35366936D01*
X101650856Y-35366936D02*
X101698475Y-35557412D01*
X101698475Y-35557412D02*
X101698475Y-35700269D01*
X101698475Y-35700269D02*
X101650856Y-35890745D01*
X101650856Y-35890745D02*
X101603237Y-35985983D01*
X101603237Y-35985983D02*
X101507999Y-36081222D01*
X101507999Y-36081222D02*
X101365142Y-36128841D01*
X101365142Y-36128841D02*
X101127047Y-36128841D01*
X99817522Y-38668841D02*
X99484189Y-38192650D01*
X99246094Y-38668841D02*
X99246094Y-37668841D01*
X99246094Y-37668841D02*
X99627046Y-37668841D01*
X99627046Y-37668841D02*
X99722284Y-37716460D01*
X99722284Y-37716460D02*
X99769903Y-37764079D01*
X99769903Y-37764079D02*
X99817522Y-37859317D01*
X99817522Y-37859317D02*
X99817522Y-38002174D01*
X99817522Y-38002174D02*
X99769903Y-38097412D01*
X99769903Y-38097412D02*
X99722284Y-38145031D01*
X99722284Y-38145031D02*
X99627046Y-38192650D01*
X99627046Y-38192650D02*
X99246094Y-38192650D01*
X100198475Y-38621222D02*
X100341332Y-38668841D01*
X100341332Y-38668841D02*
X100579427Y-38668841D01*
X100579427Y-38668841D02*
X100674665Y-38621222D01*
X100674665Y-38621222D02*
X100722284Y-38573602D01*
X100722284Y-38573602D02*
X100769903Y-38478364D01*
X100769903Y-38478364D02*
X100769903Y-38383126D01*
X100769903Y-38383126D02*
X100722284Y-38287888D01*
X100722284Y-38287888D02*
X100674665Y-38240269D01*
X100674665Y-38240269D02*
X100579427Y-38192650D01*
X100579427Y-38192650D02*
X100388951Y-38145031D01*
X100388951Y-38145031D02*
X100293713Y-38097412D01*
X100293713Y-38097412D02*
X100246094Y-38049793D01*
X100246094Y-38049793D02*
X100198475Y-37954555D01*
X100198475Y-37954555D02*
X100198475Y-37859317D01*
X100198475Y-37859317D02*
X100246094Y-37764079D01*
X100246094Y-37764079D02*
X100293713Y-37716460D01*
X100293713Y-37716460D02*
X100388951Y-37668841D01*
X100388951Y-37668841D02*
X100627046Y-37668841D01*
X100627046Y-37668841D02*
X100769903Y-37716460D01*
X101055618Y-37668841D02*
X101627046Y-37668841D01*
X101341332Y-38668841D02*
X101341332Y-37668841D01*
X99031809Y-40208841D02*
X99365142Y-41208841D01*
X99365142Y-41208841D02*
X99698475Y-40208841D01*
X100603237Y-41113602D02*
X100555618Y-41161222D01*
X100555618Y-41161222D02*
X100412761Y-41208841D01*
X100412761Y-41208841D02*
X100317523Y-41208841D01*
X100317523Y-41208841D02*
X100174666Y-41161222D01*
X100174666Y-41161222D02*
X100079428Y-41065983D01*
X100079428Y-41065983D02*
X100031809Y-40970745D01*
X100031809Y-40970745D02*
X99984190Y-40780269D01*
X99984190Y-40780269D02*
X99984190Y-40637412D01*
X99984190Y-40637412D02*
X100031809Y-40446936D01*
X100031809Y-40446936D02*
X100079428Y-40351698D01*
X100079428Y-40351698D02*
X100174666Y-40256460D01*
X100174666Y-40256460D02*
X100317523Y-40208841D01*
X100317523Y-40208841D02*
X100412761Y-40208841D01*
X100412761Y-40208841D02*
X100555618Y-40256460D01*
X100555618Y-40256460D02*
X100603237Y-40304079D01*
X101603237Y-41113602D02*
X101555618Y-41161222D01*
X101555618Y-41161222D02*
X101412761Y-41208841D01*
X101412761Y-41208841D02*
X101317523Y-41208841D01*
X101317523Y-41208841D02*
X101174666Y-41161222D01*
X101174666Y-41161222D02*
X101079428Y-41065983D01*
X101079428Y-41065983D02*
X101031809Y-40970745D01*
X101031809Y-40970745D02*
X100984190Y-40780269D01*
X100984190Y-40780269D02*
X100984190Y-40637412D01*
X100984190Y-40637412D02*
X101031809Y-40446936D01*
X101031809Y-40446936D02*
X101079428Y-40351698D01*
X101079428Y-40351698D02*
X101174666Y-40256460D01*
X101174666Y-40256460D02*
X101317523Y-40208841D01*
X101317523Y-40208841D02*
X101412761Y-40208841D01*
X101412761Y-40208841D02*
X101555618Y-40256460D01*
X101555618Y-40256460D02*
X101603237Y-40304079D01*
X99150856Y-43748841D02*
X99150856Y-42748841D01*
X99150856Y-42748841D02*
X99531808Y-42748841D01*
X99531808Y-42748841D02*
X99627046Y-42796460D01*
X99627046Y-42796460D02*
X99674665Y-42844079D01*
X99674665Y-42844079D02*
X99722284Y-42939317D01*
X99722284Y-42939317D02*
X99722284Y-43082174D01*
X99722284Y-43082174D02*
X99674665Y-43177412D01*
X99674665Y-43177412D02*
X99627046Y-43225031D01*
X99627046Y-43225031D02*
X99531808Y-43272650D01*
X99531808Y-43272650D02*
X99150856Y-43272650D01*
X100103237Y-42844079D02*
X100150856Y-42796460D01*
X100150856Y-42796460D02*
X100246094Y-42748841D01*
X100246094Y-42748841D02*
X100484189Y-42748841D01*
X100484189Y-42748841D02*
X100579427Y-42796460D01*
X100579427Y-42796460D02*
X100627046Y-42844079D01*
X100627046Y-42844079D02*
X100674665Y-42939317D01*
X100674665Y-42939317D02*
X100674665Y-43034555D01*
X100674665Y-43034555D02*
X100627046Y-43177412D01*
X100627046Y-43177412D02*
X100055618Y-43748841D01*
X100055618Y-43748841D02*
X100674665Y-43748841D01*
X101627046Y-43748841D02*
X101055618Y-43748841D01*
X101341332Y-43748841D02*
X101341332Y-42748841D01*
X101341332Y-42748841D02*
X101246094Y-42891698D01*
X101246094Y-42891698D02*
X101150856Y-42986936D01*
X101150856Y-42986936D02*
X101055618Y-43034555D01*
X99150856Y-46288841D02*
X99150856Y-45288841D01*
X99150856Y-45288841D02*
X99531808Y-45288841D01*
X99531808Y-45288841D02*
X99627046Y-45336460D01*
X99627046Y-45336460D02*
X99674665Y-45384079D01*
X99674665Y-45384079D02*
X99722284Y-45479317D01*
X99722284Y-45479317D02*
X99722284Y-45622174D01*
X99722284Y-45622174D02*
X99674665Y-45717412D01*
X99674665Y-45717412D02*
X99627046Y-45765031D01*
X99627046Y-45765031D02*
X99531808Y-45812650D01*
X99531808Y-45812650D02*
X99150856Y-45812650D01*
X100103237Y-45384079D02*
X100150856Y-45336460D01*
X100150856Y-45336460D02*
X100246094Y-45288841D01*
X100246094Y-45288841D02*
X100484189Y-45288841D01*
X100484189Y-45288841D02*
X100579427Y-45336460D01*
X100579427Y-45336460D02*
X100627046Y-45384079D01*
X100627046Y-45384079D02*
X100674665Y-45479317D01*
X100674665Y-45479317D02*
X100674665Y-45574555D01*
X100674665Y-45574555D02*
X100627046Y-45717412D01*
X100627046Y-45717412D02*
X100055618Y-46288841D01*
X100055618Y-46288841D02*
X100674665Y-46288841D01*
X101293713Y-45288841D02*
X101388951Y-45288841D01*
X101388951Y-45288841D02*
X101484189Y-45336460D01*
X101484189Y-45336460D02*
X101531808Y-45384079D01*
X101531808Y-45384079D02*
X101579427Y-45479317D01*
X101579427Y-45479317D02*
X101627046Y-45669793D01*
X101627046Y-45669793D02*
X101627046Y-45907888D01*
X101627046Y-45907888D02*
X101579427Y-46098364D01*
X101579427Y-46098364D02*
X101531808Y-46193602D01*
X101531808Y-46193602D02*
X101484189Y-46241222D01*
X101484189Y-46241222D02*
X101388951Y-46288841D01*
X101388951Y-46288841D02*
X101293713Y-46288841D01*
X101293713Y-46288841D02*
X101198475Y-46241222D01*
X101198475Y-46241222D02*
X101150856Y-46193602D01*
X101150856Y-46193602D02*
X101103237Y-46098364D01*
X101103237Y-46098364D02*
X101055618Y-45907888D01*
X101055618Y-45907888D02*
X101055618Y-45669793D01*
X101055618Y-45669793D02*
X101103237Y-45479317D01*
X101103237Y-45479317D02*
X101150856Y-45384079D01*
X101150856Y-45384079D02*
X101198475Y-45336460D01*
X101198475Y-45336460D02*
X101293713Y-45288841D01*
X99150856Y-48828841D02*
X99150856Y-47828841D01*
X99150856Y-47828841D02*
X99531808Y-47828841D01*
X99531808Y-47828841D02*
X99627046Y-47876460D01*
X99627046Y-47876460D02*
X99674665Y-47924079D01*
X99674665Y-47924079D02*
X99722284Y-48019317D01*
X99722284Y-48019317D02*
X99722284Y-48162174D01*
X99722284Y-48162174D02*
X99674665Y-48257412D01*
X99674665Y-48257412D02*
X99627046Y-48305031D01*
X99627046Y-48305031D02*
X99531808Y-48352650D01*
X99531808Y-48352650D02*
X99150856Y-48352650D01*
X100674665Y-48828841D02*
X100103237Y-48828841D01*
X100388951Y-48828841D02*
X100388951Y-47828841D01*
X100388951Y-47828841D02*
X100293713Y-47971698D01*
X100293713Y-47971698D02*
X100198475Y-48066936D01*
X100198475Y-48066936D02*
X100103237Y-48114555D01*
X101150856Y-48828841D02*
X101341332Y-48828841D01*
X101341332Y-48828841D02*
X101436570Y-48781222D01*
X101436570Y-48781222D02*
X101484189Y-48733602D01*
X101484189Y-48733602D02*
X101579427Y-48590745D01*
X101579427Y-48590745D02*
X101627046Y-48400269D01*
X101627046Y-48400269D02*
X101627046Y-48019317D01*
X101627046Y-48019317D02*
X101579427Y-47924079D01*
X101579427Y-47924079D02*
X101531808Y-47876460D01*
X101531808Y-47876460D02*
X101436570Y-47828841D01*
X101436570Y-47828841D02*
X101246094Y-47828841D01*
X101246094Y-47828841D02*
X101150856Y-47876460D01*
X101150856Y-47876460D02*
X101103237Y-47924079D01*
X101103237Y-47924079D02*
X101055618Y-48019317D01*
X101055618Y-48019317D02*
X101055618Y-48257412D01*
X101055618Y-48257412D02*
X101103237Y-48352650D01*
X101103237Y-48352650D02*
X101150856Y-48400269D01*
X101150856Y-48400269D02*
X101246094Y-48447888D01*
X101246094Y-48447888D02*
X101436570Y-48447888D01*
X101436570Y-48447888D02*
X101531808Y-48400269D01*
X101531808Y-48400269D02*
X101579427Y-48352650D01*
X101579427Y-48352650D02*
X101627046Y-48257412D01*
X99150856Y-51368841D02*
X99150856Y-50368841D01*
X99150856Y-50368841D02*
X99531808Y-50368841D01*
X99531808Y-50368841D02*
X99627046Y-50416460D01*
X99627046Y-50416460D02*
X99674665Y-50464079D01*
X99674665Y-50464079D02*
X99722284Y-50559317D01*
X99722284Y-50559317D02*
X99722284Y-50702174D01*
X99722284Y-50702174D02*
X99674665Y-50797412D01*
X99674665Y-50797412D02*
X99627046Y-50845031D01*
X99627046Y-50845031D02*
X99531808Y-50892650D01*
X99531808Y-50892650D02*
X99150856Y-50892650D01*
X100674665Y-51368841D02*
X100103237Y-51368841D01*
X100388951Y-51368841D02*
X100388951Y-50368841D01*
X100388951Y-50368841D02*
X100293713Y-50511698D01*
X100293713Y-50511698D02*
X100198475Y-50606936D01*
X100198475Y-50606936D02*
X100103237Y-50654555D01*
X101246094Y-50797412D02*
X101150856Y-50749793D01*
X101150856Y-50749793D02*
X101103237Y-50702174D01*
X101103237Y-50702174D02*
X101055618Y-50606936D01*
X101055618Y-50606936D02*
X101055618Y-50559317D01*
X101055618Y-50559317D02*
X101103237Y-50464079D01*
X101103237Y-50464079D02*
X101150856Y-50416460D01*
X101150856Y-50416460D02*
X101246094Y-50368841D01*
X101246094Y-50368841D02*
X101436570Y-50368841D01*
X101436570Y-50368841D02*
X101531808Y-50416460D01*
X101531808Y-50416460D02*
X101579427Y-50464079D01*
X101579427Y-50464079D02*
X101627046Y-50559317D01*
X101627046Y-50559317D02*
X101627046Y-50606936D01*
X101627046Y-50606936D02*
X101579427Y-50702174D01*
X101579427Y-50702174D02*
X101531808Y-50749793D01*
X101531808Y-50749793D02*
X101436570Y-50797412D01*
X101436570Y-50797412D02*
X101246094Y-50797412D01*
X101246094Y-50797412D02*
X101150856Y-50845031D01*
X101150856Y-50845031D02*
X101103237Y-50892650D01*
X101103237Y-50892650D02*
X101055618Y-50987888D01*
X101055618Y-50987888D02*
X101055618Y-51178364D01*
X101055618Y-51178364D02*
X101103237Y-51273602D01*
X101103237Y-51273602D02*
X101150856Y-51321222D01*
X101150856Y-51321222D02*
X101246094Y-51368841D01*
X101246094Y-51368841D02*
X101436570Y-51368841D01*
X101436570Y-51368841D02*
X101531808Y-51321222D01*
X101531808Y-51321222D02*
X101579427Y-51273602D01*
X101579427Y-51273602D02*
X101627046Y-51178364D01*
X101627046Y-51178364D02*
X101627046Y-50987888D01*
X101627046Y-50987888D02*
X101579427Y-50892650D01*
X101579427Y-50892650D02*
X101531808Y-50845031D01*
X101531808Y-50845031D02*
X101436570Y-50797412D01*
X99150856Y-53908841D02*
X99150856Y-52908841D01*
X99150856Y-52908841D02*
X99531808Y-52908841D01*
X99531808Y-52908841D02*
X99627046Y-52956460D01*
X99627046Y-52956460D02*
X99674665Y-53004079D01*
X99674665Y-53004079D02*
X99722284Y-53099317D01*
X99722284Y-53099317D02*
X99722284Y-53242174D01*
X99722284Y-53242174D02*
X99674665Y-53337412D01*
X99674665Y-53337412D02*
X99627046Y-53385031D01*
X99627046Y-53385031D02*
X99531808Y-53432650D01*
X99531808Y-53432650D02*
X99150856Y-53432650D01*
X100674665Y-53908841D02*
X100103237Y-53908841D01*
X100388951Y-53908841D02*
X100388951Y-52908841D01*
X100388951Y-52908841D02*
X100293713Y-53051698D01*
X100293713Y-53051698D02*
X100198475Y-53146936D01*
X100198475Y-53146936D02*
X100103237Y-53194555D01*
X101579427Y-52908841D02*
X101103237Y-52908841D01*
X101103237Y-52908841D02*
X101055618Y-53385031D01*
X101055618Y-53385031D02*
X101103237Y-53337412D01*
X101103237Y-53337412D02*
X101198475Y-53289793D01*
X101198475Y-53289793D02*
X101436570Y-53289793D01*
X101436570Y-53289793D02*
X101531808Y-53337412D01*
X101531808Y-53337412D02*
X101579427Y-53385031D01*
X101579427Y-53385031D02*
X101627046Y-53480269D01*
X101627046Y-53480269D02*
X101627046Y-53718364D01*
X101627046Y-53718364D02*
X101579427Y-53813602D01*
X101579427Y-53813602D02*
X101531808Y-53861222D01*
X101531808Y-53861222D02*
X101436570Y-53908841D01*
X101436570Y-53908841D02*
X101198475Y-53908841D01*
X101198475Y-53908841D02*
X101103237Y-53861222D01*
X101103237Y-53861222D02*
X101055618Y-53813602D01*
X99150856Y-56448841D02*
X99150856Y-55448841D01*
X99150856Y-55448841D02*
X99531808Y-55448841D01*
X99531808Y-55448841D02*
X99627046Y-55496460D01*
X99627046Y-55496460D02*
X99674665Y-55544079D01*
X99674665Y-55544079D02*
X99722284Y-55639317D01*
X99722284Y-55639317D02*
X99722284Y-55782174D01*
X99722284Y-55782174D02*
X99674665Y-55877412D01*
X99674665Y-55877412D02*
X99627046Y-55925031D01*
X99627046Y-55925031D02*
X99531808Y-55972650D01*
X99531808Y-55972650D02*
X99150856Y-55972650D01*
X100674665Y-56448841D02*
X100103237Y-56448841D01*
X100388951Y-56448841D02*
X100388951Y-55448841D01*
X100388951Y-55448841D02*
X100293713Y-55591698D01*
X100293713Y-55591698D02*
X100198475Y-55686936D01*
X100198475Y-55686936D02*
X100103237Y-55734555D01*
X101531808Y-55782174D02*
X101531808Y-56448841D01*
X101293713Y-55401222D02*
X101055618Y-56115507D01*
X101055618Y-56115507D02*
X101674665Y-56115507D01*
X99150856Y-58988841D02*
X99150856Y-57988841D01*
X99150856Y-57988841D02*
X99531808Y-57988841D01*
X99531808Y-57988841D02*
X99627046Y-58036460D01*
X99627046Y-58036460D02*
X99674665Y-58084079D01*
X99674665Y-58084079D02*
X99722284Y-58179317D01*
X99722284Y-58179317D02*
X99722284Y-58322174D01*
X99722284Y-58322174D02*
X99674665Y-58417412D01*
X99674665Y-58417412D02*
X99627046Y-58465031D01*
X99627046Y-58465031D02*
X99531808Y-58512650D01*
X99531808Y-58512650D02*
X99150856Y-58512650D01*
X100674665Y-58988841D02*
X100103237Y-58988841D01*
X100388951Y-58988841D02*
X100388951Y-57988841D01*
X100388951Y-57988841D02*
X100293713Y-58131698D01*
X100293713Y-58131698D02*
X100198475Y-58226936D01*
X100198475Y-58226936D02*
X100103237Y-58274555D01*
X101531808Y-57988841D02*
X101341332Y-57988841D01*
X101341332Y-57988841D02*
X101246094Y-58036460D01*
X101246094Y-58036460D02*
X101198475Y-58084079D01*
X101198475Y-58084079D02*
X101103237Y-58226936D01*
X101103237Y-58226936D02*
X101055618Y-58417412D01*
X101055618Y-58417412D02*
X101055618Y-58798364D01*
X101055618Y-58798364D02*
X101103237Y-58893602D01*
X101103237Y-58893602D02*
X101150856Y-58941222D01*
X101150856Y-58941222D02*
X101246094Y-58988841D01*
X101246094Y-58988841D02*
X101436570Y-58988841D01*
X101436570Y-58988841D02*
X101531808Y-58941222D01*
X101531808Y-58941222D02*
X101579427Y-58893602D01*
X101579427Y-58893602D02*
X101627046Y-58798364D01*
X101627046Y-58798364D02*
X101627046Y-58560269D01*
X101627046Y-58560269D02*
X101579427Y-58465031D01*
X101579427Y-58465031D02*
X101531808Y-58417412D01*
X101531808Y-58417412D02*
X101436570Y-58369793D01*
X101436570Y-58369793D02*
X101246094Y-58369793D01*
X101246094Y-58369793D02*
X101150856Y-58417412D01*
X101150856Y-58417412D02*
X101103237Y-58465031D01*
X101103237Y-58465031D02*
X101055618Y-58560269D01*
X99150856Y-61528841D02*
X99150856Y-60528841D01*
X99150856Y-60528841D02*
X99531808Y-60528841D01*
X99531808Y-60528841D02*
X99627046Y-60576460D01*
X99627046Y-60576460D02*
X99674665Y-60624079D01*
X99674665Y-60624079D02*
X99722284Y-60719317D01*
X99722284Y-60719317D02*
X99722284Y-60862174D01*
X99722284Y-60862174D02*
X99674665Y-60957412D01*
X99674665Y-60957412D02*
X99627046Y-61005031D01*
X99627046Y-61005031D02*
X99531808Y-61052650D01*
X99531808Y-61052650D02*
X99150856Y-61052650D01*
X100674665Y-61528841D02*
X100103237Y-61528841D01*
X100388951Y-61528841D02*
X100388951Y-60528841D01*
X100388951Y-60528841D02*
X100293713Y-60671698D01*
X100293713Y-60671698D02*
X100198475Y-60766936D01*
X100198475Y-60766936D02*
X100103237Y-60814555D01*
X101293713Y-60528841D02*
X101388951Y-60528841D01*
X101388951Y-60528841D02*
X101484189Y-60576460D01*
X101484189Y-60576460D02*
X101531808Y-60624079D01*
X101531808Y-60624079D02*
X101579427Y-60719317D01*
X101579427Y-60719317D02*
X101627046Y-60909793D01*
X101627046Y-60909793D02*
X101627046Y-61147888D01*
X101627046Y-61147888D02*
X101579427Y-61338364D01*
X101579427Y-61338364D02*
X101531808Y-61433602D01*
X101531808Y-61433602D02*
X101484189Y-61481222D01*
X101484189Y-61481222D02*
X101388951Y-61528841D01*
X101388951Y-61528841D02*
X101293713Y-61528841D01*
X101293713Y-61528841D02*
X101198475Y-61481222D01*
X101198475Y-61481222D02*
X101150856Y-61433602D01*
X101150856Y-61433602D02*
X101103237Y-61338364D01*
X101103237Y-61338364D02*
X101055618Y-61147888D01*
X101055618Y-61147888D02*
X101055618Y-60909793D01*
X101055618Y-60909793D02*
X101103237Y-60719317D01*
X101103237Y-60719317D02*
X101150856Y-60624079D01*
X101150856Y-60624079D02*
X101198475Y-60576460D01*
X101198475Y-60576460D02*
X101293713Y-60528841D01*
%TO.C,D6*%
D11*
X290404884Y-54954070D02*
X290804884Y-54954070D01*
X290804884Y-54954070D02*
X290804884Y-54404070D01*
X290804884Y-54954070D02*
X290804884Y-55504070D01*
X290804884Y-54954070D02*
X291404884Y-54554070D01*
X291404884Y-54554070D02*
X291404884Y-55354070D01*
X291404884Y-54954070D02*
X291904884Y-54954070D01*
X291404884Y-55354070D02*
X290804884Y-54954070D01*
%TO.C,D2*%
X309404884Y-89244070D02*
X309804884Y-89244070D01*
X309804884Y-89244070D02*
X309804884Y-88694070D01*
X309804884Y-89244070D02*
X309804884Y-89794070D01*
X309804884Y-89244070D02*
X310404884Y-88844070D01*
X310404884Y-88844070D02*
X310404884Y-89644070D01*
X310404884Y-89244070D02*
X310904884Y-89244070D01*
X310404884Y-89644070D02*
X309804884Y-89244070D01*
%TO.C,D11*%
X252404884Y-74956570D02*
X252804884Y-74956570D01*
X252804884Y-74956570D02*
X252804884Y-74406570D01*
X252804884Y-74956570D02*
X252804884Y-75506570D01*
X252804884Y-74956570D02*
X253404884Y-74556570D01*
X253404884Y-74556570D02*
X253404884Y-75356570D01*
X253404884Y-74956570D02*
X253904884Y-74956570D01*
X253404884Y-75356570D02*
X252804884Y-74956570D01*
%TO.C,D13*%
X252404884Y-36856570D02*
X252804884Y-36856570D01*
X252804884Y-36856570D02*
X252804884Y-36306570D01*
X252804884Y-36856570D02*
X252804884Y-37406570D01*
X252804884Y-36856570D02*
X253404884Y-36456570D01*
X253404884Y-36456570D02*
X253404884Y-37256570D01*
X253404884Y-36856570D02*
X253904884Y-36856570D01*
X253404884Y-37256570D02*
X252804884Y-36856570D01*
%TO.C,D8*%
X271404884Y-69241570D02*
X271804884Y-69241570D01*
X271804884Y-69241570D02*
X271804884Y-68691570D01*
X271804884Y-69241570D02*
X271804884Y-69791570D01*
X271804884Y-69241570D02*
X272404884Y-68841570D01*
X272404884Y-68841570D02*
X272404884Y-69641570D01*
X272404884Y-69241570D02*
X272904884Y-69241570D01*
X272404884Y-69641570D02*
X271804884Y-69241570D01*
%TO.C,D15*%
X233404884Y-58764070D02*
X233804884Y-58764070D01*
X233804884Y-58764070D02*
X233804884Y-58214070D01*
X233804884Y-58764070D02*
X233804884Y-59314070D01*
X233804884Y-58764070D02*
X234404884Y-58364070D01*
X234404884Y-58364070D02*
X234404884Y-59164070D01*
X234404884Y-58764070D02*
X234904884Y-58764070D01*
X234404884Y-59164070D02*
X233804884Y-58764070D01*
%TO.C,D20*%
X190975120Y-103168252D02*
X191302781Y-102938822D01*
X191302781Y-102938822D02*
X190987314Y-102488288D01*
X191302781Y-102938822D02*
X191564841Y-102267015D01*
X191302781Y-102938822D02*
X191618248Y-103389355D01*
X191564841Y-102267015D02*
X192023703Y-102922337D01*
X191794272Y-102594676D02*
X192203848Y-102307888D01*
X192023703Y-102922337D02*
X191302781Y-102938822D01*
%TO.C,D9*%
X271404884Y-50191570D02*
X271804884Y-50191570D01*
X271804884Y-50191570D02*
X271804884Y-49641570D01*
X271804884Y-50191570D02*
X271804884Y-50741570D01*
X271804884Y-50191570D02*
X272404884Y-49791570D01*
X272404884Y-49791570D02*
X272404884Y-50591570D01*
X272404884Y-50191570D02*
X272904884Y-50191570D01*
X272404884Y-50591570D02*
X271804884Y-50191570D01*
%TO.C,D18*%
X213200815Y-91377585D02*
X213576692Y-91240777D01*
X213576692Y-91240777D02*
X213388581Y-90723946D01*
X213576692Y-91240777D02*
X213764803Y-91757608D01*
X213576692Y-91240777D02*
X214003699Y-90659688D01*
X214003699Y-90659688D02*
X214277315Y-91411442D01*
X214140507Y-91035565D02*
X214610353Y-90864555D01*
X214277315Y-91411442D02*
X213576692Y-91240777D01*
%TO.C,D14*%
X233404884Y-77814070D02*
X233804884Y-77814070D01*
X233804884Y-77814070D02*
X233804884Y-77264070D01*
X233804884Y-77814070D02*
X233804884Y-78364070D01*
X233804884Y-77814070D02*
X234404884Y-77414070D01*
X234404884Y-77414070D02*
X234404884Y-78214070D01*
X234404884Y-77814070D02*
X234904884Y-77814070D01*
X234404884Y-78214070D02*
X233804884Y-77814070D01*
%TO.C,D21*%
X187113193Y-132522603D02*
X187370308Y-132216186D01*
X187370308Y-132216186D02*
X186948984Y-131862652D01*
X187370308Y-132216186D02*
X187449563Y-131499444D01*
X187370308Y-132216186D02*
X187791633Y-132569719D01*
X187449563Y-131499444D02*
X188062399Y-132013674D01*
X187755981Y-131756559D02*
X188077375Y-131373537D01*
X188062399Y-132013674D02*
X187370308Y-132216186D01*
%TO.C,D19*%
X201873020Y-118732152D02*
X202200681Y-118502722D01*
X202200681Y-118502722D02*
X201885214Y-118052188D01*
X202200681Y-118502722D02*
X202462741Y-117830915D01*
X202200681Y-118502722D02*
X202516148Y-118953255D01*
X202462741Y-117830915D02*
X202921603Y-118486237D01*
X202692172Y-118158576D02*
X203101748Y-117871788D01*
X202921603Y-118486237D02*
X202200681Y-118502722D01*
%TO.C,D7*%
X290404884Y-35904070D02*
X290804884Y-35904070D01*
X290804884Y-35904070D02*
X290804884Y-35354070D01*
X290804884Y-35904070D02*
X290804884Y-36454070D01*
X290804884Y-35904070D02*
X291404884Y-35504070D01*
X291404884Y-35504070D02*
X291404884Y-36304070D01*
X291404884Y-35904070D02*
X291904884Y-35904070D01*
X291404884Y-36304070D02*
X290804884Y-35904070D01*
%TO.C,D4*%
X309404884Y-51144070D02*
X309804884Y-51144070D01*
X309804884Y-51144070D02*
X309804884Y-50594070D01*
X309804884Y-51144070D02*
X309804884Y-51694070D01*
X309804884Y-51144070D02*
X310404884Y-50744070D01*
X310404884Y-50744070D02*
X310404884Y-51544070D01*
X310404884Y-51144070D02*
X310904884Y-51144070D01*
X310404884Y-51544070D02*
X309804884Y-51144070D01*
%TO.C,D5*%
X290404884Y-74004070D02*
X290804884Y-74004070D01*
X290804884Y-74004070D02*
X290804884Y-73454070D01*
X290804884Y-74004070D02*
X290804884Y-74554070D01*
X290804884Y-74004070D02*
X291404884Y-73604070D01*
X291404884Y-73604070D02*
X291404884Y-74404070D01*
X291404884Y-74004070D02*
X291904884Y-74004070D01*
X291404884Y-74404070D02*
X290804884Y-74004070D01*
%TO.C,D10*%
X271404884Y-31141570D02*
X271804884Y-31141570D01*
X271804884Y-31141570D02*
X271804884Y-30591570D01*
X271804884Y-31141570D02*
X271804884Y-31691570D01*
X271804884Y-31141570D02*
X272404884Y-30741570D01*
X272404884Y-30741570D02*
X272404884Y-31541570D01*
X272404884Y-31141570D02*
X272904884Y-31141570D01*
X272404884Y-31541570D02*
X271804884Y-31141570D01*
%TO.C,D1*%
X239596284Y-102927970D02*
X239996284Y-102927970D01*
X239996284Y-102927970D02*
X239996284Y-102377970D01*
X239996284Y-102927970D02*
X239996284Y-103477970D01*
X239996284Y-102927970D02*
X240596284Y-102527970D01*
X240596284Y-102527970D02*
X240596284Y-103327970D01*
X240596284Y-102927970D02*
X241096284Y-102927970D01*
X240596284Y-103327970D02*
X239996284Y-102927970D01*
%TO.C,D12*%
X252404884Y-55906570D02*
X252804884Y-55906570D01*
X252804884Y-55906570D02*
X252804884Y-55356570D01*
X252804884Y-55906570D02*
X252804884Y-56456570D01*
X252804884Y-55906570D02*
X253404884Y-55506570D01*
X253404884Y-55506570D02*
X253404884Y-56306570D01*
X253404884Y-55906570D02*
X253904884Y-55906570D01*
X253404884Y-56306570D02*
X252804884Y-55906570D01*
%TO.C,D22*%
X239596284Y-101427970D02*
X239996284Y-101427970D01*
X239996284Y-101427970D02*
X239996284Y-100877970D01*
X239996284Y-101427970D02*
X239996284Y-101977970D01*
X239996284Y-101427970D02*
X240596284Y-101027970D01*
X240596284Y-101027970D02*
X240596284Y-101827970D01*
X240596284Y-101427970D02*
X241096284Y-101427970D01*
X240596284Y-101827970D02*
X239996284Y-101427970D01*
%TO.C,D16*%
X233404884Y-39714070D02*
X233804884Y-39714070D01*
X233804884Y-39714070D02*
X233804884Y-39164070D01*
X233804884Y-39714070D02*
X233804884Y-40264070D01*
X233804884Y-39714070D02*
X234404884Y-39314070D01*
X234404884Y-39314070D02*
X234404884Y-40114070D01*
X234404884Y-39714070D02*
X234904884Y-39714070D01*
X234404884Y-40114070D02*
X233804884Y-39714070D01*
%TO.C,D3*%
X309404884Y-70194070D02*
X309804884Y-70194070D01*
X309804884Y-70194070D02*
X309804884Y-69644070D01*
X309804884Y-70194070D02*
X309804884Y-70744070D01*
X309804884Y-70194070D02*
X310404884Y-69794070D01*
X310404884Y-69794070D02*
X310404884Y-70594070D01*
X310404884Y-70194070D02*
X310904884Y-70194070D01*
X310404884Y-70594070D02*
X309804884Y-70194070D01*
%TO.C,D17*%
X219699215Y-109231685D02*
X220075092Y-109094877D01*
X220075092Y-109094877D02*
X219886981Y-108578046D01*
X220075092Y-109094877D02*
X220263203Y-109611708D01*
X220075092Y-109094877D02*
X220502099Y-108513788D01*
X220502099Y-108513788D02*
X220775715Y-109265542D01*
X220638907Y-108889665D02*
X221108753Y-108718655D01*
X220775715Y-109265542D02*
X220075092Y-109094877D01*
%TO.C,MCU1*%
D12*
X86945142Y-31804022D02*
X86945142Y-62404022D01*
X86945142Y-31804022D02*
X89605142Y-31804022D01*
X86945142Y-62404022D02*
X89605142Y-62404022D01*
X89605142Y-31804022D02*
X89605142Y-62404022D01*
X89605142Y-34404022D02*
X86945142Y-34404022D01*
X102185142Y-31804022D02*
X102185142Y-62404022D01*
X102185142Y-31804022D02*
X104845142Y-31804022D01*
X102185142Y-62404022D02*
X104845142Y-62404022D01*
X104845142Y-31804022D02*
X104845142Y-62404022D01*
%TO.C,D4*%
D11*
X19095142Y-77004022D02*
X19495142Y-77004022D01*
X19495142Y-77004022D02*
X19495142Y-76454022D01*
X19495142Y-77004022D02*
X19495142Y-77554022D01*
X19495142Y-77004022D02*
X20095142Y-76604022D01*
X20095142Y-76604022D02*
X20095142Y-77404022D01*
X20095142Y-77004022D02*
X20595142Y-77004022D01*
X20095142Y-77404022D02*
X19495142Y-77004022D01*
%TO.C,D20*%
X122922651Y-134373489D02*
X123179766Y-134679906D01*
X123179766Y-134679906D02*
X122758442Y-135033440D01*
X123179766Y-134679906D02*
X123601091Y-134326373D01*
X123179766Y-134679906D02*
X123871857Y-134882418D01*
X123259021Y-135396648D02*
X123179766Y-134679906D01*
X123565439Y-135139533D02*
X123886833Y-135522555D01*
X123871857Y-134882418D02*
X123259021Y-135396648D01*
%TO.C,D8*%
X38095142Y-53191522D02*
X38495142Y-53191522D01*
X38495142Y-53191522D02*
X38495142Y-52641522D01*
X38495142Y-53191522D02*
X38495142Y-53741522D01*
X38495142Y-53191522D02*
X39095142Y-52791522D01*
X39095142Y-52791522D02*
X39095142Y-53591522D01*
X39095142Y-53191522D02*
X39595142Y-53191522D01*
X39095142Y-53591522D02*
X38495142Y-53191522D01*
%TO.C,D13*%
X76095142Y-80814022D02*
X76495142Y-80814022D01*
X76495142Y-80814022D02*
X76495142Y-80264022D01*
X76495142Y-80814022D02*
X76495142Y-81364022D01*
X76495142Y-80814022D02*
X77095142Y-80414022D01*
X77095142Y-80414022D02*
X77095142Y-81214022D01*
X77095142Y-80814022D02*
X77595142Y-80814022D01*
X77095142Y-81214022D02*
X76495142Y-80814022D01*
%TO.C,D12*%
X57095142Y-39856522D02*
X57495142Y-39856522D01*
X57495142Y-39856522D02*
X57495142Y-39306522D01*
X57495142Y-39856522D02*
X57495142Y-40406522D01*
X57495142Y-39856522D02*
X58095142Y-39456522D01*
X58095142Y-39456522D02*
X58095142Y-40256522D01*
X58095142Y-39856522D02*
X58595142Y-39856522D01*
X58095142Y-40256522D02*
X57495142Y-39856522D01*
%TO.C,D14*%
X76095142Y-61764022D02*
X76495142Y-61764022D01*
X76495142Y-61764022D02*
X76495142Y-61214022D01*
X76495142Y-61764022D02*
X76495142Y-62314022D01*
X76495142Y-61764022D02*
X77095142Y-61364022D01*
X77095142Y-61364022D02*
X77095142Y-62164022D01*
X77095142Y-61764022D02*
X77595142Y-61764022D01*
X77095142Y-62164022D02*
X76495142Y-61764022D01*
%TO.C,D6*%
X19095142Y-38904022D02*
X19495142Y-38904022D01*
X19495142Y-38904022D02*
X19495142Y-38354022D01*
X19495142Y-38904022D02*
X19495142Y-39454022D01*
X19495142Y-38904022D02*
X20095142Y-38504022D01*
X20095142Y-38504022D02*
X20095142Y-39304022D01*
X20095142Y-38904022D02*
X20595142Y-38904022D01*
X20095142Y-39304022D02*
X19495142Y-38904022D01*
%TO.C,>NAME*%
D13*
X68748742Y-92307922D02*
X70018742Y-92307922D01*
X70018742Y-92307922D02*
X71288742Y-91672922D01*
X71288742Y-92307922D02*
X72558742Y-92307922D01*
D14*
X79633998Y-99927922D02*
G75*
G02*
X61673486Y-99927922I-8980256J0D01*
G01*
X61673486Y-99927922D02*
G75*
G02*
X79633998Y-99927922I8980256J0D01*
G01*
%TO.C,D19*%
D11*
X118796178Y-105307840D02*
X119123839Y-105537270D01*
X119123839Y-105537270D02*
X118808372Y-105987804D01*
X119123839Y-105537270D02*
X119439306Y-105086737D01*
X119123839Y-105537270D02*
X119844761Y-105553755D01*
X119385899Y-106209077D02*
X119123839Y-105537270D01*
X119615330Y-105881416D02*
X120024906Y-106168204D01*
X119844761Y-105553755D02*
X119385899Y-106209077D01*
%TO.C,D18*%
X107898278Y-120871740D02*
X108225939Y-121101170D01*
X108225939Y-121101170D02*
X107910472Y-121551704D01*
X108225939Y-121101170D02*
X108541406Y-120650637D01*
X108225939Y-121101170D02*
X108946861Y-121117655D01*
X108487999Y-121772977D02*
X108225939Y-121101170D01*
X108717430Y-121445316D02*
X109127006Y-121732104D01*
X108946861Y-121117655D02*
X108487999Y-121772977D01*
%TO.C,D1*%
X95142Y-92244022D02*
X495142Y-92244022D01*
X495142Y-92244022D02*
X495142Y-91694022D01*
X495142Y-92244022D02*
X495142Y-92794022D01*
X495142Y-92244022D02*
X1095142Y-91844022D01*
X1095142Y-91844022D02*
X1095142Y-92644022D01*
X1095142Y-92244022D02*
X1595142Y-92244022D01*
X1095142Y-92644022D02*
X495142Y-92244022D01*
%TO.C,D15*%
X76095142Y-42714022D02*
X76495142Y-42714022D01*
X76495142Y-42714022D02*
X76495142Y-42164022D01*
X76495142Y-42714022D02*
X76495142Y-43264022D01*
X76495142Y-42714022D02*
X77095142Y-42314022D01*
X77095142Y-42314022D02*
X77095142Y-43114022D01*
X77095142Y-42714022D02*
X77595142Y-42714022D01*
X77095142Y-43114022D02*
X76495142Y-42714022D01*
%TO.C,D11*%
X57095142Y-58906522D02*
X57495142Y-58906522D01*
X57495142Y-58906522D02*
X57495142Y-58356522D01*
X57495142Y-58906522D02*
X57495142Y-59456522D01*
X57495142Y-58906522D02*
X58095142Y-58506522D01*
X58095142Y-58506522D02*
X58095142Y-59306522D01*
X58095142Y-58906522D02*
X58595142Y-58906522D01*
X58095142Y-59306522D02*
X57495142Y-58906522D01*
%TO.C,D7*%
X38095142Y-72241522D02*
X38495142Y-72241522D01*
X38495142Y-72241522D02*
X38495142Y-71691522D01*
X38495142Y-72241522D02*
X38495142Y-72791522D01*
X38495142Y-72241522D02*
X39095142Y-71841522D01*
X39095142Y-71841522D02*
X39095142Y-72641522D01*
X39095142Y-72241522D02*
X39595142Y-72241522D01*
X39095142Y-72641522D02*
X38495142Y-72241522D01*
%TO.C,D3*%
X95142Y-54144022D02*
X495142Y-54144022D01*
X495142Y-54144022D02*
X495142Y-53594022D01*
X495142Y-54144022D02*
X495142Y-54694022D01*
X495142Y-54144022D02*
X1095142Y-53744022D01*
X1095142Y-53744022D02*
X1095142Y-54544022D01*
X1095142Y-54144022D02*
X1595142Y-54144022D01*
X1095142Y-54544022D02*
X495142Y-54144022D01*
%TO.C,D10*%
X57095142Y-77956522D02*
X57495142Y-77956522D01*
X57495142Y-77956522D02*
X57495142Y-77406522D01*
X57495142Y-77956522D02*
X57495142Y-78506522D01*
X57495142Y-77956522D02*
X58095142Y-77556522D01*
X58095142Y-77556522D02*
X58095142Y-78356522D01*
X58095142Y-77956522D02*
X58595142Y-77956522D01*
X58095142Y-78356522D02*
X57495142Y-77956522D01*
%TO.C,D17*%
X96389673Y-93864507D02*
X96765550Y-94001315D01*
X96765550Y-94001315D02*
X96577439Y-94518146D01*
X96765550Y-94001315D02*
X96953661Y-93484484D01*
X96765550Y-94001315D02*
X97466173Y-93830650D01*
X97192557Y-94582404D02*
X96765550Y-94001315D01*
X97329365Y-94206527D02*
X97799211Y-94377537D01*
X97466173Y-93830650D02*
X97192557Y-94582404D01*
%TO.C,D5*%
X19095142Y-57954022D02*
X19495142Y-57954022D01*
X19495142Y-57954022D02*
X19495142Y-57404022D01*
X19495142Y-57954022D02*
X19495142Y-58504022D01*
X19495142Y-57954022D02*
X20095142Y-57554022D01*
X20095142Y-57554022D02*
X20095142Y-58354022D01*
X20095142Y-57954022D02*
X20595142Y-57954022D01*
X20095142Y-58354022D02*
X19495142Y-57954022D01*
%TO.C,D16*%
X89891273Y-111718607D02*
X90267150Y-111855415D01*
X90267150Y-111855415D02*
X90079039Y-112372246D01*
X90267150Y-111855415D02*
X90455261Y-111338584D01*
X90267150Y-111855415D02*
X90967773Y-111684750D01*
X90694157Y-112436504D02*
X90267150Y-111855415D01*
X90830965Y-112060627D02*
X91300811Y-112231637D01*
X90967773Y-111684750D02*
X90694157Y-112436504D01*
%TO.C,D2*%
X95142Y-73194022D02*
X495142Y-73194022D01*
X495142Y-73194022D02*
X495142Y-72644022D01*
X495142Y-73194022D02*
X495142Y-73744022D01*
X495142Y-73194022D02*
X1095142Y-72794022D01*
X1095142Y-72794022D02*
X1095142Y-73594022D01*
X1095142Y-73194022D02*
X1595142Y-73194022D01*
X1095142Y-73594022D02*
X495142Y-73194022D01*
%TO.C,D9*%
X38095142Y-34141522D02*
X38495142Y-34141522D01*
X38495142Y-34141522D02*
X38495142Y-33591522D01*
X38495142Y-34141522D02*
X38495142Y-34691522D01*
X38495142Y-34141522D02*
X39095142Y-33741522D01*
X39095142Y-33741522D02*
X39095142Y-34541522D01*
X39095142Y-34141522D02*
X39595142Y-34141522D01*
X39095142Y-34541522D02*
X38495142Y-34141522D01*
%TD*%
D15*
%TO.C,>NAME*%
X67478742Y-87227922D03*
X73828742Y-87227922D03*
X67478742Y-92307922D03*
X73828742Y-92307922D03*
X68113742Y-110087922D03*
X70653742Y-110087922D03*
X73193742Y-110087922D03*
D16*
X63033742Y-93260422D03*
X63033742Y-106595422D03*
X78273742Y-93260422D03*
X78273742Y-106595422D03*
D15*
X60493742Y-97387922D03*
X60493742Y-99927922D03*
X60493742Y-102467922D03*
%TD*%
M02*
