%TF.GenerationSoftware,KiCad,Pcbnew,10.0.3*%
%TF.CreationDate,2026-06-28T14:11:26-05:00*%
%TF.ProjectId,gnocchi,676e6f63-6368-4692-9e6b-696361645f70,rev?*%
%TF.SameCoordinates,Original*%
%TF.FileFunction,Copper,L2,Bot*%
%TF.FilePolarity,Positive*%
%FSLAX46Y46*%
G04 Gerber Fmt 4.6, Leading zero omitted, Abs format (unit mm)*
G04 Created by KiCad (PCBNEW 10.0.3) date 2026-06-28 14:11:26*
%MOMM*%
%LPD*%
G01*
G04 APERTURE LIST*
G04 Aperture macros list*
%AMRotRect*
0 Rectangle, with rotation*
0 The origin of the aperture is its center*
0 $1 length*
0 $2 width*
0 $3 Rotation angle, in degrees counterclockwise*
0 Add horizontal line*
21,1,$1,$2,0,0,$3*%
G04 Aperture macros list end*
%TA.AperFunction,ComponentPad*%
%ADD10R,1.778000X1.778000*%
%TD*%
%TA.AperFunction,SMDPad,CuDef*%
%ADD11R,0.900000X1.200000*%
%TD*%
%TA.AperFunction,ComponentPad*%
%ADD12C,1.905000*%
%TD*%
%TA.AperFunction,ComponentPad*%
%ADD13RotRect,1.778000X1.778000X35.000000*%
%TD*%
%TA.AperFunction,SMDPad,CuDef*%
%ADD14RotRect,0.900000X1.200000X35.000000*%
%TD*%
%TA.AperFunction,ComponentPad*%
%ADD15RotRect,1.778000X1.778000X20.000000*%
%TD*%
%TA.AperFunction,SMDPad,CuDef*%
%ADD16RotRect,0.900000X1.200000X20.000000*%
%TD*%
%TA.AperFunction,ComponentPad*%
%ADD17C,1.600000*%
%TD*%
%TA.AperFunction,ComponentPad*%
%ADD18RotRect,1.778000X1.778000X50.000000*%
%TD*%
%TA.AperFunction,SMDPad,CuDef*%
%ADD19RotRect,0.900000X1.200000X50.000000*%
%TD*%
%TA.AperFunction,SMDPad,CuDef*%
%ADD20R,2.550000X2.500000*%
%TD*%
%TA.AperFunction,SMDPad,CuDef*%
%ADD21RotRect,2.550000X2.500000X50.000000*%
%TD*%
%TA.AperFunction,SMDPad,CuDef*%
%ADD22RotRect,2.550000X2.500000X20.000000*%
%TD*%
%TA.AperFunction,SMDPad,CuDef*%
%ADD23RotRect,2.550000X2.500000X35.000000*%
%TD*%
%TA.AperFunction,ComponentPad*%
%ADD24C,1.700000*%
%TD*%
%TA.AperFunction,ComponentPad*%
%ADD25RotRect,1.778000X1.778000X310.000000*%
%TD*%
%TA.AperFunction,SMDPad,CuDef*%
%ADD26RotRect,0.900000X1.200000X310.000000*%
%TD*%
%TA.AperFunction,ComponentPad*%
%ADD27C,1.778000*%
%TD*%
%TA.AperFunction,ComponentPad*%
%ADD28C,2.286000*%
%TD*%
%TA.AperFunction,ComponentPad*%
%ADD29RotRect,1.778000X1.778000X325.000000*%
%TD*%
%TA.AperFunction,SMDPad,CuDef*%
%ADD30RotRect,0.900000X1.200000X325.000000*%
%TD*%
%TA.AperFunction,ComponentPad*%
%ADD31RotRect,1.778000X1.778000X340.000000*%
%TD*%
%TA.AperFunction,SMDPad,CuDef*%
%ADD32RotRect,0.900000X1.200000X340.000000*%
%TD*%
%TA.AperFunction,SMDPad,CuDef*%
%ADD33RotRect,2.550000X2.500000X310.000000*%
%TD*%
%TA.AperFunction,SMDPad,CuDef*%
%ADD34RotRect,2.550000X2.500000X325.000000*%
%TD*%
%TA.AperFunction,SMDPad,CuDef*%
%ADD35RotRect,2.550000X2.500000X340.000000*%
%TD*%
%TA.AperFunction,ViaPad*%
%ADD36C,0.600000*%
%TD*%
%TA.AperFunction,Conductor*%
%ADD37C,0.200000*%
%TD*%
G04 APERTURE END LIST*
D10*
%TO.P,D6,1*%
%TO.N,home*%
X287344884Y-54954070D03*
D11*
X289504884Y-54954070D03*
%TO.P,D6,2*%
%TO.N,mirror_ring_home*%
X292804884Y-54954070D03*
D12*
X294964884Y-54954070D03*
%TD*%
D10*
%TO.P,D2,1*%
%TO.N,bottom*%
X306344884Y-89244070D03*
D11*
X308504884Y-89244070D03*
%TO.P,D2,2*%
%TO.N,mirror_pinky_bottom*%
X311804884Y-89244070D03*
D12*
X313964884Y-89244070D03*
%TD*%
D10*
%TO.P,D11,1*%
%TO.N,bottom*%
X249344884Y-74956570D03*
D11*
X251504884Y-74956570D03*
%TO.P,D11,2*%
%TO.N,mirror_index_bottom*%
X254804884Y-74956570D03*
D12*
X256964884Y-74956570D03*
%TD*%
D10*
%TO.P,D13,1*%
%TO.N,top*%
X249344884Y-36856570D03*
D11*
X251504884Y-36856570D03*
%TO.P,D13,2*%
%TO.N,mirror_index_top*%
X254804884Y-36856570D03*
D12*
X256964884Y-36856570D03*
%TD*%
D10*
%TO.P,D8,1*%
%TO.N,bottom*%
X268344884Y-69241570D03*
D11*
X270504884Y-69241570D03*
%TO.P,D8,2*%
%TO.N,mirror_middle_bottom*%
X273804884Y-69241570D03*
D12*
X275964884Y-69241570D03*
%TD*%
D10*
%TO.P,D15,1*%
%TO.N,home*%
X230344884Y-58764070D03*
D11*
X232504884Y-58764070D03*
%TO.P,D15,2*%
%TO.N,mirror_inner_home*%
X235804884Y-58764070D03*
D12*
X237964884Y-58764070D03*
%TD*%
D13*
%TO.P,D20,1*%
%TO.N,bottom*%
X188468515Y-104923396D03*
D14*
X190237883Y-103684471D03*
%TO.P,D20,2*%
%TO.N,mirror_mid_bottom*%
X192941085Y-101791669D03*
D12*
X194710453Y-100552744D03*
%TD*%
D10*
%TO.P,D9,1*%
%TO.N,home*%
X268344884Y-50191570D03*
D11*
X270504884Y-50191570D03*
%TO.P,D9,2*%
%TO.N,mirror_middle_home*%
X273804884Y-50191570D03*
D12*
X275964884Y-50191570D03*
%TD*%
D15*
%TO.P,D18,1*%
%TO.N,bottom*%
X210325355Y-92424167D03*
D16*
X212355091Y-91685403D03*
%TO.P,D18,2*%
%TO.N,mirror_tucky_bottom*%
X215456077Y-90556737D03*
D12*
X217485813Y-89817973D03*
%TD*%
D17*
%TO.P,REF\u002A\u002A,A*%
%TO.N,P19*%
X234471284Y-92767970D03*
%TO.P,REF\u002A\u002A,B*%
%TO.N,GND*%
X234471284Y-95307970D03*
%TO.P,REF\u002A\u002A,C*%
%TO.N,P18*%
X234471284Y-97847970D03*
%TO.P,REF\u002A\u002A,D*%
%TO.N,undef*%
X234471284Y-100387970D03*
%TO.P,REF\u002A\u002A,S1*%
%TO.N,default*%
X232971284Y-90077970D03*
%TO.P,REF\u002A\u002A,S2*%
%TO.N,mirror_main_default*%
X234971284Y-90077970D03*
%TD*%
D10*
%TO.P,D14,1*%
%TO.N,bottom*%
X230344884Y-77814070D03*
D11*
X232504884Y-77814070D03*
%TO.P,D14,2*%
%TO.N,mirror_inner_bottom*%
X235804884Y-77814070D03*
D12*
X237964884Y-77814070D03*
%TD*%
D18*
%TO.P,D21,1*%
%TO.N,top*%
X185146263Y-134866699D03*
D19*
X186534684Y-133212043D03*
%TO.P,D21,2*%
%TO.N,mirror_reachy_top*%
X188655884Y-130684097D03*
D12*
X190044305Y-129029441D03*
%TD*%
D13*
%TO.P,D19,1*%
%TO.N,top*%
X199366415Y-120487296D03*
D14*
X201135783Y-119248371D03*
%TO.P,D19,2*%
%TO.N,mirror_mid_top*%
X203838985Y-117355569D03*
D12*
X205608353Y-116116644D03*
%TD*%
D10*
%TO.P,D7,1*%
%TO.N,top*%
X287344884Y-35904070D03*
D11*
X289504884Y-35904070D03*
%TO.P,D7,2*%
%TO.N,mirror_ring_top*%
X292804884Y-35904070D03*
D12*
X294964884Y-35904070D03*
%TD*%
D10*
%TO.P,D4,1*%
%TO.N,top*%
X306344884Y-51144070D03*
D11*
X308504884Y-51144070D03*
%TO.P,D4,2*%
%TO.N,mirror_pinky_top*%
X311804884Y-51144070D03*
D12*
X313964884Y-51144070D03*
%TD*%
D10*
%TO.P,D5,1*%
%TO.N,bottom*%
X287344884Y-74004070D03*
D11*
X289504884Y-74004070D03*
%TO.P,D5,2*%
%TO.N,mirror_ring_bottom*%
X292804884Y-74004070D03*
D12*
X294964884Y-74004070D03*
%TD*%
D10*
%TO.P,D10,1*%
%TO.N,top*%
X268344884Y-31141570D03*
D11*
X270504884Y-31141570D03*
%TO.P,D10,2*%
%TO.N,mirror_middle_top*%
X273804884Y-31141570D03*
D12*
X275964884Y-31141570D03*
%TD*%
D10*
%TO.P,D1,1*%
%TO.N,default*%
X236536284Y-102927970D03*
D11*
X238696284Y-102927970D03*
%TO.P,D1,2*%
%TO.N,mirror_main_default*%
X241996284Y-102927970D03*
D12*
X244156284Y-102927970D03*
%TD*%
D10*
%TO.P,D12,1*%
%TO.N,home*%
X249344884Y-55906570D03*
D11*
X251504884Y-55906570D03*
%TO.P,D12,2*%
%TO.N,mirror_index_home*%
X254804884Y-55906570D03*
D12*
X256964884Y-55906570D03*
%TD*%
D10*
%TO.P,D22,1*%
%TO.N,default*%
X236536284Y-101427970D03*
D11*
X238696284Y-101427970D03*
%TO.P,D22,2*%
%TO.N,mirror_main_default*%
X241996284Y-101427970D03*
D12*
X244156284Y-101427970D03*
%TD*%
D10*
%TO.P,D16,1*%
%TO.N,top*%
X230344884Y-39714070D03*
D11*
X232504884Y-39714070D03*
%TO.P,D16,2*%
%TO.N,mirror_inner_top*%
X235804884Y-39714070D03*
D12*
X237964884Y-39714070D03*
%TD*%
D10*
%TO.P,D3,1*%
%TO.N,home*%
X306344884Y-70194070D03*
D11*
X308504884Y-70194070D03*
%TO.P,D3,2*%
%TO.N,mirror_pinky_home*%
X311804884Y-70194070D03*
D12*
X313964884Y-70194070D03*
%TD*%
D15*
%TO.P,D17,1*%
%TO.N,top*%
X216823755Y-110278267D03*
D16*
X218853491Y-109539503D03*
%TO.P,D17,2*%
%TO.N,mirror_tucky_top*%
X221954477Y-108410837D03*
D12*
X223984213Y-107672073D03*
%TD*%
D20*
%TO.P,S9,1*%
%TO.N,top*%
X265069884Y-24101570D03*
%TO.P,S9,2*%
%TO.N,mirror_middle_top*%
X277996884Y-21561570D03*
%TD*%
%TO.P,S1,1*%
%TO.N,bottom*%
X303069884Y-82204070D03*
%TO.P,S1,2*%
%TO.N,mirror_pinky_bottom*%
X315996884Y-79664070D03*
%TD*%
%TO.P,S3,1*%
%TO.N,top*%
X303069884Y-44104070D03*
%TO.P,S3,2*%
%TO.N,mirror_pinky_top*%
X315996884Y-41564070D03*
%TD*%
%TO.P,S14,1*%
%TO.N,home*%
X227069884Y-51724070D03*
%TO.P,S14,2*%
%TO.N,mirror_inner_home*%
X239996884Y-49184070D03*
%TD*%
%TO.P,S13,1*%
%TO.N,bottom*%
X227069884Y-70774070D03*
%TO.P,S13,2*%
%TO.N,mirror_inner_bottom*%
X239996884Y-68234070D03*
%TD*%
%TO.P,S11,1*%
%TO.N,home*%
X246069884Y-48866570D03*
%TO.P,S11,2*%
%TO.N,mirror_index_home*%
X258996884Y-46326570D03*
%TD*%
%TO.P,S15,1*%
%TO.N,top*%
X227069884Y-32674070D03*
%TO.P,S15,2*%
%TO.N,mirror_inner_top*%
X239996884Y-30134070D03*
%TD*%
%TO.P,S6,1*%
%TO.N,top*%
X284069884Y-28864070D03*
%TO.P,S6,2*%
%TO.N,mirror_ring_top*%
X296996884Y-26324070D03*
%TD*%
D21*
%TO.P,S20,1*%
%TO.N,top*%
X177648181Y-132850314D03*
%TO.P,S20,2*%
%TO.N,mirror_reachy_top*%
X184011743Y-121314977D03*
%TD*%
D20*
%TO.P,S10,1*%
%TO.N,bottom*%
X246069884Y-67916570D03*
%TO.P,S10,2*%
%TO.N,mirror_index_bottom*%
X258996884Y-65376570D03*
%TD*%
D22*
%TO.P,S17,1*%
%TO.N,bottom*%
X204840032Y-86928763D03*
%TO.P,S17,2*%
%TO.N,mirror_tucky_bottom*%
X216118706Y-80120650D03*
%TD*%
D20*
%TO.P,S7,1*%
%TO.N,bottom*%
X265069884Y-62201570D03*
%TO.P,S7,2*%
%TO.N,mirror_middle_bottom*%
X277996884Y-59661570D03*
%TD*%
D22*
%TO.P,S16,1*%
%TO.N,top*%
X211338432Y-104782963D03*
%TO.P,S16,2*%
%TO.N,mirror_tucky_top*%
X222617106Y-97974850D03*
%TD*%
D23*
%TO.P,S18,1*%
%TO.N,top*%
X192645708Y-116598913D03*
%TO.P,S18,2*%
%TO.N,mirror_mid_top*%
X201778002Y-107103644D03*
%TD*%
D20*
%TO.P,S5,1*%
%TO.N,home*%
X284069884Y-47914070D03*
%TO.P,S5,2*%
%TO.N,mirror_ring_home*%
X296996884Y-45374070D03*
%TD*%
%TO.P,S4,1*%
%TO.N,bottom*%
X284069884Y-66964070D03*
%TO.P,S4,2*%
%TO.N,mirror_ring_bottom*%
X296996884Y-64424070D03*
%TD*%
%TO.P,S12,1*%
%TO.N,top*%
X246069884Y-29816570D03*
%TO.P,S12,2*%
%TO.N,mirror_index_top*%
X258996884Y-27276570D03*
%TD*%
%TO.P,S2,1*%
%TO.N,home*%
X303069884Y-63154070D03*
%TO.P,S2,2*%
%TO.N,mirror_pinky_home*%
X315996884Y-60614070D03*
%TD*%
%TO.P,S8,1*%
%TO.N,home*%
X265069884Y-43151570D03*
%TO.P,S8,2*%
%TO.N,mirror_middle_home*%
X277996884Y-40611570D03*
%TD*%
D23*
%TO.P,S19,1*%
%TO.N,bottom*%
X181747808Y-101035013D03*
%TO.P,S19,2*%
%TO.N,mirror_mid_bottom*%
X190880102Y-91539744D03*
%TD*%
D24*
%TO.P,MCU1,1*%
%TO.N,RAW*%
X103515142Y-33134022D03*
%TO.P,MCU1,2*%
%TO.N,GND*%
X103515142Y-35674022D03*
%TO.P,MCU1,3*%
%TO.N,RST*%
X103515142Y-38214022D03*
%TO.P,MCU1,4*%
%TO.N,VCC*%
X103515142Y-40754022D03*
%TO.P,MCU1,5*%
%TO.N,P21*%
X103515142Y-43294022D03*
%TO.P,MCU1,6*%
%TO.N,P20*%
X103515142Y-45834022D03*
%TO.P,MCU1,7*%
%TO.N,P19*%
X103515142Y-48374022D03*
%TO.P,MCU1,8*%
%TO.N,P18*%
X103515142Y-50914022D03*
%TO.P,MCU1,9*%
%TO.N,P15*%
X103515142Y-53454022D03*
%TO.P,MCU1,10*%
%TO.N,P14*%
X103515142Y-55994022D03*
%TO.P,MCU1,11*%
%TO.N,P16*%
X103515142Y-58534022D03*
%TO.P,MCU1,12*%
%TO.N,P10*%
X103515142Y-61074022D03*
%TO.P,MCU1,13*%
%TO.N,P9*%
X88275142Y-61074022D03*
%TO.P,MCU1,14*%
%TO.N,P8*%
X88275142Y-58534022D03*
%TO.P,MCU1,15*%
%TO.N,P7*%
X88275142Y-55994022D03*
%TO.P,MCU1,16*%
%TO.N,P6*%
X88275142Y-53454022D03*
%TO.P,MCU1,17*%
%TO.N,P5*%
X88275142Y-50914022D03*
%TO.P,MCU1,18*%
%TO.N,P4*%
X88275142Y-48374022D03*
%TO.P,MCU1,19*%
%TO.N,P3*%
X88275142Y-45834022D03*
%TO.P,MCU1,20*%
%TO.N,P2*%
X88275142Y-43294022D03*
%TO.P,MCU1,21*%
%TO.N,GND*%
X88275142Y-40754022D03*
%TO.P,MCU1,22*%
X88275142Y-38214022D03*
%TO.P,MCU1,23*%
%TO.N,P0*%
X88275142Y-35674022D03*
%TO.P,MCU1,24*%
%TO.N,P1*%
X88275142Y-33134022D03*
%TD*%
D10*
%TO.P,D4,1*%
%TO.N,bottom*%
X16035142Y-77004022D03*
D11*
X18195142Y-77004022D03*
%TO.P,D4,2*%
%TO.N,ring_bottom*%
X21495142Y-77004022D03*
D12*
X23655142Y-77004022D03*
%TD*%
D25*
%TO.P,D20,1*%
%TO.N,top*%
X120955721Y-132029393D03*
D26*
X122344142Y-133684049D03*
%TO.P,D20,2*%
%TO.N,reachy_top*%
X124465342Y-136211995D03*
D12*
X125853763Y-137866651D03*
%TD*%
D10*
%TO.P,D8,1*%
%TO.N,home*%
X35035142Y-53191522D03*
D11*
X37195142Y-53191522D03*
%TO.P,D8,2*%
%TO.N,middle_home*%
X40495142Y-53191522D03*
D12*
X42655142Y-53191522D03*
%TD*%
D10*
%TO.P,D13,1*%
%TO.N,bottom*%
X73035142Y-80814022D03*
D11*
X75195142Y-80814022D03*
%TO.P,D13,2*%
%TO.N,inner_bottom*%
X78495142Y-80814022D03*
D12*
X80655142Y-80814022D03*
%TD*%
D10*
%TO.P,D12,1*%
%TO.N,top*%
X54035142Y-39856522D03*
D11*
X56195142Y-39856522D03*
%TO.P,D12,2*%
%TO.N,index_top*%
X59495142Y-39856522D03*
D12*
X61655142Y-39856522D03*
%TD*%
D10*
%TO.P,D14,1*%
%TO.N,home*%
X73035142Y-61764022D03*
D11*
X75195142Y-61764022D03*
%TO.P,D14,2*%
%TO.N,inner_home*%
X78495142Y-61764022D03*
D12*
X80655142Y-61764022D03*
%TD*%
D10*
%TO.P,D6,1*%
%TO.N,top*%
X16035142Y-38904022D03*
D11*
X18195142Y-38904022D03*
%TO.P,D6,2*%
%TO.N,ring_top*%
X21495142Y-38904022D03*
D12*
X23655142Y-38904022D03*
%TD*%
D27*
%TO.P,>NAME,B1A*%
%TO.N,P20*%
X67478742Y-87227922D03*
%TO.P,>NAME,B1B*%
%TO.N,GND*%
X73828742Y-87227922D03*
%TO.P,>NAME,B2A*%
X67478742Y-92307922D03*
%TO.P,>NAME,B2B*%
X73828742Y-92307922D03*
%TO.P,>NAME,H1*%
X68113742Y-110087922D03*
%TO.P,>NAME,H2*%
%TO.N,P14*%
X70653742Y-110087922D03*
%TO.P,>NAME,H3*%
%TO.N,VCC*%
X73193742Y-110087922D03*
D28*
%TO.P,>NAME,MOUN*%
%TO.N,GND*%
X63033742Y-93260422D03*
X63033742Y-106595422D03*
X78273742Y-93260422D03*
X78273742Y-106595422D03*
D27*
%TO.P,>NAME,V1*%
X60493742Y-97387922D03*
%TO.P,>NAME,V2*%
%TO.N,P15*%
X60493742Y-99927922D03*
%TO.P,>NAME,V3*%
%TO.N,VCC*%
X60493742Y-102467922D03*
%TD*%
D29*
%TO.P,D19,1*%
%TO.N,bottom*%
X116289573Y-103552696D03*
D30*
X118058941Y-104791621D03*
%TO.P,D19,2*%
%TO.N,mid_bottom*%
X120762143Y-106684423D03*
D12*
X122531511Y-107923348D03*
%TD*%
D29*
%TO.P,D18,1*%
%TO.N,top*%
X105391673Y-119116596D03*
D30*
X107161041Y-120355521D03*
%TO.P,D18,2*%
%TO.N,mid_top*%
X109864243Y-122248323D03*
D12*
X111633611Y-123487248D03*
%TD*%
D10*
%TO.P,D1,1*%
%TO.N,bottom*%
X-2964858Y-92244022D03*
D11*
X-804858Y-92244022D03*
%TO.P,D1,2*%
%TO.N,pinky_bottom*%
X2495142Y-92244022D03*
D12*
X4655142Y-92244022D03*
%TD*%
D10*
%TO.P,D15,1*%
%TO.N,top*%
X73035142Y-42714022D03*
D11*
X75195142Y-42714022D03*
%TO.P,D15,2*%
%TO.N,inner_top*%
X78495142Y-42714022D03*
D12*
X80655142Y-42714022D03*
%TD*%
D10*
%TO.P,D11,1*%
%TO.N,home*%
X54035142Y-58906522D03*
D11*
X56195142Y-58906522D03*
%TO.P,D11,2*%
%TO.N,index_home*%
X59495142Y-58906522D03*
D12*
X61655142Y-58906522D03*
%TD*%
D10*
%TO.P,D7,1*%
%TO.N,bottom*%
X35035142Y-72241522D03*
D11*
X37195142Y-72241522D03*
%TO.P,D7,2*%
%TO.N,middle_bottom*%
X40495142Y-72241522D03*
D12*
X42655142Y-72241522D03*
%TD*%
D10*
%TO.P,D3,1*%
%TO.N,top*%
X-2964858Y-54144022D03*
D11*
X-804858Y-54144022D03*
%TO.P,D3,2*%
%TO.N,pinky_top*%
X2495142Y-54144022D03*
D12*
X4655142Y-54144022D03*
%TD*%
D10*
%TO.P,D10,1*%
%TO.N,bottom*%
X54035142Y-77956522D03*
D11*
X56195142Y-77956522D03*
%TO.P,D10,2*%
%TO.N,index_bottom*%
X59495142Y-77956522D03*
D12*
X61655142Y-77956522D03*
%TD*%
D31*
%TO.P,D17,1*%
%TO.N,bottom*%
X93514213Y-92817925D03*
D32*
X95543949Y-93556689D03*
%TO.P,D17,2*%
%TO.N,tucky_bottom*%
X98644935Y-94685355D03*
D12*
X100674671Y-95424119D03*
%TD*%
D10*
%TO.P,D5,1*%
%TO.N,home*%
X16035142Y-57954022D03*
D11*
X18195142Y-57954022D03*
%TO.P,D5,2*%
%TO.N,ring_home*%
X21495142Y-57954022D03*
D12*
X23655142Y-57954022D03*
%TD*%
D31*
%TO.P,D16,1*%
%TO.N,top*%
X87015813Y-110672025D03*
D32*
X89045549Y-111410789D03*
%TO.P,D16,2*%
%TO.N,tucky_top*%
X92146535Y-112539455D03*
D12*
X94176271Y-113278219D03*
%TD*%
D10*
%TO.P,D2,1*%
%TO.N,home*%
X-2964858Y-73194022D03*
D11*
X-804858Y-73194022D03*
%TO.P,D2,2*%
%TO.N,pinky_home*%
X2495142Y-73194022D03*
D12*
X4655142Y-73194022D03*
%TD*%
D10*
%TO.P,D9,1*%
%TO.N,top*%
X35035142Y-34141522D03*
D11*
X37195142Y-34141522D03*
%TO.P,D9,2*%
%TO.N,middle_top*%
X40495142Y-34141522D03*
D12*
X42655142Y-34141522D03*
%TD*%
D33*
%TO.P,S20,1*%
%TO.N,top*%
X124243545Y-124995417D03*
%TO.P,S20,2*%
%TO.N,reachy_top*%
X134498613Y-133265393D03*
%TD*%
D20*
%TO.P,S12,1*%
%TO.N,top*%
X50760142Y-32816522D03*
%TO.P,S12,2*%
%TO.N,index_top*%
X63687142Y-30276522D03*
%TD*%
%TO.P,S14,1*%
%TO.N,home*%
X69760142Y-54724022D03*
%TO.P,S14,2*%
%TO.N,inner_home*%
X82687142Y-52184022D03*
%TD*%
%TO.P,S9,1*%
%TO.N,top*%
X31760142Y-27101522D03*
%TO.P,S9,2*%
%TO.N,middle_top*%
X44687142Y-24561522D03*
%TD*%
%TO.P,S2,1*%
%TO.N,home*%
X-6239858Y-66154022D03*
%TO.P,S2,2*%
%TO.N,pinky_home*%
X6687142Y-63614022D03*
%TD*%
D34*
%TO.P,S19,1*%
%TO.N,bottom*%
X117644834Y-95907387D03*
%TO.P,S19,2*%
%TO.N,mid_bottom*%
X129690897Y-101241363D03*
%TD*%
D20*
%TO.P,S7,1*%
%TO.N,bottom*%
X31760142Y-65201522D03*
%TO.P,S7,2*%
%TO.N,middle_bottom*%
X44687142Y-62661522D03*
%TD*%
%TO.P,S5,1*%
%TO.N,home*%
X12760142Y-50914022D03*
%TO.P,S5,2*%
%TO.N,ring_home*%
X25687142Y-48374022D03*
%TD*%
%TO.P,S11,1*%
%TO.N,home*%
X50760142Y-51866522D03*
%TO.P,S11,2*%
%TO.N,index_home*%
X63687142Y-49326522D03*
%TD*%
%TO.P,S6,1*%
%TO.N,top*%
X12760142Y-31864022D03*
%TO.P,S6,2*%
%TO.N,ring_top*%
X25687142Y-29324022D03*
%TD*%
%TO.P,S10,1*%
%TO.N,bottom*%
X50760142Y-70916522D03*
%TO.P,S10,2*%
%TO.N,index_bottom*%
X63687142Y-68376522D03*
%TD*%
D35*
%TO.P,S17,1*%
%TO.N,bottom*%
X92844551Y-85082290D03*
%TO.P,S17,2*%
%TO.N,tucky_bottom*%
X105860689Y-87116765D03*
%TD*%
D20*
%TO.P,S4,1*%
%TO.N,bottom*%
X12760142Y-69964022D03*
%TO.P,S4,2*%
%TO.N,ring_bottom*%
X25687142Y-67424022D03*
%TD*%
%TO.P,S15,1*%
%TO.N,top*%
X69760142Y-35674022D03*
%TO.P,S15,2*%
%TO.N,inner_top*%
X82687142Y-33134022D03*
%TD*%
%TO.P,S8,1*%
%TO.N,home*%
X31760142Y-46151522D03*
%TO.P,S8,2*%
%TO.N,middle_home*%
X44687142Y-43611522D03*
%TD*%
%TO.P,S1,1*%
%TO.N,bottom*%
X-6239858Y-85204022D03*
%TO.P,S1,2*%
%TO.N,pinky_bottom*%
X6687142Y-82664022D03*
%TD*%
D35*
%TO.P,S16,1*%
%TO.N,top*%
X86346151Y-102936490D03*
%TO.P,S16,2*%
%TO.N,tucky_top*%
X99362289Y-104970965D03*
%TD*%
D20*
%TO.P,S13,1*%
%TO.N,bottom*%
X69760142Y-73774022D03*
%TO.P,S13,2*%
%TO.N,inner_bottom*%
X82687142Y-71234022D03*
%TD*%
D34*
%TO.P,S18,1*%
%TO.N,top*%
X106746934Y-111471287D03*
%TO.P,S18,2*%
%TO.N,mid_top*%
X118792997Y-116805263D03*
%TD*%
D20*
%TO.P,S3,1*%
%TO.N,top*%
X-6239858Y-47104022D03*
%TO.P,S3,2*%
%TO.N,pinky_top*%
X6687142Y-44564022D03*
%TD*%
D36*
%TO.N,P20*%
X78427642Y-60350722D03*
%TO.N,P15*%
X89505442Y-99927922D03*
%TO.N,top*%
X77020042Y-107694322D03*
%TD*%
%TO.N,home*%
D37*
X232504884Y-58764070D02*
X230344884Y-58764070D01*
X284069884Y-50637170D02*
X287196084Y-53763370D01*
X230196084Y-57573370D02*
X230344884Y-57573370D01*
X246069884Y-48866570D02*
X246069884Y-51589670D01*
X303069884Y-65877170D02*
X306196084Y-69003370D01*
X303069884Y-63154070D02*
X303069884Y-65877170D01*
X268196084Y-49000870D02*
X268344884Y-49000870D01*
X265069884Y-43151570D02*
X265069884Y-45874670D01*
X287344884Y-54954070D02*
X287344884Y-53763370D01*
X230344884Y-58764070D02*
X230344884Y-57573370D01*
X289504884Y-54954070D02*
X287344884Y-54954070D01*
X270504884Y-50191570D02*
X268344884Y-50191570D01*
X251504884Y-55906570D02*
X249344884Y-55906570D01*
X306344884Y-70194070D02*
X306344884Y-69003370D01*
X303069884Y-63154070D02*
X303069884Y-61602370D01*
X249196084Y-54715870D02*
X249344884Y-54715870D01*
X246069884Y-51589670D02*
X249196084Y-54715870D01*
X227069884Y-54447170D02*
X230196084Y-57573370D01*
X303069884Y-61602370D02*
X296904884Y-61602370D01*
X265069884Y-45874670D02*
X268196084Y-49000870D01*
X287196084Y-53763370D02*
X287344884Y-53763370D01*
X249344884Y-55906570D02*
X249344884Y-54715870D01*
X268344884Y-50191570D02*
X268344884Y-49000870D01*
X308504884Y-70194070D02*
X306344884Y-70194070D01*
X296904884Y-61602370D02*
X290256584Y-54954070D01*
X289504884Y-54954070D02*
X290256584Y-54954070D01*
X284069884Y-47914070D02*
X284069884Y-50637170D01*
X227069884Y-51724070D02*
X227069884Y-54447170D01*
X306196084Y-69003370D02*
X306344884Y-69003370D01*
%TO.N,mirror_ring_home*%
X292804884Y-54954070D02*
X294472684Y-54954070D01*
X294718784Y-49203870D02*
X294718784Y-54707970D01*
X294472684Y-54954070D02*
X294718784Y-54707970D01*
X294718784Y-54707970D02*
X294964884Y-54954070D01*
X296996884Y-46925770D02*
X294718784Y-49203870D01*
X296996884Y-45374070D02*
X296996884Y-46925770D01*
%TO.N,bottom*%
X188468484Y-104923370D02*
X187321084Y-105726770D01*
X303069884Y-82204070D02*
X298456584Y-82204070D01*
X232504884Y-77814070D02*
X230344884Y-77814070D01*
X270504884Y-69241570D02*
X268344884Y-69241570D01*
X211340184Y-92054670D02*
X210694884Y-92054670D01*
X189491784Y-104206770D02*
X189185084Y-104206770D01*
X287196084Y-72813370D02*
X287344884Y-72813370D01*
X208799084Y-92158370D02*
X208799084Y-92979670D01*
X265069884Y-62201570D02*
X265069884Y-64924670D01*
X212355084Y-91685370D02*
X211340184Y-92054770D01*
X298456584Y-82204070D02*
X290256584Y-74004070D01*
X230344884Y-77814070D02*
X230344884Y-76623370D01*
X185636184Y-104923370D02*
X186517684Y-104923370D01*
X284069884Y-66964070D02*
X284069884Y-69687170D01*
X190237884Y-103684470D02*
X189491884Y-104206870D01*
X183246584Y-102533770D02*
X185636184Y-104923370D01*
X306196084Y-88053370D02*
X306344884Y-88053370D01*
X287344884Y-74004070D02*
X287344884Y-72813370D01*
X289504884Y-74004070D02*
X290256584Y-74004070D01*
X246069884Y-70639670D02*
X249196084Y-73765870D01*
X181747784Y-101034970D02*
X182797284Y-102533870D01*
X246069884Y-67916570D02*
X246069884Y-70639670D01*
X189491884Y-104206870D02*
X189491784Y-104206770D01*
X284069884Y-69687170D02*
X287196084Y-72813370D01*
X210325384Y-92424170D02*
X208799084Y-92979670D01*
X210694884Y-92054670D02*
X210325384Y-92424170D01*
X306344884Y-89244070D02*
X306344884Y-88053370D01*
X308504884Y-89244070D02*
X306344884Y-89244070D01*
X289504884Y-74004070D02*
X287344884Y-74004070D01*
X211340184Y-92054770D02*
X211340184Y-92054670D01*
X251504884Y-74956570D02*
X249344884Y-74956570D01*
X182797384Y-102533770D02*
X183246584Y-102533770D01*
X265069884Y-64924670D02*
X268196084Y-68050870D01*
X268344884Y-69241570D02*
X268344884Y-68050870D01*
X189185084Y-104206770D02*
X188468484Y-104923370D01*
X204839984Y-86928770D02*
X205566984Y-88926270D01*
X186517684Y-104923370D02*
X187321084Y-105726770D01*
X249196084Y-73765870D02*
X249344884Y-73765870D01*
X268196084Y-68050870D02*
X268344884Y-68050870D01*
X303069884Y-82204070D02*
X303069884Y-84927170D01*
X182797284Y-102533870D02*
X182797384Y-102533770D01*
X303069884Y-84927170D02*
X306196084Y-88053370D01*
X230196084Y-76623370D02*
X230344884Y-76623370D01*
X249344884Y-74956570D02*
X249344884Y-73765870D01*
X227069884Y-73497170D02*
X230196084Y-76623370D01*
X205566984Y-88926270D02*
X208799084Y-92158370D01*
X227069884Y-70774070D02*
X227069884Y-73497170D01*
%TO.N,mirror_pinky_bottom*%
X313718784Y-83493870D02*
X313718784Y-88997970D01*
X311804884Y-89244070D02*
X313472684Y-89244070D01*
X313718784Y-88997970D02*
X313964884Y-89244070D01*
X315996884Y-79664070D02*
X315996884Y-81215770D01*
X315996884Y-81215770D02*
X313718784Y-83493870D01*
X313472684Y-89244070D02*
X313718784Y-88997970D01*
%TO.N,mirror_index_bottom*%
X256718784Y-69206370D02*
X256718784Y-74710470D01*
X258996884Y-66928270D02*
X256718784Y-69206370D01*
X256472684Y-74956570D02*
X256718784Y-74710470D01*
X258996884Y-65376570D02*
X258996884Y-66928270D01*
X256718784Y-74710470D02*
X256964884Y-74956570D01*
X254804884Y-74956570D02*
X256472684Y-74956570D01*
%TO.N,top*%
X284069884Y-31587170D02*
X287196084Y-34713370D01*
X287196084Y-34713370D02*
X287344884Y-34713370D01*
X230344884Y-40904770D02*
X221713084Y-49536570D01*
X303069884Y-42552370D02*
X296904884Y-42552370D01*
X193695184Y-127188970D02*
X187688584Y-133195570D01*
X185146284Y-134866670D02*
X185978584Y-133874870D01*
X287344884Y-35904070D02*
X287344884Y-34713370D01*
X217838584Y-109908870D02*
X217838584Y-109908770D01*
X284069884Y-28864070D02*
X284069884Y-31587170D01*
X199366384Y-120487270D02*
X198218984Y-121290670D01*
X185978484Y-133870570D02*
X185978484Y-133874770D01*
X221713084Y-91683870D02*
X210611484Y-102785470D01*
X201135784Y-119248370D02*
X200389784Y-119770770D01*
X265069884Y-24101570D02*
X265069884Y-26824670D01*
X194144484Y-118097670D02*
X193695284Y-118097670D01*
X198218984Y-121290670D02*
X197415584Y-120487270D01*
X303069884Y-46827170D02*
X306196084Y-49953370D01*
X251504884Y-36856570D02*
X249344884Y-36856570D01*
X200389784Y-119770770D02*
X200389684Y-119770670D01*
X197415584Y-120487270D02*
X196534084Y-120487270D01*
X303069884Y-44104070D02*
X303069884Y-42552370D01*
X177648184Y-132850270D02*
X178942484Y-133936370D01*
X232504884Y-39714070D02*
X230344884Y-39714070D01*
X308504884Y-51144070D02*
X306344884Y-51144070D01*
X216823784Y-110278270D02*
X215297484Y-110833770D01*
X212065384Y-111484770D02*
X204824084Y-118726070D01*
X296904884Y-42552370D02*
X290256584Y-35904070D01*
X246069884Y-32539670D02*
X249196084Y-35665870D01*
X268196084Y-29950870D02*
X268344884Y-29950870D01*
X185146284Y-134866670D02*
X184154384Y-134034370D01*
X268344884Y-31141570D02*
X268344884Y-29950870D01*
X187688584Y-133421270D02*
X187275884Y-133833970D01*
X230344884Y-39714070D02*
X230344884Y-38523370D01*
X210611484Y-102785470D02*
X210611384Y-102785470D01*
X212065384Y-110833670D02*
X215297484Y-110833670D01*
X211338384Y-104782970D02*
X212065384Y-106780470D01*
X306344884Y-51144070D02*
X306344884Y-49953370D01*
X185978484Y-133874770D02*
X185978584Y-133874870D01*
X179468984Y-134462870D02*
X183725884Y-134462870D01*
X200389684Y-119770670D02*
X200082984Y-119770670D01*
X249196084Y-35665870D02*
X249344884Y-35665870D01*
X289504884Y-35904070D02*
X287344884Y-35904070D01*
X227069884Y-32674070D02*
X227069884Y-35397170D01*
X221713084Y-49536570D02*
X221713084Y-91683870D01*
X249344884Y-36856570D02*
X249344884Y-35665870D01*
X193695284Y-118097670D02*
X193695184Y-118097770D01*
X183725884Y-134462870D02*
X184154384Y-134034370D01*
X270504884Y-31141570D02*
X268344884Y-31141570D01*
X204824084Y-118726070D02*
X201881884Y-118726070D01*
X196534084Y-120487270D02*
X194144484Y-118097670D01*
X303069884Y-44104070D02*
X303069884Y-46827170D01*
X186000784Y-133848270D02*
X185978484Y-133870570D01*
X265069884Y-26824670D02*
X268196084Y-29950870D01*
X187688584Y-133195570D02*
X187688584Y-133421270D01*
X192645684Y-116598870D02*
X193695184Y-118097770D01*
X186534684Y-133212070D02*
X187275884Y-133833970D01*
X230344884Y-39714070D02*
X230344884Y-40904770D01*
X227069884Y-35397170D02*
X230196084Y-38523370D01*
X230196084Y-38523370D02*
X230344884Y-38523370D01*
X201881884Y-118726070D02*
X201881784Y-118725970D01*
X218853484Y-109539470D02*
X217838584Y-109908870D01*
X178942484Y-133936370D02*
X179468984Y-134462870D01*
X212065384Y-110833670D02*
X212065384Y-111484770D01*
X217193284Y-109908770D02*
X216823784Y-110278270D01*
X217838584Y-109908770D02*
X217193284Y-109908770D01*
X215297484Y-110833670D02*
X215297484Y-110833770D01*
X289504884Y-35904070D02*
X290256584Y-35904070D01*
X306196084Y-49953370D02*
X306344884Y-49953370D01*
X211338384Y-104782970D02*
X210611384Y-102785470D01*
X246069884Y-29816570D02*
X246069884Y-32539670D01*
X186534684Y-133212070D02*
X186000784Y-133848270D01*
X193695184Y-118097770D02*
X193695184Y-127188970D01*
X201135784Y-119248370D02*
X201881784Y-118725970D01*
X200082984Y-119770670D02*
X199366384Y-120487270D01*
X212065384Y-106780470D02*
X212065384Y-110833670D01*
%TO.N,mirror_index_top*%
X258996884Y-28828270D02*
X256718784Y-31106370D01*
X258996884Y-27276570D02*
X258996884Y-28828270D01*
X256718784Y-36610470D02*
X256964884Y-36856570D01*
X254804884Y-36856570D02*
X256472684Y-36856570D01*
X256718784Y-31106370D02*
X256718784Y-36610470D01*
X256472684Y-36856570D02*
X256718784Y-36610470D01*
%TO.N,mirror_middle_bottom*%
X277996884Y-61213270D02*
X275718784Y-63491370D01*
X275472684Y-69241570D02*
X275718784Y-68995470D01*
X277996884Y-59661570D02*
X277996884Y-61213270D01*
X273804884Y-69241570D02*
X275472684Y-69241570D01*
X275718784Y-68995470D02*
X275964884Y-69241570D01*
X275718784Y-63491370D02*
X275718784Y-68995470D01*
%TO.N,mirror_inner_home*%
X237472684Y-58764070D02*
X237718784Y-58517970D01*
X239996884Y-49184070D02*
X239996884Y-50735770D01*
X239996884Y-50735770D02*
X237718784Y-53013870D01*
X235804884Y-58764070D02*
X237472684Y-58764070D01*
X237718784Y-58517970D02*
X237964884Y-58764070D01*
X237718784Y-53013870D02*
X237718784Y-58517970D01*
%TO.N,mirror_mid_bottom*%
X193687184Y-101269370D02*
X193993884Y-101269370D01*
X190880084Y-91539770D02*
X191929584Y-93038570D01*
X192941084Y-101791670D02*
X192347784Y-100944370D01*
X192941084Y-101791670D02*
X193687084Y-101269270D01*
X192347884Y-98377570D02*
X192347884Y-100944270D01*
X192347884Y-100944270D02*
X192347784Y-100944370D01*
X193993884Y-101269370D02*
X194710484Y-100552770D01*
X191929584Y-93038570D02*
X191667184Y-93300970D01*
X191667184Y-93300970D02*
X191667184Y-97696870D01*
X193687084Y-101269270D02*
X193687184Y-101269370D01*
X191667184Y-97696870D02*
X192347884Y-98377570D01*
%TO.N,mirror_middle_home*%
X273804884Y-50191570D02*
X275472684Y-50191570D01*
X275472684Y-50191570D02*
X275718784Y-49945470D01*
X277996884Y-42163270D02*
X275718784Y-44441370D01*
X277996884Y-40611570D02*
X277996884Y-42163270D01*
X275718784Y-49945470D02*
X275964884Y-50191570D01*
X275718784Y-44441370D02*
X275718784Y-49945470D01*
%TO.N,mirror_tucky_bottom*%
X215456084Y-83507670D02*
X215456084Y-89050170D01*
X217116284Y-90187470D02*
X217485784Y-89817970D01*
X216118684Y-80120670D02*
X216845684Y-82118170D01*
X216845584Y-82118170D02*
X215456084Y-83507670D01*
X215456084Y-90556770D02*
X216470984Y-90187370D01*
X215456084Y-89050170D02*
X215054084Y-89452170D01*
X215456084Y-90556770D02*
X215054084Y-89452170D01*
X216470984Y-90187370D02*
X216470984Y-90187470D01*
X216845684Y-82118170D02*
X216845584Y-82118170D01*
X216470984Y-90187470D02*
X217116284Y-90187470D01*
%TO.N,default*%
X236536284Y-101427970D02*
X236536284Y-102927970D01*
X238696284Y-102927970D02*
X236536284Y-102927970D01*
X233347884Y-90077970D02*
X236536284Y-93266370D01*
X238696284Y-101427970D02*
X238696284Y-102927970D01*
X232971284Y-90077970D02*
X233347884Y-90077970D01*
X236536284Y-93266370D02*
X236536284Y-101427970D01*
%TO.N,mirror_main_default*%
X241996284Y-97102970D02*
X241996284Y-101427970D01*
X241996284Y-102927970D02*
X244156284Y-102927970D01*
X241996284Y-101427970D02*
X241996284Y-102927970D01*
X244156284Y-101427970D02*
X244156284Y-102927970D01*
X234971284Y-90077970D02*
X241996284Y-97102970D01*
%TO.N,mirror_inner_bottom*%
X239996884Y-68234070D02*
X239996884Y-69785770D01*
X235804884Y-77814070D02*
X237472684Y-77814070D01*
X237718784Y-77567970D02*
X237964884Y-77814070D01*
X237718784Y-72063870D02*
X237718784Y-77567970D01*
X239996884Y-69785770D02*
X237718784Y-72063870D01*
X237472684Y-77814070D02*
X237718784Y-77567970D01*
%TO.N,mirror_reachy_top*%
X189189684Y-130047770D02*
X189189784Y-130047870D01*
X184011784Y-123927270D02*
X189579184Y-129494570D01*
X189579184Y-129494570D02*
X189189684Y-129884070D01*
X189189684Y-129884070D02*
X189189684Y-130047770D01*
X190044284Y-129029470D02*
X189579184Y-129494570D01*
X184011784Y-121314970D02*
X184011784Y-123927270D01*
X188655884Y-130684070D02*
X189189784Y-130047870D01*
%TO.N,mirror_mid_top*%
X204891784Y-116833270D02*
X205608384Y-116116670D01*
X202827484Y-108602470D02*
X202565084Y-108864870D01*
X204585084Y-116833270D02*
X204891784Y-116833270D01*
X201777984Y-107103670D02*
X202827484Y-108602470D01*
X203245784Y-116508170D02*
X203245684Y-116508270D01*
X202565084Y-113260770D02*
X203245784Y-113941470D01*
X203838984Y-117355570D02*
X204584984Y-116833170D01*
X204584984Y-116833170D02*
X204585084Y-116833270D01*
X202565084Y-108864870D02*
X202565084Y-113260770D01*
X203838984Y-117355570D02*
X203245684Y-116508270D01*
X203245784Y-113941470D02*
X203245784Y-116508170D01*
%TO.N,mirror_ring_top*%
X294718784Y-30153870D02*
X294718784Y-35657970D01*
X292804884Y-35904070D02*
X294472684Y-35904070D01*
X294472684Y-35904070D02*
X294718784Y-35657970D01*
X294718784Y-35657970D02*
X294964884Y-35904070D01*
X296996884Y-27875770D02*
X294718784Y-30153870D01*
X296996884Y-26324070D02*
X296996884Y-27875770D01*
%TO.N,mirror_pinky_top*%
X313718784Y-50897970D02*
X313964884Y-51144070D01*
X313718784Y-45393870D02*
X313718784Y-50897970D01*
X311804884Y-51144070D02*
X313472684Y-51144070D01*
X315996884Y-41564070D02*
X315996884Y-43115770D01*
X313472684Y-51144070D02*
X313718784Y-50897970D01*
X315996884Y-43115770D02*
X313718784Y-45393870D01*
%TO.N,mirror_ring_bottom*%
X294472684Y-74004070D02*
X294718784Y-73757970D01*
X296996884Y-64424070D02*
X296996884Y-65975770D01*
X296996884Y-65975770D02*
X294718784Y-68253870D01*
X292804884Y-74004070D02*
X294472684Y-74004070D01*
X294718784Y-68253870D02*
X294718784Y-73757970D01*
X294718784Y-73757970D02*
X294964884Y-74004070D01*
%TO.N,mirror_middle_top*%
X277996884Y-21561570D02*
X277996884Y-23113270D01*
X277996884Y-23113270D02*
X275718784Y-25391370D01*
X275718784Y-30895470D02*
X275964884Y-31141570D01*
X275472684Y-31141570D02*
X275718784Y-30895470D01*
X273804884Y-31141570D02*
X275472684Y-31141570D01*
X275718784Y-25391370D02*
X275718784Y-30895470D01*
%TO.N,mirror_index_home*%
X256718784Y-50156370D02*
X256718784Y-55660470D01*
X256472684Y-55906570D02*
X256718784Y-55660470D01*
X258996884Y-47878270D02*
X256718784Y-50156370D01*
X258996884Y-46326570D02*
X258996884Y-47878270D01*
X256718784Y-55660470D02*
X256964884Y-55906570D01*
X254804884Y-55906570D02*
X256472684Y-55906570D01*
%TO.N,mirror_inner_top*%
X239996884Y-31685770D02*
X237718784Y-33963870D01*
X239996884Y-30134070D02*
X239996884Y-31685770D01*
X237718784Y-39467970D02*
X237964884Y-39714070D01*
X237472684Y-39714070D02*
X237718784Y-39467970D01*
X237718784Y-33963870D02*
X237718784Y-39467970D01*
X235804884Y-39714070D02*
X237472684Y-39714070D01*
%TO.N,mirror_pinky_home*%
X313718784Y-64443870D02*
X313718784Y-69947970D01*
X311804884Y-70194070D02*
X313472684Y-70194070D01*
X313472684Y-70194070D02*
X313718784Y-69947970D01*
X315996884Y-62165770D02*
X313718784Y-64443870D01*
X315996884Y-60614070D02*
X315996884Y-62165770D01*
X313718784Y-69947970D02*
X313964884Y-70194070D01*
%TO.N,mirror_tucky_top*%
X223614684Y-108041570D02*
X223984184Y-107672070D01*
X223344084Y-99972370D02*
X223343984Y-99972370D01*
X222617084Y-97974870D02*
X223344084Y-99972370D01*
X221954484Y-108410870D02*
X222969384Y-108041470D01*
X222969384Y-108041570D02*
X223614684Y-108041570D01*
X221954484Y-101361870D02*
X221954484Y-106904270D01*
X223343984Y-99972370D02*
X221954484Y-101361870D01*
X222969384Y-108041470D02*
X222969384Y-108041570D01*
X221954484Y-108410870D02*
X221552484Y-107306270D01*
X221954484Y-106904270D02*
X221552484Y-107306270D01*
%TO.N,GND*%
X60493742Y-97387922D02*
X63033742Y-94847922D01*
X84387642Y-87146522D02*
X78273742Y-93260422D01*
X73828742Y-92307922D02*
X73828742Y-87227922D01*
X88275142Y-38214022D02*
X88275142Y-40754022D01*
X84387642Y-44641522D02*
X84387642Y-87146522D01*
X63033742Y-99927922D02*
X60493742Y-97387922D01*
X63033742Y-94847922D02*
X63033742Y-93260422D01*
X78273742Y-106595422D02*
X78273742Y-93260422D01*
X63033742Y-106595422D02*
X63033742Y-99927922D01*
X88275142Y-40754022D02*
X84387642Y-44641522D01*
%TO.N,VCC*%
X85697842Y-66875622D02*
X90349242Y-62224222D01*
X70197742Y-111330022D02*
X69438842Y-110571122D01*
X90349242Y-53919922D02*
X103515142Y-40754022D01*
X69438842Y-109539822D02*
X70682642Y-108296022D01*
X73193742Y-110087922D02*
X71951642Y-111330022D01*
X77312842Y-108252422D02*
X78742542Y-108252422D01*
X90349242Y-62224222D02*
X90349242Y-53919922D01*
X85697842Y-86646422D02*
X85697842Y-66875622D01*
X78742542Y-108252422D02*
X79915842Y-107079122D01*
X70682642Y-108296022D02*
X77269242Y-108296022D01*
X77269242Y-108296022D02*
X77312842Y-108252422D01*
X79915842Y-107079122D02*
X79915842Y-92428422D01*
X69438842Y-110571122D02*
X69438842Y-109539822D01*
X79915842Y-92428422D02*
X85697842Y-86646422D01*
X71951642Y-111330022D02*
X70197742Y-111330022D01*
%TO.N,P20*%
X67478742Y-87227922D02*
X67478742Y-71299622D01*
X67478742Y-71299622D02*
X78427642Y-60350722D01*
%TO.N,P15*%
X103515142Y-53454022D02*
X104707042Y-54645922D01*
X92703942Y-63681122D02*
X89505442Y-66879622D01*
X102364942Y-57264022D02*
X95947842Y-63681122D01*
X104707042Y-56460322D02*
X103903342Y-57264022D01*
X104707042Y-54645922D02*
X104707042Y-56460322D01*
X103903342Y-57264022D02*
X102364942Y-57264022D01*
X89505442Y-66879622D02*
X89505442Y-99927922D01*
X95947842Y-63681122D02*
X92703942Y-63681122D01*
%TO.N,P14*%
X99823042Y-55994022D02*
X103515142Y-55994022D01*
X78865242Y-108697722D02*
X80317542Y-107245422D01*
X72043942Y-108697722D02*
X78865242Y-108697722D01*
X70653742Y-110087922D02*
X72043942Y-108697722D01*
X86499742Y-69317322D02*
X99823042Y-55994022D01*
X80317542Y-107245422D02*
X80317542Y-105794622D01*
X80317542Y-105794622D02*
X86499742Y-99612422D01*
X86499742Y-99612422D02*
X86499742Y-69317322D01*
%TO.N,bottom*%
X93514242Y-92817922D02*
X91987942Y-92262422D01*
X53886342Y-76765822D02*
X54035142Y-76765822D01*
X92117542Y-87079822D02*
X92117642Y-87079822D01*
X116595342Y-97406222D02*
X116289542Y-97712022D01*
X-3113658Y-91053322D02*
X-2964858Y-91053322D01*
X75195142Y-80814022D02*
X73035142Y-80814022D01*
X54035142Y-77956522D02*
X54035142Y-76765822D01*
X56195142Y-77956522D02*
X54035142Y-77956522D01*
X116289542Y-103552722D02*
X117092942Y-102405322D01*
X50760142Y-73639622D02*
X53886342Y-76765822D01*
X117312942Y-104269222D02*
X117312842Y-104269322D01*
X31760142Y-65201522D02*
X31760142Y-67924622D01*
X116289542Y-101601922D02*
X117092942Y-102405322D01*
X-6239858Y-87927122D02*
X-3113658Y-91053322D01*
X-2964858Y-92244022D02*
X-2964858Y-91053322D01*
X35035142Y-72241522D02*
X35035142Y-71050822D01*
X16035142Y-77004022D02*
X16035142Y-75813322D01*
X73035142Y-80814022D02*
X73035142Y-79623322D01*
X12760142Y-72687122D02*
X15886342Y-75813322D01*
X72886342Y-79623322D02*
X73035142Y-79623322D01*
X92117642Y-87079822D02*
X92117642Y-91976622D01*
X18195142Y-77004022D02*
X16035142Y-77004022D01*
X-804858Y-92244022D02*
X-2964858Y-92244022D01*
X95543942Y-93556722D02*
X94529042Y-93187322D01*
X69760142Y-76497122D02*
X72886342Y-79623322D01*
X118058942Y-104791622D02*
X117312942Y-104269222D01*
X-6239858Y-85204022D02*
X-6239858Y-87927122D01*
X50760142Y-70916522D02*
X50760142Y-73639622D01*
X94529042Y-93187322D02*
X94529042Y-93187422D01*
X93883742Y-93187422D02*
X93514242Y-92817922D01*
X34886342Y-71050822D02*
X35035142Y-71050822D01*
X117006142Y-104269322D02*
X116289542Y-103552722D01*
X117644842Y-95907422D02*
X116595342Y-97406222D01*
X91987942Y-92106322D02*
X91987942Y-92262422D01*
X117312842Y-104269322D02*
X117006142Y-104269322D01*
X31760142Y-67924622D02*
X34886342Y-71050822D01*
X69760142Y-73774022D02*
X69760142Y-76497122D01*
X116289542Y-97712022D02*
X116289542Y-101601922D01*
X92844542Y-85082322D02*
X92117542Y-87079822D01*
X94529042Y-93187422D02*
X93883742Y-93187422D01*
X15886342Y-75813322D02*
X16035142Y-75813322D01*
X37195142Y-72241522D02*
X35035142Y-72241522D01*
X12760142Y-69964022D02*
X12760142Y-72687122D01*
X92117642Y-91976622D02*
X91987942Y-92106322D01*
%TO.N,ring_bottom*%
X23162942Y-77004022D02*
X23409042Y-76757922D01*
X25687142Y-68975722D02*
X23409042Y-71253822D01*
X21495142Y-77004022D02*
X23162942Y-77004022D01*
X25687142Y-67424022D02*
X25687142Y-68975722D01*
X23409042Y-76757922D02*
X23655142Y-77004022D01*
X23409042Y-71253822D02*
X23409042Y-76757922D01*
%TO.N,top*%
X69760142Y-35674022D02*
X69760142Y-38397122D01*
X31760142Y-27101522D02*
X31760142Y-29824622D01*
X106415042Y-119833122D02*
X106414942Y-119833222D01*
X66287442Y-96961722D02*
X66287442Y-50652422D01*
X-3113658Y-52953322D02*
X-2964858Y-52953322D01*
X124243542Y-124995422D02*
X122949242Y-126081522D01*
X120955742Y-132029422D02*
X121788042Y-133021222D01*
X12760142Y-37713322D02*
X12760142Y-31864022D01*
X1204042Y-55401222D02*
X5190342Y-55401222D01*
X105391642Y-119116622D02*
X106195042Y-117969222D01*
X50760142Y-35539622D02*
X53886342Y-38665822D01*
X88030642Y-111041522D02*
X87385342Y-111041522D01*
X106746942Y-111471322D02*
X105697442Y-112970122D01*
X69760142Y-38397122D02*
X72886342Y-41523322D01*
X122949342Y-126289622D02*
X120955742Y-128283222D01*
X-804858Y-54144022D02*
X-2964858Y-54144022D01*
X53886342Y-38665822D02*
X54035142Y-38665822D01*
X120123442Y-130621322D02*
X116798142Y-130621322D01*
X5190342Y-55401222D02*
X12760142Y-47831422D01*
X34886342Y-32950822D02*
X35035142Y-32950822D01*
X121810242Y-133047822D02*
X121787942Y-133025522D01*
X31760142Y-29824622D02*
X34886342Y-32950822D01*
X106108242Y-119833222D02*
X105391642Y-119116622D01*
X120123442Y-130621322D02*
X120123442Y-131037422D01*
X77020042Y-107694322D02*
X66287442Y-96961722D01*
X120955742Y-129789022D02*
X120123442Y-130621322D01*
X73035142Y-42714022D02*
X73035142Y-43904722D01*
X121787942Y-133025522D02*
X121787942Y-133021322D01*
X87385342Y-111041522D02*
X87015842Y-110672022D01*
X116798142Y-130621322D02*
X107907042Y-121730222D01*
X107161042Y-120355522D02*
X106415042Y-119833122D01*
X54035142Y-39856522D02*
X54035142Y-38665822D01*
X120123442Y-131037422D02*
X120123342Y-131037522D01*
X121787942Y-133021322D02*
X121788042Y-133021222D01*
X75195142Y-42714022D02*
X73035142Y-42714022D01*
X85619242Y-104934022D02*
X85619242Y-109830722D01*
X86346142Y-102936522D02*
X85619142Y-104934022D01*
X105391642Y-113275922D02*
X105391642Y-117165822D01*
X37195142Y-34141522D02*
X35035142Y-34141522D01*
X18195142Y-38904022D02*
X16035142Y-38904022D01*
X87015842Y-110672022D02*
X85489542Y-110116522D01*
X122949242Y-126081522D02*
X122949342Y-126081622D01*
X12760142Y-47831422D02*
X12760142Y-37713322D01*
X122949342Y-126081622D02*
X122949342Y-126289622D01*
X-6239858Y-47104022D02*
X-6239858Y-49827122D01*
X-6239858Y-49827122D02*
X-3113658Y-52953322D01*
X66287442Y-50652422D02*
X73035142Y-43904722D01*
X105697442Y-112970122D02*
X105391642Y-113275922D01*
X106414942Y-119833222D02*
X106108242Y-119833222D01*
X12760142Y-37713322D02*
X16035142Y-37713322D01*
X120955742Y-128283222D02*
X120955742Y-129789022D01*
X107907042Y-121730222D02*
X107907042Y-120877922D01*
X107161042Y-120355522D02*
X107907042Y-120877922D01*
X35035142Y-34141522D02*
X35035142Y-32950822D01*
X72886342Y-41523322D02*
X73035142Y-41523322D01*
X122344142Y-133684022D02*
X121810242Y-133047822D01*
X85619142Y-104934022D02*
X85619242Y-104934022D01*
X73035142Y-42714022D02*
X73035142Y-41523322D01*
X85619242Y-109830722D02*
X85489542Y-109960422D01*
X56195142Y-39856522D02*
X54035142Y-39856522D01*
X-2964858Y-54144022D02*
X-2964858Y-52953322D01*
X88030642Y-111041422D02*
X88030642Y-111041522D01*
X105391642Y-117165822D02*
X106195042Y-117969222D01*
X-53158Y-54144022D02*
X1204042Y-55401222D01*
X85489542Y-109960422D02*
X85489542Y-110116522D01*
X89045542Y-111410822D02*
X88030642Y-111041422D01*
X120955742Y-132029422D02*
X120123342Y-131037522D01*
X16035142Y-38904022D02*
X16035142Y-37713322D01*
X-804858Y-54144022D02*
X-53158Y-54144022D01*
X50760142Y-32816522D02*
X50760142Y-35539622D01*
%TO.N,reachy_top*%
X125853742Y-137866622D02*
X124999142Y-137012022D01*
X124465342Y-136212022D02*
X124999242Y-136848222D01*
X134498642Y-133265422D02*
X133204342Y-134351622D01*
X124999142Y-136848322D02*
X124999242Y-136848222D01*
X133204242Y-134351522D02*
X129368842Y-134351522D01*
X124999142Y-137012022D02*
X124999142Y-136848322D01*
X129368842Y-134351522D02*
X125853742Y-137866622D01*
X133204342Y-134351622D02*
X133204242Y-134351522D01*
%TO.N,home*%
X16035142Y-57954022D02*
X16035142Y-56763322D01*
X69760142Y-57447122D02*
X72886342Y-60573322D01*
X50760142Y-54589622D02*
X53886342Y-57715822D01*
X-6239858Y-66154022D02*
X-6239858Y-68877122D01*
X15886342Y-56763322D02*
X16035142Y-56763322D01*
X31760142Y-46151522D02*
X31760142Y-48874622D01*
X37195142Y-53191522D02*
X35035142Y-53191522D01*
X-6239858Y-68877122D02*
X-3113658Y-72003322D01*
X-3113658Y-72003322D02*
X-2964858Y-72003322D01*
X34886342Y-52000822D02*
X35035142Y-52000822D01*
X18195142Y-57954022D02*
X16035142Y-57954022D01*
X56195142Y-58906522D02*
X54035142Y-58906522D01*
X75195142Y-61764022D02*
X73035142Y-61764022D01*
X-804858Y-73194022D02*
X-2964858Y-73194022D01*
X12760142Y-50914022D02*
X12760142Y-53637122D01*
X35035142Y-53191522D02*
X35035142Y-52000822D01*
X72886342Y-60573322D02*
X73035142Y-60573322D01*
X54035142Y-58906522D02*
X54035142Y-57715822D01*
X31760142Y-48874622D02*
X34886342Y-52000822D01*
X73035142Y-61764022D02*
X73035142Y-60573322D01*
X53886342Y-57715822D02*
X54035142Y-57715822D01*
X12760142Y-53637122D02*
X15886342Y-56763322D01*
X-2964858Y-73194022D02*
X-2964858Y-72003322D01*
X69760142Y-54724022D02*
X69760142Y-57447122D01*
X50760142Y-51866522D02*
X50760142Y-54589622D01*
%TO.N,middle_home*%
X42409042Y-52945422D02*
X42655142Y-53191522D01*
X44687142Y-45163222D02*
X42409042Y-47441322D01*
X40495142Y-53191522D02*
X42162942Y-53191522D01*
X42409042Y-47441322D02*
X42409042Y-52945422D01*
X42162942Y-53191522D02*
X42409042Y-52945422D01*
X44687142Y-43611522D02*
X44687142Y-45163222D01*
%TO.N,inner_bottom*%
X82687142Y-71234022D02*
X82687142Y-72785722D01*
X78495142Y-80814022D02*
X80162942Y-80814022D01*
X80409042Y-75063822D02*
X80409042Y-80567922D01*
X80409042Y-80567922D02*
X80655142Y-80814022D01*
X82687142Y-72785722D02*
X80409042Y-75063822D01*
X80162942Y-80814022D02*
X80409042Y-80567922D01*
%TO.N,index_top*%
X61409042Y-39610422D02*
X61655142Y-39856522D01*
X61162942Y-39856522D02*
X61409042Y-39610422D01*
X63687142Y-30276522D02*
X63687142Y-31828222D01*
X63687142Y-31828222D02*
X61409042Y-34106322D01*
X61409042Y-34106322D02*
X61409042Y-39610422D01*
X59495142Y-39856522D02*
X61162942Y-39856522D01*
%TO.N,inner_home*%
X80409042Y-61517922D02*
X80655142Y-61764022D01*
X80409042Y-56013822D02*
X80409042Y-61517922D01*
X78495142Y-61764022D02*
X80162942Y-61764022D01*
X80162942Y-61764022D02*
X80409042Y-61517922D01*
X82687142Y-53735722D02*
X80409042Y-56013822D01*
X82687142Y-52184022D02*
X82687142Y-53735722D01*
%TO.N,ring_top*%
X21495142Y-38904022D02*
X23162942Y-38904022D01*
X23409042Y-38657922D02*
X23655142Y-38904022D01*
X23162942Y-38904022D02*
X23409042Y-38657922D01*
X25687142Y-29324022D02*
X25687142Y-30875722D01*
X25687142Y-30875722D02*
X23409042Y-33153822D01*
X23409042Y-33153822D02*
X23409042Y-38657922D01*
%TO.N,mid_bottom*%
X128641442Y-102740222D02*
X128641442Y-104608522D01*
X128641442Y-104608522D02*
X125326642Y-107923322D01*
X120762142Y-106684422D02*
X121508142Y-107206822D01*
X121814942Y-107206722D02*
X122531542Y-107923322D01*
X125326642Y-107923322D02*
X122531542Y-107923322D01*
X121508142Y-107206822D02*
X121508242Y-107206722D01*
X129690942Y-101241322D02*
X128641442Y-102740222D01*
X121508242Y-107206722D02*
X121814942Y-107206722D01*
%TO.N,mid_top*%
X110610242Y-122770722D02*
X110610342Y-122770622D01*
X118793042Y-116805222D02*
X117743542Y-118304122D01*
X110917042Y-122770622D02*
X111633642Y-123487222D01*
X117743542Y-118304122D02*
X117743542Y-120223522D01*
X109864242Y-122248322D02*
X110610242Y-122770722D01*
X117743542Y-120223522D02*
X114479842Y-123487222D01*
X114479842Y-123487222D02*
X111633642Y-123487222D01*
X110610342Y-122770622D02*
X110917042Y-122770622D01*
%TO.N,pinky_bottom*%
X6687142Y-84215722D02*
X4409042Y-86493822D01*
X2495142Y-92244022D02*
X4162942Y-92244022D01*
X6687142Y-82664022D02*
X6687142Y-84215722D01*
X4162942Y-92244022D02*
X4409042Y-91997922D01*
X4409042Y-86493822D02*
X4409042Y-91997922D01*
X4409042Y-91997922D02*
X4655142Y-92244022D01*
%TO.N,inner_top*%
X80409042Y-36963822D02*
X80409042Y-42467922D01*
X80162942Y-42714022D02*
X80409042Y-42467922D01*
X82687142Y-34685722D02*
X80409042Y-36963822D01*
X80409042Y-42467922D02*
X80655142Y-42714022D01*
X78495142Y-42714022D02*
X80162942Y-42714022D01*
X82687142Y-33134022D02*
X82687142Y-34685722D01*
%TO.N,index_home*%
X59495142Y-58906522D02*
X61162942Y-58906522D01*
X61409042Y-53156322D02*
X61409042Y-58660422D01*
X61409042Y-58660422D02*
X61655142Y-58906522D01*
X63687142Y-50878222D02*
X61409042Y-53156322D01*
X61162942Y-58906522D02*
X61409042Y-58660422D01*
X63687142Y-49326522D02*
X63687142Y-50878222D01*
%TO.N,middle_bottom*%
X42162942Y-72241522D02*
X42409042Y-71995422D01*
X40495142Y-72241522D02*
X42162942Y-72241522D01*
X44687142Y-64213222D02*
X42409042Y-66491322D01*
X44687142Y-62661522D02*
X44687142Y-64213222D01*
X42409042Y-71995422D02*
X42655142Y-72241522D01*
X42409042Y-66491322D02*
X42409042Y-71995422D01*
%TO.N,pinky_top*%
X6687142Y-44564022D02*
X6687142Y-46115722D01*
X4409042Y-53897922D02*
X4655142Y-54144022D01*
X4409042Y-48393822D02*
X4409042Y-53897922D01*
X4162942Y-54144022D02*
X4409042Y-53897922D01*
X2495142Y-54144022D02*
X4162942Y-54144022D01*
X6687142Y-46115722D02*
X4409042Y-48393822D01*
%TO.N,index_bottom*%
X59495142Y-77956522D02*
X61162942Y-77956522D01*
X61409042Y-72206322D02*
X61409042Y-77710422D01*
X61409042Y-77710422D02*
X61655142Y-77956522D01*
X63687142Y-69928222D02*
X61409042Y-72206322D01*
X61162942Y-77956522D02*
X61409042Y-77710422D01*
X63687142Y-68376522D02*
X63687142Y-69928222D01*
%TO.N,tucky_bottom*%
X103797742Y-89114222D02*
X105133642Y-89114222D01*
X98644942Y-94685322D02*
X99659842Y-95054722D01*
X100305142Y-95054622D02*
X100305142Y-92606822D01*
X99659842Y-95054622D02*
X100305142Y-95054622D01*
X99659842Y-95054722D02*
X99659842Y-95054622D01*
X100305142Y-92606822D02*
X103797742Y-89114222D01*
X105860642Y-87116722D02*
X105133642Y-89114222D01*
X100305142Y-95054622D02*
X100674642Y-95424122D01*
%TO.N,ring_home*%
X25687142Y-49925722D02*
X23409042Y-52203822D01*
X23162942Y-57954022D02*
X23409042Y-57707922D01*
X21495142Y-57954022D02*
X23162942Y-57954022D01*
X23409042Y-57707922D02*
X23655142Y-57954022D01*
X25687142Y-48374022D02*
X25687142Y-49925722D01*
X23409042Y-52203822D02*
X23409042Y-57707922D01*
%TO.N,tucky_top*%
X93806742Y-110461022D02*
X97299342Y-106968422D01*
X93806742Y-112908722D02*
X94176242Y-113278222D01*
X93161442Y-112908822D02*
X93161442Y-112908722D01*
X97299342Y-106968422D02*
X98635242Y-106968422D01*
X99362242Y-104970922D02*
X98635242Y-106968422D01*
X93161442Y-112908722D02*
X93806742Y-112908722D01*
X93806742Y-112908722D02*
X93806742Y-110461022D01*
X92146542Y-112539422D02*
X93161442Y-112908822D01*
%TO.N,pinky_home*%
X6687142Y-63614022D02*
X6687142Y-65165722D01*
X2495142Y-73194022D02*
X4162942Y-73194022D01*
X4409042Y-67443822D02*
X4409042Y-72947922D01*
X4162942Y-73194022D02*
X4409042Y-72947922D01*
X6687142Y-65165722D02*
X4409042Y-67443822D01*
X4409042Y-72947922D02*
X4655142Y-73194022D01*
%TO.N,middle_top*%
X40495142Y-34141522D02*
X42162942Y-34141522D01*
X44687142Y-24561522D02*
X44687142Y-26113222D01*
X42162942Y-34141522D02*
X42409042Y-33895422D01*
X44687142Y-26113222D02*
X42409042Y-28391322D01*
X42409042Y-28391322D02*
X42409042Y-33895422D01*
X42409042Y-33895422D02*
X42655142Y-34141522D01*
%TD*%
M02*
