M48
; DRILL file KiCad 10.0.3 date 2026-06-28T14:11:29
; FORMAT={-:-/ absolute / metric / decimal}
; #@! TF.CreationDate,2026-06-28T14:11:29-05:00
; #@! TF.GenerationSoftware,Kicad,Pcbnew,10.0.3
; #@! TF.FileFunction,Plated,1,2,PTH
FMAT,2
METRIC
; #@! TA.AperFunction,Plated,PTH,ViaDrill
T1C0.300
; #@! TA.AperFunction,Plated,PTH,ComponentDrill
T2C0.889
; #@! TA.AperFunction,Plated,PTH,ComponentDrill
T3C0.899
; #@! TA.AperFunction,Plated,PTH,ComponentDrill
T4C0.900
; #@! TA.AperFunction,Plated,PTH,ComponentDrill
T5C0.991
; #@! TA.AperFunction,Plated,PTH,ComponentDrill
T6C1.000
; #@! TA.AperFunction,Plated,PTH,ComponentDrill
T7C1.397
%
G90
G05
T1
X77.02Y-107.694
X78.428Y-60.351
X89.505Y-99.928
T2
X60.494Y-97.388
X60.494Y-99.928
X60.494Y-102.468
X68.114Y-110.088
X70.654Y-110.088
X73.194Y-110.088
T3
X67.479Y-87.228
X67.479Y-92.308
X73.829Y-87.228
X73.829Y-92.308
T4
X232.971Y-90.078
X234.471Y-92.768
X234.471Y-95.308
X234.471Y-97.848
X234.471Y-100.388
X234.971Y-90.078
T5
X-2.965Y-54.144
X-2.965Y-73.194
X-2.965Y-92.244
X4.655Y-54.144
X4.655Y-73.194
X4.655Y-92.244
X16.035Y-38.904
X16.035Y-57.954
X16.035Y-77.004
X23.655Y-38.904
X23.655Y-57.954
X23.655Y-77.004
X35.035Y-34.142
X35.035Y-53.192
X35.035Y-72.242
X42.655Y-34.142
X42.655Y-53.192
X42.655Y-72.242
X54.035Y-39.857
X54.035Y-58.907
X54.035Y-77.957
X61.655Y-39.857
X61.655Y-58.907
X61.655Y-77.957
X73.035Y-42.714
X73.035Y-61.764
X73.035Y-80.814
X80.655Y-42.714
X80.655Y-61.764
X80.655Y-80.814
X87.016Y-110.672
X93.514Y-92.818
X94.176Y-113.278
X100.675Y-95.424
X105.392Y-119.117
X111.634Y-123.487
X116.29Y-103.553
X120.956Y-132.029
X122.532Y-107.923
X125.854Y-137.867
X185.146Y-134.867
X188.469Y-104.923
X190.044Y-129.029
X194.71Y-100.553
X199.366Y-120.487
X205.608Y-116.117
X210.325Y-92.424
X216.824Y-110.278
X217.486Y-89.818
X223.984Y-107.672
X230.345Y-39.714
X230.345Y-58.764
X230.345Y-77.814
X236.536Y-101.428
X236.536Y-102.928
X237.965Y-39.714
X237.965Y-58.764
X237.965Y-77.814
X244.156Y-101.428
X244.156Y-102.928
X249.345Y-36.857
X249.345Y-55.907
X249.345Y-74.957
X256.965Y-36.857
X256.965Y-55.907
X256.965Y-74.957
X268.345Y-31.142
X268.345Y-50.192
X268.345Y-69.242
X275.965Y-31.142
X275.965Y-50.192
X275.965Y-69.242
X287.345Y-35.904
X287.345Y-54.954
X287.345Y-74.004
X294.965Y-35.904
X294.965Y-54.954
X294.965Y-74.004
X306.345Y-51.144
X306.345Y-70.194
X306.345Y-89.244
X313.965Y-51.144
X313.965Y-70.194
X313.965Y-89.244
T6
X88.275Y-33.134
X88.275Y-35.674
X88.275Y-38.214
X88.275Y-40.754
X88.275Y-43.294
X88.275Y-45.834
X88.275Y-48.374
X88.275Y-50.914
X88.275Y-53.454
X88.275Y-55.994
X88.275Y-58.534
X88.275Y-61.074
X103.515Y-33.134
X103.515Y-35.674
X103.515Y-38.214
X103.515Y-40.754
X103.515Y-43.294
X103.515Y-45.834
X103.515Y-48.374
X103.515Y-50.914
X103.515Y-53.454
X103.515Y-55.994
X103.515Y-58.534
X103.515Y-61.074
T7
X63.034Y-93.26
X63.034Y-106.595
X78.274Y-93.26
X78.274Y-106.595
M30
