0
SECTION
2
HEADER
9
$INSUNITS
70
4
0
ENDSEC
0
SECTION
2
TABLES
0
TABLE
2
LTYPE
0
LTYPE
72
65
70
64
2
CONTINUOUS
3
______
73
0
40
0
0
ENDTAB
0
TABLE
2
LAYER
0
ENDTAB
0
ENDSEC
0
SECTION
2
ENTITIES
0
LINE
8
0
10
39.475
20
-113.525
11
55.475
21
-113.525
0
LINE
8
0
10
55.475
20
-113.525
11
55.475
21
-114.335
0
ARC
8
0
10
58.475
20
-114.335
40
3
50
180
51
270
0
LINE
8
0
10
58.475
20
-117.335
11
79.525
21
-117.335
0
ARC
8
0
10
79.525
20
-114.335
40
3
50
270
51
360
0
LINE
8
0
10
82.525
20
-114.335
11
82.525
21
-104.095
0
LINE
8
0
10
84.525
20
-102.095
11
98.525
21
-102.095
0
ARC
8
0
10
98.525
20
-99.095
40
3
50
270
51
360
0
LINE
8
0
10
101.525
20
-99.095
11
101.525
21
-97.3325
0
LINE
8
0
10
101.525
20
-97.3325
11
110.475
21
-97.3325
0
LINE
8
0
10
112.475
20
-99.3325
11
112.475
21
-100.0475
0
ARC
8
0
10
115.475
20
-100.0475
40
3
50
180
51
270
0
LINE
8
0
10
115.475
20
-103.0475
11
129.9572911
21
-103.0475
0
ARC
8
0
10
134.475
20
-102.905
40
3
50
205.372404
51
270
0
LINE
8
0
10
134.475
20
-105.905
11
149.5584966
21
-105.905
0
LINE
8
0
10
143.9808953
20
-129.0769424
11
151.4378818
21
-108.5890402
0
ARC
8
0
10
146.7999732
20
-130.1030028
40
3
50
160.0000008
51
250
0
LINE
8
0
10
145.7739128
20
-132.9220807
11
163.872472
21
-139.5094175
0
LINE
8
0
10
164.3355847
20
-139.7504986
11
178.6463106
21
-149.7709768
0
LINE
8
0
10
179.0312466
20
-150.1237057
11
191.4113906
21
-164.8777868
0
ARC
8
0
10
193.7095239
20
-162.949424
40
3
50
219.9999999
51
309.9999998
0
LINE
8
0
10
195.63848
20
-165.2470594
11
211.7631223
21
-151.7168781
0
ARC
8
0
10
209.8347595
20
-149.4187448
40
3
50
309.9999999
51
399.9999999
0
LINE
8
0
10
212.1328928
20
-147.490382
11
198.6022136
21
-131.3651464
0
ARC
8
0
10
196.3040803
20
-133.2935092
40
3
50
39.9999999
51
59.2705043
0
LINE
8
0
10
197.8370368
20
-130.7147412
11
207.2624449
21
-117.2538636
0
ARC
8
0
10
204.8049887
20
-115.5331343
40
3
50
325
51
414.9999992
0
LINE
8
0
10
206.525718
20
-113.0756782
11
189.2832019
21
-101.0023385
0
ARC
8
0
10
187.5618381
20
-103.4593503
40
3
50
415.0000003
51
145
0
LINE
8
0
10
180.1332044
20
-108.8381982
11
185.1043819
21
-101.738621
0
LINE
8
0
10
180.1332044
20
-108.8381982
11
183.0974873
21
-100.6938979
0
ARC
8
0
10
180.2784095
20
-99.6678374
40
3
50
340
51
430.0000015
0
LINE
8
0
10
181.3044699
20
-96.8487595
11
161.5239403
21
-89.6492355
0
ARC
8
0
10
160.4978799
20
-92.4683134
40
3
50
430.0000008
51
89.689225
0
LINE
8
0
10
158.525
20
-87.468387
11
158.525
21
-43.755
0
ARC
8
0
10
155.525
20
-43.755
40
3
50
0
51
90
0
LINE
8
0
10
155.525
20
-40.755
11
141.0427089
21
-40.755
0
ARC
8
0
10
136.525
20
-40.8975
40
3
50
25.372404
51
90
0
LINE
8
0
10
136.525
20
-37.8975
11
122.525
21
-37.8975
0
LINE
8
0
10
120.525
20
-35.8975
11
120.525
21
-35.1825
0
ARC
8
0
10
117.525
20
-35.1825
40
3
50
0
51
90
0
LINE
8
0
10
117.525
20
-32.1825
11
96.475
21
-32.1825
0
ARC
8
0
10
96.475
20
-35.1825
40
3
50
90
51
180
0
LINE
8
0
10
93.475
20
-35.1825
11
93.475
21
-36.945
0
LINE
8
0
10
93.475
20
-36.945
11
77.475
21
-36.945
0
ARC
8
0
10
77.475
20
-39.945
40
3
50
90
51
180
0
LINE
8
0
10
74.475
20
-39.945
11
74.475
21
-50.185
0
LINE
8
0
10
72.475
20
-52.185
11
58.475
21
-52.185
0
ARC
8
0
10
58.475
20
-55.185
40
3
50
90
51
180
0
LINE
8
0
10
55.475
20
-55.185
11
55.475
21
-65.425
0
LINE
8
0
10
53.475
20
-67.425
11
39.475
21
-67.425
0
ARC
8
0
10
39.475
20
-70.425
40
3
50
90
51
180
0
LINE
8
0
10
36.475
20
-110.525
11
36.475
21
-70.425
0
ARC
8
0
10
39.475
20
-110.525
40
3
50
180
51
270
0
ARC
8
0
10
84.525
20
-104.095
40
2
50
90
51
180
0
ARC
8
0
10
110.475
20
-99.3325
40
2
50
0
51
90
0
ARC
8
0
10
129.9572911
20
-105.0475
40
2
50
25.372404
51
90
0
ARC
8
0
10
149.5584966
20
-107.905
40
2
50
340.0000019
51
90
0
ARC
8
0
10
163.1884318
20
-141.3888027
40
2
50
55.0000003
51
70.0000019
0
ARC
8
0
10
177.4991578
20
-151.4092809
40
2
50
40.0000012
51
55.0000003
0
ARC
8
0
10
160.525
20
-87.468387
40
2
50
180
51
269.689225
0
ARC
8
0
10
141.0427089
20
-38.755
40
2
50
205.372404
51
270
0
ARC
8
0
10
122.525
20
-35.8975
40
2
50
180
51
270
0
ARC
8
0
10
72.475
20
-50.185
40
2
50
270
51
0
0
ARC
8
0
10
53.475
20
-65.425
40
2
50
270
51
0
0
ENDSEC
0
EOF