0
SECTION
2
HEADER
9
$INSUNITS
70
4
0
ENDSEC
0
SECTION
2
TABLES
0
TABLE
2
LTYPE
0
LTYPE
72
65
70
64
2
CONTINUOUS
3
______
73
0
40
0
0
ENDTAB
0
TABLE
2
LAYER
0
ENDTAB
0
ENDSEC
0
SECTION
2
ENTITIES
0
LINE
8
0
10
39.475
20
-114.335
11
60.525
21
-114.335
0
LINE
8
0
10
60.525
20
-114.335
11
60.525
21
-99.095
0
LINE
8
0
10
39.475
20
-114.335
11
39.475
21
-55.185
0
LINE
8
0
10
58.475
20
-55.185
11
39.475
21
-55.185
0
LINE
8
0
10
60.525
20
-99.095
11
79.525
21
-99.095
0
LINE
8
0
10
79.525
20
-99.095
11
79.525
21
-94.3325
0
LINE
8
0
10
77.475
20
-39.945
11
58.475
21
-39.945
0
LINE
8
0
10
58.475
20
-39.945
11
58.475
21
-55.185
0
LINE
8
0
10
79.525
20
-94.3325
11
96.475
21
-94.3325
0
LINE
8
0
10
98.525
20
-40.8975
11
98.525
21
-35.1825
0
LINE
8
0
10
98.525
20
-35.1825
11
77.475
21
-35.1825
0
LINE
8
0
10
77.475
20
-35.1825
11
77.475
21
-39.945
0
LINE
8
0
10
96.475
20
-100.0475
11
115.475
21
-100.0475
0
LINE
8
0
10
96.475
20
-94.3325
11
96.475
21
-100.0475
0
LINE
8
0
10
117.525
20
-43.755
11
117.525
21
-40.8975
0
LINE
8
0
10
117.525
20
-40.8975
11
98.525
21
-40.8975
0
LINE
8
0
10
115.475
20
-102.905
11
136.525
21
-102.905
0
LINE
8
0
10
136.525
20
-102.905
11
136.525
21
-78.4
0
LINE
8
0
10
115.475
20
-100.0475
11
115.475
21
-102.905
0
LINE
8
0
10
136.525
20
-45.4
11
136.525
21
-43.755
0
LINE
8
0
10
136.525
20
-43.755
11
117.525
21
-43.755
0
LINE
8
0
10
127.7999732
20
-130.1030028
11
146.517097
21
-136.9154788
0
LINE
8
0
10
150.5204238
20
-129.2251601
11
161.2784095
21
-99.6678374
0
LINE
8
0
10
130.3336267
20
-123.141847
11
141.4978799
21
-92.4683134
0
LINE
8
0
10
129.1044728
20
-126.5189195
11
127.7999732
21
-130.1030028
0
LINE
8
0
10
161.2784095
20
-99.6678374
11
141.4978799
21
-92.4683134
0
LINE
8
0
10
146.517097
20
-136.9154788
11
161.9062568
21
-147.6910844
0
LINE
8
0
10
167.7635745
20
-141.2989441
11
185.8049887
21
-115.5331343
0
LINE
8
0
10
150.5204238
20
-129.2251601
11
168.5618381
21
-103.4593503
0
LINE
8
0
10
185.8049887
20
-115.5331343
11
168.5618381
21
-103.4593503
0
LINE
8
0
10
161.9062568
20
-147.6910844
11
174.7095239
21
-162.949424
0
LINE
8
0
10
174.7095239
20
-162.949424
11
190.8347595
21
-149.4187448
0
LINE
8
0
10
190.8347595
20
-149.4187448
11
177.3040803
21
-133.2935092
0
LINE
8
0
10
177.3040803
20
-133.2935092
11
167.7635745
21
-141.2989441
0
LINE
8
0
10
109.2836267
20
-126.5189195
11
129.1044728
21
-126.5189195
0
LINE
8
0
10
130.3336267
20
-123.141847
11
130.3336267
21
-105.4689195
0
LINE
8
0
10
130.3336267
20
-105.4689195
11
109.2836267
21
-105.4689195
0
LINE
8
0
10
109.2836267
20
-105.4689195
11
109.2836267
21
-126.5189195
0
LINE
8
0
10
136.525
20
-78.4
11
154.05
21
-78.4
0
LINE
8
0
10
154.05
20
-78.4
11
154.05
21
-45.4
0
LINE
8
0
10
154.05
20
-45.4
11
136.525
21
-45.4
0
ENDSEC
0
EOF