0
SECTION
2
HEADER
9
$INSUNITS
70
4
0
ENDSEC
0
SECTION
2
TABLES
0
TABLE
2
LTYPE
0
LTYPE
72
65
70
64
2
CONTINUOUS
3
______
73
0
40
0
0
ENDTAB
0
TABLE
2
LAYER
0
ENDTAB
0
ENDSEC
0
SECTION
2
ENTITIES
0
LINE
8
0
10
39.475
20
-117.335
11
60.525
21
-117.335
0
ARC
8
0
10
60.525
20
-114.335
40
3
50
270
51
360
0
LINE
8
0
10
63.525
20
-114.335
11
63.525
21
-104.095
0
LINE
8
0
10
65.525
20
-102.095
11
79.525
21
-102.095
0
ARC
8
0
10
79.525
20
-99.095
40
3
50
270
51
360
0
LINE
8
0
10
82.525
20
-99.095
11
82.525
21
-97.3325
0
LINE
8
0
10
82.525
20
-97.3325
11
91.475
21
-97.3325
0
LINE
8
0
10
93.475
20
-99.3325
11
93.475
21
-100.0475
0
ARC
8
0
10
96.475
20
-100.0475
40
3
50
180
51
270
0
LINE
8
0
10
96.475
20
-103.0475
11
104.3014178
21
-103.0475
0
ARC
8
0
10
109.2836267
20
-105.4689195
40
3
50
175.1651524
51
180
0
LINE
8
0
10
106.2836267
20
-105.4689195
11
106.2836267
21
-126.5189195
0
ARC
8
0
10
109.2836267
20
-126.5189195
40
3
50
180
51
270
0
LINE
8
0
10
109.2836267
20
-129.5189195
11
123.0046442
21
-129.5189195
0
ARC
8
0
10
127.7999732
20
-130.1030028
40
3
50
196.4502885
51
250
0
LINE
8
0
10
126.7739128
20
-132.9220807
11
144.872472
21
-139.5094175
0
LINE
8
0
10
145.3355847
20
-139.7504986
11
159.6463106
21
-149.7709768
0
LINE
8
0
10
160.0312466
20
-150.1237057
11
172.4113906
21
-164.8777868
0
ARC
8
0
10
174.7095239
20
-162.949424
40
3
50
219.9999999
51
309.9999998
0
LINE
8
0
10
176.63848
20
-165.2470594
11
192.7631223
21
-151.7168781
0
ARC
8
0
10
190.8347595
20
-149.4187448
40
3
50
309.9999999
51
399.9999999
0
LINE
8
0
10
193.1328928
20
-147.490382
11
179.6022136
21
-131.3651464
0
ARC
8
0
10
177.3040803
20
-133.2935092
40
3
50
39.9999999
51
59.2705043
0
LINE
8
0
10
178.8370368
20
-130.7147412
11
188.2624449
21
-117.2538636
0
ARC
8
0
10
185.8049887
20
-115.5331343
40
3
50
325
51
414.9999992
0
LINE
8
0
10
187.525718
20
-113.0756782
11
170.2832019
21
-101.0023385
0
ARC
8
0
10
168.5618381
20
-103.4593503
40
3
50
415.0000003
51
145
0
LINE
8
0
10
161.1332044
20
-108.8381982
11
166.1043819
21
-101.738621
0
LINE
8
0
10
161.1332044
20
-108.8381982
11
164.0974873
21
-100.6938979
0
ARC
8
0
10
161.2784095
20
-99.6678374
40
3
50
340
51
430.0000015
0
LINE
8
0
10
162.3044699
20
-96.8487595
11
142.5239403
21
-89.6492355
0
ARC
8
0
10
141.4978799
20
-92.4683134
40
3
50
430.0000007
51
89.689225
0
LINE
8
0
10
139.525
20
-87.468387
11
139.525
21
-83.4
0
LINE
8
0
10
141.525
20
-81.4
11
154.05
21
-81.4
0
ARC
8
0
10
154.05
20
-78.4
40
3
50
270
51
360
0
LINE
8
0
10
157.05
20
-78.4
11
157.05
21
-45.4
0
ARC
8
0
10
154.05
20
-45.4
40
3
50
0
51
90
0
LINE
8
0
10
154.05
20
-42.4
11
140.2322867
21
-42.4
0
ARC
8
0
10
136.525
20
-43.755
40
3
50
42.1442926
51
90
0
LINE
8
0
10
136.525
20
-40.755
11
122.0427089
21
-40.755
0
ARC
8
0
10
117.525
20
-40.8975
40
3
50
25.372404
51
90
0
LINE
8
0
10
117.525
20
-37.8975
11
103.525
21
-37.8975
0
LINE
8
0
10
101.525
20
-35.8975
11
101.525
21
-35.1825
0
ARC
8
0
10
98.525
20
-35.1825
40
3
50
0
51
90
0
LINE
8
0
10
98.525
20
-32.1825
11
77.475
21
-32.1825
0
ARC
8
0
10
77.475
20
-35.1825
40
3
50
90
51
180
0
LINE
8
0
10
74.475
20
-35.1825
11
74.475
21
-36.945
0
LINE
8
0
10
74.475
20
-36.945
11
58.475
21
-36.945
0
ARC
8
0
10
58.475
20
-39.945
40
3
50
90
51
180
0
LINE
8
0
10
55.475
20
-39.945
11
55.475
21
-50.185
0
LINE
8
0
10
53.475
20
-52.185
11
39.475
21
-52.185
0
ARC
8
0
10
39.475
20
-55.185
40
3
50
90
51
180
0
LINE
8
0
10
36.475
20
-114.335
11
36.475
21
-55.185
0
ARC
8
0
10
39.475
20
-114.335
40
3
50
180
51
270
0
LINE
8
0
10
133.3336267
20
-105.905
11
133.4147926
21
-105.905
0
LINE
8
0
10
133.3336267
20
-106.1280014
11
133.4147926
21
-105.905
0
LINE
8
0
10
133.3336267
20
-106.1280014
11
133.3336267
21
-105.905
0
ARC
8
0
10
65.525
20
-104.095
40
2
50
90
51
180
0
ARC
8
0
10
91.475
20
-99.3325
40
2
50
0
51
90
0
ARC
8
0
10
104.3014178
20
-105.0475
40
2
50
355.1651524
51
90
0
ARC
8
0
10
123.0046442
20
-131.5189195
40
2
50
16.4502885
51
90
0
ARC
8
0
10
144.1884318
20
-141.3888027
40
2
50
55.0000003
51
70.0000019
0
ARC
8
0
10
158.4991578
20
-151.4092809
40
2
50
40.0000012
51
55.0000003
0
ARC
8
0
10
141.525
20
-87.468387
40
2
50
180
51
269.689225
0
ARC
8
0
10
141.525
20
-83.4
40
2
50
90
51
180
0
ARC
8
0
10
140.2322867
20
-40.4
40
2
50
222.1442926
51
270
0
ARC
8
0
10
122.0427089
20
-38.755
40
2
50
205.372404
51
270
0
ARC
8
0
10
103.525
20
-35.8975
40
2
50
180
51
270
0
ARC
8
0
10
53.475
20
-50.185
40
2
50
270
51
0
0
ENDSEC
0
EOF