0
SECTION
2
HEADER
9
$INSUNITS
70
4
0
ENDSEC
0
SECTION
2
TABLES
0
TABLE
2
LTYPE
0
LTYPE
72
65
70
64
2
CONTINUOUS
3
______
73
0
40
0
0
ENDTAB
0
TABLE
2
LAYER
0
ENDTAB
0
ENDSEC
0
SECTION
2
ENTITIES
0
LINE
8
0
10
39.475
20
-110.525
11
58.475
21
-110.525
0
LINE
8
0
10
39.475
20
-110.525
11
39.475
21
-70.425
0
LINE
8
0
10
58.475
20
-70.425
11
39.475
21
-70.425
0
LINE
8
0
10
58.475
20
-114.335
11
79.525
21
-114.335
0
LINE
8
0
10
79.525
20
-114.335
11
79.525
21
-99.095
0
LINE
8
0
10
58.475
20
-110.525
11
58.475
21
-114.335
0
LINE
8
0
10
77.475
20
-55.185
11
58.475
21
-55.185
0
LINE
8
0
10
58.475
20
-55.185
11
58.475
21
-70.425
0
LINE
8
0
10
79.525
20
-99.095
11
98.525
21
-99.095
0
LINE
8
0
10
98.525
20
-99.095
11
98.525
21
-94.3325
0
LINE
8
0
10
96.475
20
-39.945
11
77.475
21
-39.945
0
LINE
8
0
10
77.475
20
-39.945
11
77.475
21
-55.185
0
LINE
8
0
10
98.525
20
-94.3325
11
115.475
21
-94.3325
0
LINE
8
0
10
117.525
20
-40.8975
11
117.525
21
-35.1825
0
LINE
8
0
10
117.525
20
-35.1825
11
96.475
21
-35.1825
0
LINE
8
0
10
96.475
20
-35.1825
11
96.475
21
-39.945
0
LINE
8
0
10
115.475
20
-100.0475
11
134.475
21
-100.0475
0
LINE
8
0
10
115.475
20
-94.3325
11
115.475
21
-100.0475
0
LINE
8
0
10
136.525
20
-43.755
11
136.525
21
-40.8975
0
LINE
8
0
10
136.525
20
-40.8975
11
117.525
21
-40.8975
0
LINE
8
0
10
134.475
20
-102.905
11
155.525
21
-102.905
0
LINE
8
0
10
155.525
20
-102.905
11
155.525
21
-43.755
0
LINE
8
0
10
134.475
20
-100.0475
11
134.475
21
-102.905
0
LINE
8
0
10
155.525
20
-43.755
11
136.525
21
-43.755
0
LINE
8
0
10
146.7999732
20
-130.1030028
11
165.517097
21
-136.9154788
0
LINE
8
0
10
169.5204238
20
-129.2251601
11
180.2784095
21
-99.6678374
0
LINE
8
0
10
149.3336267
20
-123.141847
11
160.4978799
21
-92.4683134
0
LINE
8
0
10
148.1044728
20
-126.5189195
11
146.7999732
21
-130.1030028
0
LINE
8
0
10
180.2784095
20
-99.6678374
11
160.4978799
21
-92.4683134
0
LINE
8
0
10
165.517097
20
-136.9154788
11
180.9062568
21
-147.6910844
0
LINE
8
0
10
186.7635745
20
-141.2989441
11
204.8049887
21
-115.5331343
0
LINE
8
0
10
169.5204238
20
-129.2251601
11
187.5618381
21
-103.4593503
0
LINE
8
0
10
204.8049887
20
-115.5331343
11
187.5618381
21
-103.4593503
0
LINE
8
0
10
180.9062568
20
-147.6910844
11
193.7095239
21
-162.949424
0
LINE
8
0
10
193.7095239
20
-162.949424
11
209.8347595
21
-149.4187448
0
LINE
8
0
10
209.8347595
20
-149.4187448
11
196.3040803
21
-133.2935092
0
LINE
8
0
10
196.3040803
20
-133.2935092
11
186.7635745
21
-141.2989441
0
LINE
8
0
10
128.2836267
20
-126.5189195
11
148.1044728
21
-126.5189195
0
LINE
8
0
10
149.3336267
20
-123.141847
11
149.3336267
21
-105.4689195
0
LINE
8
0
10
149.3336267
20
-105.4689195
11
128.2836267
21
-105.4689195
0
LINE
8
0
10
128.2836267
20
-105.4689195
11
128.2836267
21
-126.5189195
0
LINE
8
0
10
379.525
20
-110.525
11
398.525
21
-110.525
0
LINE
8
0
10
398.525
20
-110.525
11
398.525
21
-70.425
0
LINE
8
0
10
398.525
20
-70.425
11
379.525
21
-70.425
0
LINE
8
0
10
358.475
20
-114.335
11
379.525
21
-114.335
0
LINE
8
0
10
379.525
20
-114.335
11
379.525
21
-110.525
0
LINE
8
0
10
358.475
20
-99.095
11
358.475
21
-114.335
0
LINE
8
0
10
379.525
20
-70.425
11
379.525
21
-55.185
0
LINE
8
0
10
379.525
20
-55.185
11
360.525
21
-55.185
0
LINE
8
0
10
339.475
20
-99.095
11
358.475
21
-99.095
0
LINE
8
0
10
339.475
20
-94.3325
11
339.475
21
-99.095
0
LINE
8
0
10
360.525
20
-55.185
11
360.525
21
-39.945
0
LINE
8
0
10
360.525
20
-39.945
11
341.525
21
-39.945
0
LINE
8
0
10
322.525
20
-94.3325
11
339.475
21
-94.3325
0
LINE
8
0
10
341.525
20
-39.945
11
341.525
21
-35.1825
0
LINE
8
0
10
341.525
20
-35.1825
11
320.475
21
-35.1825
0
LINE
8
0
10
320.475
20
-35.1825
11
320.475
21
-40.8975
0
LINE
8
0
10
303.525
20
-100.0475
11
322.525
21
-100.0475
0
LINE
8
0
10
322.525
20
-100.0475
11
322.525
21
-94.3325
0
LINE
8
0
10
320.475
20
-40.8975
11
301.475
21
-40.8975
0
LINE
8
0
10
301.475
20
-40.8975
11
301.475
21
-43.755
0
LINE
8
0
10
282.475
20
-102.905
11
303.525
21
-102.905
0
LINE
8
0
10
303.525
20
-102.905
11
303.525
21
-100.0475
0
LINE
8
0
10
282.475
20
-102.905
11
282.475
21
-43.755
0
LINE
8
0
10
301.475
20
-43.755
11
282.475
21
-43.755
0
LINE
8
0
10
272.482903
20
-136.9154788
11
291.2000268
21
-130.1030028
0
LINE
8
0
10
291.2000268
20
-130.1030028
11
289.8955272
21
-126.5189195
0
LINE
8
0
10
277.5021201
20
-92.4683134
11
288.6663733
21
-123.141847
0
LINE
8
0
10
257.7215905
20
-99.6678374
11
268.4795762
21
-129.2251601
0
LINE
8
0
10
277.5021201
20
-92.4683134
11
257.7215905
21
-99.6678374
0
LINE
8
0
10
257.0937432
20
-147.6910844
11
272.482903
21
-136.9154788
0
LINE
8
0
10
250.4381619
20
-103.4593503
11
268.4795762
21
-129.2251601
0
LINE
8
0
10
233.1950113
20
-115.5331343
11
251.2364255
21
-141.2989441
0
LINE
8
0
10
250.4381619
20
-103.4593503
11
233.1950113
21
-115.5331343
0
LINE
8
0
10
244.2904761
20
-162.949424
11
257.0937432
21
-147.6910844
0
LINE
8
0
10
251.2364255
20
-141.2989441
11
241.6959197
21
-133.2935092
0
LINE
8
0
10
241.6959197
20
-133.2935092
11
228.1652405
21
-149.4187448
0
LINE
8
0
10
228.1652405
20
-149.4187448
11
244.2904761
21
-162.949424
0
LINE
8
0
10
289.8955272
20
-126.5189195
11
309.7163733
21
-126.5189195
0
LINE
8
0
10
309.7163733
20
-126.5189195
11
309.7163733
21
-105.4689195
0
LINE
8
0
10
309.7163733
20
-105.4689195
11
288.6663733
21
-105.4689195
0
LINE
8
0
10
288.6663733
20
-105.4689195
11
288.6663733
21
-123.141847
0
ENDSEC
0
EOF