0
SECTION
2
HEADER
9
$INSUNITS
70
4
0
ENDSEC
0
SECTION
2
TABLES
0
TABLE
2
LTYPE
0
LTYPE
72
65
70
64
2
CONTINUOUS
3
______
73
0
40
0
0
ENDTAB
0
TABLE
2
LAYER
0
ENDTAB
0
ENDSEC
0
SECTION
2
ENTITIES
0
LINE
8
0
10
339.475
20
-114.335
11
360.525
21
-114.335
0
LINE
8
0
10
360.525
20
-114.335
11
360.525
21
-55.185
0
LINE
8
0
10
339.475
20
-99.095
11
339.475
21
-114.335
0
LINE
8
0
10
360.525
20
-55.185
11
341.525
21
-55.185
0
LINE
8
0
10
320.475
20
-99.095
11
339.475
21
-99.095
0
LINE
8
0
10
320.475
20
-94.3325
11
320.475
21
-99.095
0
LINE
8
0
10
341.525
20
-55.185
11
341.525
21
-39.945
0
LINE
8
0
10
341.525
20
-39.945
11
322.525
21
-39.945
0
LINE
8
0
10
303.525
20
-94.3325
11
320.475
21
-94.3325
0
LINE
8
0
10
322.525
20
-39.945
11
322.525
21
-35.1825
0
LINE
8
0
10
322.525
20
-35.1825
11
301.475
21
-35.1825
0
LINE
8
0
10
301.475
20
-35.1825
11
301.475
21
-40.8975
0
LINE
8
0
10
284.525
20
-100.0475
11
303.525
21
-100.0475
0
LINE
8
0
10
303.525
20
-100.0475
11
303.525
21
-94.3325
0
LINE
8
0
10
301.475
20
-40.8975
11
282.475
21
-40.8975
0
LINE
8
0
10
282.475
20
-40.8975
11
282.475
21
-43.755
0
LINE
8
0
10
263.475
20
-102.905
11
284.525
21
-102.905
0
LINE
8
0
10
284.525
20
-102.905
11
284.525
21
-100.0475
0
LINE
8
0
10
263.475
20
-102.905
11
263.475
21
-43.755
0
LINE
8
0
10
282.475
20
-43.755
11
263.475
21
-43.755
0
LINE
8
0
10
253.482903
20
-136.9154788
11
272.2000268
21
-130.1030028
0
LINE
8
0
10
272.2000268
20
-130.1030028
11
270.8955272
21
-126.5189195
0
LINE
8
0
10
258.5021201
20
-92.4683134
11
269.6663733
21
-123.141847
0
LINE
8
0
10
238.7215905
20
-99.6678374
11
249.4795762
21
-129.2251601
0
LINE
8
0
10
258.5021201
20
-92.4683134
11
238.7215905
21
-99.6678374
0
LINE
8
0
10
238.0937432
20
-147.6910844
11
253.482903
21
-136.9154788
0
LINE
8
0
10
231.4381619
20
-103.4593503
11
249.4795762
21
-129.2251601
0
LINE
8
0
10
214.1950113
20
-115.5331343
11
232.2364255
21
-141.2989441
0
LINE
8
0
10
231.4381619
20
-103.4593503
11
214.1950113
21
-115.5331343
0
LINE
8
0
10
225.2904761
20
-162.949424
11
238.0937432
21
-147.6910844
0
LINE
8
0
10
232.2364255
20
-141.2989441
11
222.6959197
21
-133.2935092
0
LINE
8
0
10
222.6959197
20
-133.2935092
11
209.1652405
21
-149.4187448
0
LINE
8
0
10
209.1652405
20
-149.4187448
11
225.2904761
21
-162.949424
0
LINE
8
0
10
270.8955272
20
-126.5189195
11
290.7163733
21
-126.5189195
0
LINE
8
0
10
290.7163733
20
-126.5189195
11
290.7163733
21
-105.4689195
0
LINE
8
0
10
290.7163733
20
-105.4689195
11
269.6663733
21
-105.4689195
0
LINE
8
0
10
269.6663733
20
-105.4689195
11
269.6663733
21
-123.141847
0
ENDSEC
0
EOF