0
SECTION
2
HEADER
9
$INSUNITS
70
4
0
ENDSEC
0
SECTION
2
TABLES
0
TABLE
2
LTYPE
0
LTYPE
72
65
70
64
2
CONTINUOUS
3
______
73
0
40
0
0
ENDTAB
0
TABLE
2
LAYER
0
ENDTAB
0
ENDSEC
0
SECTION
2
ENTITIES
0
LINE
8
0
10
382.525
20
-113.525
11
398.525
21
-113.525
0
ARC
8
0
10
398.525
20
-110.525
40
3
50
270
51
360
0
LINE
8
0
10
401.525
20
-110.525
11
401.525
21
-70.425
0
ARC
8
0
10
398.525
20
-70.425
40
3
50
0
51
90
0
LINE
8
0
10
398.525
20
-67.425
11
384.525
21
-67.425
0
LINE
8
0
10
382.525
20
-65.425
11
382.525
21
-55.185
0
ARC
8
0
10
379.525
20
-55.185
40
3
50
0
51
90
0
LINE
8
0
10
379.525
20
-52.185
11
365.525
21
-52.185
0
LINE
8
0
10
363.525
20
-50.185
11
363.525
21
-39.945
0
ARC
8
0
10
360.525
20
-39.945
40
3
50
0
51
90
0
LINE
8
0
10
360.525
20
-36.945
11
344.525
21
-36.945
0
LINE
8
0
10
344.525
20
-36.945
11
344.525
21
-35.1825
0
ARC
8
0
10
341.525
20
-35.1825
40
3
50
0
51
90
0
LINE
8
0
10
341.525
20
-32.1825
11
320.475
21
-32.1825
0
ARC
8
0
10
320.475
20
-35.1825
40
3
50
90
51
180
0
LINE
8
0
10
317.475
20
-35.1825
11
317.475
21
-35.8975
0
LINE
8
0
10
315.475
20
-37.8975
11
301.475
21
-37.8975
0
ARC
8
0
10
301.475
20
-40.8975
40
3
50
90
51
154.627596
0
LINE
8
0
10
296.9572911
20
-40.755
11
282.475
21
-40.755
0
ARC
8
0
10
282.475
20
-43.755
40
3
50
90
51
180
0
LINE
8
0
10
279.475
20
-43.755
11
279.475
21
-48.28
0
LINE
8
0
10
277.475
20
-50.28
11
263.425
21
-50.28
0
ARC
8
0
10
263.425
20
-53.28
40
3
50
90
51
180
0
LINE
8
0
10
260.425
20
-53.28
11
260.425
21
-74.33
0
ARC
8
0
10
263.425
20
-74.33
40
3
50
180
51
270
0
LINE
8
0
10
263.425
20
-77.33
11
277.475
21
-77.33
0
LINE
8
0
10
279.475
20
-87.468387
11
279.475
21
-79.33
0
ARC
8
0
10
277.5021201
20
-92.4683134
40
3
50
90.310775
51
109.9999992
0
LINE
8
0
10
276.4760597
20
-89.6492355
11
256.6955301
21
-96.8487595
0
ARC
8
0
10
257.7215905
20
-99.6678374
40
3
50
109.9999992
51
200
0
LINE
8
0
10
254.9025126
20
-100.6938978
11
257.8667956
21
-108.8381983
0
LINE
8
0
10
252.895618
20
-101.738621
11
257.8667956
21
-108.8381983
0
ARC
8
0
10
250.4381619
20
-103.4593503
40
3
50
35
51
125.0000002
0
LINE
8
0
10
248.7174326
20
-101.0018942
11
231.474282
21
-113.0756782
0
ARC
8
0
10
233.1950113
20
-115.5331343
40
3
50
125.0000002
51
215
0
LINE
8
0
10
230.7375552
20
-117.2538636
11
240.1629631
21
-130.7147413
0
ARC
8
0
10
241.6959197
20
-133.2935092
40
3
50
120.7294983
51
140.0000005
0
LINE
8
0
10
239.3977864
20
-131.3651464
11
225.8671072
21
-147.490382
0
ARC
8
0
10
228.1652405
20
-149.4187448
40
3
50
140.0000001
51
230.0000001
0
LINE
8
0
10
226.2368777
20
-151.7168781
11
242.3621133
21
-165.2475573
0
ARC
8
0
10
244.2904761
20
-162.949424
40
3
50
230.0000001
51
320.0000001
0
LINE
8
0
10
246.5886094
20
-164.8777868
11
258.9687535
21
-150.1237056
0
LINE
8
0
10
259.3536895
20
-149.7709767
11
273.6644154
21
-139.7504986
0
LINE
8
0
10
274.1275281
20
-139.5094175
11
292.2260873
21
-132.9220807
0
ARC
8
0
10
291.2000268
20
-130.1030028
40
3
50
290
51
343.5497115
0
LINE
8
0
10
295.9953558
20
-129.5189195
11
309.7163733
21
-129.5189195
0
ARC
8
0
10
309.7163733
20
-126.5189195
40
3
50
270
51
360
0
LINE
8
0
10
312.7163733
20
-126.5189195
11
312.7163733
21
-105.4689195
0
ARC
8
0
10
309.7163733
20
-105.4689195
40
3
50
0
51
4.8348476
0
LINE
8
0
10
314.6985822
20
-103.0475
11
322.525
21
-103.0475
0
ARC
8
0
10
322.525
20
-100.0475
40
3
50
270
51
360
0
LINE
8
0
10
325.525
20
-100.0475
11
325.525
21
-99.3325
0
LINE
8
0
10
327.525
20
-97.3325
11
336.475
21
-97.3325
0
LINE
8
0
10
336.475
20
-97.3325
11
336.475
21
-99.095
0
ARC
8
0
10
339.475
20
-99.095
40
3
50
180
51
270
0
LINE
8
0
10
339.475
20
-102.095
11
353.475
21
-102.095
0
LINE
8
0
10
355.475
20
-104.095
11
355.475
21
-114.335
0
ARC
8
0
10
358.475
20
-114.335
40
3
50
180
51
270
0
LINE
8
0
10
358.475
20
-117.335
11
379.525
21
-117.335
0
ARC
8
0
10
379.525
20
-114.335
40
3
50
270
51
360
0
LINE
8
0
10
382.525
20
-114.335
11
382.525
21
-113.525
0
LINE
8
0
10
285.5852074
20
-105.905
11
285.6663733
21
-105.905
0
LINE
8
0
10
285.6663733
20
-105.905
11
285.6663733
21
-106.1280015
0
LINE
8
0
10
285.5852074
20
-105.905
11
285.6663733
21
-106.1280015
0
ARC
8
0
10
384.525
20
-65.425
40
2
50
180
51
270
0
ARC
8
0
10
365.525
20
-50.185
40
2
50
180
51
270
0
ARC
8
0
10
315.475
20
-35.8975
40
2
50
270
51
0
0
ARC
8
0
10
296.9572911
20
-38.755
40
2
50
270
51
334.627596
0
ARC
8
0
10
277.475
20
-48.28
40
2
50
270
51
0
0
ARC
8
0
10
277.475
20
-79.33
40
2
50
0
51
90
0
ARC
8
0
10
277.475
20
-87.468387
40
2
50
270.310775
51
0
0
ARC
8
0
10
260.5008423
20
-151.4092808
40
2
50
124.9999997
51
139.9999988
0
ARC
8
0
10
274.8115683
20
-141.3888027
40
2
50
109.9999981
51
124.9999997
0
ARC
8
0
10
295.9953558
20
-131.5189195
40
2
50
90
51
163.5497115
0
ARC
8
0
10
314.6985822
20
-105.0475
40
2
50
90
51
184.8348476
0
ARC
8
0
10
327.525
20
-99.3325
40
2
50
90
51
180
0
ARC
8
0
10
353.475
20
-104.095
40
2
50
0
51
90
0
ENDSEC
0
EOF